<svg width="48" height="48" viewBox="0 0 48 48" fill="none" xmlns="http://www.w3.org/2000/svg">
  <rect width="48" height="48" fill="white" fill-opacity="0.01"/>
  <polygon fill="#2F88FF" points="30.3692308 3.92884615 17.4115385 3.92884615 6.47307692 22.8173077 15.5538462 22.8173077 12.075 36.7211538 30.525 19.1192308 18.3519231 19.1192308"></polygon>
  <path d="M39.1788462,15.1903846 L26.4692308,15.1903846 L37.8980769,0.75 C38.1346154,0.444230769 37.9211538,0 37.5346154,0 L15.4096154,0 C15.2480769,0 15.0923077,0.0865384615 15.0115385,0.230769231 L0.0634615385,26.0480769 C-0.115384615,26.3538462 0.103846154,26.7403846 0.461538462,26.7403846 L10.5230769,26.7403846 L5.36538462,47.3711538 C5.25576923,47.8211538 5.79807692,48.1384615 6.13269231,47.8153846 L39.4961538,15.9807692 C39.7961538,15.6980769 39.5942308,15.1903846 39.1788462,15.1903846 Z M12.075,36.7211538 L15.5538462,22.8173077 L6.47307692,22.8173077 L17.4115385,3.92884615 L30.3692308,3.92884615 L18.3519231,19.1192308 L30.525,19.1192308 L12.075,36.7211538 Z" fill="#000"></path>
</svg>
