<svg width="48" height="48" viewBox="0 0 48 48" fill="none" xmlns="http://www.w3.org/2000/svg">
  <rect width="48" height="48" fill="white" fill-opacity="0.01"/>
  <path d="M32.16,21.6 C32.16,21.864 31.944,22.08 31.68,22.08 L28.32,22.08 C28.056,22.08 27.84,21.864 27.84,21.6 L27.84,16.32 L14.4,16.32 L14.4,21.6 C14.4,21.864 14.184,22.08 13.92,22.08 L10.56,22.08 C10.296,22.08 10.08,21.864 10.08,21.6 L10.08,16.32 L4.32,16.32 L4.32,43.68 L37.92,43.68 L37.92,16.32 L32.16,16.32 L32.16,21.6 Z" fill="#2F88FF"></path>
  <path d="M40.32,12 L32.16,12 L32.16,11.04 C32.16,4.944 27.216,0 21.12,0 C15.024,0 10.08,4.944 10.08,11.04 L10.08,12 L1.92,12 C0.858,12 0,12.858 0,13.92 L0,46.08 C0,47.142 0.858,48 1.92,48 L40.32,48 C41.382,48 42.24,47.142 42.24,46.08 L42.24,13.92 C42.24,12.858 41.382,12 40.32,12 Z M14.4,11.04 C14.4,7.326 17.406,4.32 21.12,4.32 C24.834,4.32 27.84,7.326 27.84,11.04 L27.84,12 L14.4,12 L14.4,11.04 Z M37.92,43.68 L4.32,43.68 L4.32,16.32 L10.08,16.32 L10.08,21.6 C10.08,21.864 10.296,22.08 10.56,22.08 L13.92,22.08 C14.184,22.08 14.4,21.864 14.4,21.6 L14.4,16.32 L27.84,16.32 L27.84,21.6 C27.84,21.864 28.056,22.08 28.32,22.08 L31.68,22.08 C31.944,22.08 32.16,21.864 32.16,21.6 L32.16,16.32 L37.92,16.32 L37.92,43.68 Z" fill="#000"></path>
</svg>
