<svg width="48" height="48" viewBox="0 0 48 48" fill="none" xmlns="http://www.w3.org/2000/svg">
  <rect width="48" height="48" fill="white" fill-opacity="0.01"/>
  <path d="M47.8557937,44.5498079 L32.2738608,28.9678751 C34.6918504,25.8418886 35.9998448,22.0199051 35.9998448,17.9999224 C35.9998448,13.1879431 34.1218529,8.67596259 30.7258675,5.27397726 C27.3298822,1.87199193 22.8059017,0 17.9999224,0 C13.1939431,0 8.66996262,1.8779919 5.27397726,5.27397726 C1.87199193,8.66996262 0,13.1879431 0,17.9999224 C0,22.8059017 1.8779919,27.3298822 5.27397726,30.7258675 C8.66996262,34.1278529 13.1879431,35.9998448 17.9999224,35.9998448 C22.0199051,35.9998448 25.8358886,34.6918504 28.9618751,32.2798608 L44.5438079,47.8557937 C44.6360838,47.9481245 44.7612698,48 44.8918064,48 C45.0223431,48 45.147529,47.9481245 45.2398049,47.8557937 L47.8557937,45.2458049 C47.9481245,45.153529 48,45.0283431 48,44.8978064 C48,44.7672698 47.9481245,44.6420838 47.8557937,44.5498079 Z M27.5038814,27.5038814 C24.9598924,30.0418705 21.5879069,31.4398644 17.9999224,31.4398644 C14.4119379,31.4398644 11.0399524,30.0418705 8.49596337,27.5038814 C5.95797431,24.9598924 4.55998034,21.5879069 4.55998034,17.9999224 C4.55998034,14.4119379 5.95797431,11.0339524 8.49596337,8.49596337 C11.0399524,5.95797431 14.4119379,4.55998034 17.9999224,4.55998034 C21.5879069,4.55998034 24.9658924,5.95197434 27.5038814,8.49596337 C30.0418705,11.0399524 31.4398644,14.4119379 31.4398644,17.9999224 C31.4398644,21.5879069 30.0418705,24.9658924 27.5038814,27.5038814 Z" fill="#000"></path>
</svg>
