<svg width="48" height="48" viewBox="0 0 48 48" fill="none" xmlns="http://www.w3.org/2000/svg">
  <rect width="48" height="48" fill="white" fill-opacity="0.01"/>
  <path fill="#000" d="M38.8391646,25.6235531 C36.7659229,24.9324725 33.9801718,23.8717442 30.8837023,22.7520865 C32.7480126,19.5216867 34.2319608,15.8412809 35.2069737,11.8447995 L24.9907672,11.8447995 L24.9907672,8.16975087 L37.5052184,8.16975087 L37.5052184,6.11793803 L24.9907672,6.11793803 L24.9907672,0 L19.8799854,0 C18.9853307,0 18.9853307,0.883940258 18.9853307,0.883940258 L18.9853307,6.12329524 L6.33159195,6.12329524 L6.33159195,8.17510809 L18.9906879,8.17510809 L18.9906879,11.8501567 L8.53876399,11.8501567 L8.53876399,13.9019695 L28.8104606,13.9019695 C28.0962881,16.3733707 27.1173891,18.7604472 25.8907791,21.0217065 C19.3121207,18.8573922 12.2941708,17.1002261 7.88518392,18.1823833 C5.06728952,18.878821 3.25119408,20.1163374 2.17975134,21.4127831 C-2.71674197,27.3592903 0.792232995,36.3915526 11.1370126,36.3915526 C17.2495934,36.3861954 23.1425285,32.9790075 27.7068746,27.3753619 C34.5158932,30.6432623 48,36.252265 48,36.252265 L48,28.253945 C48,28.253945 46.3071205,28.1200146 38.8391646,25.6235531 Z M10.1727142,32.9254353 C2.11010756,32.9254353 -0.273852529,26.5878515 3.71191445,23.1163771 C5.04050345,21.9431473 7.47267846,21.3699254 8.76912417,21.2413523 C13.5584732,20.7699175 17.9942461,22.5913701 23.2282439,25.1414038 C19.5424809,29.9361101 14.8549189,32.9254353 10.1727142,32.9254353 L10.1727142,32.9254353 Z"></path>
</svg>
