<svg width="48" height="48" viewBox="0 0 48 48" fill="none" xmlns="http://www.w3.org/2000/svg">
  <rect width="48" height="48" fill="white" fill-opacity="0.01"/>
  <path d="M24.620768,10.6604752 L21.9361175,10.6604752 C21.6905362,10.6604752 21.489606,10.8614053 21.489606,11.1069867 L21.489606,26.4725639 C21.489606,26.6176802 21.5565827,26.7516336 21.673792,26.8353545 L30.899836,33.5720969 C31.1007662,33.7172131 31.3798359,33.6781434 31.5249521,33.4772132 L33.1212308,31.3004696 C33.2719284,31.093958 33.2272773,30.8148883 33.0263471,30.6753535 L25.0672795,24.9209364 L25.0672795,11.1069867 C25.0672795,10.8614053 24.8663493,10.6604752 24.620768,10.6604752 Z M36.8886716,14.8576833 L45.6402972,16.9953572 C45.9193669,17.0623339 46.1928552,16.8502409 46.1928552,16.5655898 L46.2375063,7.55163878 C46.2375063,7.1776854 45.807739,6.96559243 45.5175065,7.20001097 L36.7212298,14.0707068 C36.5855649,14.1756545 36.5220066,14.349037 36.5577011,14.5168014 C36.5933957,14.6845658 36.7220332,14.8170555 36.8886716,14.8576833 L36.8886716,14.8576833 Z M46.2486691,31.6632602 L43.0840188,30.5748884 C42.8545342,30.4962269 42.6042275,30.6151845 42.520298,30.8427953 C42.4142515,31.1274464 42.3026237,31.4065161 42.1854144,31.6855858 C41.1919263,34.0353526 39.7686709,36.1507009 37.9491365,37.9646539 C36.1498051,39.7695697 34.0173828,41.2082439 31.6700684,42.2009318 C29.2384032,43.2290171 26.624553,43.7567225 23.9844891,43.7525593 C21.3165828,43.7525593 18.7323974,43.2334897 16.2989097,42.2009318 C13.9515953,41.2082439 11.819173,39.7695697 10.0198417,37.9646539 C8.20588865,36.1507009 6.78263322,34.0353526 5.78356372,31.6855858 C4.76114563,29.2525615 4.23731827,26.6391185 4.24309902,24.0000064 C4.24309902,21.3321002 4.76216865,18.7423334 5.79472651,16.3088457 C6.78821461,13.9590789 8.21147005,11.8437307 10.0310044,10.0297777 C11.8303358,8.22486186 13.9627581,6.78618761 16.3100725,5.79349972 C18.7323974,4.76094186 21.3221642,4.24187223 23.9900705,4.24187223 C26.6579767,4.24187223 29.2421621,4.76094186 31.6756498,5.79349972 C34.0229642,6.78618761 36.1553865,8.22486186 37.9547179,10.0297777 C38.52402,10.6046612 39.0598338,11.2018704 39.5509965,11.8325679 L42.88867,9.22047554 C38.4961131,3.60559333 31.6589056,-0.00556848741 23.9789077,6.44575008e-06 C10.605888,0.00559430029 -0.132713757,10.8669867 0.00123969546,24.2455878 C0.135193148,37.3897703 10.8235624,48.0000064 23.9900705,48.0000064 C34.343556,48.0000064 43.1621583,41.4362808 46.5221574,32.2437252 C46.6058783,32.0093066 46.4830877,31.7469811 46.2486691,31.6632602 L46.2486691,31.6632602 Z" fill="#000"></path>
</svg>
