<svg width="48" height="48" viewBox="0 0 48 48" fill="none" xmlns="http://www.w3.org/2000/svg">
  <rect width="48" height="48" fill="white" fill-opacity="0.01"/>
  <path fill="#000" d="M3.39006764,4.12208224 C3.39006764,6.3986454 5.23558672,8.24416449 7.51214988,8.24416449 C9.78871304,8.24416449 11.6342321,6.3986454 11.6342321,4.12208224 C11.6342321,1.84551908 9.78871304,0 7.51214988,0 C5.23558672,0 3.39006764,1.84551908 3.39006764,4.12208224 L3.39006764,4.12208224 Z M47.1909415,8.87417706 C47.1909415,8.87417706 45.7689132,-2.1900437 21.5764305,4.66809314 C22.6144512,2.86805722 23.1124611,1.69803388 23.1124611,1.69803388 L17.0643405,0 C17.0643405,0 14.6282919,7.95615874 10.2842052,11.6642327 C10.2842052,11.6642327 14.4902891,14.1002813 14.4482883,14.0282799 C15.6543123,12.8222558 16.740334,11.5922313 17.6703526,10.4042076 C18.6363718,9.9841992 19.5603903,9.5881913 20.4724085,9.21618388 C19.3563862,11.226224 17.5503502,14.2442842 15.7443141,16.1523223 L18.2883649,18.3723666 C18.2883649,18.3723666 20.0163994,16.7103334 21.9124372,14.7002933 L24.0724803,14.7002933 L24.0724803,18.4083673 L15.6543123,18.4083673 L15.6543123,21.3784265 L24.0724803,21.3784265 L24.0724803,28.4885684 C23.9704783,28.4885684 23.856476,28.4885684 23.7484738,28.4765682 C22.8244554,28.4345673 21.3784265,28.2785642 20.8084152,27.3845464 C20.1184014,26.2985247 20.6284116,24.2944847 20.6644123,23.0704603 L14.8442962,23.0704603 L14.6402921,23.1784625 C14.6402921,23.1784625 12.5102496,32.7246529 20.7784146,32.5086486 C28.5245691,32.7246529 32.9586576,30.3486055 35.0947002,28.7225731 L35.9467172,31.878636 L40.7228125,29.8865963 L37.488748,21.9724384 L33.6126706,23.1784625 L34.3386851,25.8905166 C33.3426652,26.6345314 32.2026425,27.1925425 30.9666178,27.5945506 L30.9666178,21.3784265 L39.192782,21.3784265 L39.192782,18.4083673 L30.9666178,18.4083673 L30.9666178,14.7002933 L39.2227826,14.7002933 L39.2227826,11.730234 L24.55849,11.730234 C25.6145111,10.4462084 26.4485277,9.26418484 26.6585319,8.51416987 L24.108481,7.81815599 C35.0766998,3.88807757 41.1788216,4.5660911 41.1248205,11.0102197 L41.1248205,27.9785582 C41.1248205,27.9785582 41.7728334,33.8046745 35.1007003,33.3846661 L31.4886283,32.6106506 L30.6366113,36.036719 C30.6366113,36.036719 46.2309224,40.5008081 47.5029478,28.5125689 C48.7809733,16.5123295 47.1909415,8.87417706 47.1909415,8.87417706 Z M4.74609469,9.97219896 L2.02204034,14.1542824 L7.03814042,17.2803448 C7.03814042,17.2803448 10.3982075,18.9903789 8.80217562,22.1944428 C7.30814581,25.2305034 0,31.878636 0,31.878636 L6.54013049,35.9647176 C11.0642208,26.1425216 10.7702149,27.4445476 11.9102376,23.9224773 C13.080261,20.3164053 13.332266,17.5683505 11.3462264,15.5763108 C8.80217562,13.0202598 8.52617011,12.780255 4.74609469,9.97219896 Z"></path>
</svg>
