<svg width="48" height="48" viewBox="0 0 48 48" fill="none" xmlns="http://www.w3.org/2000/svg">
  <rect width="48" height="48" fill="white" fill-opacity="0.01"/>
  <path d="M34.4854369,0 C30.8854369,0 27.961165,2.92427184 27.961165,6.52427184 C27.961165,9.30291262 29.7029126,11.6796117 32.1553398,12.6174757 L32.1553398,14.2252427 L20.5048544,29.207767 L8.85436893,14.2252427 L8.85436893,12.6174757 C11.3067961,11.6796117 13.0485437,9.30291262 13.0485437,6.52427184 C13.0485437,2.92427184 10.1242718,0 6.52427184,0 C2.92427184,0 0,2.92427184 0,6.52427184 C0,9.47184466 1.96893204,11.9708738 4.66019417,12.7747573 L4.66019417,14.7786408 C4.66019417,15.3436893 4.85242718,15.9029126 5.20194175,16.3514563 L18.407767,33.3378641 L18.407767,35.2951456 C15.8330097,36.168932 13.9805825,38.6097087 13.9805825,41.4757282 C13.9805825,45.0757282 16.9048544,48 20.5048544,48 C24.1048544,48 27.0291262,45.0757282 27.0291262,41.4757282 C27.0291262,38.6097087 25.176699,36.1747573 22.6019417,35.2951456 L22.6019417,33.3378641 L35.807767,16.3514563 C36.1572816,15.9029126 36.3495146,15.3436893 36.3495146,14.7786408 L36.3495146,12.7747573 C39.0407767,11.9708738 41.0097087,9.47184466 41.0097087,6.52427184 C41.0097087,2.92427184 38.0854369,0 34.4854369,0 Z M3.72815534,6.52427184 C3.7592249,5.00225996 5.00194287,3.78465128 6.52427184,3.78465128 C8.04660082,3.78465128 9.28931879,5.00225996 9.32038835,6.52427184 C9.28931879,8.04628373 8.04660082,9.26389241 6.52427184,9.26389241 C5.00194287,9.26389241 3.7592249,8.04628373 3.72815534,6.52427184 L3.72815534,6.52427184 Z M23.3009709,41.4757282 C23.2699013,42.99774 22.0271833,44.2153487 20.5048544,44.2153487 C18.9825254,44.2153487 17.7398074,42.99774 17.7087379,41.4757282 C17.7398074,39.9537163 18.9825254,38.7361076 20.5048544,38.7361076 C22.0271833,38.7361076 23.2699013,39.9537163 23.3009709,41.4757282 L23.3009709,41.4757282 Z M34.4854369,9.32038835 C32.963425,9.28931879 31.7458163,8.04660082 31.7458163,6.52427184 C31.7458163,5.00194287 32.963425,3.7592249 34.4854369,3.72815534 C36.0074488,3.7592249 37.2250575,5.00194287 37.2250575,6.52427184 C37.2250575,8.04660082 36.0074488,9.28931879 34.4854369,9.32038835 Z" fill="#000"></path>
</svg>
