<svg width="48" height="48" viewBox="0 0 48 48" fill="none" xmlns="http://www.w3.org/2000/svg">
  <rect width="48" height="48" fill="white" fill-opacity="0.01"/>
  <path d="M37.4854369,0 C33.8854369,0 30.961165,2.92427184 30.961165,6.52427184 C30.961165,9.30291262 32.7029126,11.6796117 35.1553398,12.6174757 L35.1553398,14.2252427 L23.5048544,29.207767 L11.8543689,14.2252427 L11.8543689,12.6174757 C14.3067961,11.6796117 16.0485437,9.30291262 16.0485437,6.52427184 C16.0485437,2.92427184 13.1242718,0 9.52427184,0 C5.92427184,0 3,2.92427184 3,6.52427184 C3,9.47184466 4.96893204,11.9708738 7.66019417,12.7747573 L7.66019417,14.7786408 C7.66019417,15.3436893 7.85242718,15.9029126 8.20194175,16.3514563 L21.407767,33.3378641 L21.407767,35.2951456 C18.8330097,36.168932 16.9805825,38.6097087 16.9805825,41.4757282 C16.9805825,45.0757282 19.9048544,48 23.5048544,48 C27.1048544,48 30.0291262,45.0757282 30.0291262,41.4757282 C30.0291262,38.6097087 28.176699,36.1747573 25.6019417,35.2951456 L25.6019417,33.3378641 L38.807767,16.3514563 C39.1572816,15.9029126 39.3495146,15.3436893 39.3495146,14.7786408 L39.3495146,12.7747573 C42.0407767,11.9708738 44.0097087,9.47184466 44.0097087,6.52427184 C44.0097087,2.92427184 41.0854369,0 37.4854369,0 Z M6.72815534,6.52427184 C6.7592249,5.00225996 8.00194287,3.78465128 9.52427184,3.78465128 C11.0466008,3.78465128 12.2893188,5.00225996 12.3203883,6.52427184 C12.2893188,8.04628373 11.0466008,9.26389241 9.52427184,9.26389241 C8.00194287,9.26389241 6.7592249,8.04628373 6.72815534,6.52427184 L6.72815534,6.52427184 Z M26.3009709,41.4757282 C26.2699013,42.99774 25.0271833,44.2153487 23.5048544,44.2153487 C21.9825254,44.2153487 20.7398074,42.99774 20.7087379,41.4757282 C20.7398074,39.9537163 21.9825254,38.7361076 23.5048544,38.7361076 C25.0271833,38.7361076 26.2699013,39.9537163 26.3009709,41.4757282 L26.3009709,41.4757282 Z M37.4854369,9.32038835 C35.963425,9.28931879 34.7458163,8.04660082 34.7458163,6.52427184 C34.7458163,5.00194287 35.963425,3.7592249 37.4854369,3.72815534 C39.0074488,3.7592249 40.2250575,5.00194287 40.2250575,6.52427184 C40.2250575,8.04660082 39.0074488,9.28931879 37.4854369,9.32038835 Z" fill="#000"></path>
</svg>
