<svg width="48" height="48" viewBox="0 0 48 48" fill="none" xmlns="http://www.w3.org/2000/svg">
  <rect width="48" height="48" fill="white" fill-opacity="0.01"/>
  <path d="M15.3142857,3.88571429 L32.6857143,3.88571429 L32.6857143,12.5714286 L15.3142857,12.5714286 L15.3142857,3.88571429 Z M43.4285714,16.4571429 L4.57142857,16.4571429 C4.19428571,16.4571429 3.88571429,16.7657143 3.88571429,17.1428571 L3.88571429,33.8285714 L11.4285714,33.8285714 L11.4285714,22.1714286 L36.5714286,22.1714286 L36.5714286,33.8285714 L44.1142857,33.8285714 L44.1142857,17.1428571 C44.1142857,16.7657143 43.8057143,16.4571429 43.4285714,16.4571429 Z M42.0571429,21.2571429 C42.0571429,21.5085714 41.8514286,21.7142857 41.6,21.7142857 L39.3142857,21.7142857 C39.0628571,21.7142857 38.8571429,21.5085714 38.8571429,21.2571429 L38.8571429,18.9714286 C38.8571429,18.72 39.0628571,18.5142857 39.3142857,18.5142857 L41.6,18.5142857 C41.8514286,18.5142857 42.0571429,18.72 42.0571429,18.9714286 L42.0571429,21.2571429 Z" fill="#2F88FF"></path>
  <path d="M43.4285714,12.5714286 L36.5714286,12.5714286 L36.5714286,0.457142857 C36.5714286,0.205714286 36.3657143,0 36.1142857,0 L11.8857143,0 C11.6342857,0 11.4285714,0.205714286 11.4285714,0.457142857 L11.4285714,12.5714286 L4.57142857,12.5714286 C2.04571429,12.5714286 0,14.6171429 0,17.1428571 L0,35.8857143 C0,36.8971429 0.817142857,37.7142857 1.82857143,37.7142857 L11.4285714,37.7142857 L11.4285714,45.2571429 C11.4285714,45.5085714 11.6342857,45.7142857 11.8857143,45.7142857 L36.1142857,45.7142857 C36.3657143,45.7142857 36.5714286,45.5085714 36.5714286,45.2571429 L36.5714286,37.7142857 L46.1714286,37.7142857 C47.1828571,37.7142857 48,36.8971429 48,35.8857143 L48,17.1428571 C48,14.6171429 45.9542857,12.5714286 43.4285714,12.5714286 Z M15.3142857,3.88571429 L32.6857143,3.88571429 L32.6857143,12.5714286 L15.3142857,12.5714286 L15.3142857,3.88571429 Z M32.6857143,41.8285714 L15.3142857,41.8285714 L15.3142857,26.0571429 L32.6857143,26.0571429 L32.6857143,41.8285714 Z M44.1142857,33.8285714 L36.5714286,33.8285714 L36.5714286,22.1714286 L11.4285714,22.1714286 L11.4285714,33.8285714 L3.88571429,33.8285714 L3.88571429,17.1428571 C3.88571429,16.7657143 4.19428571,16.4571429 4.57142857,16.4571429 L43.4285714,16.4571429 C43.8057143,16.4571429 44.1142857,16.7657143 44.1142857,17.1428571 L44.1142857,33.8285714 Z" fill="#000"></path>
  <path d="M41.6,18.5142857 L39.3142857,18.5142857 C39.0628571,18.5142857 38.8571429,18.72 38.8571429,18.9714286 L38.8571429,21.2571429 C38.8571429,21.5085714 39.0628571,21.7142857 39.3142857,21.7142857 L41.6,21.7142857 C41.8514286,21.7142857 42.0571429,21.5085714 42.0571429,21.2571429 L42.0571429,18.9714286 C42.0571429,18.72 41.8514286,18.5142857 41.6,18.5142857 Z" fill="#000"></path>
</svg>
