<svg width="48" height="48" viewBox="0 0 48 48" fill="none" xmlns="http://www.w3.org/2000/svg">
  <rect width="48" height="48" fill="white" fill-opacity="0.01"/>
  <path d="M8.80733945,9.90825688 C8.56513761,9.90825688 8.36697248,10.106422 8.36697248,10.3486239 L8.36697248,12.9908257 C8.36697248,13.2330275 8.56513761,13.4311927 8.80733945,13.4311927 L29.9449541,13.4311927 C30.187156,13.4311927 30.3853211,13.2330275 30.3853211,12.9908257 L30.3853211,10.3486239 C30.3853211,10.106422 30.187156,9.90825688 29.9449541,9.90825688 L8.80733945,9.90825688 Z M19.3761468,20.9174312 L19.3761468,18.2752294 C19.3761468,18.0330275 19.1779817,17.8348624 18.9357798,17.8348624 L8.80733945,17.8348624 C8.56513761,17.8348624 8.36697248,18.0330275 8.36697248,18.2752294 L8.36697248,20.9174312 C8.36697248,21.159633 8.56513761,21.3577982 8.80733945,21.3577982 L18.9357798,21.3577982 C19.1779817,21.3577982 19.3761468,21.159633 19.3761468,20.9174312 Z M16.733945,42.7155963 L3.96330275,42.7155963 L3.96330275,3.96330275 L34.7889908,3.96330275 L34.7889908,22.8990826 C34.7889908,23.1412844 34.987156,23.3394495 35.2293578,23.3394495 L38.3119266,23.3394495 C38.5541284,23.3394495 38.7522936,23.1412844 38.7522936,22.8990826 L38.7522936,1.76146789 C38.7522936,0.787155963 37.9651376,0 36.9908257,0 L1.76146789,0 C0.787155963,0 5.68434189e-14,0.787155963 5.68434189e-14,1.76146789 L5.68434189e-14,44.9174312 C5.68434189e-14,45.8917431 0.787155963,46.6788991 1.76146789,46.6788991 L16.733945,46.6788991 C16.9761468,46.6788991 17.1743119,46.4807339 17.1743119,46.2385321 L17.1743119,43.1559633 C17.1743119,42.9137615 16.9761468,42.7155963 16.733945,42.7155963 Z M22.4642202,36.3522936 C22.5633028,34.453211 23.3559633,32.6752294 24.7100917,31.3211009 C26.1522936,29.8788991 28.1229358,29.0642202 30.1651376,29.0642202 C32.2238532,29.0642202 34.1614679,29.8678899 35.6201835,31.3211009 C35.7963303,31.4972477 35.9669725,31.6844037 36.1266055,31.8770642 L34.8550459,32.8623853 C34.7212478,32.9658888 34.6585642,33.1368853 34.6937675,33.3023411 C34.7289709,33.4677968 34.8558382,33.5984634 35.0201835,33.6385321 L40.1559633,34.8770642 C40.4311927,34.9431193 40.6954128,34.733945 40.7009174,34.453211 L40.7339652,29.2018349 C40.7355596,29.0330321 40.6405345,28.878162 40.4893121,28.8031369 C40.3380896,28.7281118 40.157287,28.7461371 40.0238532,28.8495413 L38.906422,29.7192661 C36.8477064,27.1706422 33.693578,25.5412844 30.1651376,25.5412844 C24.1155963,25.5412844 19.1779817,30.3247706 18.9357798,36.3137615 C18.9247706,36.5614679 19.1284404,36.7706422 19.3761468,36.7706422 L22.0238532,36.7706422 C22.2605505,36.7706422 22.453211,36.5889908 22.4642202,36.3522936 Z M40.9541284,36.7706422 L38.306422,36.7706422 C38.0697248,36.7706422 37.8770642,36.9522936 37.866055,37.1889908 C37.7669725,39.0880734 36.9743119,40.866055 35.6201835,42.2201835 C34.1779817,43.6623853 32.2073394,44.4770642 30.1651376,44.4770642 C28.106422,44.4770642 26.1688073,43.6733945 24.7100917,42.2201835 C24.533945,42.0440367 24.3633028,41.8568807 24.2036697,41.6642202 L25.4752294,40.6788991 C25.6090274,40.5753956 25.671711,40.4043991 25.6365077,40.2389433 C25.6013043,40.0734876 25.4744371,39.942821 25.3100917,39.9027523 L20.1743119,38.6642202 C19.8990826,38.5981651 19.6348624,38.8073394 19.6293578,39.0880734 L19.59631,44.3394495 C19.5947156,44.5082523 19.6897407,44.6631224 19.8409632,44.7381475 C19.9921856,44.8131726 20.1729883,44.7951473 20.306422,44.6917431 L21.4238532,43.8220183 C23.4825688,46.3706422 26.6366972,48 30.1651376,48 C36.2146789,48 41.1522936,43.2165138 41.3944954,37.2275229 C41.4055046,36.9798165 41.2018349,36.7706422 40.9541284,36.7706422 Z" fill="#000"></path>
</svg>
