<svg width="48" height="48" viewBox="0 0 48 48" fill="none" xmlns="http://www.w3.org/2000/svg">
  <rect width="48" height="48" fill="white" fill-opacity="0.01"/>
  <path d="M43.5681278,39.1718593 C42.4306038,36.4774226 40.7798511,34.0299666 38.7078263,31.9658291 C36.6420948,29.8957352 34.1950399,28.2452529 31.5017962,27.1055276 C31.4776756,27.0934673 31.453555,27.0874372 31.4294344,27.0753769 C35.1862183,24.361809 37.6284293,19.9417085 37.6284293,14.9547739 C37.6284293,6.69346734 30.934962,0 22.6736555,0 C14.4123489,0 7.71888159,6.69346734 7.71888159,14.9547739 C7.71888159,19.9417085 10.1610926,24.361809 13.9178766,27.081407 C13.893756,27.0934673 13.8696354,27.0994975 13.8455148,27.1115578 C11.1440072,28.2512563 8.71988662,29.8854271 6.63948461,31.9718593 C4.56939063,34.0375908 2.9189084,36.4846457 1.7791831,39.1778894 C0.659517785,41.814591 0.0556570554,44.6414781 0.000137655456,47.5055276 C-0.00296290249,47.6355479 0.0464234363,47.7613726 0.137248064,47.8544678 C0.228072692,47.9475631 0.352639794,48 0.482700687,48 L4.10079114,48 C4.36611777,48 4.57717305,47.7889447 4.5832032,47.5296482 C4.70380621,42.8743719 6.57315295,38.5145729 9.87767556,35.2100503 C13.296771,31.7909548 17.8374746,29.9095477 22.6736555,29.9095477 C27.5098364,29.9095477 32.0505399,31.7909548 35.4696354,35.2100503 C38.774158,38.5145729 40.6435047,42.8743719 40.7641077,47.5296482 C40.7701379,47.7949749 40.9811931,48 41.2465198,48 L44.8646102,48 C44.9946711,48 45.1192382,47.9475631 45.2100629,47.8544678 C45.3008875,47.7613726 45.3502738,47.6355479 45.3471733,47.5055276 C45.2867208,44.6231156 44.6897359,41.8190955 43.5681278,39.1718593 Z M22.6736555,25.3266332 C19.9058163,25.3266332 17.3007911,24.2472362 15.3409921,22.2874372 C13.3811931,20.3276382 12.3017962,17.7226131 12.3017962,14.9547739 C12.3017962,12.1869347 13.3811931,9.58190955 15.3409921,7.62211055 C17.3007911,5.66231156 19.9058163,4.58291457 22.6736555,4.58291457 C25.4414947,4.58291457 28.0465198,5.66231156 30.0063188,7.62211055 C31.9661178,9.58190955 33.0455148,12.1869347 33.0455148,14.9547739 C33.0455148,17.7226131 31.9661178,20.3276382 30.0063188,22.2874372 C28.0465198,24.2472362 25.4414947,25.3266332 22.6736555,25.3266332 Z" fill="#000"></path>
</svg>
