<svg width="48" height="48" viewBox="0 0 48 48" fill="none" xmlns="http://www.w3.org/2000/svg">
  <rect width="48" height="48" fill="white" fill-opacity="0.01"/>
  <path d="M12.7125,19.1089286 C11.4375,19.1089286 10.5589286,18.5464286 10.4839286,17.6678571 L7.55357143,17.6678571 C7.60178571,19.9928571 9.53035714,21.4339286 12.5839286,21.4339286 C15.75,21.4339286 17.6732143,19.9125 17.6732143,17.3892857 C17.6732143,15.4714286 16.6017857,14.3946429 14.2178571,13.9339286 L12.6589286,13.6339286 C11.3839286,13.3821429 10.8482143,12.9964286 10.8482143,12.3375 C10.8482143,11.5339286 11.5607143,11.025 12.6375,11.025 C13.7142857,11.025 14.5285714,11.6196429 14.5982143,12.4714286 L17.4375,12.4714286 C17.3892857,10.2375 15.4285714,8.70535714 12.6,8.70535714 C9.68571429,8.70535714 7.79464286,10.2535714 7.79464286,12.6160714 C7.79464286,14.5178571 8.93035714,15.7232143 11.1428571,16.1410714 L12.7339286,16.4571429 C14.1160714,16.7357143 14.6410714,17.0946429 14.6410714,17.7642857 C14.6464286,18.5517857 13.8642857,19.1089286 12.7125,19.1089286 L12.7125,19.1089286 Z" fill="#000"></path>
  <path d="M46.2857143,0 L1.71428571,0 C0.766071429,0 0,0.766071429 0,1.71428571 L0,28.2857143 C0,29.2339286 0.766071429,30 1.71428571,30 L22.0714286,30 L22.0714286,36 L12.8571429,36 C12.3857143,36 12,36.3857143 12,36.8571429 L12,39.4285714 C12,39.6642857 12.1928571,39.8571429 12.4285714,39.8571429 L35.5714286,39.8571429 C35.8071429,39.8571429 36,39.6642857 36,39.4285714 L36,36.8571429 C36,36.3857143 35.6142857,36 35.1428571,36 L25.9285714,36 L25.9285714,30 L46.2857143,30 C47.2339286,30 48,29.2339286 48,28.2857143 L48,1.71428571 C48,0.766071429 47.2339286,0 46.2857143,0 Z M44.1428571,26.1428571 L3.85714286,26.1428571 L3.85714286,3.85714286 L44.1428571,3.85714286 L44.1428571,26.1428571 Z" fill="#000"></path>
  <path d="M40.9553571,18.5732143 L35.8232143,18.5732143 L35.8232143,9.02678571 L32.7482143,9.02678571 L32.7482143,21.1071429 L40.9553571,21.1071429 L40.9553571,18.5732143 Z M24.9589286,21.4339286 C25.7142857,21.4339286 26.4160714,21.3267857 27.0535714,21.1232143 L27.7660714,22.2107143 L30.6214286,22.2107143 L29.1375,19.875 C30.2678571,18.8035714 30.9053571,17.1375 30.9053571,15.0642857 C30.9053571,11.1375 28.5857143,8.7 24.9642857,8.7 C21.3428571,8.7 19.0071336,11.1267857 19.0071336,15.0642857 C19.0017857,19.0125 21.3107143,21.4339286 24.9589286,21.4339286 Z M24.9589286,11.2553571 C26.6517857,11.2553571 27.7821429,12.7392857 27.7821429,15.0642857 C27.7821429,15.9589286 27.5892857,16.7035714 27.2464286,17.2339286 L26.9678571,16.8642857 L24.3535714,16.8642857 L25.6071429,18.8035714 C25.3982143,18.8517857 25.1785714,18.8785714 24.9535714,18.8785714 C23.2553571,18.8785714 22.125,17.4053571 22.125,15.0642857 C22.1303571,12.7285714 23.2607143,11.2553571 24.9589286,11.2553571 Z" fill="#000"></path>
</svg>
