<svg width="48" height="48" viewBox="0 0 48 48" fill="none" xmlns="http://www.w3.org/2000/svg">
  <rect width="48" height="48" fill="white" fill-opacity="0.01"/>
  <path d="M47.7167038,39.3407572 L25.4806236,0.855233853 C25.1492205,0.283296214 24.5772829,0 24,0 C23.4227171,0 22.8454343,0.283296214 22.5193764,0.855233853 L0.283296214,39.3407572 C-0.374164811,40.4846325 0.448997773,41.9064588 1.76391982,41.9064588 L46.2360802,41.9064588 C47.5510022,41.9064588 48.3741648,40.4846325 47.7167038,39.3407572 Z M5.46815145,38.0632517 L24,5.98129176 L42.5318486,38.0579065 L5.46815145,38.0579065 L5.46815145,38.0632517 Z M22.5193764,12.7216036 L10.332294,33.7817372 C9.67483296,34.9202673 10.4979955,36.3474388 11.8129176,36.3474388 L36.176392,36.3474388 C37.4966592,36.3474388 38.3198218,34.9202673 37.6570156,33.7817372 L25.4806236,12.7216036 C25.1492205,12.1496659 24.5719376,11.8663697 24,11.8663697 C23.4227171,11.8663697 22.8454343,12.1496659 22.5193764,12.7216036 Z M33.9581292,33.3541203 L14.0418708,33.3541203 L24,16.142539 L33.9581292,33.3541203 L33.9581292,33.3541203 Z M22.5193764,22.9790646 L19.4726058,28.2387528 C18.8151448,29.3719376 19.6383073,30.7884187 20.9532294,30.7884187 L27.0467706,30.7884187 C28.3616927,30.7884187 29.17951,29.3719376 28.5273942,28.2387528 L25.4806236,22.9790646 C25.1545657,22.4124722 24.5772829,22.1291759 24,22.1291759 C23.4227171,22.1291759 22.8507795,22.4124722 22.5193764,22.9790646 L22.5193764,22.9790646 Z M25.5714922,28.2387528 L22.433853,28.2387528 L24.0053452,25.5287305 L25.5714922,28.2387528 Z" fill="#000"></path>
</svg>
