<svg width="48" height="48" viewBox="0 0 48 48" fill="none" xmlns="http://www.w3.org/2000/svg">
  <rect width="48" height="48" fill="white" fill-opacity="0.01"/>
  <path d="M24,7.07142857 C18.6803571,7.07142857 13.6767857,9.14464286 9.91071429,12.9107143 C6.14464286,16.6714286 4.07142857,21.675 4.07142857,27 C4.07142857,32.6571429 6.45535714,38.0089286 10.6392857,41.7857143 L37.3607143,41.7857143 C41.5470334,38.011052 43.9342997,32.6367819 43.9285919,27 C43.9285919,21.6803571 41.8553571,16.6767857 38.0892857,12.9107143 C34.3285714,9.14464286 29.325,7.07142857 24,7.07142857 Z M22.3928571,9.42857143 C22.3928571,9.19285714 22.5857143,9 22.8214286,9 L25.1785714,9 C25.4142857,9 25.6071429,9.19285714 25.6071429,9.42857143 L25.6071429,13.7142857 C25.6071429,13.95 25.4142857,14.1428571 25.1785714,14.1428571 L22.8214286,14.1428571 C22.5857143,14.1428571 22.3928571,13.95 22.3928571,13.7142857 L22.3928571,9.42857143 Z M11.0357143,28.1785714 C11.0357143,28.4142857 10.8428571,28.6071429 10.6071429,28.6071429 L6.32142857,28.6071429 C6.08571429,28.6071429 5.89285714,28.4142857 5.89285714,28.1785714 L5.89285714,25.8214286 C5.89285714,25.5857143 6.08571429,25.3928571 6.32142857,25.3928571 L10.6071429,25.3928571 C10.8428571,25.3928571 11.0357143,25.5857143 11.0357143,25.8214286 L11.0357143,28.1785714 Z M15.8946429,17.2285714 L14.2285714,18.8946429 C14.060926,19.0606431 13.7908597,19.0606431 13.6232143,18.8946429 L10.5910714,15.8625 C10.4250712,15.6948546 10.4250712,15.4247883 10.5910714,15.2571429 L12.2571429,13.5910714 C12.4232143,13.425 12.6964286,13.425 12.8625,13.5910714 L15.8946429,16.6232143 C16.0607143,16.7892857 16.0607143,17.0625 15.8946429,17.2285714 L15.8946429,17.2285714 Z M31.4892857,21.7017857 L26.9625,26.2285714 C27.2303571,27.2303571 26.9732143,28.3392857 26.1857143,29.1267857 C25.6234455,29.6901184 24.8602065,30.006685 24.0642857,30.006685 C23.2683649,30.006685 22.5051259,29.6901184 21.9428571,29.1267857 C21.3795245,28.5645169 21.0629579,27.8012779 21.0629579,27.0053571 C21.0629579,26.2094363 21.3795245,25.4461974 21.9428571,24.8839286 C22.7000075,24.1244883 23.8056019,23.8281645 24.8410714,24.1071429 L29.3678571,19.5803571 C29.5339286,19.4142857 29.8071429,19.4142857 29.9732143,19.5803571 L31.4892857,21.0964286 C31.6553571,21.2625 31.6553571,21.5357143 31.4892857,21.7017857 L31.4892857,21.7017857 Z M33.7928571,18.8946429 L32.1267857,17.2285714 C31.9607855,17.060926 31.9607855,16.7908597 32.1267857,16.6232143 L35.1589286,13.5910714 C35.325,13.425 35.5982143,13.425 35.7642857,13.5910714 L37.4303571,15.2571429 C37.5964286,15.4232143 37.5964286,15.6964286 37.4303571,15.8625 L34.3982143,18.8946429 C34.2305688,19.0606431 33.9605026,19.0606431 33.7928571,18.8946429 L33.7928571,18.8946429 Z M41.8928571,25.8214286 L41.8928571,28.1785714 C41.8928571,28.4142857 41.7,28.6071429 41.4642857,28.6071429 L37.1785714,28.6071429 C36.9428571,28.6071429 36.75,28.4142857 36.75,28.1785714 L36.75,25.8214286 C36.75,25.5857143 36.9428571,25.3928571 37.1785714,25.3928571 L41.4642857,25.3928571 C41.7,25.3928571 41.8928571,25.5857143 41.8928571,25.8214286 Z" fill="#2F88FF"></path>
  <path d="M29.9732143,19.5803571 C29.8055688,19.4143569 29.5355026,19.4143569 29.3678571,19.5803571 L24.8410714,24.1071429 C23.8392857,23.8392857 22.7303571,24.0964286 21.9428571,24.8839286 C21.3795245,25.4461974 21.0629579,26.2094363 21.0629579,27.0053571 C21.0629579,27.8012779 21.3795245,28.5645169 21.9428571,29.1267857 C22.5051259,29.6901184 23.2683649,30.006685 24.0642857,30.006685 C24.8602065,30.006685 25.6234455,29.6901184 26.1857143,29.1267857 C26.9451545,28.3696354 27.2414783,27.264041 26.9625,26.2285714 L31.4892857,21.7017857 C31.6553571,21.5357143 31.6553571,21.2625 31.4892857,21.0964286 L29.9732143,19.5803571 L29.9732143,19.5803571 Z M22.8214286,14.1428571 L25.1785714,14.1428571 C25.4142857,14.1428571 25.6071429,13.95 25.6071429,13.7142857 L25.6071429,9.42857143 C25.6071429,9.19285714 25.4142857,9 25.1785714,9 L22.8214286,9 C22.5857143,9 22.3928571,9.19285714 22.3928571,9.42857143 L22.3928571,13.7142857 C22.3928571,13.95 22.5857143,14.1428571 22.8214286,14.1428571 Z" fill="#FFFFFF"></path>
  <path d="M46.1142857,17.6571429 C44.9095483,14.8055835 43.1629903,12.2148559 40.9714286,10.0285714 C38.7851441,7.83700965 36.1944165,6.09045171 33.3428571,4.88571429 C30.3803571,3.63214286 27.2410714,3 24,3 C20.7589286,3 17.6196429,3.63214286 14.6571429,4.88571429 C11.8055835,6.09045171 9.21485591,7.83700965 7.02857143,10.0285714 C4.83700965,12.2148559 3.09045171,14.8055835 1.88571429,17.6571429 C0.632142857,20.6196429 0,23.7589286 0,27 C0,34.1089286 3.12321429,40.8053571 8.56607143,45.3803571 L8.65714286,45.4553571 C8.96785714,45.7125 9.35892857,45.8571429 9.76071429,45.8571429 L38.2446429,45.8571429 C38.6464286,45.8571429 39.0375,45.7125 39.3482143,45.4553571 L39.4392857,45.3803571 C44.8767857,40.8053571 48,34.1089286 48,27 C48,23.7589286 47.3625,20.6196429 46.1142857,17.6571429 Z M37.3607143,41.7857143 L10.6392857,41.7857143 C6.45296665,38.011052 4.0657003,32.6367819 4.07140804,27 C4.07140804,21.675 6.14464286,16.6714286 9.91071429,12.9107143 C13.6767857,9.14464286 18.6803571,7.07142857 24,7.07142857 C29.325,7.07142857 34.3285714,9.14464286 38.0892857,12.9107143 C41.8553571,16.6767857 43.9285714,21.6803571 43.9285714,27 C43.9285714,32.6571429 41.5446429,38.0089286 37.3607143,41.7857143 L37.3607143,41.7857143 Z" fill="#000000"></path>
  <path d="M37.4303571,15.2571429 L35.7642857,13.5910714 C35.5966403,13.4250712 35.326574,13.4250712 35.1589286,13.5910714 L32.1267857,16.6232143 C31.9607855,16.7908597 31.9607855,17.060926 32.1267857,17.2285714 L33.7928571,18.8946429 C33.9589286,19.0607143 34.2321429,19.0607143 34.3982143,18.8946429 L37.4303571,15.8625 C37.5964286,15.6964286 37.5964286,15.4232143 37.4303571,15.2571429 L37.4303571,15.2571429 Z M36.75,25.8214286 L36.75,28.1785714 C36.75,28.4142857 36.9428571,28.6071429 37.1785714,28.6071429 L41.4642857,28.6071429 C41.7,28.6071429 41.8928571,28.4142857 41.8928571,28.1785714 L41.8928571,25.8214286 C41.8928571,25.5857143 41.7,25.3928571 41.4642857,25.3928571 L37.1785714,25.3928571 C36.9428571,25.3928571 36.75,25.5857143 36.75,25.8214286 Z M12.8625,13.5910714 C12.6948546,13.4250712 12.4247883,13.4250712 12.2571429,13.5910714 L10.5910714,15.2571429 C10.4250712,15.4247883 10.4250712,15.6948546 10.5910714,15.8625 L13.6232143,18.8946429 C13.7892857,19.0607143 14.0625,19.0607143 14.2285714,18.8946429 L15.8946429,17.2285714 C16.0607143,17.0625 16.0607143,16.7892857 15.8946429,16.6232143 L12.8625,13.5910714 L12.8625,13.5910714 Z M10.6071429,25.3928571 L6.32142857,25.3928571 C6.08571429,25.3928571 5.89285714,25.5857143 5.89285714,25.8214286 L5.89285714,28.1785714 C5.89285714,28.4142857 6.08571429,28.6071429 6.32142857,28.6071429 L10.6071429,28.6071429 C10.8428571,28.6071429 11.0357143,28.4142857 11.0357143,28.1785714 L11.0357143,25.8214286 C11.0357143,25.5857143 10.8428571,25.3928571 10.6071429,25.3928571 Z" fill="#FFFFFF"></path>
</svg>
