<svg width="48" height="48" viewBox="0 0 48 48" fill="none" xmlns="http://www.w3.org/2000/svg">
  <rect width="48" height="48" fill="white" fill-opacity="0.01"/>
  <path d="M17.5714286,3.85714286 C9.99642857,3.85714286 3.85714286,9.99642857 3.85714286,17.5714286 C3.85714286,22.5267857 6.50357143,27.0160714 10.7196429,29.4535714 L12.6428571,30.5678571 L12.6428571,36.8571429 L22.5,36.8571429 L22.5,30.5678571 L24.4232143,29.4535714 C28.6392857,27.0160714 31.2857143,22.5267857 31.2857143,17.5714286 C31.2857143,9.99642857 25.1464286,3.85714286 17.5714286,3.85714286 Z" fill="#2F88FF"></path>
  <path d="M24,44.1428571 L11.1428571,44.1428571 C10.9071429,44.1428571 10.7142857,44.3357143 10.7142857,44.5714286 L10.7142857,46.2857143 C10.7142857,47.2339286 11.4803571,48 12.4285714,48 L22.7142857,48 C23.6625,48 24.4285714,47.2339286 24.4285714,46.2857143 L24.4285714,44.5714286 C24.4285714,44.3357143 24.2357143,44.1428571 24,44.1428571 Z M17.5714286,0 C7.86964286,0 0,7.86964286 0,17.5714286 C0,24.075 3.53571429,29.7535714 8.78571429,32.7910714 L8.78571429,39 C8.78571429,39.9482143 9.55178571,40.7142857 10.5,40.7142857 L24.6428571,40.7142857 C25.5910714,40.7142857 26.3571429,39.9482143 26.3571429,39 L26.3571429,32.7910714 C31.6071429,29.7535714 35.1428571,24.075 35.1428571,17.5714286 C35.1428571,7.86964286 27.2732143,0 17.5714286,0 Z M24.4232143,29.4535714 L22.5,30.5678571 L22.5,36.8571429 L12.6428571,36.8571429 L12.6428571,30.5678571 L10.7196429,29.4535714 C6.50357143,27.0160714 3.85714286,22.5267857 3.85714286,17.5714286 C3.85714286,9.99642857 9.99642857,3.85714286 17.5714286,3.85714286 C25.1464286,3.85714286 31.2857143,9.99642857 31.2857143,17.5714286 C31.2857143,22.5267857 28.6392857,27.0160714 24.4232143,29.4535714 Z" fill="#000"></path>
</svg>
