<svg width="48" height="48" viewBox="0 0 48 48" fill="none" xmlns="http://www.w3.org/2000/svg">
  <rect width="48" height="48" fill="white" fill-opacity="0.01"/>
  <path d="M20.0357143,15.4285714 L20.0357143,3.85714286 L3.85714286,3.85714286 L3.85714286,44.1428571 L33.8571429,44.1428571 L33.8571429,17.6785714 L22.2857143,17.6785714 C21.0430736,17.6785714 20.0357143,16.6712121 20.0357143,15.4285714 Z M23.9089286,21.9642857 L25.7678571,21.9642857 C26.1214286,21.9642857 26.4107143,22.2535714 26.4107143,22.6071429 L26.4107143,37.1785714 C26.4107143,37.5321429 26.1214286,37.8214286 25.7678571,37.8214286 L24.3107143,37.8214286 C23.9571429,37.8214286 23.6678571,37.5321429 23.6678571,37.1785714 L23.6678571,27.7339286 L20.0892857,35.8017857 C19.9821429,36.0321429 19.7517857,36.1821429 19.5,36.1821429 L18.2089286,36.1821429 C17.9545459,36.1831173 17.7235147,36.0339971 17.6196429,35.8017857 L14.0410714,27.7553571 L14.0410714,37.1785714 C14.0410714,37.5321429 13.7517857,37.8214286 13.3982143,37.8214286 L11.9464286,37.8214286 C11.5928571,37.8214286 11.3035714,37.5321429 11.3035714,37.1785714 L11.3035714,22.6071429 C11.3035714,22.2535714 11.5928571,21.9642857 11.9464286,21.9642857 L13.8214286,21.9642857 C14.0785714,21.9642857 14.3089286,22.1142857 14.4107143,22.35 L18.8678571,32.5821429 L23.3196429,22.35 C23.4214286,22.1142857 23.6517857,21.9642857 23.9089286,21.9642857 L23.9089286,21.9642857 Z" fill="#2F88FF"></path>
  <path d="M37.2107143,12.0321429 L25.6821429,0.503571429 C25.3607143,0.182142857 24.9267857,0 24.4714286,0 L1.71428571,0 C0.766071429,0 0,0.766071429 0,1.71428571 L0,46.2857143 C0,47.2339286 0.766071429,48 1.71428571,48 L36,48 C36.9482143,48 37.7142857,47.2339286 37.7142857,46.2857143 L37.7142857,13.2482143 C37.7142857,12.7928571 37.5321429,12.3535714 37.2107143,12.0321429 Z M23.6785714,3.95357143 L33.7607143,14.0357143 L23.6785714,14.0357143 L23.6785714,3.95357143 Z M33.8571429,44.1428571 L3.85714286,44.1428571 L3.85714286,3.85714286 L20.0357143,3.85714286 L20.0357143,15.4285714 C20.0357143,16.6712121 21.0430736,17.6785714 22.2857143,17.6785714 L33.8571429,17.6785714 L33.8571429,44.1428571 Z" fill="#000"></path>
  <path d="M14.4107143,22.35 C14.3089286,22.1142857 14.0785714,21.9642857 13.8214286,21.9642857 L11.9464286,21.9642857 C11.5928571,21.9642857 11.3035714,22.2535714 11.3035714,22.6071429 L11.3035714,37.1785714 C11.3035714,37.5321429 11.5928571,37.8214286 11.9464286,37.8214286 L13.3982143,37.8214286 C13.7517857,37.8214286 14.0410714,37.5321429 14.0410714,37.1785714 L14.0410714,27.7553571 L17.6196429,35.8017857 C17.7235147,36.0339971 17.9545459,36.1831173 18.2089286,36.1821429 L19.5,36.1821429 C19.7517857,36.1821429 19.9821429,36.0321429 20.0892857,35.8017857 L23.6678571,27.7339286 L23.6678571,37.1785714 C23.6678571,37.5321429 23.9571429,37.8214286 24.3107143,37.8214286 L25.7678571,37.8214286 C26.1214286,37.8214286 26.4107143,37.5321429 26.4107143,37.1785714 L26.4107143,22.6071429 C26.4107143,22.2535714 26.1214286,21.9642857 25.7678571,21.9642857 L23.9089286,21.9642857 C23.6517857,21.9642857 23.4214286,22.1142857 23.3196429,22.35 L18.8678571,32.5821429 L14.4107143,22.35 L14.4107143,22.35 Z" fill="#FFF"></path>
</svg>
