<svg width="48" height="48" viewBox="0 0 48 48" fill="none" xmlns="http://www.w3.org/2000/svg">
  <rect width="48" height="48" fill="white" fill-opacity="0.01"/>
  <path d="M25.0357143,15.4285714 L25.0357143,3.85714286 L8.85714286,3.85714286 L8.85714286,44.1428571 L38.8571429,44.1428571 L38.8571429,17.6785714 L27.2857143,17.6785714 C26.0430736,17.6785714 25.0357143,16.6712121 25.0357143,15.4285714 Z M30.4625,22.3553571 C30.5321429,22.0660714 30.7892857,21.8571429 31.0892857,21.8571429 L32.9964286,21.8571429 C33.1959847,21.8578826 33.3839606,21.9509505 33.5055317,22.1092025 C33.6271028,22.2674545 33.6685766,22.4730669 33.6178571,22.6660714 L29.6321429,37.4517857 C29.5571429,37.7357143 29.3,37.9285714 29.0107143,37.9285714 L27.3071429,37.9285714 C27.0178571,37.9285714 26.7607143,37.7303571 26.6857143,37.4517857 L23.8571429,26.8982143 L21.0285714,37.4517857 C20.9535714,37.7357143 20.6964286,37.9285714 20.4071429,37.9285714 L18.6928571,37.9285714 C18.4035714,37.9285714 18.1464286,37.7303571 18.0714286,37.4517857 L14.0964286,22.6660714 C14.045254,22.4730263 14.086548,22.2671627 14.2082137,22.1087874 C14.3298795,21.9504122 14.5181444,21.8574534 14.7178571,21.8571429 L16.6142857,21.8571429 C16.9142857,21.8571429 17.1714286,22.0660714 17.2410714,22.3553571 L19.7107143,33 L22.3732143,22.3446429 C22.4428571,22.0553571 22.7,21.8571429 22.9946429,21.8571429 L24.7196429,21.8571429 C25.0142857,21.8571429 25.2714286,22.0553571 25.3410714,22.3446429 L28.0089286,33.0214286 L30.4625,22.3553571 Z" fill="#2F88FF"></path>
  <path d="M42.2107143,12.0321429 L30.6821429,0.503571429 C30.3607143,0.182142857 29.9267857,0 29.4714286,0 L6.71428571,0 C5.76607143,0 5,0.766071429 5,1.71428571 L5,46.2857143 C5,47.2339286 5.76607143,48 6.71428571,48 L41,48 C41.9482143,48 42.7142857,47.2339286 42.7142857,46.2857143 L42.7142857,13.2482143 C42.7142857,12.7928571 42.5321429,12.3535714 42.2107143,12.0321429 Z M28.6785714,3.95357143 L38.7607143,14.0357143 L28.6785714,14.0357143 L28.6785714,3.95357143 Z M38.8571429,44.1428571 L8.85714286,44.1428571 L8.85714286,3.85714286 L25.0357143,3.85714286 L25.0357143,15.4285714 C25.0357143,16.6712121 26.0430736,17.6785714 27.2857143,17.6785714 L38.8571429,17.6785714 L38.8571429,44.1428571 Z" fill="#000000"></path>
  <path d="M24.7196429,21.8571429 L22.9946429,21.8571429 C22.7,21.8571429 22.4428571,22.0553571 22.3732143,22.3446429 L19.7107143,33 L17.2410714,22.3553571 C17.1714286,22.0660714 16.9142857,21.8571429 16.6142857,21.8571429 L14.7178571,21.8571429 C14.5181444,21.8574534 14.3298795,21.9504122 14.2082137,22.1087874 C14.086548,22.2671627 14.045254,22.4730263 14.0964286,22.6660714 L18.0714286,37.4517857 C18.1464286,37.7303571 18.4035714,37.9285714 18.6928571,37.9285714 L20.4071429,37.9285714 C20.6964286,37.9285714 20.9535714,37.7357143 21.0285714,37.4517857 L23.8571429,26.8982143 L26.6857143,37.4517857 C26.7607143,37.7303571 27.0178571,37.9285714 27.3071429,37.9285714 L29.0107143,37.9285714 C29.3,37.9285714 29.5571429,37.7357143 29.6321429,37.4517857 L33.6178571,22.6660714 C33.6685766,22.4730669 33.6271028,22.2674545 33.5055317,22.1092025 C33.3839606,21.9509505 33.1959847,21.8578826 32.9964286,21.8571429 L31.0892857,21.8571429 C30.7892857,21.8571429 30.5321429,22.0660714 30.4625,22.3553571 L28.0089286,33.0214286 L25.3410714,22.3446429 C25.2714286,22.0553571 25.0142857,21.8571429 24.7196429,21.8571429 Z" fill="#FFFFFF"></path>
</svg>
