<svg width="48" height="48" viewBox="0 0 48 48" fill="none" xmlns="http://www.w3.org/2000/svg">
  <rect width="48" height="48" fill="white" fill-opacity="0.01"/>
  <path d="M20.0357143,15.4285714 L20.0357143,3.85714286 L3.85714286,3.85714286 L3.85714286,44.1428571 L33.8571429,44.1428571 L33.8571429,17.6785714 L22.2857143,17.6785714 C21.0430736,17.6785714 20.0357143,16.6712121 20.0357143,15.4285714 Z M25.4625,22.3553571 C25.5321429,22.0660714 25.7892857,21.8571429 26.0892857,21.8571429 L27.9964286,21.8571429 C28.1959847,21.8578826 28.3839606,21.9509505 28.5055317,22.1092025 C28.6271028,22.2674545 28.6685766,22.4730669 28.6178571,22.6660714 L24.6321429,37.4517857 C24.5571429,37.7357143 24.3,37.9285714 24.0107143,37.9285714 L22.3071429,37.9285714 C22.0178571,37.9285714 21.7607143,37.7303571 21.6857143,37.4517857 L18.8571429,26.8982143 L16.0285714,37.4517857 C15.9535714,37.7357143 15.6964286,37.9285714 15.4071429,37.9285714 L13.6928571,37.9285714 C13.4035714,37.9285714 13.1464286,37.7303571 13.0714286,37.4517857 L9.09642857,22.6660714 C9.04525396,22.4730263 9.08654797,22.2671627 9.20821373,22.1087874 C9.32987948,21.9504122 9.5181444,21.8574534 9.71785714,21.8571429 L11.6142857,21.8571429 C11.9142857,21.8571429 12.1714286,22.0660714 12.2410714,22.3553571 L14.7107143,33 L17.3732143,22.3446429 C17.4428571,22.0553571 17.7,21.8571429 17.9946429,21.8571429 L19.7196429,21.8571429 C20.0142857,21.8571429 20.2714286,22.0553571 20.3410714,22.3446429 L23.0089286,33.0214286 L25.4625,22.3553571 Z" fill="#2F88FF"></path>
  <path d="M37.2107143,12.0321429 L25.6821429,0.503571429 C25.3607143,0.182142857 24.9267857,0 24.4714286,0 L1.71428571,0 C0.766071429,0 0,0.766071429 0,1.71428571 L0,46.2857143 C0,47.2339286 0.766071429,48 1.71428571,48 L36,48 C36.9482143,48 37.7142857,47.2339286 37.7142857,46.2857143 L37.7142857,13.2482143 C37.7142857,12.7928571 37.5321429,12.3535714 37.2107143,12.0321429 Z M23.6785714,3.95357143 L33.7607143,14.0357143 L23.6785714,14.0357143 L23.6785714,3.95357143 Z M33.8571429,44.1428571 L3.85714286,44.1428571 L3.85714286,3.85714286 L20.0357143,3.85714286 L20.0357143,15.4285714 C20.0357143,16.6712121 21.0430736,17.6785714 22.2857143,17.6785714 L33.8571429,17.6785714 L33.8571429,44.1428571 Z" fill="#000"></path>
  <path d="M19.7196429,21.8571429 L17.9946429,21.8571429 C17.7,21.8571429 17.4428571,22.0553571 17.3732143,22.3446429 L14.7107143,33 L12.2410714,22.3553571 C12.1714286,22.0660714 11.9142857,21.8571429 11.6142857,21.8571429 L9.71785714,21.8571429 C9.5181444,21.8574534 9.32987948,21.9504122 9.20821373,22.1087874 C9.08654797,22.2671627 9.04525396,22.4730263 9.09642857,22.6660714 L13.0714286,37.4517857 C13.1464286,37.7303571 13.4035714,37.9285714 13.6928571,37.9285714 L15.4071429,37.9285714 C15.6964286,37.9285714 15.9535714,37.7357143 16.0285714,37.4517857 L18.8571429,26.8982143 L21.6857143,37.4517857 C21.7607143,37.7303571 22.0178571,37.9285714 22.3071429,37.9285714 L24.0107143,37.9285714 C24.3,37.9285714 24.5571429,37.7357143 24.6321429,37.4517857 L28.6178571,22.6660714 C28.6685766,22.4730669 28.6271028,22.2674545 28.5055317,22.1092025 C28.3839606,21.9509505 28.1959847,21.8578826 27.9964286,21.8571429 L26.0892857,21.8571429 C25.7892857,21.8571429 25.5321429,22.0660714 25.4625,22.3553571 L23.0089286,33.0214286 L20.3410714,22.3446429 C20.2714286,22.0553571 20.0142857,21.8571429 19.7196429,21.8571429 Z" fill="#000"></path>
</svg>
