<?xml version="1.0" encoding="UTF-8"?>
<svg width="48" height="48" viewBox="0 0 48 48" fill="none" xmlns="http://www.w3.org/2000/svg">
  <rect width="48" height="48" fill="white" fill-opacity="0.01"/>
  <path fill="#000" d="M17.76,16.92 L46.56,16.92 C46.824,16.92 47.04,16.704 47.04,16.44 L47.04,13.08 C47.04,12.816 46.824,12.6 46.56,12.6 L17.76,12.6 C17.496,12.6 17.28,12.816 17.28,13.08 L17.28,16.44 C17.28,16.704 17.496,16.92 17.76,16.92 Z M17.28,29.16 C17.28,29.424 17.496,29.64 17.76,29.64 L46.56,29.64 C46.824,29.64 47.04,29.424 47.04,29.16 L47.04,25.8 C47.04,25.536 46.824,25.32 46.56,25.32 L17.76,25.32 C17.496,25.32 17.28,25.536 17.28,25.8 L17.28,29.16 Z M47.52,0 L0.48,0 C0.216,0 0,0.216 0,0.48 L0,3.84 C0,4.104 0.216,4.32 0.48,4.32 L47.52,4.32 C47.784,4.32 48,4.104 48,3.84 L48,0.48 C48,0.216 47.784,0 47.52,0 Z M47.52,37.92 L0.48,37.92 C0.216,37.92 0,38.136 0,38.4 L0,41.76 C0,42.024 0.216,42.24 0.48,42.24 L47.52,42.24 C47.784,42.24 48,42.024 48,41.76 L48,38.4 C48,38.136 47.784,37.92 47.52,37.92 Z M1.824,28.926 L11.202,21.54 C11.3299328,21.4394415 11.404627,21.2857231 11.404627,21.123 C11.404627,20.9602769 11.3299328,20.8065585 11.202,20.706 L1.824,13.314 C1.476,13.038 0.959999972,13.284 0.959999972,13.728 L0.959999972,28.506 C0.959999972,28.7104771 1.07663893,28.897038 1.26053907,28.9864339 C1.4444392,29.0758298 1.66324098,29.0523623 1.824,28.926 L1.824,28.926 Z"></path>
</svg>
