<svg width="48" height="48" viewBox="0 0 48 48" fill="none" xmlns="http://www.w3.org/2000/svg">
  <rect width="48" height="48" fill="white" fill-opacity="0.01"/>
  <path d="M46.2857143,0 L1.71428571,0 C0.766071429,0 0,0.766071429 0,1.71428571 L0,36 C0,36.9482143 0.766071429,37.7142857 1.71428571,37.7142857 L46.2857143,37.7142857 C47.2339286,37.7142857 48,36.9482143 48,36 L48,1.71428571 C48,0.766071429 47.2339286,0 46.2857143,0 Z M44.1428571,33.8571429 L3.85714286,33.8571429 L3.85714286,31.7196429 L11.2767857,22.9178571 L19.3178571,32.4535714 L31.8267857,17.625 L44.1428571,32.2285714 L44.1428571,33.8571429 Z M44.1428571,26.9035714 L32.1535714,12.6857143 C31.9821429,12.4821429 31.6714286,12.4821429 31.5,12.6857143 L19.3178571,27.1285714 L11.6035714,17.9839286 C11.4321429,17.7803571 11.1214286,17.7803571 10.95,17.9839286 L3.85714286,26.3946429 L3.85714286,3.85714286 L44.1428571,3.85714286 L44.1428571,26.9035714 Z" fill="#000"></path>
  <polygon id="路径" fill="#2F88FF" points="19.3178571 32.4535714 11.2767857 22.9178571 3.85714286 31.7196429 3.85714286 33.8571429 44.1428571 33.8571429 44.1428571 32.2285714 31.8267857 17.625"></polygon>
  <path d="M3.85714286,26.3946429 L10.95,17.9839286 C11.1214286,17.7803571 11.4321429,17.7803571 11.6035714,17.9839286 L19.3178571,27.1285714 L31.5,12.6857143 C31.6714286,12.4821429 31.9821429,12.4821429 32.1535714,12.6857143 L44.1428571,26.9035714 L44.1428571,3.85714286 L3.85714286,3.85714286 L3.85714286,26.3946429 Z M12.8571429,6.42857143 C14.5413949,6.42857143 16.0977081,7.32710917 16.9398341,8.78571426 C17.7819602,10.2443193 17.7819602,12.0413949 16.9398341,13.5 C16.0977081,14.9586051 14.5413949,15.8571429 12.8571429,15.8571429 C10.2535148,15.8571429 8.14285724,13.7464852 8.14285724,11.1428571 C8.14285724,8.53922908 10.2535148,6.42857143 12.8571429,6.42857143 Z" fill="#2F88FF"></path>
  <path d="M11.3571429,11.1428571 C11.3571429,11.9712843 12.0287157,12.6428571 12.8571429,12.6428571 C13.68557,12.6428571 14.3571429,11.9712843 14.3571429,11.1428571 C14.3571429,10.31443 13.68557,9.64285714 12.8571429,9.64285714 C12.0287157,9.64285714 11.3571429,10.31443 11.3571429,11.1428571 L11.3571429,11.1428571 Z" fill="#2F88FF"></path>
  <path d="M12.8571429,15.8571429 C14.5413949,15.8571429 16.0977081,14.9586051 16.9398341,13.5 C17.7819602,12.0413949 17.7819602,10.2443193 16.9398341,8.78571426 C16.0977081,7.32710917 14.5413949,6.42857143 12.8571429,6.42857143 C10.2535148,6.42857143 8.14285724,8.53922908 8.14285724,11.1428571 C8.14285724,13.7464852 10.2535148,15.8571429 12.8571429,15.8571429 Z M12.8571429,9.64285714 C13.6875,9.64285714 14.3571429,10.3125 14.3571429,11.1428571 C14.3571429,11.9732143 13.6875,12.6428571 12.8571429,12.6428571 C12.0267857,12.6428571 11.3571429,11.9732143 11.3571429,11.1428571 C11.3571429,10.3125 12.0267857,9.64285714 12.8571429,9.64285714 Z" fill="#000"></path>
</svg>
