<svg width="48" height="48" viewBox="0 0 48 48" fill="none" xmlns="http://www.w3.org/2000/svg">
  <rect width="48" height="48" fill="white" fill-opacity="0.01"/>
  <polygon fill="#2F88FF" points="11.0356164 16.9315068 3.94520548 16.9315068 3.94520548 26.5753425 11.0356164 26.5753425 12.0219178 27.2164384 28.0547945 37.6986301 28.0547945 5.80821918 12.0164384 16.290411"></polygon>
  <path d="M44.8273973,34.1260274 L38.7835616,30.6356164 C38.5830186,30.5207917 38.3450724,30.4903446 38.1220785,30.5509742 C37.8990847,30.6116039 37.7093135,30.7583429 37.5945205,30.9589041 L36.5041096,32.8493151 C36.2630137,33.2657534 36.4054795,33.8027397 36.8219178,34.0438356 L42.8657534,37.5342466 C43.0662965,37.6490713 43.3042427,37.6795184 43.5272365,37.6188888 C43.7502304,37.5582591 43.9400016,37.4115201 44.0547945,37.2109589 L45.1452055,35.3205479 C45.3863014,34.9041096 45.2383562,34.3671233 44.8273973,34.1260274 L44.8273973,34.1260274 Z M47.1232877,19.7808219 L40.109589,19.7808219 C39.6273973,19.7808219 39.2328767,20.1753425 39.2328767,20.6575342 L39.2328767,22.8493151 C39.2328767,23.3315068 39.6273973,23.7260274 40.109589,23.7260274 L47.1232877,23.7260274 C47.6054795,23.7260274 48,23.3315068 48,22.8493151 L48,20.6575342 C48,20.1753425 47.6054795,19.7808219 47.1232877,19.7808219 Z M37.5890411,12.5479452 C37.7038341,12.7485064 37.8936052,12.8952454 38.1165991,12.9558751 C38.339593,13.0165047 38.5775391,12.9860576 38.7780822,12.8712329 L44.8219178,9.38082192 C45.2383562,9.13972603 45.3808219,8.60273973 45.139726,8.18630137 L44.0547945,6.30136986 C43.9400016,6.10080865 43.7502304,5.95406967 43.5272365,5.89344 C43.3042427,5.83281033 43.0662965,5.8632575 42.8657534,5.97808219 L36.8219178,9.46849315 C36.4053061,9.71135897 36.2632673,10.2452289 36.5041096,10.6630137 L37.5890411,12.5479452 Z M30.2410959,0 C29.9178082,0 29.5890411,0.0876712329 29.2876712,0.290410959 L9.8630137,12.9863014 L0.876712329,12.9863014 C0.394520548,12.9863014 0,13.3808219 0,13.8630137 L0,29.6438356 C0,30.1260274 0.394520548,30.5205479 0.876712329,30.5205479 L9.8630137,30.5205479 L29.2876712,43.2164384 C29.5890411,43.4136986 29.9232877,43.5068493 30.2410959,43.5068493 C31.1561644,43.5068493 32,42.7780822 32,41.7479452 L32,1.75890411 C32,0.728767123 31.1561644,0 30.2410959,0 Z M28.0547945,37.6986301 L12.0219178,27.2164384 L11.0356164,26.5753425 L3.94520548,26.5753425 L3.94520548,16.9315068 L11.0356164,16.9315068 L12.0164384,16.290411 L28.0547945,5.80821918 L28.0547945,37.6986301 Z" fill="#000"></path>
</svg>
