<svg width="48" height="48" viewBox="0 0 48 48" fill="none" xmlns="http://www.w3.org/2000/svg">
  <rect width="48" height="48" fill="white" fill-opacity="0.01"/>
  <polygon fill="#2F88FF" points="4.32 7.2 26.4 7.2 26.4 27.36 4.32 27.36"></polygon>
  <path d="M30.72,31.2 C30.72,31.464 30.504,31.68 30.24,31.68 L23.52,31.68 L23.52,36.06 L43.68,36.06 L43.68,15.9 L30.72,15.9 L30.72,31.2 Z" fill="#2F88FF"></path>
  <path d="M46.08,11.58 L30.72,11.58 L30.72,4.8 C30.72,3.738 29.862,2.88 28.8,2.88 L4.32,2.88 L4.32,0.48 C4.32,0.216 4.104,0 3.84,0 L0.48,0 C0.216,0 0,0.216 0,0.48 L0,47.52 C0,47.784 0.216,48 0.48,48 L3.84,48 C4.104,48 4.32,47.784 4.32,47.52 L4.32,31.68 L19.2,31.68 L19.2,38.46 C19.2,39.522 20.058,40.38 21.12,40.38 L46.08,40.38 C47.142,40.38 48,39.522 48,38.46 L48,13.5 C48,12.438 47.142,11.58 46.08,11.58 Z M4.32,27.36 L4.32,7.2 L26.4,7.2 L26.4,27.36 L4.32,27.36 Z M43.68,36.06 L23.52,36.06 L23.52,31.68 L30.24,31.68 C30.504,31.68 30.72,31.464 30.72,31.2 L30.72,15.9 L43.68,15.9 L43.68,36.06 Z" fill="#000"></path>
</svg>
