<svg width="48" height="48" viewBox="0 0 48 48" fill="none" xmlns="http://www.w3.org/2000/svg">
  <rect width="48" height="48" fill="white" fill-opacity="0.01"/>
  <path d="M23.5957219,32.1497326 C23.6930244,32.2740615 23.842122,32.3467048 24,32.3467048 C24.157878,32.3467048 24.3069756,32.2740615 24.4042781,32.1497326 L31.5914439,23.0566845 C31.8545455,22.7229947 31.6171123,22.228877 31.1871658,22.228877 L26.4320856,22.228877 L26.4320856,0.513368984 C26.4320856,0.231016043 26.2010695,0 25.9187166,0 L22.0684492,0 C21.7860963,0 21.5550802,0.231016043 21.5550802,0.513368984 L21.5550802,22.2224599 L16.8128342,22.2224599 C16.3828877,22.2224599 16.1454545,22.7165775 16.4085561,23.0502674 L23.5957219,32.1497326 Z M47.486631,29.9037433 L43.6363636,29.9037433 C43.3540107,29.9037433 43.1229947,30.1347594 43.1229947,30.4171123 L43.1229947,40.2994652 L4.87700535,40.2994652 L4.87700535,30.4171123 C4.87700535,30.1347594 4.6459893,29.9037433 4.36363636,29.9037433 L0.513368984,29.9037433 C0.231016043,29.9037433 0,30.1347594 0,30.4171123 L0,43.1229947 C0,44.2588235 0.917647059,45.1764706 2.05347594,45.1764706 L45.9465241,45.1764706 C47.0823529,45.1764706 48,44.2588235 48,43.1229947 L48,30.4171123 C48,30.1347594 47.768984,29.9037433 47.486631,29.9037433 Z" fill="#000"></path>
</svg>
