<svg width="48" height="48" viewBox="0 0 48 48" fill="none" xmlns="http://www.w3.org/2000/svg">
  <rect width="48" height="48" fill="white" fill-opacity="0.01"/>
  <path d="M16.2857143,30.2142857 L10.0714286,30.2142857 L10.0714286,24 C10.0714286,23.7642857 9.87857143,23.5714286 9.64285714,23.5714286 L7.07142857,23.5714286 C6.83571429,23.5714286 6.64285714,23.7642857 6.64285714,24 L6.64285714,30.2142857 L0.428571429,30.2142857 C0.192857143,30.2142857 0,30.4071429 0,30.6428571 L0,33.2142857 C0,33.45 0.192857143,33.6428571 0.428571429,33.6428571 L6.64285714,33.6428571 L6.64285714,39.8571429 C6.64285714,40.0928571 6.83571429,40.2857143 7.07142857,40.2857143 L9.64285714,40.2857143 C9.87857143,40.2857143 10.0714286,40.0928571 10.0714286,39.8571429 L10.0714286,33.6428571 L16.2857143,33.6428571 C16.5214286,33.6428571 16.7142857,33.45 16.7142857,33.2142857 L16.7142857,30.6428571 C16.7142857,30.4071429 16.5214286,30.2142857 16.2857143,30.2142857 Z" fill="#000"></path>
  <path d="M45.4285714,7.62321429 L38.5714286,11.5714286 L38.5714286,3.42857143 C38.5714286,1.5375 37.0339286,0 35.1428571,0 L3.42857143,0 C1.5375,0 0,1.5375 0,3.42857143 L0,22.2857143 L3.85714286,22.2857143 L3.85714286,3.85714286 L34.7142857,3.85714286 L34.7142857,33.8571429 L20.5714286,33.8571429 L20.5714286,37.7142857 L35.1428571,37.7142857 C37.0339286,37.7142857 38.5714286,36.1767857 38.5714286,34.2857143 L38.5714286,26.1428571 L45.4285714,30.0910714 C46.5696429,30.75 48,29.925 48,28.6125 L48,9.10714286 C48,7.78928571 46.5696429,6.96428571 45.4285714,7.62321429 Z M44.1428571,24.9107143 L38.5714286,21.7071429 L38.5714286,16.0125 L44.1428571,12.8035714 L44.1428571,24.9107143 Z" fill="#000"></path>
  <path d="M13.7142857,10.7142857 C13.95,10.7142857 14.1428571,10.5214286 14.1428571,10.2857143 L14.1428571,7.71428571 C14.1428571,7.47857143 13.95,7.28571429 13.7142857,7.28571429 L7.71428571,7.28571429 C7.47857143,7.28571429 7.28571429,7.47857143 7.28571429,7.71428571 L7.28571429,10.2857143 C7.28571429,10.5214286 7.47857143,10.7142857 7.71428571,10.7142857 L13.7142857,10.7142857 Z" fill="#000"></path>
</svg>
