<svg width="48" height="48" viewBox="0 0 48 48" fill="none" xmlns="http://www.w3.org/2000/svg">
  <rect width="48" height="48" fill="white" fill-opacity="0.01"/>
  <polygon fill="#2F88FF" points="25.7889908 25.655093 33.3853211 23.3394495 43.4425025 26.5813426 42.7613465 38.972477 33.3853211 45.9381255 24 38.972477 23.6972477 26.5813426"></polygon>
  <path d="M31.0018349,32.653211 C30.9191785,32.5381097 30.7857369,32.4703624 30.6440367,32.4715596 L28.2110092,32.4715596 C27.853211,32.4715596 27.6440367,32.8788991 27.853211,33.1706422 L31.9155963,38.7908257 C32.0917431,39.0330275 32.4495413,39.0330275 32.6256881,38.7908257 L38.9119266,30.093578 C39.1211009,29.8018349 38.9119266,29.3944954 38.5541284,29.3944954 L36.1155963,29.3944954 C35.9724771,29.3944954 35.840367,29.4605505 35.7577982,29.5761468 L32.2623853,34.4091743 L31.0018349,32.653211 L31.0018349,32.653211 Z" fill="#FFFFFF" fill-rule="nonzero"></path>
  <path d="M33.3853211,12.6605505 L33.3853211,10.0183486 C33.3853211,9.77614679 33.187156,9.57798165 32.9449541,9.57798165 L11.8073395,9.57798165 C11.5651376,9.57798165 11.3669725,9.77614679 11.3669725,10.0183486 L11.3669725,12.6605505 C11.3669725,12.9027523 11.5651376,13.1009174 11.8073395,13.1009174 L32.9449541,13.1009174 C33.187156,13.1009174 33.3853211,12.9027523 33.3853211,12.6605505 Z M11.8073395,17.5045872 C11.5651376,17.5045872 11.3669725,17.7027523 11.3669725,17.9449541 L11.3669725,20.587156 C11.3669725,20.8293578 11.5651376,21.0275229 11.8073395,21.0275229 L21.9357798,21.0275229 C22.1779817,21.0275229 22.3761468,20.8293578 22.3761468,20.587156 L22.3761468,17.9449541 C22.3761468,17.7027523 22.1779817,17.5045872 21.9357798,17.5045872 L11.8073395,17.5045872 Z M21.9357798,42.7155963 L6.96330275,42.7155963 L6.96330275,3.96330275 L37.7889908,3.96330275 L37.7889908,20.2568807 C37.7889908,20.4990826 37.987156,20.6972477 38.2293578,20.6972477 L41.3119266,20.6972477 C41.5541284,20.6972477 41.7522936,20.4990826 41.7522936,20.2568807 L41.7522936,1.76146789 C41.7522936,0.787155963 40.9651376,0 39.9908257,0 L4.76146789,0 C3.78715596,0 3,0.787155963 3,1.76146789 L3,44.9174312 C3,45.8917431 3.78715596,46.6788991 4.76146789,46.6788991 L21.9357798,46.6788991 C22.1779817,46.6788991 22.3761468,46.4807339 22.3761468,46.2385321 L22.3761468,43.1559633 C22.3761468,42.9137615 22.1779817,42.7155963 21.9357798,42.7155963 Z M44.0972477,25.0568807 L33.5284404,21.3853211 C33.4788991,21.3688073 33.4348624,21.3633028 33.3853211,21.3633028 C33.3357798,21.3633028 33.2862385,21.3688073 33.2422018,21.3853211 L22.6733945,25.0568807 C22.4963902,25.1169985 22.3770189,25.2827919 22.3761468,25.4697248 L22.3761468,39.2917431 C22.3761468,39.4293578 22.4366972,39.5559633 22.546789,39.6385321 L33.1155963,47.906422 C33.1926606,47.9669725 33.2917431,48 33.3853211,48 C33.4788991,48 33.5779817,47.9669725 33.6550459,47.906422 L44.2238532,39.6385321 C44.3284404,39.5559633 44.3944954,39.4293578 44.3944954,39.2917431 L44.3944954,25.4697248 C44.3944954,25.2825688 44.2733945,25.1174312 44.0972477,25.0568807 Z M40.9816514,37.8550459 L33.3853211,43.7944954 L25.7889908,37.8550459 L25.7889908,27.5779817 L33.3853211,24.9357798 L40.9816514,27.5779817 L40.9816514,37.8550459 Z" fill="#000000" fill-rule="nonzero"></path>
</svg>
