<?xml version="1.0" encoding="UTF-8"?>
<svg width="48" height="48" viewBox="0 0 48 48" fill="none" xmlns="http://www.w3.org/2000/svg">
  <rect width="48" height="48" fill="white" fill-opacity="0.01"/>
  <path fill="#000" d="M47.5714286,33.8571429 L0.428571429,33.8571429 C0.192857143,33.8571429 0,34.05 0,34.2857143 L0,37.2857143 C0,37.5214286 0.192857143,37.7142857 0.428571429,37.7142857 L47.5714286,37.7142857 C47.8071429,37.7142857 48,37.5214286 48,37.2857143 L48,34.2857143 C48,34.05 47.8071429,33.8571429 47.5714286,33.8571429 Z M47.5714286,0 L0.428571429,0 C0.192857143,0 0,0.192857143 0,0.428571429 L0,3.42857143 C0,3.66428571 0.192857143,3.85714286 0.428571429,3.85714286 L47.5714286,3.85714286 C47.8071429,3.85714286 48,3.66428571 48,3.42857143 L48,0.428571429 C48,0.192857143 47.8071429,0 47.5714286,0 Z M29.1428571,26.7857143 C29.6142857,26.7857143 30,26.4 30,25.9285714 L30,11.7857143 C30,11.3142857 29.6142857,10.9285714 29.1428571,10.9285714 L1.71428571,10.9285714 C1.24285714,10.9285714 0.857142857,11.3142857 0.857142857,11.7857143 L0.857142857,25.9285714 C0.857142857,26.4 1.24285714,26.7857143 1.71428571,26.7857143 L29.1428571,26.7857143 Z M4.71428571,14.7857143 L26.1428571,14.7857143 L26.1428571,22.9285714 L4.71428571,22.9285714 L4.71428571,14.7857143 Z M34.2857143,26.0357143 C34.2857143,26.2714286 34.4785714,26.4642857 34.7142857,26.4642857 L46.7142857,26.4642857 C46.95,26.4642857 47.1428571,26.2714286 47.1428571,26.0357143 L47.1428571,23.0357143 C47.1428571,22.8 46.95,22.6071429 46.7142857,22.6071429 L34.7142857,22.6071429 C34.4785714,22.6071429 34.2857143,22.8 34.2857143,23.0357143 L34.2857143,26.0357143 Z M34.7142857,15.1071429 L46.7142857,15.1071429 C46.95,15.1071429 47.1428571,14.9142857 47.1428571,14.6785714 L47.1428571,11.6785714 C47.1428571,11.4428571 46.95,11.25 46.7142857,11.25 L34.7142857,11.25 C34.4785714,11.25 34.2857143,11.4428571 34.2857143,11.6785714 L34.2857143,14.6785714 C34.2857143,14.9142857 34.4785714,15.1071429 34.7142857,15.1071429 Z"></path>
</svg>
