<?xml version="1.0" encoding="UTF-8"?>
<svg width="48" height="48" viewBox="0 0 48 48" fill="none" xmlns="http://www.w3.org/2000/svg">
  <rect width="48" height="48" fill="white" fill-opacity="0.01"/>
  <path fill="#000" d="M20.8776596,0 L24.8670213,0 C25.2216312,0 25.3989362,0.177304965 25.3989362,0.531914894 L25.3989362,47.3404255 C25.3989362,47.6950355 25.2216312,47.8723404 24.8670213,47.8723404 L20.8776596,47.8723404 C20.5230496,47.8723404 20.3457447,47.6950355 20.3457447,47.3404255 L20.3457447,0.531914894 C20.3457447,0.177304965 20.5230496,0 20.8776596,0 Z"></path>
  <path fill="#000" d="M0.531914894,21.4095745 L45.212766,21.4095745 C45.5673759,21.4095745 45.7446809,21.5868794 45.7446809,21.9414894 L45.7446809,25.9308511 C45.7446809,26.285461 45.5673759,26.462766 45.212766,26.462766 L0.531914894,26.462766 C0.177304965,26.462766 0,26.285461 0,25.9308511 L0,21.9414894 C0,21.5868794 0.177304965,21.4095745 0.531914894,21.4095745 Z"></path>
</svg>
