<svg width="48" height="48" viewBox="0 0 48 48" fill="none" xmlns="http://www.w3.org/2000/svg">
  <rect width="48" height="48" fill="white" fill-opacity="0.01"/>
  <path d="M30.9452514,20.0902793 C30.4303911,20.9215642 29.8136313,21.7367598 29.1003352,22.5358659 C28.401012,23.3212542 27.4154797,23.7927638 26.3651397,23.8444693 C25.3140501,23.9051067 24.2825076,23.5419419 23.5012291,22.8362011 C22.5969669,22.0239147 22.1147455,20.842077 22.1926257,19.6290503 C22.3535196,17.0869274 21.5275978,14.0996648 19.7363128,10.7423464 C18.8299441,9.05832402 17.7465922,7.62100559 16.4540782,6.43039106 C16.321732,7.28129073 16.1043299,8.11676147 15.8051397,8.92424581 C15.0709308,10.8897986 14.0162085,12.7201586 12.6837989,14.3410056 C11.7587189,15.4756365 10.7039362,16.4980197 9.54100559,17.3872626 C7.7175419,18.7870391 6.21586592,20.6051397 5.20759777,22.6377654 C4.17592212,24.7025012 3.64146435,26.9799158 3.64688591,29.2880447 C3.64688591,33.3050279 5.22905028,37.0806704 8.09832402,39.9284916 C10.978324,42.781676 14.8022346,44.3477095 18.8782123,44.3477095 C22.9541899,44.3477095 26.7781006,42.781676 29.6581006,39.9284916 C32.5273743,37.0860335 34.1094972,33.3050279 34.1094972,29.2880447 C34.1094972,27.1856983 33.6750838,25.1423464 32.8223464,23.2223464 C32.3235754,22.0960894 31.6960894,21.0502793 30.9452514,20.0902793 L30.9452514,20.0902793 Z" fill="#2F88FF"></path>
  <path d="M36.1528492,21.7313966 C35.1116752,19.3880105 33.5980986,17.284705 31.7068156,15.5530726 L30.1461453,14.1211173 C30.0385503,14.0250956 29.8902775,13.9888087 29.7504996,14.0242908 C29.6107217,14.0597729 29.4977082,14.1623862 29.4489385,14.2981006 L28.7517318,16.2985475 C28.3173184,17.5535196 27.5182123,18.8353073 26.3865922,20.0956425 C26.3115084,20.1760894 26.2256983,20.1975419 26.1667039,20.202905 C26.1077095,20.2082682 26.0165363,20.1975419 25.9360894,20.1224581 C25.8610056,20.0581006 25.8234637,19.9615642 25.8288268,19.8650279 C26.0272626,16.6364246 25.0618994,12.9948603 22.9488268,9.03150838 C21.2004469,5.73854749 18.7709497,3.16960894 15.735419,1.37832402 L13.5204469,0.0750837989 C13.230838,-0.0965363128 12.8607821,0.128715084 12.8768715,0.466592179 L12.9948603,3.04089385 C13.0753073,4.8 12.8715084,6.35530726 12.3888268,7.64782123 C11.7988827,9.22994413 10.9515084,10.6994413 9.86815642,12.0187709 C9.11422274,12.9356683 8.25970613,13.7649992 7.32067039,14.4911732 C5.05906878,16.2297142 3.22009398,18.4573855 1.94145251,21.0073743 C0.665960805,23.5796008 0.00155617007,26.4115797 3.04858559e-15,29.2826816 C3.04858559e-15,31.8140782 0.49877095,34.2650279 1.48558659,36.5765363 C2.43843391,38.8020544 3.81349855,40.8218513 5.5347486,42.5242458 C7.27240223,44.2404469 9.28893855,45.5919553 11.5360894,46.5305028 C13.8636872,47.5065922 16.3307263,48 18.8782123,48 C21.4256983,48 23.8927374,47.5065922 26.2203352,46.5358659 C28.4619513,45.6028164 30.5003562,44.2420581 32.221676,42.5296089 C33.9593296,40.8134078 35.3215642,38.8075978 36.270838,36.5818994 C37.2561668,34.276712 37.7616368,31.794982 37.7564645,29.2880447 C37.7564645,26.670838 37.2201117,24.1287151 36.1528492,21.7313966 Z M29.6581006,39.9284916 C26.7781006,42.781676 22.9541899,44.3477095 18.8782123,44.3477095 C14.8022346,44.3477095 10.978324,42.781676 8.09832402,39.9284916 C5.22905028,37.0806704 3.64692737,33.3050279 3.64692737,29.2880447 C3.64692737,26.9550838 4.17251397,24.7186592 5.20759777,22.6377654 C6.21586592,20.6051397 7.7175419,18.7870391 9.54100559,17.3872626 C10.7039362,16.4980197 11.7587189,15.4756365 12.6837989,14.3410056 C14.024581,12.7052514 15.0757542,10.8817877 15.8051397,8.92424581 C16.1043299,8.11676147 16.321732,7.28129073 16.4540782,6.43039106 C17.7465922,7.62100559 18.8299441,9.05832402 19.7363128,10.7423464 C21.5275978,14.0996648 22.3535196,17.0869274 22.1926257,19.6290503 C22.1147455,20.842077 22.5969669,22.0239147 23.5012291,22.8362011 C24.2825076,23.5419419 25.3140501,23.9051067 26.3651397,23.8444693 C27.421676,23.790838 28.3924022,23.3242458 29.1003352,22.5358659 C29.8136313,21.7367598 30.4303911,20.9215642 30.9452514,20.0902793 C31.6960894,21.0502793 32.3235754,22.0960894 32.8223464,23.2223464 C33.6750838,25.1423464 34.1094972,27.1856983 34.1094972,29.2880447 C34.1094972,33.3050279 32.5273743,37.0860335 29.6581006,39.9284916 L29.6581006,39.9284916 Z" fill="#000"></path>
</svg>
