<svg width="48" height="48" viewBox="0 0 48 48" fill="none" xmlns="http://www.w3.org/2000/svg">
  <rect width="48" height="48" fill="white" fill-opacity="0.01"/>
  <path d="M35.9452514,20.0741263 C35.4303911,20.9054112 34.8136313,21.7206068 34.1003352,22.5197129 C33.401012,23.3051012 32.4154797,23.7766108 31.3651397,23.8283163 C30.3140501,23.8889537 29.2825076,23.5257889 28.5012291,22.8200481 C27.5969669,22.0077617 27.1147455,20.825924 27.1926257,19.6128973 C27.3535196,17.0707744 26.5275978,14.0835118 24.7363128,10.7261934 C23.8299441,9.04217103 22.7465922,7.6048526 21.4540782,6.41423807 C21.321732,7.26513774 21.1043299,8.10060848 20.8051397,8.90809282 C20.0709308,10.8736456 19.0162085,12.7040056 17.6837989,14.3248526 C16.7587189,15.4594835 15.7039362,16.4818667 14.5410056,17.3711096 C12.7175419,18.7708861 11.2158659,20.5889867 10.2075978,22.6216124 C9.17592212,24.6863482 8.64146435,26.9637628 8.64684507,29.2718917 C8.64684507,33.2888749 10.2290503,37.0645174 13.098324,39.9123386 C15.978324,42.765523 19.8022346,44.3315565 23.8782123,44.3315565 C27.9541899,44.3315565 31.7781006,42.765523 34.6581006,39.9123386 C37.5273743,37.0698805 39.1094972,33.2888749 39.1094972,29.2718917 C39.1094972,27.1695453 38.6750838,25.1261934 37.8223464,23.2061934 C37.3235754,22.0799364 36.6960894,21.0341263 35.9452514,20.0741263 L35.9452514,20.0741263 Z" fill="#2F88FF"></path>
  <path d="M41.1528492,21.7152436 C40.1116752,19.3718575 38.5980986,17.268552 36.7068156,15.5369196 L35.1461453,14.1049643 C35.0385503,14.0089426 34.8902775,13.9726557 34.7504996,14.0081378 C34.6107217,14.0436199 34.4977082,14.1462332 34.4489385,14.2819476 L33.7517318,16.2823945 C33.3173184,17.5373666 32.5182123,18.8191543 31.3865922,20.0794895 C31.3115084,20.1599364 31.2256983,20.1813889 31.1667039,20.186752 C31.1077095,20.1921152 31.0165363,20.1813889 30.9360894,20.1063051 C30.8610056,20.0419476 30.8234637,19.9454112 30.8288268,19.8488749 C31.0272626,16.6202716 30.0618994,12.9787073 27.9488268,9.01535539 C26.2004469,5.7223945 23.7709497,3.15345595 20.735419,1.36217103 L18.5204469,0.0589308095 C18.230838,-0.112689302 17.8607821,0.112562095 17.8768715,0.45043919 L17.9948603,3.02474086 C18.0753073,4.78384701 17.8715084,6.33915427 17.3888268,7.63166824 C16.7988827,9.21379114 15.9515084,10.6832883 14.8681564,12.0026179 C14.1142227,12.9195153 13.2597061,13.7488462 12.3206704,14.4750202 C10.0590688,16.2135612 8.22009398,18.4412325 6.94145251,20.9912213 C5.6659608,23.5634478 5.00155617,26.3954267 5,29.2665286 C5,31.7979252 5.49877095,34.2488749 6.48558659,36.5603833 C7.43843391,38.7859014 8.81349855,40.8056983 10.5347486,42.5080928 C12.2724022,44.2242939 14.2889385,45.5758023 16.5360894,46.5143498 C18.8636872,47.4904392 21.3307263,47.983847 23.8782123,47.983847 C26.4256983,47.983847 28.8927374,47.4904392 31.2203352,46.5197129 C33.4619513,45.5866634 35.5003562,44.2259051 37.221676,42.5134559 C38.9593296,40.7972548 40.3215642,38.7914448 41.270838,36.5657464 C42.2561668,34.260559 42.7616368,31.778829 42.7565038,29.2718917 C42.7565038,26.654685 42.2201117,24.1125621 41.1528492,21.7152436 Z M34.6581006,39.9123386 C31.7781006,42.765523 27.9541899,44.3315565 23.8782123,44.3315565 C19.8022346,44.3315565 15.978324,42.765523 13.098324,39.9123386 C10.2290503,37.0645174 8.64692737,33.2888749 8.64692737,29.2718917 C8.64692737,26.9389308 9.17251397,24.7025062 10.2075978,22.6216124 C11.2158659,20.5889867 12.7175419,18.7708861 14.5410056,17.3711096 C15.7039362,16.4818667 16.7587189,15.4594835 17.6837989,14.3248526 C19.024581,12.6890984 20.0757542,10.8656347 20.8051397,8.90809282 C21.1043299,8.10060848 21.321732,7.26513774 21.4540782,6.41423807 C22.7465922,7.6048526 23.8299441,9.04217103 24.7363128,10.7261934 C26.5275978,14.0835118 27.3535196,17.0707744 27.1926257,19.6128973 C27.1147455,20.825924 27.5969669,22.0077617 28.5012291,22.8200481 C29.2825076,23.5257889 30.3140501,23.8889537 31.3651397,23.8283163 C32.421676,23.774685 33.3924022,23.3080928 34.1003352,22.5197129 C34.8136313,21.7206068 35.4303911,20.9054112 35.9452514,20.0741263 C36.6960894,21.0341263 37.3235754,22.0799364 37.8223464,23.2061934 C38.6750838,25.1261934 39.1094972,27.1695453 39.1094972,29.2718917 C39.1094972,33.2888749 37.5273743,37.0698805 34.6581006,39.9123386 L34.6581006,39.9123386 Z" fill="#000"></path>
</svg>
