<?xml version="1.0" encoding="UTF-8"?>
<svg width="48" height="48" viewBox="0 0 48 48" fill="none" xmlns="http://www.w3.org/2000/svg">
  <rect width="48" height="48" fill="white" fill-opacity="0.01"/>
  <path d="M46.08,0 L1.92,0 C0.858,0 0,0.858 0,1.92 L0,46.08 C0,47.142 0.858,48 1.92,48 L46.08,48 C47.142,48 48,47.142 48,46.08 L48,1.92 C48,0.858 47.142,0 46.08,0 Z M43.68,43.68 L4.32,43.68 L4.32,4.32 L43.68,4.32 L43.68,43.68 Z" fill="#000"></path>
  <path d="M4.32,43.68 L43.68,43.68 L43.68,4.32 L4.32,4.32 L4.32,43.68 Z M15.198,23.61 L29.958,12.93 C30.276,12.702 30.72,12.93 30.72,13.32 L30.72,16.134 C30.72,16.752 30.426,17.328 29.928,17.688 L21.204,24 L29.928,30.312 C30.426,30.672 30.72,31.254 30.72,31.866 L30.72,34.68 C30.72,35.07 30.276,35.298 29.958,35.064 L15.198,24.384 C15.073583,24.2943507 14.9998548,24.1503511 14.9998548,23.997 C14.9998548,23.8436489 15.073583,23.6996493 15.198,23.61 L15.198,23.61 Z" fill="#2F88FF"></path>
  <path d="M15.198,24.384 L29.958,35.064 C30.276,35.298 30.72,35.07 30.72,34.68 L30.72,31.866 C30.72,31.254 30.426,30.672 29.928,30.312 L21.204,24 L29.928,17.688 C30.426,17.328 30.72,16.752 30.72,16.134 L30.72,13.32 C30.72,12.93 30.276,12.702 29.958,12.93 L15.198,23.61 C15.073583,23.6996493 14.9998548,23.8436489 14.9998548,23.997 C14.9998548,24.1503511 15.073583,24.2943507 15.198,24.384 Z" fill="#000"></path>
</svg>
