<svg width="48" height="48" viewBox="0 0 48 48" fill="none" xmlns="http://www.w3.org/2000/svg">
  <rect width="48" height="48" fill="white" fill-opacity="0.01"/>
  <path d="M19.44,26.1599476 C16.908,26.1599476 14.526,27.144 12.738,28.938 C10.9522634,30.7101098 9.95160786,33.1242182 9.95994764,35.64 L9.95994764,43.68 L28.92,43.68 L28.92,35.64 C28.92,33.108 27.936,30.726 26.142,28.938 C24.3698902,27.1522634 21.9557818,26.1516079 19.44,26.1599476 L19.44,26.1599476 Z M9.96,12.36 C9.96,14.892 10.944,17.274 12.738,19.062 C14.526,20.856 16.908,21.84 19.44,21.84 C21.972,21.84 24.354,20.856 26.142,19.062 C27.936,17.274 28.92,14.892 28.92,12.36 L28.92,4.32 L9.96,4.32 L9.96,12.36 Z" fill="#2F88FF"></path>
  <path d="M33.24,12.36 L33.24,4.32 L38.4,4.32 C38.664,4.32 38.88,4.104 38.88,3.84 L38.88,0.48 C38.88,0.216 38.664,0 38.4,0 L0.48,0 C0.216,0 0,0.216 0,0.48 L0,3.84 C0,4.104 0.216,4.32 0.48,4.32 L5.64,4.32 L5.64,12.36 C5.64,17.25 8.184,21.552 12.024,24 C8.184,26.448 5.64,30.75 5.64,35.64 L5.64,43.68 L0.48,43.68 C0.216,43.68 0,43.896 0,44.16 L0,47.52 C0,47.784 0.216,48 0.48,48 L38.4,48 C38.664,48 38.88,47.784 38.88,47.52 L38.88,44.16 C38.88,43.896 38.664,43.68 38.4,43.68 L33.24,43.68 L33.24,35.64 C33.24,30.75 30.696,26.448 26.856,24 C30.696,21.552 33.24,17.25 33.24,12.36 Z M28.92,35.64 L28.92,43.68 L9.96,43.68 L9.96,35.64 C9.96,33.108 10.944,30.726 12.738,28.938 C14.526,27.144 16.908,26.16 19.44,26.16 C21.972,26.16 24.354,27.144 26.142,28.938 C27.936,30.726 28.92,33.108 28.92,35.64 Z M28.92,12.36 C28.92,14.892 27.936,17.274 26.142,19.062 C24.354,20.856 21.972,21.84 19.44,21.84 C16.908,21.84 14.526,20.856 12.738,19.062 C10.9522634,17.2898902 9.95160786,14.8757818 9.95994764,12.36 L9.95994764,4.32 L28.92,4.32 L28.92,12.36 Z" fill="#000"></path>
</svg>
