<svg width="48" height="48" viewBox="0 0 48 48" fill="none" xmlns="http://www.w3.org/2000/svg">
  <rect width="48" height="48" fill="white" fill-opacity="0.01"/>
  <path d="M24.44,26.1598959 C21.908,26.1598959 19.526,27.144 17.738,28.938 C15.9522634,30.7101098 14.9516079,33.1242182 14.9598959,35.64 L14.9598959,43.68 L33.92,43.68 L33.92,35.64 C33.92,33.108 32.936,30.726 31.142,28.938 C29.3698902,27.1522634 26.9557818,26.1516079 24.44,26.1598959 L24.44,26.1598959 Z M14.96,12.36 C14.96,14.892 15.944,17.274 17.738,19.062 C19.526,20.856 21.908,21.84 24.44,21.84 C26.972,21.84 29.354,20.856 31.142,19.062 C32.936,17.274 33.92,14.892 33.92,12.36 L33.92,4.32 L14.96,4.32 L14.96,12.36 Z" fill="#2F88FF"></path>
  <path d="M38.24,12.36 L38.24,4.32 L43.4,4.32 C43.664,4.32 43.88,4.104 43.88,3.84 L43.88,0.48 C43.88,0.216 43.664,0 43.4,0 L5.48,0 C5.216,0 5,0.216 5,0.48 L5,3.84 C5,4.104 5.216,4.32 5.48,4.32 L10.64,4.32 L10.64,12.36 C10.64,17.25 13.184,21.552 17.024,24 C13.184,26.448 10.64,30.75 10.64,35.64 L10.64,43.68 L5.48,43.68 C5.216,43.68 5,43.896 5,44.16 L5,47.52 C5,47.784 5.216,48 5.48,48 L43.4,48 C43.664,48 43.88,47.784 43.88,47.52 L43.88,44.16 C43.88,43.896 43.664,43.68 43.4,43.68 L38.24,43.68 L38.24,35.64 C38.24,30.75 35.696,26.448 31.856,24 C35.696,21.552 38.24,17.25 38.24,12.36 Z M33.92,35.64 L33.92,43.68 L14.96,43.68 L14.96,35.64 C14.96,33.108 15.944,30.726 17.738,28.938 C19.526,27.144 21.908,26.16 24.44,26.16 C26.972,26.16 29.354,27.144 31.142,28.938 C32.936,30.726 33.92,33.108 33.92,35.64 Z M33.92,12.36 C33.92,14.892 32.936,17.274 31.142,19.062 C29.354,20.856 26.972,21.84 24.44,21.84 C21.908,21.84 19.526,20.856 17.738,19.062 C15.9522634,17.2898902 14.9516079,14.8757818 14.9598959,12.36 L14.9598959,4.32 L33.92,4.32 L33.92,12.36 Z" fill="#000"></path>
</svg>
