<svg width="48" height="48" viewBox="0 0 48 48" fill="none" xmlns="http://www.w3.org/2000/svg">
  <rect width="48" height="48" fill="white" fill-opacity="0.01"/>
  <path d="M16.3125,24.225 L16.3125,30.0321429 L18.3964286,30.0321429 C20.7910714,30.0321429 22.2107143,29.4482143 22.2107143,27.1232143 C22.2107143,25.2803571 21.1339286,24.225 19.3232143,24.225 L16.3125,24.225 L16.3125,24.225 Z" fill="#2F88FF"></path>
  <path d="M20.0357143,15.4285714 L20.0357143,3.85714286 L3.85714286,3.85714286 L3.85714286,44.1428571 L33.8571429,44.1428571 L33.8571429,17.6785714 L22.2857143,17.6785714 C21.0430736,17.6785714 20.0357143,16.6712121 20.0357143,15.4285714 Z M24.8571429,27.1285714 C24.8571429,30.0857143 22.8857143,32.1696429 19.7035714,32.1696429 L16.3125,32.1696429 L16.3125,37.2857143 C16.3125,37.5214286 16.1196429,37.7142857 15.8839286,37.7142857 L14.1428571,37.7142857 C13.9071429,37.7142857 13.7142857,37.5214286 13.7142857,37.2857143 L13.7142857,22.5 C13.7142857,22.2642857 13.9071429,22.0714286 14.1428571,22.0714286 L14.1428571,22.0767857 L19.7142857,22.0767857 C22.9125,22.0767857 24.8571429,24.2089286 24.8571429,27.1285714 Z" fill="#2F88FF"></path>
  <path d="M37.2107143,12.0321429 L25.6821429,0.503571429 C25.3607143,0.182142857 24.9267857,0 24.4714286,0 L1.71428571,0 C0.766071429,0 0,0.766071429 0,1.71428571 L0,46.2857143 C0,47.2339286 0.766071429,48 1.71428571,48 L36,48 C36.9482143,48 37.7142857,47.2339286 37.7142857,46.2857143 L37.7142857,13.2482143 C37.7142857,12.7928571 37.5321429,12.3535714 37.2107143,12.0321429 Z M23.6785714,3.95357143 L33.7607143,14.0357143 L23.6785714,14.0357143 L23.6785714,3.95357143 Z M33.8571429,44.1428571 L3.85714286,44.1428571 L3.85714286,3.85714286 L20.0357143,3.85714286 L20.0357143,15.4285714 C20.0357143,16.6712121 21.0430736,17.6785714 22.2857143,17.6785714 L33.8571429,17.6785714 L33.8571429,44.1428571 Z" fill="#000"></path>
  <path d="M14.1428571,22.0766767 C13.9071429,22.0714286 13.7142857,22.2642857 13.7142857,22.5 L13.7142857,37.2857143 C13.7142857,37.5214286 13.9071429,37.7142857 14.1428571,37.7142857 L15.8839286,37.7142857 C16.1196429,37.7142857 16.3125,37.5214286 16.3125,37.2857143 L16.3125,32.1696429 L19.7035714,32.1696429 C22.8857143,32.1696429 24.8571429,30.0857143 24.8571429,27.1285714 C24.8571429,24.2089286 22.9125,22.0766767 19.7142857,22.0766767 L14.1428571,22.0766767 Z M22.2107143,27.1232143 C22.2107143,29.4482143 20.7910714,30.0321429 18.3964286,30.0321429 L16.3125,30.0321429 L16.3125,24.225 L19.3232143,24.225 C21.1339286,24.225 22.2107143,25.2803571 22.2107143,27.1232143 Z" fill="#000"></path>
</svg>
