<svg width="48" height="48" viewBox="0 0 48 48" fill="none" xmlns="http://www.w3.org/2000/svg">
  <rect width="48" height="48" fill="white" fill-opacity="0.01"/>
  <path d="M21.3125,24.225 L21.3125,30.0321429 L23.3964286,30.0321429 C25.7910714,30.0321429 27.2107143,29.4482143 27.2107143,27.1232143 C27.2107143,25.2803571 26.1339286,24.225 24.3232143,24.225 L21.3125,24.225 L21.3125,24.225 Z" fill="#2F88FF"></path>
  <path d="M25.0357143,15.4285714 L25.0357143,3.85714286 L8.85714286,3.85714286 L8.85714286,44.1428571 L38.8571429,44.1428571 L38.8571429,17.6785714 L27.2857143,17.6785714 C26.0430736,17.6785714 25.0357143,16.6712121 25.0357143,15.4285714 Z M29.8571429,27.1285714 C29.8571429,30.0857143 27.8857143,32.1696429 24.7035714,32.1696429 L21.3125,32.1696429 L21.3125,37.2857143 C21.3125,37.5214286 21.1196429,37.7142857 20.8839286,37.7142857 L19.1428571,37.7142857 C18.9071429,37.7142857 18.7142857,37.5214286 18.7142857,37.2857143 L18.7142857,22.5 C18.7142857,22.2642857 18.9071429,22.0714286 19.1428571,22.0714286 L19.1428571,22.0767857 L24.7142857,22.0767857 C27.9125,22.0767857 29.8571429,24.2089286 29.8571429,27.1285714 Z" fill="#2F88FF"></path>
  <path d="M42.2107143,12.0321429 L30.6821429,0.503571429 C30.3607143,0.182142857 29.9267857,0 29.4714286,0 L6.71428571,0 C5.76607143,0 5,0.766071429 5,1.71428571 L5,46.2857143 C5,47.2339286 5.76607143,48 6.71428571,48 L41,48 C41.9482143,48 42.7142857,47.2339286 42.7142857,46.2857143 L42.7142857,13.2482143 C42.7142857,12.7928571 42.5321429,12.3535714 42.2107143,12.0321429 Z M28.6785714,3.95357143 L38.7607143,14.0357143 L28.6785714,14.0357143 L28.6785714,3.95357143 Z M38.8571429,44.1428571 L8.85714286,44.1428571 L8.85714286,3.85714286 L25.0357143,3.85714286 L25.0357143,15.4285714 C25.0357143,16.6712121 26.0430736,17.6785714 27.2857143,17.6785714 L38.8571429,17.6785714 L38.8571429,44.1428571 Z" fill="#000000"></path>
  <path d="M19.1428571,22.0765721 C18.9071429,22.0714286 18.7142857,22.2642857 18.7142857,22.5 L18.7142857,37.2857143 C18.7142857,37.5214286 18.9071429,37.7142857 19.1428571,37.7142857 L20.8839286,37.7142857 C21.1196429,37.7142857 21.3125,37.5214286 21.3125,37.2857143 L21.3125,32.1696429 L24.7035714,32.1696429 C27.8857143,32.1696429 29.8571429,30.0857143 29.8571429,27.1285714 C29.8571429,24.2089286 27.9125,22.0765721 24.7142857,22.0765721 L19.1428571,22.0765721 Z M27.2107143,27.1232143 C27.2107143,29.4482143 25.7910714,30.0321429 23.3964286,30.0321429 L21.3125,30.0321429 L21.3125,24.225 L24.3232143,24.225 C26.1339286,24.225 27.2107143,25.2803571 27.2107143,27.1232143 Z" fill="#FFFFFF"></path>
</svg>
