<svg width="48" height="48" viewBox="0 0 48 48" fill="none" xmlns="http://www.w3.org/2000/svg">
  <rect width="48" height="48" fill="white" fill-opacity="0.01"/>
  <path d="M30,29.2660714 L26.0303571,29.2660714 L26.0303571,16.2857143 C26.0303571,16.05 25.8375,15.8571429 25.6017857,15.8571429 L22.3875,15.8571429 C22.1517857,15.8571429 21.9589286,16.05 21.9589286,16.2857143 L21.9589286,29.2660714 L18,29.2660714 C17.6410714,29.2660714 17.4428571,29.6785714 17.6625,29.9571429 L23.6625,37.5482143 C23.7437302,37.6520067 23.8682001,37.7126509 24,37.7126509 C24.1317999,37.7126509 24.2562698,37.6520067 24.3375,37.5482143 L30.3375,29.9571429 C30.5571429,29.6785714 30.3589286,29.2660714 30,29.2660714 L30,29.2660714 Z" fill="#000"></path>
  <path d="M40.0392857,11.0732143 C37.5857143,4.60178571 31.3339286,0 24.0107143,0 C16.6875,0 10.4357143,4.59642857 7.98214286,11.0678571 C3.39107143,12.2732143 0,16.4571429 0,21.4285714 C0,27.3482143 4.79464286,32.1428571 10.7089286,32.1428571 L12.8571429,32.1428571 C13.0928571,32.1428571 13.2857143,31.95 13.2857143,31.7142857 L13.2857143,28.5 C13.2857143,28.2642857 13.0928571,28.0714286 12.8571429,28.0714286 L10.7089286,28.0714286 C8.90357143,28.0714286 7.20535714,27.3535714 5.94107143,26.0517857 C4.68214286,24.7553571 4.0125,23.0089286 4.07142857,21.1982143 C4.11964286,19.7839286 4.60178571,18.4553571 5.475,17.3357143 C6.36964286,16.1946429 7.62321429,15.3642857 9.01607143,14.9946429 L11.0464286,14.4642857 L11.7910714,12.5035714 C12.2517857,11.2821429 12.8946429,10.1410714 13.7035714,9.10714286 C14.50217,8.08236272 15.4481486,7.18151673 16.5107143,6.43392857 C18.7125,4.88571429 21.3053571,4.06607143 24.0107143,4.06607143 C26.7160714,4.06607143 29.3089286,4.88571429 31.5107143,6.43392857 C32.5767857,7.18392857 33.5196429,8.08392857 34.3178571,9.10714286 C35.1267857,10.1410714 35.7696429,11.2875 36.2303571,12.5035714 L36.9696429,14.4589286 L38.9946429,14.9946429 C41.8982143,15.7767857 43.9285714,18.4178571 43.9285714,21.4285714 C43.9285714,23.2017857 43.2375,24.8732143 41.9839286,26.1267857 C40.7421779,27.3757973 39.0523077,28.0760517 37.2910714,28.0714286 L35.1428571,28.0714286 C34.9071429,28.0714286 34.7142857,28.2642857 34.7142857,28.5 L34.7142857,31.7142857 C34.7142857,31.95 34.9071429,32.1428571 35.1428571,32.1428571 L37.2910714,32.1428571 C43.2053571,32.1428571 48,27.3482143 48,21.4285714 C48,16.4625 44.6196429,12.2839286 40.0392857,11.0732143 Z" fill="#000"></path>
</svg>
