<svg width="48" height="48" viewBox="0 0 48 48" fill="none" xmlns="http://www.w3.org/2000/svg">
  <rect width="48" height="48" fill="white" fill-opacity="0.01"/>
  <circle fill="#2F88FF" cx="31.5" cy="34.5" r="7.5"></circle>
  <path d="M33.3853211,12.9908257 L33.3853211,10.3486239 C33.3853211,10.106422 33.187156,9.90825688 32.9449541,9.90825688 L11.8073395,9.90825688 C11.5651376,9.90825688 11.3669725,10.106422 11.3669725,10.3486239 L11.3669725,12.9908257 C11.3669725,13.2330275 11.5651376,13.4311927 11.8073395,13.4311927 L32.9449541,13.4311927 C33.187156,13.4311927 33.3853211,13.2330275 33.3853211,12.9908257 Z M11.8073395,17.8348624 C11.5651376,17.8348624 11.3669725,18.0330275 11.3669725,18.2752294 L11.3669725,20.9174312 C11.3669725,21.159633 11.5651376,21.3577982 11.8073395,21.3577982 L21.9357798,21.3577982 C22.1779817,21.3577982 22.3761468,21.159633 22.3761468,20.9174312 L22.3761468,18.2752294 C22.3761468,18.0330275 22.1779817,17.8348624 21.9357798,17.8348624 L11.8073395,17.8348624 Z M19.733945,42.7155963 L6.96330275,42.7155963 L6.96330275,3.96330275 L37.7889908,3.96330275 L37.7889908,22.8990826 C37.7889908,23.1412844 37.987156,23.3394495 38.2293578,23.3394495 L41.3119266,23.3394495 C41.5541284,23.3394495 41.7522936,23.1412844 41.7522936,22.8990826 L41.7522936,1.76146789 C41.7522936,0.787155963 40.9651376,0 39.9908257,0 L4.76146789,0 C3.78715596,0 3,0.787155963 3,1.76146789 L3,44.9174312 C3,45.8917431 3.78715596,46.6788991 4.76146789,46.6788991 L19.733945,46.6788991 C19.9761468,46.6788991 20.1743119,46.4807339 20.1743119,46.2385321 L20.1743119,43.1559633 C20.1743119,42.9137615 19.9761468,42.7155963 19.733945,42.7155963 Z M44.2678899,45.5504587 L39.1321101,40.4146789 C40.359633,38.7908257 41.0917431,36.7651376 41.0917431,34.5688073 C41.0917431,29.2183486 36.7541284,24.8807339 31.4036697,24.8807339 C26.053211,24.8807339 21.7155963,29.2183486 21.7155963,34.5688073 C21.7155963,39.9192661 26.053211,44.2568807 31.4036697,44.2568807 C33.3743119,44.2568807 35.2018349,43.6678899 36.7321101,42.6605505 L41.9449541,47.8733945 C42.0330275,47.9614679 42.1431193,48 42.253211,48 C42.3633028,48 42.4788991,47.9559633 42.5614679,47.8733945 L44.2678899,46.1669725 C44.34991,46.0853587 44.3960228,45.9744226 44.3960228,45.8587156 C44.3960228,45.7430086 44.34991,45.6320724 44.2678899,45.5504587 L44.2678899,45.5504587 Z M31.4036697,40.733945 C27.9963303,40.733945 25.2385321,37.9761468 25.2385321,34.5688073 C25.2385321,31.1614679 27.9963303,28.4036697 31.4036697,28.4036697 C34.8110092,28.4036697 37.5688073,31.1614679 37.5688073,34.5688073 C37.5688073,37.9761468 34.8110092,40.733945 31.4036697,40.733945 Z" fill="#000000" fill-rule="nonzero"></path>
</svg>
