<svg width="48" height="48" viewBox="0 0 48 48" fill="none" xmlns="http://www.w3.org/2000/svg">
  <rect width="48" height="48" fill="white" fill-opacity="0.01"/>
  <path d="M30.3853211,12.9908257 L30.3853211,10.3486239 C30.3853211,10.106422 30.187156,9.90825688 29.9449541,9.90825688 L8.80733945,9.90825688 C8.56513761,9.90825688 8.36697248,10.106422 8.36697248,10.3486239 L8.36697248,12.9908257 C8.36697248,13.2330275 8.56513761,13.4311927 8.80733945,13.4311927 L29.9449541,13.4311927 C30.187156,13.4311927 30.3853211,13.2330275 30.3853211,12.9908257 Z M8.80733945,17.8348624 C8.56513761,17.8348624 8.36697248,18.0330275 8.36697248,18.2752294 L8.36697248,20.9174312 C8.36697248,21.159633 8.56513761,21.3577982 8.80733945,21.3577982 L18.9357798,21.3577982 C19.1779817,21.3577982 19.3761468,21.159633 19.3761468,20.9174312 L19.3761468,18.2752294 C19.3761468,18.0330275 19.1779817,17.8348624 18.9357798,17.8348624 L8.80733945,17.8348624 Z M16.733945,42.7155963 L3.96330275,42.7155963 L3.96330275,3.96330275 L34.7889908,3.96330275 L34.7889908,22.8990826 C34.7889908,23.1412844 34.987156,23.3394495 35.2293578,23.3394495 L38.3119266,23.3394495 C38.5541284,23.3394495 38.7522936,23.1412844 38.7522936,22.8990826 L38.7522936,1.76146789 C38.7522936,0.787155963 37.9651376,0 36.9908257,0 L1.76146789,0 C0.787155963,0 0,0.787155963 0,1.76146789 L0,44.9174312 C0,45.8917431 0.787155963,46.6788991 1.76146789,46.6788991 L16.733945,46.6788991 C16.9761468,46.6788991 17.1743119,46.4807339 17.1743119,46.2385321 L17.1743119,43.1559633 C17.1743119,42.9137615 16.9761468,42.7155963 16.733945,42.7155963 Z M41.2678899,45.5504587 L36.1321101,40.4146789 C37.359633,38.7908257 38.0917431,36.7651376 38.0917431,34.5688073 C38.0917431,29.2183486 33.7541284,24.8807339 28.4036697,24.8807339 C23.053211,24.8807339 18.7155963,29.2183486 18.7155963,34.5688073 C18.7155963,39.9192661 23.053211,44.2568807 28.4036697,44.2568807 C30.3743119,44.2568807 32.2018349,43.6678899 33.7321101,42.6605505 L38.9449541,47.8733945 C39.0330275,47.9614679 39.1431193,48 39.253211,48 C39.3633028,48 39.4788991,47.9559633 39.5614679,47.8733945 L41.2678899,46.1669725 C41.34991,46.0853587 41.3960228,45.9744226 41.3960228,45.8587156 C41.3960228,45.7430086 41.34991,45.6320724 41.2678899,45.5504587 L41.2678899,45.5504587 Z M28.4036697,40.733945 C24.9963303,40.733945 22.2385321,37.9761468 22.2385321,34.5688073 C22.2385321,31.1614679 24.9963303,28.4036697 28.4036697,28.4036697 C31.8110092,28.4036697 34.5688073,31.1614679 34.5688073,34.5688073 C34.5688073,37.9761468 31.8110092,40.733945 28.4036697,40.733945 Z" fill="#000"></path>
</svg>
