<svg width="48" height="48" viewBox="0 0 48 48" fill="none" xmlns="http://www.w3.org/2000/svg">
  <rect width="48" height="48" fill="white" fill-opacity="0.01"/>
  <path d="M37.7142857,15.2857143 C37.7142857,15.5214286 37.5214286,15.7142857 37.2857143,15.7142857 L34.2857143,15.7142857 C34.05,15.7142857 33.8571429,15.5214286 33.8571429,15.2857143 L33.8571429,12.2857143 L25.9285714,12.2857143 L25.9285714,15.2857143 C25.9285714,15.5214286 25.7357143,15.7142857 25.5,15.7142857 L22.5,15.7142857 C22.2642857,15.7142857 22.0714286,15.5214286 22.0714286,15.2857143 L22.0714286,12.2857143 L14.1428571,12.2857143 L14.1428571,15.2857143 C14.1428571,15.5214286 13.95,15.7142857 13.7142857,15.7142857 L10.7142857,15.7142857 C10.4785714,15.7142857 10.2857143,15.5214286 10.2857143,15.2857143 L10.2857143,12.2857143 L3.85714286,12.2857143 L3.85714286,38.8571429 L44.1428571,38.8571429 L44.1428571,12.2857143 L37.7142857,12.2857143 L37.7142857,15.2857143 Z M19.2857143,33.2857143 C19.2857143,33.5214286 19.0928571,33.7142857 18.8571429,33.7142857 L9,33.7142857 C8.76428571,33.7142857 8.57142857,33.5214286 8.57142857,33.2857143 L8.57142857,30.7142857 C8.57142857,30.4785714 8.76428571,30.2857143 9,30.2857143 L18.8571429,30.2857143 C19.0928571,30.2857143 19.2857143,30.4785714 19.2857143,30.7142857 L19.2857143,33.2857143 Z M19.2857143,26 C19.2857143,26.2357143 19.0928571,26.4285714 18.8571429,26.4285714 L9,26.4285714 C8.76428571,26.4285714 8.57142857,26.2357143 8.57142857,26 L8.57142857,23.4285714 C8.57142857,23.1928571 8.76428571,23 9,23 L18.8571429,23 C19.0928571,23 19.2857143,23.1928571 19.2857143,23.4285714 L19.2857143,26 Z M39.3428571,21.1142857 L30.5035714,33.3660714 C30.3434834,33.5882446 30.0863413,33.7199021 29.8125,33.7199021 C29.5386587,33.7199021 29.2815166,33.5882446 29.1214286,33.3660714 L23.0089286,24.8910714 C22.8053571,24.6071429 23.0089286,24.2107143 23.3571429,24.2107143 L26.2982143,24.2107143 C26.5714286,24.2107143 26.8285714,24.3392857 26.9892857,24.5642857 L29.8178571,28.4803571 L35.3678571,20.7821429 C35.5285714,20.5625 35.7857143,20.4285714 36.0535714,20.4339286 L38.9946429,20.4339286 C39.3428571,20.4339286 39.5464286,20.8303571 39.3428571,21.1142857 L39.3428571,21.1142857 Z" fill="#2F88FF"></path>
  <path d="M35.3678571,20.7821429 L29.8178571,28.4803571 L26.9892857,24.5642857 C26.8285714,24.3392857 26.5714286,24.2107143 26.2982143,24.2107143 L23.3571429,24.2107143 C23.0089286,24.2107143 22.8053571,24.6071429 23.0089286,24.8910714 L29.1214286,33.3660714 C29.2815166,33.5882446 29.5386587,33.7199021 29.8125,33.7199021 C30.0863413,33.7199021 30.3434834,33.5882446 30.5035714,33.3660714 L39.3428571,21.1142857 C39.5464286,20.8303571 39.3428571,20.4339286 38.9946429,20.4339286 L36.0535714,20.4339286 C35.7857143,20.4285714 35.5285714,20.5625 35.3678571,20.7821429 Z M18.8571429,23 L9,23 C8.76428571,23 8.57142857,23.1928571 8.57142857,23.4285714 L8.57142857,26 C8.57142857,26.2357143 8.76428571,26.4285714 9,26.4285714 L18.8571429,26.4285714 C19.0928571,26.4285714 19.2857143,26.2357143 19.2857143,26 L19.2857143,23.4285714 C19.2857143,23.1928571 19.0928571,23 18.8571429,23 Z" fill="#FFFFFF"></path>
  <path d="M46.2857143,8.42857143 L37.7142857,8.42857143 L37.7142857,5.42857143 C37.7142857,5.19285714 37.5214286,5 37.2857143,5 L34.2857143,5 C34.05,5 33.8571429,5.19285714 33.8571429,5.42857143 L33.8571429,8.42857143 L25.9285714,8.42857143 L25.9285714,5.42857143 C25.9285714,5.19285714 25.7357143,5 25.5,5 L22.5,5 C22.2642857,5 22.0714286,5.19285714 22.0714286,5.42857143 L22.0714286,8.42857143 L14.1428571,8.42857143 L14.1428571,5.42857143 C14.1428571,5.19285714 13.95,5 13.7142857,5 L10.7142857,5 C10.4785714,5 10.2857143,5.19285714 10.2857143,5.42857143 L10.2857143,8.42857143 L1.71428571,8.42857143 C0.766071429,8.42857143 0,9.19464286 0,10.1428571 L0,41 C0,41.9482143 0.766071429,42.7142857 1.71428571,42.7142857 L46.2857143,42.7142857 C47.2339286,42.7142857 48,41.9482143 48,41 L48,10.1428571 C48,9.19464286 47.2339286,8.42857143 46.2857143,8.42857143 Z M44.1428571,38.8571429 L3.85714286,38.8571429 L3.85714286,12.2857143 L10.2857143,12.2857143 L10.2857143,15.2857143 C10.2857143,15.5214286 10.4785714,15.7142857 10.7142857,15.7142857 L13.7142857,15.7142857 C13.95,15.7142857 14.1428571,15.5214286 14.1428571,15.2857143 L14.1428571,12.2857143 L22.0714286,12.2857143 L22.0714286,15.2857143 C22.0714286,15.5214286 22.2642857,15.7142857 22.5,15.7142857 L25.5,15.7142857 C25.7357143,15.7142857 25.9285714,15.5214286 25.9285714,15.2857143 L25.9285714,12.2857143 L33.8571429,12.2857143 L33.8571429,15.2857143 C33.8571429,15.5214286 34.05,15.7142857 34.2857143,15.7142857 L37.2857143,15.7142857 C37.5214286,15.7142857 37.7142857,15.5214286 37.7142857,15.2857143 L37.7142857,12.2857143 L44.1428571,12.2857143 L44.1428571,38.8571429 Z" fill="#000"></path>
  <path d="M18.8571429,30.2857143 L9,30.2857143 C8.76428571,30.2857143 8.57142857,30.4785714 8.57142857,30.7142857 L8.57142857,33.2857143 C8.57142857,33.5214286 8.76428571,33.7142857 9,33.7142857 L18.8571429,33.7142857 C19.0928571,33.7142857 19.2857143,33.5214286 19.2857143,33.2857143 L19.2857143,30.7142857 C19.2857143,30.4785714 19.0928571,30.2857143 18.8571429,30.2857143 Z" fill="#FFFFFF"></path>
</svg>
