<svg width="48" height="48" viewBox="0 0 48 48" fill="none" xmlns="http://www.w3.org/2000/svg">
  <rect width="48" height="48" fill="white" fill-opacity="0.01"/>
  <polygon fill="#2F88FF" points="5.08928571 31.2857143 37.8910714 31.2857143 43.4303571 17.5714286 10.6232143 17.5714286"></polygon>
  <path d="M46.2857143,13.9285714 L40.5,13.9285714 L40.5,7.84285714 C40.5,6.89464286 39.7339286,6.12857143 38.7857143,6.12857143 L21.9107143,6.12857143 L15.6267857,0.117857143 C15.5468303,0.0430059652 15.4416631,0.000939088885 15.3321429,0 L1.71428571,0 C0.766071429,0 0,0.766071429 0,1.71428571 L0,33.4285714 C0,34.3767857 0.766071429,35.1428571 1.71428571,35.1428571 L39.1071429,35.1428571 C39.8035714,35.1428571 40.4357143,34.7196429 40.6982143,34.0714286 L47.8767857,16.2857143 C47.9571429,16.0821429 48,15.8625 48,15.6428571 C48,14.6946429 47.2339286,13.9285714 46.2857143,13.9285714 Z M3.85714286,3.85714286 L13.9553571,3.85714286 L20.3625,9.98571429 L36.6428571,9.98571429 L36.6428571,13.9285714 L9.32142857,13.9285714 C8.625,13.9285714 7.99285714,14.3517857 7.73035714,15 L3.85714286,24.6 L3.85714286,3.85714286 Z M37.8910714,31.2857143 L5.08928571,31.2857143 L10.6232143,17.5714286 L43.4303571,17.5714286 L37.8910714,31.2857143 Z" fill="#000"></path>
</svg>
