<svg width="48" height="48" viewBox="0 0 48 48" fill="none" xmlns="http://www.w3.org/2000/svg">
  <rect width="48" height="48" fill="white" fill-opacity="0.01"/>
  <polygon fill="#2F88FF" points="5.08928571 37.2857143 37.8910714 37.2857143 43.4303571 23.5714286 10.6232143 23.5714286"></polygon>
  <path d="M46.2857143,19.9285714 L40.5,19.9285714 L40.5,13.8428571 C40.5,12.8946429 39.7339286,12.1285714 38.7857143,12.1285714 L21.9107143,12.1285714 L15.6267857,6.11785714 C15.5468303,6.04300597 15.4416631,6.00093909 15.3321429,6 L1.71428571,6 C0.766071429,6 0,6.76607143 0,7.71428571 L0,39.4285714 C0,40.3767857 0.766071429,41.1428571 1.71428571,41.1428571 L39.1071429,41.1428571 C39.8035714,41.1428571 40.4357143,40.7196429 40.6982143,40.0714286 L47.8767857,22.2857143 C47.9571429,22.0821429 48,21.8625 48,21.6428571 C48,20.6946429 47.2339286,19.9285714 46.2857143,19.9285714 Z M3.85714286,9.85714286 L13.9553571,9.85714286 L20.3625,15.9857143 L36.6428571,15.9857143 L36.6428571,19.9285714 L9.32142857,19.9285714 C8.625,19.9285714 7.99285714,20.3517857 7.73035714,21 L3.85714286,30.6 L3.85714286,9.85714286 Z M37.8910714,37.2857143 L5.08928571,37.2857143 L10.6232143,23.5714286 L43.4303571,23.5714286 L37.8910714,37.2857143 Z" fill="#000"></path>
</svg>
