<svg width="48" height="48" viewBox="0 0 48 48" fill="none" xmlns="http://www.w3.org/2000/svg">
  <rect width="48" height="48" fill="white" fill-opacity="0.01"/>
  <path fill="#000" d="M15.41078,8.63475059 C14.4144627,8.63475059 13.6966856,9.35252762 13.6966856,10.3434884 C13.6966856,11.3344493 14.4198192,12.0522263 15.41078,12.0522263 C16.4070974,12.0522263 17.124904,11.3344493 17.124904,10.3434884 C17.130231,9.35788416 16.4070974,8.63475059 15.41078,8.63475059 L15.41078,8.63475059 Z M36.5102109,13.79846 C35.7710077,13.0592568 34.7586207,12.6468028 33.660529,12.6468028 C33.4516237,12.6468028 33.2641446,12.668229 33.0873786,12.7003683 L33.0873786,12.6468028 L32.894543,12.6468028 C32.599933,11.0077 31.8982256,9.40609307 30.8536994,7.96518246 C29.8520254,6.58855039 28.550385,5.39939739 27.0612655,4.48878473 L28.4057583,2.57114161 L28.4057583,2.39437563 C28.4057583,2.35152327 28.4271845,2.27117509 28.4432541,2.19082692 C28.4753934,2.06226984 28.5182457,1.89621694 28.5182457,1.71409441 C28.5182457,0.723133579 27.7951122,0.00535654503 26.8041513,0.00535654503 C26.2792099,0.00535654503 25.759625,0.310679612 25.4168062,0.830264479 L23.8473385,3.08536994 C22.240375,2.56042852 20.5048544,2.28188818 18.8228992,2.28188818 C17.1463006,2.28188818 15.41078,2.56042852 13.79846,3.08536994 L12.2343488,0.824907934 C11.8808169,0.310679612 11.3719451,0 10.8416471,0 C9.84532976,0 9.12755273,0.717777034 9.12755273,1.70873786 C9.12755273,2.04084366 9.26146635,2.39437563 9.48644125,2.6407767 L10.6970204,4.37094074 C9.159692,5.2815534 7.83126883,6.48141948 6.82959491,7.85805156 C5.79042518,9.29896217 5.1155005,10.9005691 4.86374289,12.5396719 L4.56913291,12.5396719 L4.56913291,12.5932374 C4.39772347,12.5610981 4.21024439,12.5396719 3.99598259,12.5396719 C2.90860395,12.5396719 1.89621694,12.9414128 1.15165718,13.680616 C0.412453967,14.4198192 0,15.4268497 0,16.5195849 L0,29.1074657 C0,30.1948443 0.401740877,31.2018748 1.14630064,31.941078 C1.88550385,32.6802812 2.90324741,33.0927352 3.99598259,33.0927352 C4.20488785,33.0927352 4.39236692,33.071309 4.56913291,33.0391697 L4.56913291,38.0475393 C4.56913291,39.6116505 5.84934717,40.8918647 7.41881486,40.8918647 L9.12755273,40.8918647 L9.12755273,44.0147305 C9.12755273,45.1021091 9.52929361,46.1091396 10.2738534,46.8483428 C11.0130566,47.587546 12.0308001,48 13.1235353,48 C14.210914,48 15.223301,47.5982591 15.9678607,46.8590559 C16.7070639,46.1198527 17.1195179,45.1128222 17.1195179,44.020087 L17.1195179,40.9025778 L20.5369936,40.9025778 L20.5369936,44.0147305 C20.5369936,45.1021091 20.9387345,46.1091396 21.6832943,46.8483428 C22.4224975,47.587546 23.440241,48 24.5329762,48 C25.6257114,48 26.6327419,47.5982591 27.3773016,46.8429863 C28.1165049,46.1037831 28.5289588,45.0967526 28.5289588,44.0040174 L28.5289588,40.8865082 L30.2376967,40.8865082 C31.8071644,40.8865082 33.0873786,39.6116505 33.0873786,38.0421828 L33.0873786,33.1463006 C33.2587881,33.1784399 33.4462672,33.1998661 33.660529,33.1998661 C34.7479076,33.1998661 35.7602946,32.7981252 36.5048544,32.058922 C37.2440576,31.3197188 37.6565116,30.3126883 37.6565116,29.2199531 L37.6565116,16.6320723 C37.651155,15.5446937 37.2494141,14.5430198 36.5102109,13.79846 Z M4.57448945,29.2253097 C4.57448945,29.5895547 4.3655842,29.7931034 4.00133914,29.7931034 C3.63709407,29.7931034 3.42818882,29.5895547 3.42818882,29.2253097 L3.42818882,16.6320723 C3.42818882,16.2678273 3.63709407,16.0642785 4.00133914,16.0642785 C4.3655842,16.0642785 4.57448945,16.2678273 4.57448945,16.6320723 L4.57448945,29.2253097 Z M11.59692,7.970539 C13.6056244,6.50820221 16.1660529,5.70472046 18.8282558,5.70472046 C21.4904587,5.70472046 24.0508872,6.51355875 26.0595916,7.98125209 C27.7951122,9.25075326 28.962839,10.8844995 29.4181453,12.668229 L8.23836625,12.668229 C8.69367258,10.879143 9.87211249,9.24004017 11.59692,7.970539 Z M13.7020422,44.1111483 C13.6699029,44.4111148 13.4663542,44.5771677 13.139605,44.5771677 C12.7753599,44.5771677 12.5664546,44.373619 12.5664546,44.009374 L12.5664546,40.8918647 L13.7020422,40.8918647 L13.7020422,44.1111483 Z M24.5383328,44.5771677 C24.1740877,44.5771677 23.9651825,44.373619 23.9651825,44.009374 L23.9651825,40.8918647 L25.10077,40.8918647 L25.10077,44.1111483 C25.0686307,44.4111148 24.8704386,44.5771677 24.5383328,44.5771677 Z M29.6699029,37.474389 L7.99732173,37.474389 L7.99732173,16.0696351 L29.6699029,16.0696351 L29.6699029,37.474389 Z M34.2336793,29.2253097 C34.2336793,29.5895547 34.024774,29.7931034 33.660529,29.7931034 C33.2962839,29.7931034 33.0873786,29.5895547 33.0873786,29.2253097 L33.0873786,16.6320723 C33.0873786,16.2678273 33.2962839,16.0642785 33.660529,16.0642785 C34.024774,16.0642785 34.2336793,16.2678273 34.2336793,16.6320723 L34.2336793,29.2253097 Z M22.2564446,8.63475059 C21.2601272,8.63475059 20.5423502,9.35252762 20.5423502,10.3434884 C20.5423502,11.3344493 21.2654838,12.0522263 22.2564446,12.0522263 C23.252762,12.0522263 23.9758955,11.3344493 23.9758955,10.3381319 C23.970539,9.34181453 23.2581185,8.63475059 22.2564446,8.63475059 L22.2564446,8.63475059 Z"></path>
</svg>
