<svg width="48" height="48" viewBox="0 0 48 48" fill="none" xmlns="http://www.w3.org/2000/svg">
  <rect width="48" height="48" fill="white" fill-opacity="0.01"/>
  <path d="M47.5294118,1.17647064 L13.1764706,1.17647064 C12.9176471,1.17647064 12.7058824,1.38823534 12.7058824,1.64705887 L12.7058824,4.94117652 C12.7058824,5.20000005 12.9176471,5.41176475 13.1764706,5.41176475 L47.5294118,5.41176475 C47.7882353,5.41176475 48,5.20000005 48,4.94117652 L48,1.64705887 C48,1.38823534 47.7882353,1.17647064 47.5294118,1.17647064 Z M47.5294118,17.882353 L13.1764706,17.882353 C12.9176471,17.882353 12.7058824,18.0941177 12.7058824,18.3529412 L12.7058824,21.6470589 C12.7058824,21.9058824 12.9176471,22.1176471 13.1764706,22.1176471 L47.5294118,22.1176471 C47.7882353,22.1176471 48,21.9058824 48,21.6470589 L48,18.3529412 C48,18.0941177 47.7882353,17.882353 47.5294118,17.882353 Z M47.5294118,34.5882353 L13.1764706,34.5882353 C12.9176471,34.5882353 12.7058824,34.8 12.7058824,35.0588236 L12.7058824,38.3529412 C12.7058824,38.6117648 12.9176471,38.8235295 13.1764706,38.8235295 L47.5294118,38.8235295 C47.7882353,38.8235295 48,38.6117648 48,38.3529412 L48,35.0588236 C48,34.8 47.7882353,34.5882353 47.5294118,34.5882353 Z M0,3.2941177 C0,4.47099259 0.627855255,5.55846985 1.64705881,6.1469073 C2.66626236,6.73534476 3.92197293,6.73534476 4.94117648,6.1469073 C5.96038004,5.55846985 6.58823529,4.47099259 6.58823529,3.2941177 C6.58823529,2.1172428 5.96038004,1.02976554 4.94117648,0.44132809 C3.92197293,-0.147109363 2.66626236,-0.147109363 1.64705881,0.44132809 C0.627855255,1.02976554 0,2.1172428 0,3.2941177 L0,3.2941177 Z M0,20 C0,21.1768749 0.627855255,22.2643522 1.64705881,22.8527897 C2.66626236,23.4412271 3.92197293,23.4412271 4.94117648,22.8527897 C5.96038004,22.2643522 6.58823529,21.1768749 6.58823529,20 C6.58823529,18.8231252 5.96038004,17.7356479 4.94117648,17.1472104 C3.92197293,16.558773 2.66626236,16.558773 1.64705881,17.1472104 C0.627855255,17.7356479 0,18.8231252 0,20 L0,20 Z M0,36.7058824 C0,37.8827573 0.627855255,38.9702346 1.64705881,39.558672 C2.66626236,40.1471095 3.92197293,40.1471095 4.94117648,39.558672 C5.96038004,38.9702346 6.58823529,37.8827573 6.58823529,36.7058824 C6.58823529,35.5290075 5.96038004,34.4415302 4.94117648,33.8530928 C3.92197293,33.2646553 2.66626236,33.2646553 1.64705881,33.8530928 C0.627855255,34.4415302 0,35.5290075 0,36.7058824 L0,36.7058824 Z" fill="#000"></path>
</svg>
