<?xml version="1.0" encoding="UTF-8"?>
<svg width="48" height="48" viewBox="0 0 48 48" fill="none" xmlns="http://www.w3.org/2000/svg">
  <rect width="48" height="48" fill="white" fill-opacity="0.01"/>
  <path fill="#000" d="M47.5714286,17.6785714 L27.1017857,17.6785714 C26.5660714,17.5714286 26.0035714,17.4642857 25.4089286,17.3571429 C24.5571429,17.2017857 24.2196429,17.1375 23.7589286,17.0464286 C21.0107143,16.5107143 19.3553571,15.975 18.0375,15.2142857 C16.1571429,14.1160714 15.2410714,12.6267857 15.2410714,10.6553571 C15.2410714,8.67321429 16.0553571,7.02857143 17.5982143,5.8875 C19.1196429,4.7625 21.2839286,4.16785714 23.8553571,4.16785714 C26.7910714,4.16785714 29.0571429,4.93928571 30.5946429,6.46071429 C31.3767857,7.23214286 31.95,8.18035714 32.2982143,9.27857143 C32.3678571,9.49821429 32.4482143,9.81428571 32.5285714,10.2321429 C32.5767857,10.4892857 32.8071429,10.6714286 33.0589286,10.6714286 L36.9589286,10.6714286 C37.2589286,10.6714286 37.5,10.425 37.5,10.1303571 L37.5,10.0767857 C37.4625,9.7125 37.4303571,9.42857143 37.3928571,9.21964286 C37.0017857,6.88928571 35.8928571,4.84285714 34.1946429,3.31071429 C31.8160714,1.14107143 28.3178571,0 24.0857143,0 C20.2125,0 16.725,0.969642857 14.2660714,2.72678571 C12.8946429,3.7125 11.8339286,4.93392857 11.1267857,6.35357143 C10.4035714,7.80535714 10.0392857,9.48214286 10.0392857,11.3303571 C10.0392857,12.9107143 10.3446429,14.25 10.9660714,15.4285714 C11.4107143,16.2696429 12.0160714,17.0089286 12.7928571,17.6785714 L0.428571429,17.6785714 C0.192857143,17.6785714 0,17.8714286 0,18.1071429 L0,21.3214286 C0,21.5571429 0.192857143,21.75 0.428571429,21.75 L23.6357143,21.75 C23.7482143,21.7714286 23.8446429,21.7928571 23.9517857,21.8142857 C25.6071429,22.1464286 26.6035714,22.3714286 27.5196429,22.6285714 C28.7517857,22.9767857 29.6946429,23.3410714 30.4767857,23.7803571 C32.3946429,24.8625 33.3321429,26.4160714 33.3321429,28.5482143 C33.3321429,30.4392857 32.5017857,32.1267857 30.9964286,33.3053571 C29.3625,34.5857143 26.9464286,35.2553571 24.0053571,35.2553571 C21.6642857,35.2553571 19.6821429,34.8 18.1017857,33.9160714 C16.5428571,33.0428571 15.4714286,31.7839286 14.9035714,30.1928571 C14.8607143,30.075 14.8125,29.9142857 14.7589286,29.7107143 C14.6946429,29.475 14.475,29.3089286 14.2392857,29.3089286 L9.96964286,29.3089286 C9.66964286,29.3089286 9.42857143,29.5553571 9.42857143,29.85 L9.42857143,29.9035714 C9.43928571,30.0267857 9.45,30.1285714 9.46071429,30.2089286 C9.80892857,32.8232143 11.0839286,34.9660714 13.2482143,36.5732143 C15.7714286,38.4375 19.3232143,39.4232143 23.5232143,39.4232143 C28.0339286,39.4232143 31.8160714,38.3625 34.4625,36.3535714 C35.8017857,35.3410714 36.8303571,34.0928571 37.5214286,32.6571429 C38.2178571,31.2053571 38.5767857,29.5553571 38.5767857,27.7553571 C38.5767857,26.0517857 38.2660714,24.6267857 37.6232143,23.3946429 C37.3125,22.7946429 36.9214286,22.2428571 36.4553571,21.7446429 L47.5714286,21.7446429 C47.8071429,21.7446429 48,21.5517857 48,21.3160714 L48,18.1017857 C47.9970673,17.867187 47.8060456,17.6785531 47.5714286,17.6785714 L47.5714286,17.6785714 Z"></path>
</svg>
