<svg width="48" height="48" viewBox="0 0 48 48" fill="none" xmlns="http://www.w3.org/2000/svg">
  <rect width="48" height="48" fill="white" fill-opacity="0.01"/>
  <path d="M39.9946488,11.0715719 C37.5438127,4.60200669 31.2989967,0 23.9839465,0 C16.6688963,0 10.4240803,4.59665552 7.97324415,11.0662207 C3.36588629,12.2809365 -0.0267558528,16.4923077 -0.000157150193,21.490301 C0.0321070234,27.0769231 4.36655518,31.6200669 9.82474916,32.1070234 C10.0762542,32.1284281 10.290301,31.9304348 10.290301,31.6789298 L10.290301,28.4468227 C10.290301,28.2327759 10.1297659,28.0508361 9.91571906,28.0240803 C8.47090301,27.8421405 7.10635452,27.2107023 6.05752508,26.1779264 C4.77324415,24.9204013 4.06688963,23.2294314 4.06688963,21.4367893 C4.06688963,19.9384615 4.55384615,18.5257525 5.46889632,17.348495 C6.36254181,16.2033445 7.62006689,15.373913 9.00602007,15.0100334 L11.0341137,14.4749164 L11.7779264,12.5110368 C12.2381271,11.2909699 12.8802676,10.1458194 13.6882943,9.11304348 C14.4856187,8.08561873 15.4327759,7.18662207 16.4923077,6.43745819 C18.6916388,4.8909699 21.2816054,4.0722408 23.9839465,4.0722408 C26.6862876,4.0722408 29.2762542,4.8909699 31.4755853,6.44280936 C32.5404682,7.19197324 33.4822742,8.0909699 34.2795987,9.11839465 C35.0876254,10.1511706 35.7297659,11.2963211 36.1899666,12.516388 L36.9284281,14.4749164 L38.9511706,15.0100334 C41.851505,15.780602 43.8795987,18.4187291 43.8795987,21.4314381 C43.8795987,23.2294314 43.1732441,24.9150502 41.8889632,26.1725753 C40.8454849,27.2 39.4862876,27.8367893 38.0414716,28.0187291 C37.8274247,28.0454849 37.6722408,28.2274247 37.6722408,28.4414716 L37.6722408,31.6789298 C37.6722408,31.9304348 37.8916388,32.1284281 38.1431438,32.1070234 C43.5852843,31.6147157 47.9090301,27.0769231 47.9467146,21.5010033 C47.9785953,16.50301 44.5913043,12.2916388 39.9946488,11.0715719 L39.9946488,11.0715719 Z" fill="#000"></path>
  <path d="M16.7438127,26.4561873 C16.8401338,24.6635452 17.5839465,22.9939799 18.8575251,21.7150502 C20.2167224,20.3505017 22.0682274,19.5852843 23.9946488,19.5852843 C25.9317726,19.5852843 27.7565217,20.3397993 29.1317726,21.7150502 C29.206689,21.7899666 29.2762542,21.8648829 29.3511706,21.9451505 L28.0133779,22.9939799 C27.8833089,23.0945987 27.8223723,23.2608294 27.8565945,23.4216738 C27.8908167,23.5825182 28.0141481,23.709543 28.173913,23.748495 L33.4287625,25.0327759 C33.6963211,25.09699 33.9585284,24.8936455 33.9585284,24.6207358 L33.9852843,19.2 C33.9852843,18.8414716 33.5785953,18.6381271 33.2949833,18.8628763 L32.0535117,19.8367893 C30.0949833,17.5892977 27.2160535,16.1658863 24,16.1658863 C18.2528428,16.1658863 13.5652174,20.7197324 13.3297659,26.4240803 C13.3190635,26.6648829 13.5117057,26.8682274 13.7578595,26.8682274 L16.3210702,26.8682274 C16.5458194,26.8628763 16.7331104,26.6862876 16.7438127,26.4561873 L16.7438127,26.4561873 Z M34.1939799,26.8628763 L31.6307692,26.8628763 C31.4060201,26.8628763 31.2187291,27.0394649 31.2026756,27.2695652 C31.1063545,29.0622074 30.3625418,30.7317726 29.0889632,32.0107023 C27.7297659,33.3752508 25.8782609,34.1404682 23.9518395,34.1404682 C22.0147157,34.1404682 20.1899666,33.3859532 18.8147157,32.0107023 C18.7397993,31.935786 18.6702341,31.8608696 18.5953177,31.780602 L19.9331104,30.7317726 C20.0631794,30.6311538 20.124116,30.4649231 20.0898938,30.3040787 C20.0556716,30.1432343 19.9323401,30.0162095 19.7725753,29.9772575 L14.5177258,28.6929766 C14.2501672,28.6287625 13.9879599,28.832107 13.9879599,29.1050167 L13.9665552,34.5311037 C13.9665552,34.8896321 14.3732441,35.0929766 14.6568562,34.8682274 L15.8983278,33.8943144 C17.8568562,36.141806 20.735786,37.5652174 23.9518395,37.5652174 C29.6989967,37.5652174 34.3866221,33.0113712 34.6220736,27.3070234 C34.6327759,27.0662207 34.4401338,26.8628763 34.1939799,26.8628763 Z" fill="#000"></path>
</svg>
