<svg width="48" height="48" viewBox="0 0 48 48" fill="none" xmlns="http://www.w3.org/2000/svg">
  <rect width="48" height="48" fill="white" fill-opacity="0.01"/>
  <path d="M47.5714286,21.9642857 L41.025,21.9642857 C40.0982143,14.1214286 33.8785714,7.90178571 26.0357143,6.975 L26.0357143,0.428571429 C26.0357143,0.192857143 25.8428571,0 25.6071429,0 L22.3928571,0 C22.1571429,0 21.9642857,0.192857143 21.9642857,0.428571429 L21.9642857,6.975 C14.1214286,7.90178571 7.90178571,14.1214286 6.975,21.9642857 L0.428571429,21.9642857 C0.192857143,21.9642857 0,22.1571429 0,22.3928571 L0,25.6071429 C0,25.8428571 0.192857143,26.0357143 0.428571429,26.0357143 L6.975,26.0357143 C7.90178571,33.8785714 14.1214286,40.0982143 21.9642857,41.025 L21.9642857,47.5714286 C21.9642857,47.8071429 22.1571429,48 22.3928571,48 L25.6071429,48 C25.8428571,48 26.0357143,47.8071429 26.0357143,47.5714286 L26.0357143,41.025 C33.8785714,40.0982143 40.0982143,33.8785714 41.025,26.0357143 L47.5714286,26.0357143 C47.8071429,26.0357143 48,25.8428571 48,25.6071429 L48,22.3928571 C48,22.1571429 47.8071429,21.9642857 47.5714286,21.9642857 Z M24,37.0714286 C16.7785714,37.0714286 10.9285714,31.2214286 10.9285714,24 C10.9285714,16.7785714 16.7785714,10.9285714 24,10.9285714 C31.2214286,10.9285714 37.0714286,16.7785714 37.0714286,24 C37.0714286,31.2214286 31.2214286,37.0714286 24,37.0714286 Z" fill="#000"></path>
  <path d="M24,17.5714286 C22.2803571,17.5714286 20.6732143,18.2357143 19.4571429,19.4571429 C18.2410714,20.6732143 17.5714286,22.2803571 17.5714286,24 C17.5714286,25.7196429 18.2410714,27.3267857 19.4571429,28.5428571 C20.6732143,29.7535714 22.2857143,30.4285714 24,30.4285714 C25.7142857,30.4285714 27.3267857,29.7589286 28.5428571,28.5428571 C29.7535714,27.3267857 30.4285714,25.7142857 30.4285714,24 C30.4285714,22.2857143 29.7589286,20.6732143 28.5428571,19.4571429 C27.3267857,18.2357143 25.7196429,17.5714286 24,17.5714286 Z" fill="#000"></path>
</svg>
