<svg width="48" height="48" viewBox="0 0 48 48" fill="none" xmlns="http://www.w3.org/2000/svg">
  <rect width="48" height="48" fill="white" fill-opacity="0.01"/>
  <path d="M46.8333333,8.81111111 C46.0886644,7.08687185 45.0149249,5.52438272 43.6722222,4.21111111 C42.3285111,2.89392201 40.7442391,1.84717088 39.0055556,1.12777778 C37.2026481,0.378850311 35.2689339,-0.00449341613 33.3166667,-3.90493016e-05 C30.5777778,-3.90493016e-05 27.9055556,0.75 25.5833333,2.16666667 C25.0277778,2.50555556 24.5,2.87777778 24,3.28333333 C23.5,2.87777778 22.9722222,2.50555556 22.4166667,2.16666667 C20.0944444,0.75 17.4222222,-3.90493016e-05 14.6833333,-3.90493016e-05 C12.7111111,-3.90493016e-05 10.8,0.377777778 8.99444444,1.12777778 C7.25,1.85 5.67777778,2.88888889 4.32777778,4.21111111 C2.98331485,5.52290134 1.90932165,7.08575963 1.16666667,8.81111111 C0.394444444,10.6055556 0,12.5111111 0,14.4722222 C0,16.3222222 0.377777778,18.25 1.12777778,20.2111111 C1.75555556,21.85 2.65555556,23.55 3.80555556,25.2666667 C5.62777778,27.9833333 8.13333333,30.8166667 11.2444444,33.6888889 C16.4,38.45 21.5055556,41.7388889 21.7222222,41.8722222 L23.0388889,42.7166667 C23.6222222,43.0888889 24.3722222,43.0888889 24.9555556,42.7166667 L26.2722222,41.8722222 C26.4888889,41.7333333 31.5888889,38.45 36.75,33.6888889 C39.8611111,30.8166667 42.3666667,27.9833333 44.1888889,25.2666667 C45.3388889,23.55 46.2444444,21.85 46.8666667,20.2111111 C47.6166667,18.25 47.9945023,16.3222222 47.9945023,14.4722222 C48,12.5111111 47.6055556,10.6055556 46.8333333,8.81111111 Z M24,38.3222222 C24,38.3222222 4.22222222,25.65 4.22222222,14.4722222 C4.22222222,8.81111111 8.90555556,4.22222222 14.6833333,4.22222222 C18.7444444,4.22222222 22.2666667,6.48888889 24,9.8 C25.7333333,6.48888889 29.2555556,4.22222222 33.3166667,4.22222222 C39.0944444,4.22222222 43.7777778,8.81111111 43.7777778,14.4722222 C43.7777778,25.65 24,38.3222222 24,38.3222222 Z" fill="#000"></path>
  <path d="M33.3166667,4.22222222 C29.2555556,4.22222222 25.7333333,6.48888889 24,9.8 C22.2666667,6.48888889 18.7444444,4.22222222 14.6833333,4.22222222 C8.90555556,4.22222222 4.22222222,8.81111111 4.22222222,14.4722222 C4.22222222,25.65 24,38.3222222 24,38.3222222 C24,38.3222222 43.7777778,25.65 43.7777778,14.4722222 C43.7777778,8.81111111 39.0944444,4.22222222 33.3166667,4.22222222 Z" fill="#2F88FF"></path>
</svg>
