<?xml version="1.0" encoding="UTF-8"?>
<svg width="48" height="48" viewBox="0 0 48 48" fill="none" xmlns="http://www.w3.org/2000/svg">
  <rect width="48" height="48" fill="white" fill-opacity="0.01"/>
  <path fill="#000" d="M23.964,0 C10.71,0.0180225801 0,10.7400226 0,23.9940226 C0,31.6740226 3.612,38.5140226 9.228,42.9060226 L6.978,45.7860226 C6.732,46.1040226 6.96,46.5660226 7.356,46.5600804 L17.376,46.5120226 C17.688,46.5120226 17.916,46.2180226 17.838,45.9180226 L15.468,36.1800226 C15.4243251,36.0008862 15.2818986,35.8626008 15.1015518,35.8242292 C14.921205,35.7858575 14.7348188,35.8541827 14.622,36.0000226 L12.18,39.1260226 C11.568,38.6460226 10.98,38.1240226 10.422,37.5660226 C8.66771841,35.8178196 7.26981676,33.7454202 6.306,31.4640226 C5.304,29.1000226 4.8,26.5860226 4.8,23.9940226 C4.8,21.4020226 5.304,18.8880226 6.306,16.5240226 C7.272,14.2380226 8.658,12.1860226 10.422,10.4220226 C12.186,8.65802258 14.238,7.27202258 16.524,6.30602258 C18.894,5.30402258 21.408,4.80002258 24,4.80002258 C26.592,4.80002258 29.106,5.30402258 31.47,6.30602258 C33.756,7.27202258 35.808,8.65802258 37.572,10.4220226 C39.336,12.1860226 40.722,14.2380226 41.688,16.5240226 C42.69,18.8880226 43.194,21.4020226 43.194,23.9940226 C43.194,26.5860226 42.69,29.1000226 41.688,31.4640226 C40.7241832,33.7454202 39.3262816,35.8178196 37.572,37.5660226 C37.122,38.0160226 36.654,38.4360226 36.168,38.8380226 C35.9653121,39.0026539 35.9331799,39.2998769 36.096,39.5040226 L38.46,42.5340226 C38.628,42.7440226 38.934,42.7800226 39.144,42.6120226 C44.55,38.2080226 48,31.5060226 48,23.9940226 C48,10.7280226 37.236,-0.0179774199 23.964,0 Z"></path>
</svg>
