<svg width="48" height="48" viewBox="0 0 48 48" fill="none" xmlns="http://www.w3.org/2000/svg">
  <rect width="48" height="48" fill="white" fill-opacity="0.01"/>
  <path d="M43.65,13.92 L4.35,13.92 C4.332,13.92 4.32,13.932 4.32,13.95 L4.32,19.422 C4.32,23.01 7.26,25.92 10.878,25.92 C13.32,25.92 15.45,24.6 16.584,22.638 C16.758,22.332 17.088,22.14 17.442,22.14 C17.796,22.14 18.12,22.332 18.3,22.638 C19.428,24.6 21.558,25.92 24,25.92 C26.448,25.92 28.584,24.594 29.706,22.626 C29.88,22.326 30.198,22.14 30.54,22.14 L30.576,22.14 C30.924,22.14 31.236,22.326 31.41,22.626 C32.538,24.594 34.674,25.92 37.122,25.92 C40.74,25.92 43.68,23.01 43.68,19.422 L43.68,13.95 C43.68,13.932 43.668,13.92 43.65,13.92 Z" fill="#2F88FF"></path>
  <path d="M46.2,9.606 L46.2,1.92 C46.2,0.858 45.342,0 44.28,0 L3.72,0 C2.658,0 1.8,0.858 1.8,1.92 L1.8,9.606 C0.798,9.666 -3.7175616e-05,10.5 -3.7175616e-05,11.52 L-3.7175616e-05,19.422 C-0.0038424317,20.8742648 0.290216425,22.3118859 0.864,23.646 C1.122,24.258 1.44,24.834 1.8,25.38 L1.8,46.08 C1.8,47.136 2.658,48 3.72,48 L44.28,48 C45.342,48 46.2,47.142 46.2,46.08 L46.2,25.38 C46.5656656,24.8326186 46.8790453,24.2520628 47.136,23.646 C47.706,22.308 48,20.886 48,19.422 L48,11.52 C48,10.5 47.202,9.666 46.2,9.606 L46.2,9.606 Z M6.12,4.32 L41.88,4.32 L41.88,9.6 L6.12,9.6 L6.12,4.32 Z M27.84,43.686 L20.16,43.686 L20.16,37.44 L27.84,37.44 L27.84,43.686 Z M41.904,43.686 L31.68,43.686 L31.68,35.52 C31.68,34.458 30.822,33.6 29.76,33.6 L18.24,33.6 C17.178,33.6 16.32,34.458 16.32,35.52 L16.32,43.686 L6.12,43.686 L6.12,29.154 C6.294,29.238 6.474,29.322 6.66,29.394 C7.998,29.958 9.42,30.24 10.884,30.24 C12.348,30.24 13.764,29.958 15.108,29.394 C15.936,29.046 16.716,28.602 17.43,28.068 C17.442,28.062 17.454,28.062 17.466,28.068 C18.1822198,28.6042723 18.9621697,29.0496701 19.788,29.394 C21.126,29.958 22.548,30.24 24.012,30.24 C25.476,30.24 26.892,29.958 28.236,29.394 C29.064,29.046 29.844,28.602 30.558,28.068 C30.57,28.062 30.582,28.062 30.594,28.068 C31.3102198,28.6042723 32.0901697,29.0496701 32.916,29.394 C34.254,29.958 35.676,30.24 37.14,30.24 C38.604,30.24 40.02,29.958 41.364,29.394 C41.544,29.316 41.724,29.238 41.904,29.154 L41.904,43.686 L41.904,43.686 Z M43.68,19.422 C43.68,23.01 40.74,25.9200308 37.122,25.9200308 C34.674,25.9200308 32.538,24.594 31.41,22.626 C31.236,22.326 30.924,22.14 30.576,22.14 L30.54,22.14 C30.198,22.14 29.88,22.326 29.706,22.626 C28.5341673,24.6696319 26.3557529,25.9272024 24,25.9200308 C21.558,25.9200308 19.428,24.6 18.3,22.638 C18.12,22.332 17.796,22.14 17.442,22.14 C17.088,22.14 16.758,22.332 16.584,22.638 C15.405547,24.673452 13.2299764,25.9248055 10.878,25.9200308 C7.26,25.9200308 4.32,23.01 4.32,19.422 L4.32,13.95 C4.32,13.932 4.332,13.92 4.35,13.92 L43.65,13.92 C43.668,13.92 43.68,13.932 43.68,13.95 L43.68,19.422 Z" fill="#000"></path>
</svg>
