<svg width="48" height="48" viewBox="0 0 48 48" fill="none" xmlns="http://www.w3.org/2000/svg">
  <rect width="48" height="48" fill="white" fill-opacity="0.01"/>
  <polygon fill="#2F88FF" points="14.8571429 30.3214286 16.5714286 30.3214286 16.5714286 30.4285714 14.8571429 30.4285714"></polygon>
  <path d="M25.0357143,15.4285714 L25.0357143,3.85714286 L15.7142857,3.85714286 L15.7142857,7.28571429 L19.1428571,7.28571429 L19.1428571,10.7142857 L15.7142857,10.7142857 L15.7142857,14.1428571 L19.1428571,14.1428571 L19.1428571,17.5714286 L15.7142857,17.5714286 L15.7142857,21 L19.1428571,21 L19.1428571,24.4285714 L15.7142857,24.4285714 L15.7142857,27.75 L19.1428571,27.75 L19.1428571,36.3214286 L12.2857143,36.3214286 L12.2857143,24.4285714 L15.7142857,24.4285714 L15.7142857,21 L12.2857143,21 L12.2857143,17.5714286 L15.7142857,17.5714286 L15.7142857,14.1428571 L12.2857143,14.1428571 L12.2857143,10.7142857 L15.7142857,10.7142857 L15.7142857,7.28571429 L12.2857143,7.28571429 L12.2857143,3.85714286 L8.85714286,3.85714286 L8.85714286,44.1428571 L38.8571429,44.1428571 L38.8571429,17.6785714 L27.2857143,17.6785714 C26.0430736,17.6785714 25.0357143,16.6712121 25.0357143,15.4285714 Z" fill="#2F88FF"></path>
  <path d="M42.2107143,12.0321429 L30.6821429,0.503571429 C30.3607143,0.182142857 29.9267857,0 29.4714286,0 L6.71428571,0 C5.76607143,0 5,0.766071429 5,1.71428571 L5,46.2857143 C5,47.2339286 5.76607143,48 6.71428571,48 L41,48 C41.9482143,48 42.7142857,47.2339286 42.7142857,46.2857143 L42.7142857,13.2482143 C42.7142857,12.7928571 42.5321429,12.3535714 42.2107143,12.0321429 Z M28.6785714,3.95357143 L38.7607143,14.0357143 L28.6785714,14.0357143 L28.6785714,3.95357143 Z M38.8571429,44.1428571 L8.85714286,44.1428571 L8.85714286,3.85714286 L12.2857143,3.85714286 L12.2857143,7.28571429 L15.7142857,7.28571429 L15.7142857,3.85714286 L25.0357143,3.85714286 L25.0357143,15.4285714 C25.0357143,16.6712121 26.0430736,17.6785714 27.2857143,17.6785714 L38.8571429,17.6785714 L38.8571429,44.1428571 Z" fill="#000"></path>
  <path d="M12.2857143,17.5714286 L15.7142857,17.5714286 L15.7142857,21 L12.2857143,21 L12.2857143,17.5714286 Z M12.2857143,10.7142857 L15.7142857,10.7142857 L15.7142857,14.1428571 L12.2857143,14.1428571 L12.2857143,10.7142857 Z M12.2857143,27.75 L12.2857143,36.3214286 L19.1428571,36.3214286 L19.1428571,27.75 L15.7142857,27.75 L15.7142857,24.4285714 L12.2857143,24.4285714 L12.2857143,27.75 Z M14.8571429,30.4285714 L14.8571429,30.3214286 L16.5714286,30.3214286 L16.5714286,33.75 L14.8571429,33.75 L14.8571429,30.4285714 Z M15.7142857,7.28571429 L19.1428571,7.28571429 L19.1428571,10.7142857 L15.7142857,10.7142857 L15.7142857,7.28571429 Z M15.7142857,21 L19.1428571,21 L19.1428571,24.4285714 L15.7142857,24.4285714 L15.7142857,21 Z M15.7142857,14.1428571 L19.1428571,14.1428571 L19.1428571,17.5714286 L15.7142857,17.5714286 L15.7142857,14.1428571 Z" fill="#000"></path>
</svg>
