<svg width="48" height="48" viewBox="0 0 48 48" fill="none" xmlns="http://www.w3.org/2000/svg">
  <rect width="48" height="48" fill="white" fill-opacity="0.01"/>
  <polygon fill="#2F88FF" points="9.85714286 30.3214286 11.5714286 30.3214286 11.5714286 30.4285714 9.85714286 30.4285714"></polygon>
  <path d="M20.0357143,15.4285714 L20.0357143,3.85714286 L10.7142857,3.85714286 L10.7142857,7.28571429 L14.1428571,7.28571429 L14.1428571,10.7142857 L10.7142857,10.7142857 L10.7142857,14.1428571 L14.1428571,14.1428571 L14.1428571,17.5714286 L10.7142857,17.5714286 L10.7142857,21 L14.1428571,21 L14.1428571,24.4285714 L10.7142857,24.4285714 L10.7142857,27.75 L14.1428571,27.75 L14.1428571,36.3214286 L7.28571429,36.3214286 L7.28571429,24.4285714 L10.7142857,24.4285714 L10.7142857,21 L7.28571429,21 L7.28571429,17.5714286 L10.7142857,17.5714286 L10.7142857,14.1428571 L7.28571429,14.1428571 L7.28571429,10.7142857 L10.7142857,10.7142857 L10.7142857,7.28571429 L7.28571429,7.28571429 L7.28571429,3.85714286 L3.85714286,3.85714286 L3.85714286,44.1428571 L33.8571429,44.1428571 L33.8571429,17.6785714 L22.2857143,17.6785714 C21.0430736,17.6785714 20.0357143,16.6712121 20.0357143,15.4285714 Z" fill="#2F88FF"></path>
  <path d="M37.2107143,12.0321429 L25.6821429,0.503571429 C25.3607143,0.182142857 24.9267857,0 24.4714286,0 L1.71428571,0 C0.766071429,0 0,0.766071429 0,1.71428571 L0,46.2857143 C0,47.2339286 0.766071429,48 1.71428571,48 L36,48 C36.9482143,48 37.7142857,47.2339286 37.7142857,46.2857143 L37.7142857,13.2482143 C37.7142857,12.7928571 37.5321429,12.3535714 37.2107143,12.0321429 Z M23.6785714,3.95357143 L33.7607143,14.0357143 L23.6785714,14.0357143 L23.6785714,3.95357143 Z M33.8571429,44.1428571 L3.85714286,44.1428571 L3.85714286,3.85714286 L7.28571429,3.85714286 L7.28571429,7.28571429 L10.7142857,7.28571429 L10.7142857,3.85714286 L20.0357143,3.85714286 L20.0357143,15.4285714 C20.0357143,16.6712121 21.0430736,17.6785714 22.2857143,17.6785714 L33.8571429,17.6785714 L33.8571429,44.1428571 Z" fill="#000"></path>
  <path d="M7.28571429,17.5714286 L10.7142857,17.5714286 L10.7142857,21 L7.28571429,21 L7.28571429,17.5714286 Z M7.28571429,10.7142857 L10.7142857,10.7142857 L10.7142857,14.1428571 L7.28571429,14.1428571 L7.28571429,10.7142857 Z M7.28571429,27.75 L7.28571429,36.3214286 L14.1428571,36.3214286 L14.1428571,27.75 L10.7142857,27.75 L10.7142857,24.4285714 L7.28571429,24.4285714 L7.28571429,27.75 Z M9.85714286,30.4285714 L9.85714286,30.3214286 L11.5714286,30.3214286 L11.5714286,33.75 L9.85714286,33.75 L9.85714286,30.4285714 Z M10.7142857,7.28571429 L14.1428571,7.28571429 L14.1428571,10.7142857 L10.7142857,10.7142857 L10.7142857,7.28571429 Z M10.7142857,21 L14.1428571,21 L14.1428571,24.4285714 L10.7142857,24.4285714 L10.7142857,21 Z M10.7142857,14.1428571 L14.1428571,14.1428571 L14.1428571,17.5714286 L10.7142857,17.5714286 L10.7142857,14.1428571 Z" fill="#000"></path>
</svg>
