<svg width="48" height="48" viewBox="0 0 48 48" fill="none" xmlns="http://www.w3.org/2000/svg">
  <rect width="48" height="48" fill="white" fill-opacity="0.01"/>
  <path d="M24,0 C10.7464286,0 0,10.7464286 0,24 C0,37.2535714 10.7464286,48 24,48 C37.2535714,48 48,37.2535714 48,24 C48,10.7464286 37.2535714,0 24,0 Z M24,43.9285714 C12.9964286,43.9285714 4.07142857,35.0035714 4.07142857,24 C4.07142857,12.9964286 12.9964286,4.07142857 24,4.07142857 C35.0035714,4.07142857 43.9285714,12.9964286 43.9285714,24 C43.9285714,35.0035714 35.0035714,43.9285714 24,43.9285714 Z" fill="#000"></path>
  <path d="M24,4.07142857 C12.9964286,4.07142857 4.07142857,12.9964286 4.07142857,24 C4.07142857,35.0035714 12.9964286,43.9285714 24,43.9285714 C35.0035714,43.9285714 43.9285714,35.0035714 43.9285714,24 C43.9285714,12.9964286 35.0035714,4.07142857 24,4.07142857 Z M24.2946429,32.625 C27.1285714,32.625 29.0517857,30.9267857 29.2767857,28.4571429 C29.2982143,28.2375 29.4803571,28.0660714 29.7053571,28.0660714 L32.7482143,28.0660714 C32.8875,28.0660714 33,28.1785714 33,28.3178571 C33,32.7428571 29.3196429,35.8928571 24.2839286,35.8928571 C18.3964286,35.8928571 15,31.9714286 15,25.4517857 L15,22.65 C15,16.0821429 18.3964286,12.1071429 24.2839286,12.1071429 C29.3357143,12.1071429 33,15.3589286 33,20.0035714 C33,20.1428571 32.8875,20.2553571 32.7482143,20.2553571 L29.7107143,20.2553571 C29.4857143,20.2553571 29.2982143,20.0839286 29.2821429,19.8589286 C29.0678571,17.2017857 27.1392857,15.3910714 24.3,15.3910714 C20.8071429,15.3910714 18.8303571,17.9892857 18.825,22.65 L18.825,25.4678571 C18.825,30.0589286 20.7964286,32.625 24.2946429,32.625 L24.2946429,32.625 Z" fill="#2F88FF"></path>
  <path d="M24.3,15.3910714 C27.1392857,15.3910714 29.0678571,17.2017857 29.2821429,19.8589286 C29.2982143,20.0839286 29.4857143,20.2553571 29.7107143,20.2553571 L32.7482143,20.2553571 C32.8875,20.2553571 33,20.1428571 33,20.0035714 C33,15.3589286 29.3357143,12.1071429 24.2839286,12.1071429 C18.3964286,12.1071429 15,16.0821429 15,22.65 L15,25.4517857 C15,31.9714286 18.3964286,35.8928571 24.2839286,35.8928571 C29.3196429,35.8928571 33,32.7428571 33,28.3178571 C33,28.1785714 32.8875,28.0660714 32.7482143,28.0660714 L29.7053571,28.0660714 C29.4803571,28.0660714 29.2982143,28.2375 29.2767857,28.4571429 C29.0517857,30.9267857 27.1285714,32.625 24.2946429,32.625 C20.7964286,32.625 18.825,30.0589286 18.825,25.4678571 L18.825,22.65 C18.8303571,17.9892857 20.8071429,15.3910714 24.3,15.3910714 L24.3,15.3910714 Z" fill="#000"></path>
</svg>
