<svg width="48" height="48" viewBox="0 0 48 48" fill="none" xmlns="http://www.w3.org/2000/svg">
  <rect width="48" height="48" fill="white" fill-opacity="0.01"/>
  <path d="M42.7310339,35.2743732 C41.2292727,33.7713995 39.474515,32.5446939 37.5471859,31.6504795 C40.2651062,29.4485441 41.9990553,26.0886426 41.9990553,22.3207532 C41.9990553,15.6729481 36.4552179,10.2191081 29.8074129,10.3211051 C23.2616049,10.4231021 17.9877596,15.7569457 17.9877596,22.3207532 C17.9877596,26.0886426 19.7277086,29.4485441 22.439629,31.6504795 C20.5119234,32.5440396 18.7570571,33.7708211 17.2557811,35.2743732 C13.9798772,38.556277 12.1199317,42.8881499 11.999785,47.5080144 C11.9967,47.6373808 12.045838,47.7625726 12.1362059,47.8551997 C12.2265737,47.9478267 12.3505144,48 12.4799211,48 L15.8398226,48 C16.097815,48 16.3138087,47.796006 16.3198085,47.5380135 C16.4338052,44.0581156 17.8437638,40.8002111 20.3216911,38.3282836 C22.8828854,35.7534723 26.3677043,34.3102863 29.9994073,34.3204012 C33.6533001,34.3204012 37.0911993,35.7423595 39.6771234,38.3282836 C42.1490509,40.8002111 43.5590096,44.0581156 43.6790061,47.5380135 C43.6850059,47.796006 43.9009996,48 44.158992,48 L47.5188934,48 C47.6483002,48 47.7722409,47.9478267 47.8626087,47.8551997 C47.9529766,47.7625726 48.0021145,47.6373808 47.9990296,47.5080144 C47.8788829,42.8881499 46.0189374,38.556277 42.7310339,35.2743732 Z M29.9994073,30.0005603 C27.9474675,30.0005603 26.0155241,29.2025513 24.5695666,27.7505939 C23.1033698,26.2959508 22.2912667,24.3079225 22.3196325,22.2427554 C22.337632,20.2748132 23.123609,18.3728689 24.4975687,16.9629103 C25.9375264,15.4869536 27.8634699,14.6649777 29.9214096,14.6409784 C31.9553499,14.6229789 33.929292,15.4149557 35.3812494,16.836914 C36.8692058,18.2948712 37.6851819,20.244814 37.6851819,22.3207532 C37.6851819,24.372693 36.8872053,26.2986365 35.4352479,27.7505939 C33.9964154,29.1963154 32.0390921,30.0064657 29.9994073,30.0005603 Z M14.9698481,23.9047067 C14.9158497,23.382722 14.8858506,22.8547375 14.8858506,22.3207532 C14.8858506,21.3667811 14.9758479,20.4368084 15.143843,19.530835 C15.1858418,19.3148413 15.0718451,19.0928478 14.8738509,19.0028505 C14.0578749,18.6368612 13.3078969,18.132876 12.6599159,17.4968946 C11.1160636,15.9999603 10.2733231,13.9225069 10.337984,11.7730625 C10.3919824,9.84711901 11.1659597,8.01717268 12.5159201,6.63721315 C13.9978766,5.11925768 15.9898182,4.29128196 18.1077561,4.31528126 C20.0216999,4.33328073 21.8696457,5.07125908 23.2676047,6.37922072 C23.7415908,6.8232077 24.1495789,7.31519327 24.4915688,7.84317778 C24.6115653,8.02917233 24.8455585,8.10717004 25.0495525,8.03517215 C26.1055215,7.66918289 27.2214888,7.41119045 28.3674552,7.29119397 C28.7034453,7.25519503 28.8954397,6.89520559 28.7454441,6.59521439 C26.7955013,2.73732754 22.8116181,0.0734056714 18.2037533,0.00140778314 C11.5499484,-0.100589225 6.00611102,5.35325081 6.00611102,11.995056 C6.00611102,15.7629455 7.74006017,19.1228469 10.4579804,21.3247824 C8.55003641,22.2067565 6.79208797,23.4247208 5.26813267,24.9486761 C1.9802291,28.2305798 0.120283655,32.5624528 0.000136963162,37.1883171 C-0.00294800151,37.3176834 0.0461899644,37.4428753 0.136557819,37.5355024 C0.226925673,37.6281294 0.350866304,37.6803027 0.480273097,37.6803027 L3.84617437,37.6803027 C4.10416681,37.6803027 4.32016047,37.4763086 4.3261603,37.2183162 C4.44015695,33.7384183 5.8501156,30.4805138 8.32804292,28.0085863 C10.0919912,26.2446381 12.2519278,25.020674 14.6098587,24.4266914 C14.8438518,24.3666931 14.9998472,24.1446997 14.9698481,23.9047067 L14.9698481,23.9047067 Z" fill="#000"></path>
</svg>
