<?xml version="1.0" encoding="UTF-8"?>
<svg width="48" height="48" viewBox="0 0 48 48" fill="none" xmlns="http://www.w3.org/2000/svg">
  <rect width="48" height="48" fill="white" fill-opacity="0.01"/>
  <path fill="#000" d="M40.6096154,21.8076923 L0.467307692,21.8076923 C0.207692308,21.8076923 0,22.0153846 0,22.2692308 L0,25.7307692 C0,25.9846154 0.207692308,26.1923077 0.467307692,26.1923077 L40.6096154,26.1923077 C40.8692308,26.1923077 41.0769231,25.9846154 41.0769231,25.7307692 L41.0769231,22.2692308 C41.0769231,22.0153846 40.8692308,21.8076923 40.6096154,21.8076923 Z M20.2096154,17.4980769 C20.3769231,17.7115385 20.7,17.7115385 20.8615385,17.4980769 L26.6769231,10.1423077 C26.8903846,9.87115385 26.7,9.46730769 26.3480769,9.46730769 L22.7307692,9.46730769 L22.7307692,0.461538462 C22.7307692,0.207692308 22.5230769,0 22.2692308,0 L18.8076923,0 C18.5538462,0 18.3461538,0.207692308 18.3461538,0.461538462 L18.3461538,9.46153846 L14.7230769,9.46153846 C14.3769231,9.46153846 14.1807692,9.86538462 14.3942308,10.1365385 L20.2096154,17.4980769 L20.2096154,17.4980769 Z M20.8673077,30.5019231 C20.7893048,30.4009674 20.6689256,30.3418525 20.5413462,30.3418525 C20.4137667,30.3418525 20.2933875,30.4009674 20.2153846,30.5019231 L14.4,37.8634615 C14.3011376,37.989142 14.282826,38.1602788 14.3528591,38.3040311 C14.4228923,38.4477834 14.5689424,38.5388466 14.7288462,38.5384615 L18.3461538,38.5384615 L18.3461538,47.5384615 C18.3461538,47.7923077 18.5538462,48 18.8076923,48 L22.2692308,48 C22.5230769,48 22.7307692,47.7923077 22.7307692,47.5384615 L22.7307692,38.5384615 L26.3538462,38.5384615 C26.7,38.5384615 26.8961538,38.1346154 26.6826923,37.8634615 L20.8673077,30.5019231 L20.8673077,30.5019231 Z"></path>
</svg>
