<svg width="48" height="48" viewBox="0 0 48 48" fill="none" xmlns="http://www.w3.org/2000/svg">
  <rect width="48" height="48" fill="white" fill-opacity="0.01"/>
  <path d="M24,0 C10.7464286,0 0,10.7464286 0,24 C0,37.2535714 10.7464286,48 24,48 C37.2535714,48 48,37.2535714 48,24 C48,10.7464286 37.2535714,0 24,0 Z M24,43.9285714 C12.9964286,43.9285714 4.07142857,35.0035714 4.07142857,24 C4.07142857,12.9964286 12.9964286,4.07142857 24,4.07142857 C35.0035714,4.07142857 43.9285714,12.9964286 43.9285714,24 C43.9285714,35.0035714 35.0035714,43.9285714 24,43.9285714 Z" fill="#000"></path>
  <path d="M19.425,18.5517857 C19.425,19.9125 20.2660714,20.9678571 22.0767857,21.6214286 C22.3285714,21.7232143 22.5803571,21.8035714 22.8803571,21.8892857 L22.8803571,15.2464286 C20.8982143,15.4982143 19.425,16.6071429 19.425,18.5517857 Z M25.6660714,25.7946429 C25.5107143,25.7625 25.3607143,25.725 25.1946429,25.6767857 L25.1946429,32.8392857 C27.4767857,32.6357143 29.0517857,31.3767857 29.0517857,29.2821429 C29.0517857,27.6375 28.2,26.5660714 25.6660714,25.7946429 Z" fill="#2F88FF"></path>
  <path d="M24,4.07142857 C12.9964286,4.07142857 4.07142857,12.9964286 4.07142857,24 C4.07142857,35.0035714 12.9964286,43.9285714 24,43.9285714 C35.0035714,43.9285714 43.9285714,35.0035714 43.9285714,24 C43.9285714,12.9964286 35.0035714,4.07142857 24,4.07142857 Z M25.2,35.6357143 L25.2107143,37.3339286 C25.2107143,37.575 25.0178571,37.7678571 24.7821429,37.7678571 L23.2607143,37.7678571 C23.025,37.7678571 22.8321429,37.575 22.8321429,37.3392857 L22.8321429,35.6571429 C18.0642857,35.3089286 15.8303571,32.5982143 15.5892857,29.6517857 C15.5678571,29.4 15.7660714,29.1857143 16.0178571,29.1857143 L18.4928571,29.1857143 C18.7017857,29.1857143 18.8839286,29.3357143 18.9160714,29.5392857 C19.1892857,31.2428571 20.5178571,32.5071429 22.8857143,32.8232143 L22.8857143,25.1785714 L21.5625,24.8410714 C18.7607143,24.1714286 16.0928571,22.425 16.0928571,18.8035714 C16.0928571,14.8928571 19.0607143,12.7982143 22.8535714,12.4285714 L22.8535714,10.6607143 C22.8535714,10.425 23.0464286,10.2321429 23.2821429,10.2321429 L24.7875,10.2321429 C25.0232143,10.2321429 25.2160714,10.425 25.2160714,10.6607143 L25.2160714,12.4125 C28.8857143,12.7821429 31.6339286,14.925 31.9607143,18.2625 C31.9711719,18.3830052 31.9308569,18.5024063 31.8494917,18.591908 C31.7681264,18.6814097 31.6530965,18.7328882 31.5321429,18.7339286 L29.1267857,18.7339286 C28.9125,18.7339286 28.7303571,18.5785714 28.7035714,18.3642857 C28.4892857,16.8 27.2303571,15.525 25.1946429,15.2464286 L25.1946429,22.4410714 L26.5553571,22.7571429 C30.0267857,23.6142857 32.3892857,25.275 32.3946429,28.9928571 C32.3946429,33.0214286 29.3946429,35.2660714 25.2,35.6357143 L25.2,35.6357143 Z" fill="#2F88FF"></path>
  <path d="M26.5553571,22.7571429 L25.1946429,22.4410714 L25.1946429,15.2464286 C27.2303571,15.525 28.4892857,16.8 28.7035714,18.3642857 C28.7303571,18.5785714 28.9125,18.7339286 29.1267857,18.7339286 L31.5321429,18.7339286 C31.7839286,18.7339286 31.9821429,18.5142857 31.9607143,18.2625 C31.6339286,14.925 28.8857143,12.7821429 25.2160714,12.4125 L25.2160714,10.6607143 C25.2160714,10.425 25.0232143,10.2321429 24.7875,10.2321429 L23.2821429,10.2321429 C23.0464286,10.2321429 22.8535714,10.425 22.8535714,10.6607143 L22.8535714,12.4285714 C19.0607143,12.7982143 16.0928571,14.8928571 16.0928571,18.8035714 C16.0928571,22.425 18.7607143,24.1714286 21.5625,24.8410714 L22.8857143,25.1785714 L22.8857143,32.8232143 C20.5178571,32.5071429 19.1892857,31.2428571 18.9160714,29.5392857 C18.8839286,29.3357143 18.7017857,29.1857143 18.4928571,29.1857143 L16.0178571,29.1857143 C15.7660714,29.1857143 15.5678571,29.4 15.5892857,29.6517857 C15.8303571,32.5982143 18.0642857,35.3089286 22.8321429,35.6571429 L22.8321429,37.3392857 C22.8321429,37.575 23.025,37.7678571 23.2607143,37.7678571 L24.7821429,37.7678571 C25.0178571,37.7678571 25.2107143,37.575 25.2107143,37.3339286 L25.2,35.6357143 C29.3946429,35.2660714 32.3946429,33.0214286 32.3946429,28.9928571 C32.3892857,25.275 30.0267857,23.6142857 26.5553571,22.7571429 Z M22.8803571,21.8892857 C22.5803571,21.8035714 22.3285714,21.7232143 22.0767857,21.6214286 C20.2660714,20.9678571 19.425,19.9125 19.425,18.5517857 C19.425,16.6071429 20.8982143,15.4982143 22.8803571,15.2464286 L22.8803571,21.8892857 Z M25.1946429,32.8392857 L25.1946429,25.6767857 C25.3607143,25.725 25.5107143,25.7625 25.6660714,25.7946429 C28.2,26.5660714 29.0517857,27.6375 29.0517857,29.2821429 C29.0517857,31.3767857 27.4767857,32.6357143 25.1946429,32.8392857 Z" fill="#000"></path>
</svg>
