<?xml version="1.0" encoding="UTF-8"?>
<svg width="48" height="48" viewBox="0 0 48 48" fill="none" xmlns="http://www.w3.org/2000/svg">
  <rect width="48" height="48" fill="white" fill-opacity="0.01"/>
  <path fill="#000" d="M40.1382007,37.7613626 L11.1268378,0.6931818 C10.7859287,0.249999993 10.2518379,0 9.69501969,0 L0.910929011,0 C0.149565395,0 -0.27088914,0.874999977 0.195019939,1.46590905 L30.3541101,40 L0.195019939,78.5340888 C-0.0190666097,78.8074754 -0.0582403757,79.1791101 0.094139316,79.4911256 C0.246519008,79.8031412 0.563693182,80 0.910929011,80 L9.69501969,80 C10.2518379,80 10.7859287,79.7386343 11.1268378,79.3068161 L40.1382007,42.2499989 C41.1722916,40.9204535 41.1722916,39.0795444 40.1382007,37.7613626 Z M74.6836543,37.7613626 L45.6722915,0.6931818 C45.3313824,0.249999993 44.7972915,0 44.2404733,0 L35.4563826,0 C34.695019,0 34.2745645,0.874999977 34.7404736,1.46590905 L64.8995637,40 L34.7404736,78.5340888 C34.526387,78.8074754 34.4872133,79.1791101 34.6395929,79.4911256 C34.7919726,79.8031412 35.1091468,80 35.4563826,80 L44.2404733,80 C44.7972915,80 45.3313824,79.7386343 45.6722915,79.3068161 L74.6836543,42.2499989 C75.7177452,40.9204535 75.7177452,39.0795444 74.6836543,37.7613626 Z"></path>
</svg>
