<svg width="48" height="48" viewBox="0 0 48 48" fill="none" xmlns="http://www.w3.org/2000/svg">
  <rect width="48" height="48" fill="white" fill-opacity="0.01"/>
  <path fill="#000" d="M33.5448153,12.1406407 C33.860922,12.1406407 34.1770287,12.1513562 34.4877777,12.1674294 C33.1804889,5.27201697 26.0064739,0 17.3483648,0 C7.76872419,0 0,6.46143543 0,14.4337538 C0,18.7788816 2.335975,22.6953901 5.99531198,25.3421141 C6.30160767,25.5583563 6.48349585,25.91014 6.48286639,26.2850765 C6.48286639,26.4136622 6.45607769,26.5315325 6.42393124,26.6547606 C6.1292555,27.742382 5.66313205,29.4836477 5.64170108,29.5640138 C5.6041969,29.7033151 5.55061949,29.8426164 5.55061949,29.9872754 C5.55061949,30.3033821 5.80779105,30.5659114 6.1292555,30.5659114 C6.25248354,30.5659114 6.35428061,30.5176917 6.46143543,30.4587566 L10.2600737,28.2674406 C10.5440339,28.1013506 10.8494252,27.9995535 11.1816051,27.9995535 C11.3530528,27.9995535 11.5245005,28.0263422 11.6905905,28.0745619 C13.4640027,28.5835473 15.3767162,28.8675075 17.3537225,28.8675075 C17.675187,28.8675075 17.9912937,28.8621498 18.3074004,28.8460766 C17.9270008,27.720951 17.7234066,26.5368903 17.7234066,25.3099676 C17.7234066,18.0341556 24.80634,12.1406407 33.5448153,12.1406407 L33.5448153,12.1406407 Z M23.1347249,7.50619489 C24.4098672,7.50619489 25.4492689,8.54023887 25.4492689,9.81538118 C25.4492689,11.0905235 24.4152249,12.1245675 23.1347249,12.1245675 C21.8595825,12.1245675 20.8201808,11.0905235 20.8201808,9.81538118 C20.8201808,8.54023887 21.8595825,7.50619489 23.1347249,7.50619489 Z M11.5673624,12.1245675 C10.2922201,12.1245675 9.25281839,11.0905235 9.25281839,9.81538118 C9.25281839,8.54023887 10.2868624,7.50619489 11.5673624,7.50619489 C12.8478625,7.50619489 13.8819065,8.54023887 13.8819065,9.81538118 C13.8819065,11.0905235 12.8425047,12.1245675 11.5673624,12.1245675 Z M43.0065856,34.3913383 C46.0551401,32.1839491 48,28.9264427 48,25.2992521 C48,18.6556535 41.5278491,13.271124 33.5394575,13.271124 C25.5564237,13.271124 19.0789151,18.6556535 19.0789151,25.2992521 C19.0789151,31.9428508 25.551066,37.3273803 33.5394575,37.3273803 C35.1896417,37.3273803 36.7862485,37.0916397 38.2596272,36.6683782 C38.3989285,36.6255162 38.5382297,36.6040853 38.6828887,36.6040853 C38.9614912,36.6040853 39.2133051,36.6898091 39.4490457,36.8237527 L42.6154705,38.6453845 C42.7065521,38.6989619 42.7922759,38.7364816 42.894073,38.7364816 C43.0223507,38.7374923 43.1457499,38.6873614 43.2369684,38.5971649 C43.3271649,38.5059463 43.3772958,38.3825472 43.3762697,38.2542694 C43.3762697,38.1363992 43.32805,38.0185289 43.3012613,37.9006586 C43.2851881,37.8363657 42.894073,36.3844179 42.6476169,35.473602 C42.6208282,35.3718049 42.5993973,35.2700078 42.5993973,35.1682107 C42.604755,34.852104 42.7654872,34.5681438 43.0065856,34.3913383 L43.0065856,34.3913383 Z M28.7282063,23.3811809 C27.6620158,23.3811809 26.7994196,22.5185847 26.7994196,21.457752 C26.7994196,20.3969193 27.6620158,19.534323 28.7282063,19.534323 C29.7943967,19.534323 30.656993,20.3969193 30.656993,21.457752 C30.656993,22.5185847 29.789039,23.3811809 28.7282063,23.3811809 Z M38.366782,23.3811809 C37.3005916,23.3811809 36.4379953,22.5185847 36.4379953,21.457752 C36.4379953,20.3969193 37.3005916,19.534323 38.366782,19.534323 C39.4329724,19.534323 40.2955687,20.3969193 40.2955687,21.457752 C40.2902722,22.5199206 39.4289613,23.378839 38.366782,23.3811809 L38.366782,23.3811809 Z"></path>
</svg>
