<svg width="48" height="48" viewBox="0 0 48 48" fill="none" xmlns="http://www.w3.org/2000/svg">
  <rect width="48" height="48" fill="white" fill-opacity="0.01"/>
  <path d="M46.9333333,14.9333333 L33.0666667,14.9333333 L33.0666667,1.06666667 C33.0666667,0.48 32.5866667,0 32,0 L1.06666667,0 C0.48,0 0,0.48 0,1.06666667 L0,32 C0,32.5866667 0.48,33.0666667 1.06666667,33.0666667 L14.9333333,33.0666667 L14.9333333,46.9333333 C14.9333333,47.52 15.4133333,48 16,48 L46.9333333,48 C47.52,48 48,47.52 48,46.9333333 L48,16 C48,15.4133333 47.52,14.9333333 46.9333333,14.9333333 Z M14.9333333,16 L14.9333333,28.5333333 L4.53333333,28.5333333 L4.53333333,4.53333333 L28.5333333,4.53333333 L28.5333333,14.9333333 L16,14.9333333 C15.4133333,14.9333333 14.9333333,15.4133333 14.9333333,16 Z M28.5333333,19.4666667 L28.5333333,28.5333333 L19.4666667,28.5333333 L19.4666667,19.4666667 L28.5333333,19.4666667 Z M43.4666667,43.4666667 L19.4666667,43.4666667 L19.4666667,33.0666667 L32,33.0666667 C32.5866667,33.0666667 33.0666667,32.5866667 33.0666667,32 L33.0666667,19.4666667 L43.4666667,19.4666667 L43.4666667,43.4666667 Z" fill="#000"></path>
</svg>
