<?xml version="1.0" encoding="UTF-8"?>
<svg width="48" height="48" viewBox="0 0 48 48" fill="none" xmlns="http://www.w3.org/2000/svg">
  <rect width="48" height="48" fill="white" fill-opacity="0.01"/>
  <path fill="#000" d="M31.2969867,19.9709308 L24.4079423,19.9709308 L24.4079423,12.1477788 C24.4079423,11.8908991 24.1977681,11.6807249 23.9408885,11.6807249 L20.4379846,11.6807249 C20.181105,11.6807249 19.9709308,11.8908991 19.9709308,12.1477788 L19.9709308,19.9709308 L13.0818865,19.9709308 C12.8250068,19.9709308 12.6148326,20.181105 12.6148326,20.4379846 L12.6148326,23.9408885 C12.6148326,24.1977681 12.8250068,24.4079423 13.0818865,24.4079423 L19.9709308,24.4079423 L19.9709308,32.2310944 C19.9709308,32.487974 20.181105,32.6981482 20.4379846,32.6981482 L23.9408885,32.6981482 C24.1977681,32.6981482 24.4079423,32.487974 24.4079423,32.2310944 L24.4079423,24.4079423 L31.2969867,24.4079423 C31.5538663,24.4079423 31.7640405,24.1977681 31.7640405,23.9408885 L31.7640405,20.4379846 C31.7640405,20.181105 31.5538663,19.9709308 31.2969867,19.9709308 Z M47.8773984,44.7247849 L39.3536656,36.2010521 C46.482075,27.5080123 45.9858303,14.6290023 37.8357406,6.48475081 C29.1952443,-2.1615836 15.1602761,-2.1615836 6.48475081,6.48475081 C-2.1615836,15.1602761 -2.1615836,29.1952443 6.48475081,37.8357406 C14.6290023,45.9858303 27.5080123,46.482075 36.2010521,39.3536656 L44.7247849,47.8773984 C44.9116064,48.0408672 45.2093532,48.0408672 45.3669839,47.8773984 L47.8773984,45.3669839 C48.0408672,45.2093532 48.0408672,44.9116064 47.8773984,44.7247849 Z M34.7415088,34.7415088 C27.8057591,41.6714203 16.573114,41.6714203 9.63736431,34.7415088 C2.70745279,27.8057591 2.70745279,16.573114 9.63736431,9.63736431 C16.573114,2.70745279 27.8057591,2.70745279 34.7415088,9.63736431 C41.6714203,16.573114 41.6714203,27.8057591 34.7415088,34.7415088 Z"></path>
</svg>
