<?xml version="1.0" encoding="UTF-8"?>
<svg width="48" height="48" viewBox="0 0 48 48" fill="none" xmlns="http://www.w3.org/2000/svg">
  <rect width="48" height="48" fill="white" fill-opacity="0.01"/>
  <path fill="#000" d="M33,4.5 L36.5,4.5 C36.775,4.5 37,4.275 37,4 L37,0.5 C37,0.225 36.775,0 36.5,0 L33,0 C32.725,0 32.5,0.225 32.5,0.5 L32.5,4 C32.5,4.275 32.725,4.5 33,4.5 Z M36.625,43.5 L33.125,43.5 C32.85,43.5 32.625,43.725 32.625,44 L32.625,47.5 C32.625,47.775 32.85,48 33.125,48 L36.625,48 C36.9,48 37.125,47.775 37.125,47.5 L37.125,44 C37.125,43.725 36.9,43.5 36.625,43.5 Z M4,32.625 L0.5,32.625 C0.225,32.625 0,32.85 0,33.125 L0,36.625 C0,36.9 0.225,37.125 0.5,37.125 L4,37.125 C4.275,37.125 4.5,36.9 4.5,36.625 L4.5,33.125 C4.5,32.85 4.275,32.625 4,32.625 Z M4,43.5 L0.5,43.5 C0.225,43.5 0,43.725 0,44 L0,47.5 C0,47.775 0.225,48 0.5,48 L4,48 C4.275,48 4.5,47.775 4.5,47.5 L4.5,44 C4.5,43.725 4.275,43.5 4,43.5 Z M47.5,0 L44,0 C43.725,0 43.5,0.225 43.5,0.5 L43.5,4 C43.5,4.275 43.725,4.5 44,4.5 L47.5,4.5 C47.775,4.5 48,4.275 48,4 L48,0.5 C48,0.225 47.775,0 47.5,0 Z M47.5,10.875 L44,10.875 C43.725,10.875 43.5,11.1 43.5,11.375 L43.5,14.875 C43.5,15.15 43.725,15.375 44,15.375 L47.5,15.375 C47.775,15.375 48,15.15 48,14.875 L48,11.375 C48,11.1 47.775,10.875 47.5,10.875 Z M47.5,21.75 L44,21.75 C43.725,21.75 43.5,21.975 43.5,22.25 L43.5,25.75 C43.5,26.025 43.725,26.25 44,26.25 L47.5,26.25 C47.775,26.25 48,26.025 48,25.75 L48,22.25 C48,21.975 47.775,21.75 47.5,21.75 Z M47.5,32.625 L44,32.625 C43.725,32.625 43.5,32.85 43.5,33.125 L43.5,36.625 C43.5,36.9 43.725,37.125 44,37.125 L47.5,37.125 C47.775,37.125 48,36.9 48,36.625 L48,33.125 C48,32.85 47.775,32.625 47.5,32.625 Z M47.5,43.5 L44,43.5 C43.725,43.5 43.5,43.725 43.5,44 L43.5,47.5 C43.5,47.775 43.725,48 44,48 L47.5,48 C47.775,48 48,47.775 48,47.5 L48,44 C48,43.725 47.775,43.5 47.5,43.5 Z M25.75,43.5 L22.25,43.5 C21.975,43.5 21.75,43.725 21.75,44 L21.75,47.5 C21.75,47.775 21.975,48 22.25,48 L25.75,48 C26.025,48 26.25,47.775 26.25,47.5 L26.25,44 C26.25,43.725 26.025,43.5 25.75,43.5 Z M14.875,43.5 L11.375,43.5 C11.1,43.5 10.875,43.725 10.875,44 L10.875,47.5 C10.875,47.775 11.1,48 11.375,48 L14.875,48 C15.15,48 15.375,47.775 15.375,47.5 L15.375,44 C15.375,43.725 15.15,43.5 14.875,43.5 Z M25.75,0 L14.375,0 C6.4375,0 0,6.4375 0,14.375 L0,25.75 C0,26.025 0.225,26.25 0.5,26.25 L4,26.25 C4.275,26.25 4.5,26.025 4.5,25.75 L4.5,14.375 C4.5,8.91875 8.91875,4.5 14.375,4.5 L25.75,4.5 C26.025,4.5 26.25,4.275 26.25,4 L26.25,0.5 C26.25,0.225 26.025,0 25.75,0 Z"></path>
</svg>
