<svg width="48" height="48" viewBox="0 0 48 48" fill="none" xmlns="http://www.w3.org/2000/svg">
  <rect width="48" height="48" fill="white" fill-opacity="0.01"/>
  <path d="M30.9938525,22.079918 L30.9938525,14.7028689 L27.1004098,18.5963115 L27.1004098,22.079918 C27.0952869,24.6772541 24.9487705,26.7981557 22.2848361,26.7930328 C21.3063525,26.7981557 20.3995902,26.5163934 19.6209016,26.0245902 L16.8545082,28.8422131 C18.3452869,29.9897541 20.2305328,30.6864754 22.2848361,30.6864754 C27.0901639,30.6864754 30.9938525,26.8391393 30.9938525,22.079918 Z" fill="#000"></path>
  <path d="M38.7295082,21.6188525 L35.6557377,21.6188525 C35.4303279,21.6188525 35.2459016,21.8032787 35.2459016,22.0286885 C35.2459016,29.2161885 29.4211066,35.0409836 22.2336066,35.0409836 C19.0061475,35.0409836 16.0502049,33.8627049 13.7807377,31.9159836 L11.0143443,34.682377 C13.5194672,36.8954918 16.6905738,38.3862705 20.1844262,38.8319672 L20.1844262,44.057377 L12.7561475,44.057377 C12.0440574,44.057377 11.4805328,44.789959 11.4754098,45.6967213 L11.4754098,47.5409836 C11.4805328,47.7663934 11.6239754,47.9508197 11.7827869,47.9508197 L32.6844262,47.9508197 C32.8483607,47.9508197 32.9918033,47.7663934 32.9918033,47.5409836 L32.9918033,45.6967213 C32.9918033,44.789959 32.4282787,44.057377 31.7110656,44.057377 L24.0778689,44.057377 L24.0778689,38.8319672 C32.5461066,37.914959 39.1393443,30.7428279 39.1393443,22.0286885 C39.1393443,21.8032787 38.954918,21.6188525 38.7295082,21.6188525 Z M39.4006148,2.26946721 L37.1721311,0.12295082 C37.0133197,-0.0307377049 36.7571721,-0.0307377049 36.5983607,0.12807377 L29.9897541,6.73668033 C28.5502049,3.95491803 25.6147541,2.04918033 22.2336066,2.04918033 C17.4231557,2.04918033 13.5245902,5.9067623 13.5245902,10.6557377 L13.5245902,22.1311475 C13.5245902,22.4743852 13.545082,22.8125 13.5860656,23.1454918 L10.102459,26.6290984 C9.56454918,25.1997951 9.26741803,23.647541 9.27254098,22.0286885 C9.26229508,21.8032787 9.07786885,21.6188525 8.86270492,21.6188525 L5.78893443,21.6188525 C5.56352459,21.6188525 5.37909836,21.8032787 5.37909836,22.0286885 C5.37909836,24.7438525 6.01946721,27.3053279 7.15163934,29.579918 L0.133196721,36.5983607 C-0.0256147541,36.7571721 -0.0256147541,37.0184426 0.133196721,37.1772541 L2.32069672,39.3647541 C2.4795082,39.5235656 2.74077869,39.5235656 2.89959016,39.3647541 L39.4057377,2.85860656 L39.4108607,2.85348361 C39.5696721,2.68954918 39.5645492,2.42827869 39.4006148,2.26946721 Z M17.4180328,19.3135246 L17.4180328,10.6557377 C17.4180328,8.06352459 19.5645492,5.94262295 22.2336066,5.94262295 C24.5901639,5.94262295 26.5420082,7.59733607 26.9620902,9.76946721 L17.4180328,19.3135246 Z" fill="#000"></path>
</svg>
