<svg width="48" height="48" viewBox="0 0 48 48" fill="none" xmlns="http://www.w3.org/2000/svg">
  <rect width="48" height="48" fill="white" fill-opacity="0.01"/>
  <path d="M4.08,10.92 L8.88,10.92 L8.88,37.32 L4.08,37.32 L4.08,10.92 Z M26.22,21.72 L21.78,21.72 C21.6805887,21.72 21.6,21.8005887 21.6,21.9 L21.6,26.34 C21.6,26.4394113 21.6805887,26.52 21.78,26.52 L26.22,26.52 C26.3194113,26.52 26.4,26.4394113 26.4,26.34 L26.4,21.9 C26.4,21.8005887 26.3194113,21.72 26.22,21.72 L26.22,21.72 Z M39.12,15.24 L43.92,15.24 L43.92,33 L39.12,33 L39.12,15.24 Z" fill="#2F88FF"></path>
  <path d="M47.52,11.16 L43.56,11.16 L43.56,5.4 C43.56,5.136 43.344,4.92 43.08,4.92 L39.96,4.92 C39.696,4.92 39.48,5.136 39.48,5.4 L39.48,11.16 L35.52,11.16 C35.256,11.16 35.04,11.376 35.04,11.64 L35.04,36.6 C35.04,36.864 35.256,37.08 35.52,37.08 L39.48,37.08 L39.48,42.84 C39.48,43.104 39.696,43.32 39.96,43.32 L43.08,43.32 C43.344,43.32 43.56,43.104 43.56,42.84 L43.56,37.08 L47.52,37.08 C47.784,37.08 48,36.864 48,36.6 L48,11.64 C48,11.376 47.784,11.16 47.52,11.16 Z M43.92,33 L39.12,33 L39.12,15.24 L43.92,15.24 L43.92,33 Z M30,17.64 L26.04,17.64 L26.04,7.32 C26.04,7.056 25.824,6.84 25.56,6.84 L22.44,6.84 C22.176,6.84 21.96,7.056 21.96,7.32 L21.96,17.64 L18,17.64 C17.736,17.64 17.52,17.856 17.52,18.12 L17.52,30.12 C17.52,30.384 17.736,30.6 18,30.6 L21.96,30.6 L21.96,40.92 C21.96,41.184 22.176,41.4 22.44,41.4 L25.56,41.4 C25.824,41.4 26.04,41.184 26.04,40.92 L26.04,30.6 L30,30.6 C30.264,30.6 30.48,30.384 30.48,30.12 L30.48,18.12 C30.48,17.856 30.264,17.64 30,17.64 Z M26.4,26.34 C26.4,26.4394113 26.3194113,26.52 26.22,26.52 L21.78,26.52 C21.6805887,26.52 21.6,26.4394113 21.6,26.34 L21.6,21.9 C21.6,21.8005887 21.6805887,21.72 21.78,21.72 L26.22,21.72 C26.3194113,21.72 26.4,21.8005887 26.4,21.9 L26.4,26.34 Z M12.48,6.84 L8.52,6.84 L8.52,3.48 C8.52,3.216 8.304,3 8.04,3 L4.92,3 C4.656,3 4.44,3.216 4.44,3.48 L4.44,6.84 L0.48,6.84 C0.216,6.84 0,7.056 0,7.32 L0,40.92 C0,41.184 0.216,41.4 0.48,41.4 L4.44,41.4 L4.44,44.76 C4.44,45.024 4.656,45.24 4.92,45.24 L8.04,45.24 C8.304,45.24 8.52,45.024 8.52,44.76 L8.52,41.4 L12.48,41.4 C12.744,41.4 12.96,41.184 12.96,40.92 L12.96,7.32 C12.96,7.056 12.744,6.84 12.48,6.84 Z M8.88,37.32 L4.08,37.32 L4.08,10.92 L8.88,10.92 L8.88,37.32 Z" fill="#000"></path>
</svg>
