<svg width="48" height="48" viewBox="0 0 48 48" fill="none" xmlns="http://www.w3.org/2000/svg">
  <rect width="48" height="48" fill="white" fill-opacity="0.01"/>
  <path d="M36,11.52 C36,11.784 35.784,12 35.52,12 L32.16,12 C31.896,12 31.68,11.784 31.68,11.52 L31.68,8.64 L16.32,8.64 L16.32,11.52 C16.32,11.784 16.104,12 15.84,12 L12.48,12 C12.216,12 12,11.784 12,11.52 L12,8.64 L4.32,8.64 L4.32,43.68 L43.68,43.68 L43.68,8.64 L36,8.64 L36,11.52 Z M32.064,18.828 L26.706,28.674 L29.652,28.674 C29.916,28.674 30.132,28.89 30.132,29.154 L30.132,30.432 C30.132,30.696 29.916,30.912 29.652,30.912 L25.728,30.912 L25.728,32.934 L29.652,32.934 C29.916,32.934 30.132,33.15 30.132,33.414 L30.132,34.692 C30.132,34.956 29.916,35.172 29.652,35.172 L25.728,35.172 L25.728,38.4 C25.728,38.664 25.512,38.88 25.248,38.88 L22.77,38.88 C22.506,38.88 22.29,38.664 22.29,38.4 L22.29,35.172 L18.384,35.172 C18.12,35.172 17.904,34.956 17.904,34.692 L17.904,33.414 C17.904,33.15 18.12,32.934 18.384,32.934 L22.29,32.934 L22.29,30.912 L18.384,30.912 C18.12,30.912 17.904,30.696 17.904,30.432 L17.904,29.154 C17.904,28.89 18.12,28.674 18.384,28.674 L21.3,28.674 L15.942,18.834 C15.816,18.6 15.9,18.306 16.134,18.18 C16.2,18.138 16.284,18.12 16.362,18.12 L19.122,18.12 C19.3023153,18.1209983 19.4668596,18.2229694 19.548,18.384 L23.952,27.108 L24.12,27.108 L28.524,18.384 C28.602,18.222 28.77,18.12 28.95,18.12 L31.65,18.12 C31.92,18.12 32.13,18.336 32.1241254,18.6 C32.1241254,18.678 32.1,18.756 32.064,18.828 L32.064,18.828 Z" fill="#2F88FF"></path>
  <path d="M31.65,18.12 L28.95,18.12 C28.77,18.12 28.602,18.222 28.524,18.384 L24.12,27.108 L23.952,27.108 L19.548,18.384 C19.4668596,18.2229694 19.3023153,18.1209983 19.122,18.12 L16.362,18.12 C16.284,18.12 16.2,18.138 16.134,18.18 C15.9,18.306 15.816,18.6 15.942,18.834 L21.3,28.674 L18.384,28.674 C18.12,28.674 17.904,28.89 17.904,29.154 L17.904,30.432 C17.904,30.696 18.12,30.912 18.384,30.912 L22.29,30.912 L22.29,32.934 L18.384,32.934 C18.12,32.934 17.904,33.15 17.904,33.414 L17.904,34.692 C17.904,34.956 18.12,35.172 18.384,35.172 L22.29,35.172 L22.29,38.4 C22.29,38.664 22.506,38.88 22.77,38.88 L25.248,38.88 C25.512,38.88 25.728,38.664 25.728,38.4 L25.728,35.172 L29.652,35.172 C29.916,35.172 30.132,34.956 30.132,34.692 L30.132,33.414 C30.132,33.15 29.916,32.934 29.652,32.934 L25.728,32.934 L25.728,30.912 L29.652,30.912 C29.916,30.912 30.132,30.696 30.132,30.432 L30.132,29.154 C30.132,28.89 29.916,28.674 29.652,28.674 L26.706,28.674 L32.064,18.828 C32.1,18.756 32.1241254,18.678 32.1241254,18.6 C32.13,18.336 31.92,18.12 31.65,18.12 L31.65,18.12 Z" fill="#FFF"></path>
  <path d="M46.08,4.32 L36,4.32 L36,0.48 C36,0.216 35.784,0 35.52,0 L32.16,0 C31.896,0 31.68,0.216 31.68,0.48 L31.68,4.32 L16.32,4.32 L16.32,0.48 C16.32,0.216 16.104,0 15.84,0 L12.48,0 C12.216,0 12,0.216 12,0.48 L12,4.32 L1.92,4.32 C0.858,4.32 0,5.178 0,6.24 L0,46.08 C0,47.142 0.858,48 1.92,48 L46.08,48 C47.142,48 48,47.142 48,46.08 L48,6.24 C48,5.178 47.142,4.32 46.08,4.32 Z M43.68,43.68 L4.32,43.68 L4.32,8.64 L12,8.64 L12,11.52 C12,11.784 12.216,12 12.48,12 L15.84,12 C16.104,12 16.32,11.784 16.32,11.52 L16.32,8.64 L31.68,8.64 L31.68,11.52 C31.68,11.784 31.896,12 32.16,12 L35.52,12 C35.784,12 36,11.784 36,11.52 L36,8.64 L43.68,8.64 L43.68,43.68 Z" fill="#000"></path>
</svg>
