<svg width="48" height="48" viewBox="0 0 48 48" fill="none" xmlns="http://www.w3.org/2000/svg">
  <rect width="48" height="48" fill="white" fill-opacity="0.01"/>
  <path d="M2.99665552,0 L0.428093645,0 C0.19264214,0 0,0.19264214 0,0.428093645 L0,37.2441472 C0,37.4795987 0.19264214,37.6722408 0.428093645,37.6722408 L2.99665552,37.6722408 C3.23210702,37.6722408 3.42474916,37.4795987 3.42474916,37.2441472 L3.42474916,0.428093645 C3.42474916,0.19264214 3.23210702,0 2.99665552,0 Z M47.5719064,0 L45.0033445,0 C44.767893,0 44.5752508,0.19264214 44.5752508,0.428093645 L44.5752508,37.2441472 C44.5752508,37.4795987 44.767893,37.6722408 45.0033445,37.6722408 L47.5719064,37.6722408 C47.8073579,37.6722408 48,37.4795987 48,37.2441472 L48,0.428093645 C48,0.19264214 47.8073579,0 47.5719064,0 Z M7.27759197,30.8227425 L13.270903,30.8227425 C13.5063545,30.8227425 13.6989967,30.6301003 13.6989967,30.3946488 L13.6989967,0.428093645 C13.6989967,0.19264214 13.5063545,0 13.270903,0 L7.27759197,0 C7.04214047,0 6.84949833,0.19264214 6.84949833,0.428093645 L6.84949833,30.3946488 C6.84949833,30.6301003 7.04214047,30.8227425 7.27759197,30.8227425 Z M24.4548495,30.8227425 L27.0234114,30.8227425 C27.2588629,30.8227425 27.451505,30.6301003 27.451505,30.3946488 L27.451505,0.428093645 C27.451505,0.19264214 27.2588629,0 27.0234114,0 L24.4548495,0 C24.219398,0 24.0267559,0.19264214 24.0267559,0.428093645 L24.0267559,30.3946488 C24.0267559,30.6301003 24.219398,30.8227425 24.4548495,30.8227425 Z M31.1973244,30.8227425 L40.722408,30.8227425 C40.9578595,30.8227425 41.1505017,30.6301003 41.1505017,30.3946488 L41.1505017,0.428093645 C41.1505017,0.19264214 40.9578595,0 40.722408,0 L31.1973244,0 C30.9618729,0 30.7692308,0.19264214 30.7692308,0.428093645 L30.7692308,30.3946488 C30.7692308,30.6301003 30.9618729,30.8227425 31.1973244,30.8227425 Z M17.5518395,30.8227425 L20.1204013,30.8227425 C20.3558528,30.8227425 20.548495,30.6301003 20.548495,30.3946488 L20.548495,0.428093645 C20.548495,0.19264214 20.3558528,0 20.1204013,0 L17.5518395,0 C17.316388,0 17.1237458,0.19264214 17.1237458,0.428093645 L17.1237458,30.3946488 C17.1237458,30.6301003 17.316388,30.8227425 17.5518395,30.8227425 Z M13.3244147,34.2474916 L7.33110368,34.2474916 C7.09565217,34.2474916 6.90301003,34.4401338 6.90301003,34.6755853 L6.90301003,37.2441472 C6.90301003,37.4795987 7.09565217,37.6722408 7.33110368,37.6722408 L13.3244147,37.6722408 C13.5598662,37.6722408 13.7525084,37.4795987 13.7525084,37.2441472 L13.7525084,34.6755853 C13.7525084,34.4401338 13.5598662,34.2474916 13.3244147,34.2474916 Z M27.0769231,34.2474916 L24.5083612,34.2474916 C24.2729097,34.2474916 24.0802676,34.4401338 24.0802676,34.6755853 L24.0802676,37.2441472 C24.0802676,37.4795987 24.2729097,37.6722408 24.5083612,37.6722408 L27.0769231,37.6722408 C27.3123746,37.6722408 27.5050167,37.4795987 27.5050167,37.2441472 L27.5050167,34.6755853 C27.5050167,34.4401338 27.3123746,34.2474916 27.0769231,34.2474916 Z M40.7759197,34.2474916 L31.2508361,34.2474916 C31.0153846,34.2474916 30.8227425,34.4401338 30.8227425,34.6755853 L30.8227425,37.2441472 C30.8227425,37.4795987 31.0153846,37.6722408 31.2508361,37.6722408 L40.7759197,37.6722408 C41.0113712,37.6722408 41.2040134,37.4795987 41.2040134,37.2441472 L41.2040134,34.6755853 C41.2040134,34.4401338 41.0113712,34.2474916 40.7759197,34.2474916 Z M20.173913,34.2474916 L17.6053512,34.2474916 C17.3698997,34.2474916 17.1772575,34.4401338 17.1772575,34.6755853 L17.1772575,37.2441472 C17.1772575,37.4795987 17.3698997,37.6722408 17.6053512,37.6722408 L20.173913,37.6722408 C20.4093645,37.6722408 20.6020067,37.4795987 20.6020067,37.2441472 L20.6020067,34.6755853 C20.6020067,34.4401338 20.4093645,34.2474916 20.173913,34.2474916 Z" fill="#000"></path>
</svg>
