<svg width="48" height="48" viewBox="0 0 48 48" fill="none" xmlns="http://www.w3.org/2000/svg">
  <rect width="48" height="48" fill="white" fill-opacity="0.01"/>
  <path d="M27.1129261,17.524858 C25.8824574,17.524858 24.9289773,18.4783381 24.9289773,19.6555398 C24.9289773,20.8327415 25.8824574,21.7862216 27.1129261,21.7862216 C28.2368608,21.7862216 29.1903409,20.8327415 29.1903409,19.6555398 C29.1903409,18.4783381 28.2368608,17.524858 27.1129261,17.524858 Z M12.1981534,17.524858 C10.9676847,17.524858 10.0142045,18.4783381 10.0142045,19.6555398 C10.0142045,20.8327415 10.9676847,21.7862216 12.1981534,21.7862216 C13.3220881,21.7862216 14.2755682,20.8327415 14.2755682,19.6555398 C14.2755682,18.4783381 13.3220881,17.524858 12.1981534,17.524858 Z" fill="#000"></path>
  <path d="M44.2116477,13.4765625 C41.6495028,9.9609375 38.0699574,7.6118608 34.1441761,6.55184659 L34.1441761,6.5571733 C33.2333097,5.54509943 32.2052557,4.61292614 31.0546875,3.78196023 C22.3348722,-2.55681818 10.0941051,-0.623224432 3.72869318,8.09659091 C-1.4009233,15.181108 -1.18252841,24.7105824 4.04829545,31.4808239 L4.09090909,38.5440341 C4.09090909,38.7144886 4.11754261,38.8849432 4.17080966,39.0447443 C4.453125,39.9449574 5.41193182,40.4403409 6.30681818,40.1580256 L13.0504261,38.0326705 C14.8348722,38.6665483 16.6779119,39.0287642 18.5102983,39.1299716 L18.4836648,39.1512784 C23.2297585,42.6083097 29.4513494,43.647017 35.15625,41.7613636 L41.9264915,43.9666193 C42.096946,44.0198864 42.2727273,44.0518466 42.4538352,44.0518466 C43.3966619,44.0518466 44.1583807,43.2901278 44.1583807,42.3473011 L44.1583807,35.209517 C48.8512074,28.8387784 48.9737216,20.0337358 44.2116477,13.4765625 Z M13.7961648,34.2507102 L13.1569602,33.984375 L7.88352273,35.6356534 L7.83025568,30.0958807 L7.40411932,29.6164773 C2.89772727,24.1193182 2.59943182,16.1985085 6.81818182,10.3870739 C11.953125,3.34517045 21.796875,1.78977273 28.8174716,6.87144886 C35.859375,11.9904119 37.4200994,21.8181818 32.3330966,28.8174716 C28.0664063,34.6715199 20.4279119,36.8341619 13.7961648,34.2507102 Z M40.6960227,33.3451705 L40.2698864,33.8778409 L40.3231534,39.4176136 L35.102983,37.6598011 L34.4637784,37.9261364 C31.4808239,39.0340909 28.3007812,39.1246449 25.3551136,38.2990057 L25.3444602,38.293679 C29.2808949,37.084517 32.8497869,34.634233 35.4225852,31.1079545 C39.4921875,25.4989347 40.1526989,18.4517045 37.787642,12.4431818 L37.8196023,12.4644886 C39.0447443,13.3433949 40.168679,14.440696 41.1221591,15.7670455 C44.9893466,21.0724432 44.7709517,28.2954545 40.6960227,33.3451705 Z" fill="#000"></path>
  <path d="M19.6555398,17.524858 C18.425071,17.524858 17.4715909,18.4783381 17.4715909,19.6555398 C17.4715909,20.8327415 18.425071,21.7862216 19.6555398,21.7862216 C20.7794744,21.7862216 21.7329545,20.8327415 21.7329545,19.6555398 C21.7329545,18.4783381 20.7794744,17.524858 19.6555398,17.524858 Z" fill="#000"></path>
</svg>
