<svg width="48" height="48" viewBox="0 0 48 48" fill="none" xmlns="http://www.w3.org/2000/svg">
  <rect width="48" height="48" fill="white" fill-opacity="0.01"/>
  <circle fill="#2F88FF" cx="19.4992892" cy="20.4491157" r="17.5"></circle>
  <circle fill="#2F88FF" cx="28.4992892" cy="25.4491157" r="17.5"></circle>
  <polygon fill="#2F88FF" points="7.15624938 32.5847691 7.30378841 38.5847691 13.1562494 36.1408291"></polygon>
  <polygon fill="#2F88FF" points="36.9992892 40.5271912 41.1014981 42.0335134 41.1014981 37.5847691"></polygon>
  <path d="M27.1122153,19.4739737 C25.8817466,19.4739737 24.9282665,20.4274538 24.9282665,21.6046555 C24.9282665,22.7818572 25.8817466,23.7353373 27.1122153,23.7353373 C28.23615,23.7353373 29.1896301,22.7818572 29.1896301,21.6046555 C29.1896301,20.4274538 28.23615,19.4739737 27.1122153,19.4739737 Z M12.1974426,19.4739737 C10.9669739,19.4739737 10.0134937,20.4274538 10.0134937,21.6046555 C10.0134937,22.7818572 10.9669739,23.7353373 12.1974426,23.7353373 C13.3213773,23.7353373 14.2748574,22.7818572 14.2748574,21.6046555 C14.2748574,20.4274538 13.3213773,19.4739737 12.1974426,19.4739737 Z" fill="#FFFFFF" fill-rule="nonzero"></path>
  <path d="M44.2109369,15.4256782 C41.648792,11.9100532 38.0692466,9.56097653 34.1434653,8.50096232 L34.1434653,8.50628903 C33.2325989,7.49421516 32.2045449,6.56204187 31.0539767,5.73107596 C22.3341614,-0.607702446 10.0933943,1.3258913 3.72798236,10.0457066 C-1.40163412,17.1302237 -1.18323923,26.6596981 4.04758463,33.4299396 L4.09019827,40.4931498 C4.09019827,40.6636043 4.11683179,40.8340589 4.17009884,40.99386 C4.45241418,41.8940731 5.411221,42.3894566 6.30610736,42.1071413 L13.0497153,39.9817862 C14.8341614,40.615664 16.6772011,40.9778799 18.5095875,41.0790873 L18.482954,41.1003941 C23.2290477,44.5574254 29.4506386,45.5961327 35.1555392,43.7104793 L41.9257807,45.915735 C42.0962352,45.9690021 42.2720165,46.0009623 42.4531244,46.0009623 C43.3959511,46.0009623 44.1576699,45.2392435 44.1576699,44.2964168 L44.1576699,37.1586327 C48.8504966,30.7878941 48.9730108,21.9828515 44.2109369,15.4256782 Z M13.795454,36.1998259 L13.1562494,35.9334907 L7.88281191,37.5847691 L7.82954486,32.0449964 L7.4034085,31.565593 C2.89701645,26.0684339 2.598721,18.1476242 6.817471,12.3361896 C11.9524142,5.29428618 21.7961642,3.73888846 28.8167608,8.82056459 C35.8586642,13.9395276 37.4193886,23.7672975 32.3323858,30.7665873 C28.0656955,36.6206356 20.4272011,38.7832776 13.795454,36.1998259 Z M40.6953119,35.2942862 L40.2691756,35.8269566 L40.3224426,41.3667293 L35.1022722,39.6089168 L34.4630676,39.8752521 C31.4801131,40.9832066 28.3000704,41.0737606 25.3544028,40.2481214 L25.3437494,40.2427947 C29.2801841,39.0336327 32.8490761,36.5833487 35.4218744,33.0570702 C39.4914767,27.4480504 40.1519881,20.4008202 37.7869312,14.3922975 L37.8188915,14.4136043 C39.0440335,15.2925106 40.1679682,16.3898117 41.1214483,17.7161612 C44.9886358,23.0215589 44.7702409,30.2445702 40.6953119,35.2942862 Z" fill="#000000" fill-rule="nonzero"></path>
  <path d="M19.654829,19.4739737 C18.4243602,19.4739737 17.4708801,20.4274538 17.4708801,21.6046555 C17.4708801,22.7818572 18.4243602,23.7353373 19.654829,23.7353373 C20.7787636,23.7353373 21.7322437,22.7818572 21.7322437,21.6046555 C21.7322437,20.4274538 20.7787636,19.4739737 19.654829,19.4739737 Z" fill="#FFFFFF" fill-rule="nonzero"></path>
</svg>
