<?xml version="1.0" encoding="UTF-8"?>
<svg width="48" height="48" viewBox="0 0 48 48" fill="none" xmlns="http://www.w3.org/2000/svg">
  <rect width="48" height="48" fill="white" fill-opacity="0.01"/>
  <path d="M24,4.07142857 C12.9964286,4.07142857 4.07142857,12.9964286 4.07142857,24 C4.07142857,35.0035714 12.9964286,43.9285714 24,43.9285714 C35.0035714,43.9285714 43.9285714,35.0035714 43.9285714,24 C43.9285714,12.9964286 35.0035714,4.07142857 24,4.07142857 Z M32.2875,24.3428571 L19.1089286,33.8785714 C18.825,34.0821429 18.4285714,33.8785714 18.4285714,33.5303571 L18.4285714,31.0178571 C18.4285714,30.4714286 18.6910714,29.9517857 19.1357143,29.6303571 L26.925,24 L19.1357143,18.3642857 C18.6910714,18.0428571 18.4285714,17.5285714 18.4285714,16.9767857 L18.4285714,14.4642857 C18.4285714,14.1160714 18.825,13.9125 19.1089286,14.1160714 L32.2875,23.6517857 C32.5232143,23.8232143 32.5232143,24.1714286 32.2875,24.3428571 Z" fill="#2F88FF"></path>
  <path d="M24,0 C10.7464286,0 0,10.7464286 0,24 C0,37.2535714 10.7464286,48 24,48 C37.2535714,48 48,37.2535714 48,24 C48,10.7464286 37.2535714,0 24,0 Z M24,43.9285714 C12.9964286,43.9285714 4.07142857,35.0035714 4.07142857,24 C4.07142857,12.9964286 12.9964286,4.07142857 24,4.07142857 C35.0035714,4.07142857 43.9285714,12.9964286 43.9285714,24 C43.9285714,35.0035714 35.0035714,43.9285714 24,43.9285714 Z" fill="#000"></path>
  <path d="M32.2875,23.6517857 L19.1089286,14.1160714 C18.825,13.9125 18.4285714,14.1160714 18.4285714,14.4642857 L18.4285714,16.9767857 C18.4285714,17.5285714 18.6910714,18.0428571 19.1357143,18.3642857 L26.925,24 L19.1357143,29.6303571 C18.6910714,29.9517857 18.4285714,30.4714286 18.4285714,31.0178571 L18.4285714,33.5303571 C18.4285714,33.8785714 18.825,34.0821429 19.1089286,33.8785714 L32.2875,24.3428571 C32.5232143,24.1714286 32.5232143,23.8232143 32.2875,23.6517857 Z" fill="#FFF"></path>
</svg>
