<?xml version="1.0" encoding="UTF-8"?>
<svg width="48" height="48" viewBox="0 0 48 48" fill="none" xmlns="http://www.w3.org/2000/svg">
  <rect width="48" height="48" fill="white" fill-opacity="0.01"/>
  <path d="M46.08,0 L1.92,0 C0.858,0 0,0.858 0,1.92 L0,46.08 C0,47.142 0.858,48 1.92,48 L46.08,48 C47.142,48 48,47.142 48,46.08 L48,1.92 C48,0.858 47.142,0 46.08,0 Z M43.68,43.68 L4.32,43.68 L4.32,4.32 L43.68,4.32 L43.68,43.68 Z" fill="#000"></path>
  <path d="M4.32,43.68 L43.68,43.68 L43.68,4.32 L4.32,4.32 L4.32,43.68 Z M12.93,29.958 L23.61,15.198 C23.802,14.934 24.192,14.934 24.384,15.198 L35.064,29.958 C35.298,30.276 35.07,30.72 34.68,30.72 L31.866,30.72 C31.254,30.72 30.672,30.426 30.312,29.928 L24,21.204 L17.688,29.928 C17.328,30.426 16.752,30.72 16.134,30.72 L13.32,30.72 C12.93,30.72 12.702,30.276 12.93,29.958 Z" fill="#2F88FF"></path>
  <path d="M13.32,30.72 L16.134,30.72 C16.752,30.72 17.328,30.426 17.688,29.928 L24,21.204 L30.312,29.928 C30.672,30.426 31.254,30.72 31.866,30.72 L34.68,30.72 C35.07,30.72 35.298,30.276 35.064,29.958 L24.384,15.198 C24.2943507,15.073583 24.1503511,14.9998548 23.997,14.9998548 C23.8436489,14.9998548 23.6996493,15.073583 23.61,15.198 L12.93,29.958 C12.702,30.276 12.93,30.72 13.32,30.72 Z" fill="#000"></path>
</svg>
