<svg width="48" height="48" viewBox="0 0 48 48" fill="none" xmlns="http://www.w3.org/2000/svg">
  <rect width="48" height="48" fill="white" fill-opacity="0.01"/>
  <path d="M47.7857143,28.2053571 L47.7803571,28.2 L47.775,28.1946429 C45.4125,23.1964286 41.7535714,20.625 36.8839286,20.625 C32.0142857,20.625 28.3553571,23.2017857 25.9875,28.1946429 L25.9875,28.2 C25.6982143,28.8160714 25.6982143,29.5339286 25.9875,30.15 C28.3553571,35.1428571 32.0142857,37.7142857 36.8839286,37.7142857 C41.7535714,37.7142857 45.4125,35.1375 47.7803571,30.1446429 C48.0696429,29.5285714 48.0696429,28.8160714 47.7857143,28.2053571 Z M36.8839286,34.2857143 C33.5571429,34.2857143 31.1303571,32.6785714 29.325,29.1696429 C31.125,25.6607143 33.5571429,24.0535714 36.8839286,24.0535714 C40.2107143,24.0535714 42.6375,25.6607143 44.4428571,29.1696429 C42.6428571,32.6785714 40.2107143,34.2857143 36.8839286,34.2857143 Z" fill="#000"></path>
  <path d="M33.9107143,29.1964286 C33.9107143,30.8532828 35.25386,32.1964286 36.9107143,32.1964286 C38.5675685,32.1964286 39.9107143,30.8532828 39.9107143,29.1964286 C39.9107143,27.5395743 38.5675685,26.1964286 36.9107143,26.1964286 C35.25386,26.1964286 33.9107143,27.5395743 33.9107143,29.1964286 Z" fill="#000"></path>
  <path d="M3.85714286,3.85714286 L41.5714286,3.85714286 L41.5714286,17.4107143 L45.4285714,17.4107143 L45.4285714,1.71428571 C45.4285714,0.766071429 44.6625,0 43.7142857,0 L1.71428571,0 C0.766071429,0 0,0.766071429 0,1.71428571 L0,29.5714286 C0,30.5196429 0.766071429,31.2857143 1.71428571,31.2857143 L20.5714286,31.2857143 L20.5714286,27.4285714 L3.85714286,27.4285714 L3.85714286,3.85714286 Z" fill="#000"></path>
  <path d="M35.4053571,9.54107143 L33.4339286,7.56964286 C33.2678571,7.40357143 32.9946429,7.40357143 32.8285714,7.56964286 L22.9821429,17.4267857 L18.3696429,12.8089286 C18.2035714,12.6428571 17.9303571,12.6428571 17.7642857,12.8089286 L10.0339286,20.5392857 C9.86785714,20.7053571 9.86785714,20.9785714 10.0339286,21.1446429 L12.0053571,23.1160714 C12.1714286,23.2821429 12.4446429,23.2821429 12.6107143,23.1160714 L18.0642857,17.6625 L22.6767857,22.2803571 C22.8428571,22.4464286 23.1160714,22.4464286 23.2821429,22.2803571 L35.4053571,10.1464286 C35.5767857,9.98035714 35.5767857,9.70714286 35.4053571,9.54107143 L35.4053571,9.54107143 Z" fill="#000"></path>
</svg>
