<svg width="48" height="48" viewBox="0 0 48 48" fill="none" xmlns="http://www.w3.org/2000/svg">
  <rect width="48" height="48" fill="white" fill-opacity="0.01"/>
  <path d="M46.08,0 L1.92,0 C0.858,0 0,0.858 0,1.92 L0,46.08 C0,47.142 0.858,48 1.92,48 L46.08,48 C47.142,48 48,47.142 48,46.08 L48,1.92 C48,0.858 47.142,0 46.08,0 Z M43.68,43.68 L4.32,43.68 L4.32,4.32 L43.68,4.32 L43.68,43.68 Z" fill="#000"></path>
  <path d="M4.32,43.68 L43.68,43.68 L43.68,4.32 L4.32,4.32 L4.32,43.68 Z M24.69,30.3 L35.79,30.3 C36.036,30.3 36.24,30.516 36.24,30.78 L36.24,33.66 C36.24,33.924 36.036,34.14 35.79,34.14 L24.69,34.14 C24.444,34.14 24.24,33.924 24.24,33.66 L24.24,30.78 C24.24,30.516 24.444,30.3 24.69,30.3 Z M11.7599502,29.898 C11.7599502,29.76 11.826,29.622 11.934,29.532 L18.522,24 L11.934,18.468 C11.8222192,18.379713 11.7579024,18.2444259 11.7599502,18.102 L11.7599502,14.34 C11.7599502,13.932 12.234,13.71 12.546,13.974 L24.066,23.628 C24.3,23.82 24.3,24.174 24.066,24.366 L12.546,34.026 C12.234,34.29 11.7599502,34.068 11.7599502,33.66 L11.7599502,29.898 L11.7599502,29.898 Z" fill="#2F88FF"></path>
  <path d="M12.546,34.026 L24.066,24.366 C24.3,24.174 24.3,23.82 24.066,23.628 L12.546,13.974 C12.4039861,13.8532351 12.2046337,13.8262674 12.0356379,13.9049601 C11.8666421,13.9836528 11.7589753,14.1535836 11.7599927,14.34 L11.7599927,18.102 C11.7599927,18.246 11.82,18.378 11.934,18.468 L18.522,24 L11.934,29.532 C11.8254749,29.6228448 11.7619414,29.7564843 11.7599927,29.898 L11.7599927,33.66 C11.7599927,34.068 12.234,34.29 12.546,34.026 L12.546,34.026 Z M24.24,33.66 C24.24,33.924 24.444,34.14 24.69,34.14 L35.79,34.14 C36.036,34.14 36.24,33.924 36.24,33.66 L36.24,30.78 C36.24,30.516 36.036,30.3 35.79,30.3 L24.69,30.3 C24.444,30.3 24.24,30.516 24.24,30.78 L24.24,33.66 Z" fill="#000"></path>
</svg>
