<svg width="48" height="48" viewBox="0 0 48 48" fill="none" xmlns="http://www.w3.org/2000/svg">
  <rect width="48" height="48" fill="white" fill-opacity="0.01"/>
  <path d="M24.6523691,24.1197007 C25.8254364,24.1197007 26.8009975,23.2698254 27.0044888,22.1566085 C26.7715735,23.2664069 25.7923299,24.0607933 24.6583541,24.0598504 C23.350074,24.0599976 22.2839633,23.0098786 22.2643392,21.7017456 L22.2643392,21.7316708 C22.2643392,23.0483791 23.3356608,24.1197007 24.6523691,24.1197007 Z M36.6284289,34.5815461 L36.6104738,34.563591 C34.874813,33.5162095 32.8817955,32.959601 30.8049875,32.959601 C28.1177057,32.959601 25.5860349,33.8992519 23.5630923,35.5810474 C20.7975706,37.9000028 17.3028726,39.1694535 13.6937656,39.1660848 C11.2279302,39.1660848 8.84588529,38.5795511 6.70922693,37.4902743 L4.21945137,43.9301746 L40.3092269,43.9301746 L36.7241895,34.6413965 L36.6284289,34.5815461 Z" fill="#2F88FF"></path>
  <path d="M44.2294264,42.7870324 L33.2947631,14.4837905 L33.2947631,4.06982544 L37.5860349,4.06982544 L37.5860349,0 L6.94264339,0 L6.94264339,4.06982544 L11.2339152,4.06982544 L11.2339152,14.4837905 L0.29925187,42.7870324 C0.131670823,43.2299252 0.0418952618,43.6967581 0.0418952618,44.1695761 C0.0418952618,46.2822943 1.759601,48 3.8723192,48 L40.6563591,48 C41.1291771,48 41.59601,47.9102244 42.0389027,47.7426434 C44.0139651,46.9825436 44.9955112,44.7620948 44.2294264,42.7870324 Z M15.3037406,15.2438903 L15.3037406,4.18952618 L29.2249377,4.18952618 L29.2249377,15.2438903 L34.6653367,29.3266833 C33.4264339,29.0094763 32.1456359,28.8478803 30.8408978,28.8478803 C27.1780549,28.8478803 23.7067332,30.1346633 20.9476309,32.4389027 C18.9112727,34.1400092 16.3411752,35.0701599 13.6877805,35.0663459 C11.7306733,35.0663459 9.85137157,34.5695761 8.19351621,33.6478803 L15.3037406,15.2438903 Z M4.21945137,43.9301746 L6.70922693,37.4902743 L6.71521197,37.4783042 C8.85187032,38.561596 11.2279302,39.1421446 13.6937656,39.1421446 C17.3566085,39.1421446 20.8279302,37.8553616 23.5870324,35.5511222 C25.6159601,33.8633416 28.153616,32.9236908 30.8468828,32.9236908 C32.9416459,32.9236908 34.9406484,33.4922693 36.6882793,34.5456359 L36.7241895,34.6413965 L40.3092269,43.9301746 L4.21945137,43.9301746 Z" fill="#000"></path>
  <path d="M24.6583541,24.0598504 C25.8134663,24.0598504 26.7770574,23.2458853 27.0044888,22.1566085 C27.040399,21.9950125 27.0523691,21.8334165 27.0523691,21.6658354 C27.0523691,20.3431421 25.9810474,19.2718204 24.6583541,19.2718204 C23.3356608,19.2718204 22.2643392,20.3431421 22.2643392,21.6658354 L22.2643392,21.7017456 C22.2839633,23.0098786 23.350074,24.0599976 24.6583541,24.0598504 Z" fill="#000"></path>
</svg>
