<svg width="48" height="48" viewBox="0 0 48 48" fill="none" xmlns="http://www.w3.org/2000/svg">
  <rect width="48" height="48" fill="white" fill-opacity="0.01"/>
  <path d="M26.6104738,24.1197007 C27.7835411,24.1197007 28.7591022,23.2698254 28.9625935,22.1566085 C28.7296782,23.2664069 27.7504346,24.0607933 26.6164588,24.0598504 C25.3081787,24.0599976 24.242068,23.0098786 24.2224439,21.7017456 L24.2224439,21.7316708 C24.2224439,23.0483791 25.2937655,24.1197007 26.6104738,24.1197007 Z M38.5865336,33.6644021 C36.8508728,32.6170206 34.8525383,32.3983196 32.7757303,32.3983196 C30.0884485,32.3983196 27.2542759,33.3845621 25.2313333,35.0663576 C22.4658116,37.385313 19.306029,38.7418095 15.696922,38.7384408 C13.2310866,38.7384408 10.8130744,38.23356 8.67641608,37.1442832 L5.5632655,44.4730101 L42.7819685,44.4730101 L38.9268669,34.0910977 L38.5865336,33.6644021 Z" fill="#2F88FF" fill-rule="nonzero"></path>
  <path d="M46.1875311,42.7870324 L35.2528678,14.4837905 L35.2528678,4.06982544 L39.5441396,4.06982544 L39.5441396,0 L8.90074813,0 L8.90074813,4.06982544 L13.1920199,4.06982544 L13.1920199,14.4837905 L2.25735661,42.7870324 C2.08977556,43.2299252 2,43.6967581 2,44.1695761 C2,46.2822943 3.71770574,48 5.83042394,48 L42.6144638,48 C43.0872818,48 43.5541147,47.9102244 43.9970074,47.7426434 C45.9720698,46.9825436 46.9536159,44.7620948 46.1875311,42.7870324 Z M17.2618453,15.2438903 L17.2618453,4.18952618 L31.1830424,4.18952618 L31.1830424,15.2438903 L36.6234414,29.3266833 C35.3845386,29.0094763 34.1037406,28.8478803 32.7990025,28.8478803 C29.1361596,28.8478803 25.6648379,30.1346633 22.9057356,32.4389027 C20.8693774,34.1400092 18.2992799,35.0701599 15.6458852,35.0663576 C13.688778,35.0663576 11.8094763,34.5695761 10.1516209,33.6478803 L17.2618453,15.2438903 Z M6.17755611,43.9301746 L8.66733167,37.4902743 L8.67331671,37.4783042 C10.8099751,38.561596 13.1860349,39.1421446 15.6518703,39.1421446 C19.3147132,39.1421446 22.7860349,37.8553616 25.5451371,35.5511222 C27.5740648,33.8633416 30.1117207,32.9236908 32.8049875,32.9236908 C34.8997506,32.9236908 36.8987531,33.4922693 38.646384,34.5456359 L38.6822942,34.6413965 L42.2673316,43.9301746 L6.17755611,43.9301746 Z" fill="#000000" fill-rule="nonzero"></path>
  <path d="M26.6164588,24.0598504 C27.771571,24.0598504 28.7351621,23.2458853 28.9625935,22.1566085 C28.9985037,21.9950125 29.0104738,21.8334165 29.0104738,21.6658354 C29.0104738,20.3431421 27.9391521,19.2718204 26.6164588,19.2718204 C25.2937655,19.2718204 24.2224439,20.3431421 24.2224439,21.6658354 L24.2224439,21.7017456 C24.242068,23.0098786 25.3081787,24.0599976 26.6164588,24.0598504 Z" fill="#000000" fill-rule="nonzero"></path>
</svg>
