<svg width="48" height="48" viewBox="0 0 48 48" fill="none" xmlns="http://www.w3.org/2000/svg">
  <rect width="48" height="48" fill="white" fill-opacity="0.01"/>
  <path d="M25.9714286,25.9714286 C28.8428571,23.1 30.4285714,19.275 30.4285714,15.2142857 C30.4285714,11.1482143 28.8482143,7.32857143 25.9714286,4.45714286 C23.1,1.58571429 19.275,0 15.2142857,0 C11.1535714,0 7.32857143,1.58035714 4.45714286,4.45714286 C1.58571429,7.33392857 0,11.1482143 0,15.2142857 C0,18.6321429 1.11964286,21.8785714 3.18214286,24.5303571 C3.57321429,25.0339286 3.99642857,25.5107143 4.45178571,25.9714286 C4.90714286,26.4267857 5.38928571,26.85 5.8875,27.2410714 C8.00892857,28.8910714 10.5107143,29.9410714 13.1785714,30.2946429 L13.1785714,36 L7.07142857,36 C6.83571429,36 6.64285714,36.1928571 6.64285714,36.4285714 L6.64285714,39.6428571 C6.64285714,39.8785714 6.83571429,40.0714286 7.07142857,40.0714286 L13.1785714,40.0714286 L13.1785714,47.5714286 C13.1785714,47.8071429 13.3714286,48 13.6071429,48 L16.8214286,48 C17.0571429,48 17.25,47.8071429 17.25,47.5714286 L17.25,40.0714286 L23.3571429,40.0714286 C23.5928571,40.0714286 23.7857143,39.8785714 23.7857143,39.6428571 L23.7857143,36.4285714 C23.7857143,36.1928571 23.5928571,36 23.3571429,36 L17.25,36 L17.25,30.2946429 C20.5446429,29.8553571 23.5821429,28.3607143 25.9714286,25.9714286 Z M15.2142857,26.3571429 C12.2357143,26.3571429 9.44464286,25.2 7.33392857,23.0946429 C5.22857143,20.9892857 4.07142857,18.1928571 4.07142857,15.2142857 C4.07142857,12.2357143 5.22857143,9.44464286 7.33392857,7.33392857 C9.43928571,5.22321429 12.2357143,4.07142857 15.2142857,4.07142857 C18.1928571,4.07142857 20.9839286,5.22857143 23.0946429,7.33392857 C25.2,9.43928571 26.3571429,12.2357143 26.3571429,15.2142857 C26.3571429,18.1928571 25.2,20.9839286 23.0946429,23.0946429 C20.9839286,25.2 18.1928571,26.3571429 15.2142857,26.3571429 Z" fill="#000"></path>
</svg>
