<svg width="48" height="48" viewBox="0 0 48 48" fill="none" xmlns="http://www.w3.org/2000/svg">
  <rect width="48" height="48" fill="white" fill-opacity="0.01"/>
  <polygon fill="#2F88FF" points="9.375 3.375 25.5262278 3.375 25.5262278 15.35093 39.3184873 15.35093 39.3184873 45.5354436 8.11770181 45.5354436 8.11770181 3.375"></polygon>
  <path d="M40.996875,14.146875 L27.975,0.9984375 C27.7640625,0.7875 27.534375,0.609375 27.2859375,0.459375 C27.2203125,0.421875 27.1546875,0.384375 27.084375,0.3515625 C27.0421875,0.328125 26.9953125,0.309375 26.953125,0.290625 C26.53125,0.103125 26.0671875,0 25.59375,0 L9.421875,0 C7.55625,0 6,1.509375 6,3.375 L6,44.625 C6,46.490625 7.55625,48 9.421875,48 L38.625,48 C40.490625,48 41.953125,46.490625 41.953125,44.625 L41.953125,16.5234375 C41.953125,15.6328125 41.625,14.7796875 40.996875,14.146875 Z M27.328125,5.175 L36.740625,14.625 L27.328125,14.625 L27.328125,5.175 Z M38.578125,44.625 L9.375,44.625 L9.375,3.375 L23.953125,3.375 L23.953125,14.625 C23.953125,16.490625 25.509375,18 27.375,18 L38.578125,18 L38.578125,44.625 Z" fill="#000000"></path>
  <path d="M23.4984375,27.046875 L20.484375,27.046875 L20.484375,35.765625 L22.546875,35.765625 L22.546875,32.859375 L23.559375,32.859375 C25.3921875,32.859375 26.9859375,31.940625 26.9859375,29.878125 C26.9859375,27.73125 25.415625,27.046875 23.4984375,27.046875 L23.4984375,27.046875 Z" fill="#FFFFFF"></path>
  <path d="M16.40625,32.6484375 C16.40625,33.7828125 16.0546875,34.1203125 15.3796875,34.1203125 C14.9578125,34.1203125 14.5171875,33.8484375 14.2171875,33.253125 L12.7921875,34.3125 C13.4203125,35.3859375 14.30625,35.915625 15.665625,35.915625 C17.615625,35.915625 18.515625,34.5140625 18.515625,32.8125 L18.515625,27.046875 L16.40625,27.046875 L16.40625,32.6484375 Z" fill="#FFFFFF"></path>
  <path d="M23.4609375,31.21875 L22.546875,31.21875 L22.546875,28.734375 L23.4,28.734375 C24.4078125,28.734375 24.965625,29.025 24.965625,29.9015625 C24.965625,30.75 24.4734375,31.21875 23.4609375,31.21875 Z" fill="#2F88FF"></path>
  <path d="M32.015625,30.796875 L32.015625,32.484375 L33.421875,32.484375 L33.421875,33.8953125 C33.234375,34.03125 32.90625,34.115625 32.5921875,34.115625 C30.984375,34.115625 30.215625,33.1125 30.215625,31.3875 C30.215625,29.6953125 31.1390625,28.696875 32.4234375,28.696875 C33.140625,28.696875 33.5953125,28.9875 34.0171875,29.371875 L35.128125,28.0453125 C34.5328125,27.4453125 33.6234375,26.9109375 32.353125,26.9109375 C30.028125,26.9109375 28.0828125,28.565625 28.0828125,31.4578125 C28.0828125,34.396875 29.9578125,35.915625 32.371875,35.915625 C33.5859375,35.915625 34.678125,35.4375 35.2546875,34.85625 L35.2546875,30.796875 L32.015625,30.796875 Z" fill="#FFFFFF"></path>
</svg>
