<svg width="48" height="48" viewBox="0 0 48 48" fill="none" xmlns="http://www.w3.org/2000/svg">
  <rect width="48" height="48" fill="white" fill-opacity="0.01"/>
  <path d="M34.996875,14.146875 L21.975,0.9984375 C21.7640625,0.7875 21.534375,0.609375 21.2859375,0.459375 C21.2203125,0.421875 21.1546875,0.384375 21.084375,0.3515625 C21.0421875,0.328125 20.9953125,0.309375 20.953125,0.290625 C20.53125,0.103125 20.0671875,0 19.59375,0 L3.421875,0 C1.55625,0 0,1.509375 0,3.375 L0,44.625 C0,46.490625 1.55625,48 3.421875,48 L32.625,48 C34.490625,48 35.953125,46.490625 35.953125,44.625 L35.953125,16.5234375 C35.953125,15.6328125 35.625,14.7796875 34.996875,14.146875 Z M21.328125,5.175 L30.740625,14.625 L21.328125,14.625 L21.328125,5.175 Z M32.578125,44.625 L3.375,44.625 L3.375,3.375 L17.953125,3.375 L17.953125,14.625 C17.953125,16.490625 19.509375,18 21.375,18 L32.578125,18 L32.578125,44.625 Z M10.40625,32.6484375 C10.40625,33.7828125 10.0546875,34.1203125 9.3796875,34.1203125 C8.9578125,34.1203125 8.5171875,33.8484375 8.2171875,33.253125 L6.7921875,34.3125 C7.4203125,35.3859375 8.30625,35.915625 9.665625,35.915625 C11.615625,35.915625 12.515625,34.5140625 12.515625,32.8125 L12.515625,27.046875 L10.40625,27.046875 L10.40625,32.6484375 Z M17.4984375,27.046875 L14.484375,27.046875 L14.484375,35.765625 L16.546875,35.765625 L16.546875,32.859375 L17.559375,32.859375 C19.3921875,32.859375 20.9859375,31.940625 20.9859375,29.878125 C20.9859375,27.73125 19.415625,27.046875 17.4984375,27.046875 L17.4984375,27.046875 Z M17.4609375,31.21875 L16.546875,31.21875 L16.546875,28.734375 L17.4,28.734375 C18.4078125,28.734375 18.965625,29.025 18.965625,29.9015625 C18.965625,30.75 18.4734375,31.21875 17.4609375,31.21875 Z M26.015625,30.796875 L26.015625,32.484375 L27.421875,32.484375 L27.421875,33.8953125 C27.234375,34.03125 26.90625,34.115625 26.5921875,34.115625 C24.984375,34.115625 24.215625,33.1125 24.215625,31.3875 C24.215625,29.6953125 25.1390625,28.696875 26.4234375,28.696875 C27.140625,28.696875 27.5953125,28.9875 28.0171875,29.371875 L29.128125,28.0453125 C28.5328125,27.4453125 27.6234375,26.9109375 26.353125,26.9109375 C24.028125,26.9109375 22.0828125,28.565625 22.0828125,31.4578125 C22.0828125,34.396875 23.9578125,35.915625 26.371875,35.915625 C27.5859375,35.915625 28.678125,35.4375 29.2546875,34.85625 L29.2546875,30.796875 L26.015625,30.796875 Z" fill="#000"></path>
</svg>
