<svg width="48" height="48" viewBox="0 0 48 48" fill="none" xmlns="http://www.w3.org/2000/svg">
  <rect width="48" height="48" fill="white" fill-opacity="0.01"/>
  <path d="M30.4464286,37.9125 C28.5982143,39.4446429 26.2571429,40.2857143 23.8571429,40.2857143 C21.4571429,40.2857143 19.1160714,39.4392857 17.2678571,37.9125 C15.8219228,36.7138327 14.7277986,35.1457731 14.1017857,33.375 L8.85714286,33.375 L8.85714286,44.1428571 L38.8571429,44.1428571 L38.8571429,33.375 L33.6125,33.375 C32.9910714,35.1321429 31.8982143,36.7125 30.4464286,37.9125 Z" fill="#2F88FF"></path>
  <path d="M13.5714286,23.4107143 L34.1428571,23.4107143 C34.3785714,23.4107143 34.5714286,23.2178571 34.5714286,22.9821429 L34.5714286,20.4107143 C34.5714286,20.175 34.3785714,19.9821429 34.1428571,19.9821429 L13.5714286,19.9821429 C13.3357143,19.9821429 13.1428571,20.175 13.1428571,20.4107143 L13.1428571,22.9821429 C13.1428571,23.2178571 13.3357143,23.4107143 13.5714286,23.4107143 Z" fill="#000000"></path>
  <path d="M41,0 L6.71428571,0 C5.76607143,0 5,0.766071429 5,1.71428571 L5,46.2857143 C5,47.2339286 5.76607143,48 6.71428571,48 L41,48 C41.9482143,48 42.7142857,47.2339286 42.7142857,46.2857143 L42.7142857,1.71428571 C42.7142857,0.766071429 41.9482143,0 41,0 Z M38.8571429,44.1428571 L8.85714286,44.1428571 L8.85714286,33.375 L14.1017857,33.375 C14.7232143,35.1321429 15.8160714,36.7125 17.2678571,37.9125 C19.1160714,39.4392857 21.4571429,40.2857143 23.8571429,40.2857143 C26.2571429,40.2857143 28.5982143,39.4446429 30.4464286,37.9125 C31.8982143,36.7125 32.9910714,35.1321429 33.6125,33.375 L38.8571429,33.375 L38.8571429,44.1428571 Z M38.8571429,30 L30.9071429,30 L30.6285714,31.3232143 C29.9857143,34.5267857 27.1357143,36.8571429 23.8571429,36.8571429 C20.5785714,36.8571429 17.7285714,34.5267857 17.0803571,31.3232143 L16.8017857,30 L8.85714286,30 L8.85714286,3.85714286 L38.8571429,3.85714286 L38.8571429,30 Z" fill="#000000"></path>
  <path d="M13.5714286,14.8392857 L34.1428571,14.8392857 C34.3785714,14.8392857 34.5714286,14.6464286 34.5714286,14.4107143 L34.5714286,11.8392857 C34.5714286,11.6035714 34.3785714,11.4107143 34.1428571,11.4107143 L13.5714286,11.4107143 C13.3357143,11.4107143 13.1428571,11.6035714 13.1428571,11.8392857 L13.1428571,14.4107143 C13.1428571,14.6464286 13.3357143,14.8392857 13.5714286,14.8392857 Z" fill="#000000"></path>
</svg>
