<?xml version="1.0" encoding="UTF-8"?>
<svg width="48" height="48" viewBox="0 0 48 48" fill="none" xmlns="http://www.w3.org/2000/svg">
  <rect width="48" height="48" fill="white" fill-opacity="0.01"/>
  <path fill="#000" d="M29.3626627,22.4040093 L0.816866342,0.108146573 C0.664654222,-0.0116866659 0.457281991,-0.0338172214 0.283208949,0.0511951943 C0.109135907,0.13620761 -0.000913139886,0.31335786 -5.68434189e-14,0.50707851 L-5.68434189e-14,5.40191005 C-5.68434189e-14,5.71219044 0.145647528,6.00980633 0.38627314,6.19977392 L23.1823838,23.999737 L0.38627314,41.7997001 C0.139315275,41.9896677 -5.68434189e-14,42.2872836 -5.68434189e-14,42.5975639 L-5.68434189e-14,47.4923955 C-5.68434189e-14,47.9166564 0.487589188,48.1509498 0.816866342,47.8913274 L29.3626627,25.5954647 C29.8542988,25.2119671 30.1417134,24.6232564 30.1417134,23.999737 C30.1417134,23.3762176 29.8542988,22.7875068 29.3626627,22.4040093 Z"></path>
</svg>
