<?xml version="1.0" encoding="UTF-8"?>
<svg width="48" height="48" viewBox="0 0 48 48" fill="none" xmlns="http://www.w3.org/2000/svg">
  <rect width="48" height="48" fill="white" fill-opacity="0.01"/>
  <path fill="#000" d="M36.3782609,22.1347826 C38.5695652,19.8521739 39.9130435,16.7673913 39.9130435,13.376087 L39.9130435,12.7108696 C39.9130435,5.69347826 34.1673913,0 27.0847826,0 L7.78695652,0 C6.80217391,0 6,0.802173913 6,1.78695652 L6,46.076087 C6,47.1391304 6.86086956,48 7.92391304,48 L28.7086957,48 C36.3391304,48 42.5217391,41.8565217 42.5217391,34.2717391 L42.5217391,33.5543478 C42.5217391,28.7934783 40.0826087,24.6 36.3782609,22.1347826 Z M12.2608696,6.26086957 L26.9152174,6.26086957 C30.6391304,6.26086957 33.6521739,9.15652174 33.6521739,12.7369565 L33.6521739,13.3565217 C33.6521739,16.9304348 30.6326087,19.8326087 26.9152174,19.8326087 L12.2608696,19.8326087 L12.2608696,6.26086957 Z M36.1695652,34.2652174 C36.1695652,38.3673913 32.7978261,41.6934783 28.6369565,41.6934783 L12.2608696,41.6934783 L12.2608696,26.1326087 L28.6369565,26.1326087 C32.7978261,26.1326087 36.1695652,29.4586957 36.1695652,33.5608696 L36.1695652,34.2652174 Z"></path>
</svg>
