<svg width="48" height="48" viewBox="0 0 48 48" fill="none" xmlns="http://www.w3.org/2000/svg">
  <rect width="48" height="48" fill="white" fill-opacity="0.01"/>
  <path d="M8.85714286,44.1428571 L38.8571429,44.1428571 L38.8571429,33 L8.85714286,33 L8.85714286,44.1428571 Z M32.8571429,36.6428571 C34.0410714,36.6428571 35,37.6017857 35,38.7857143 C35,39.9696429 34.0410714,40.9285714 32.8571429,40.9285714 C31.6732143,40.9285714 30.7142857,39.9696429 30.7142857,38.7857143 C30.7142857,37.6017857 31.6732143,36.6428571 32.8571429,36.6428571 Z M8.85714286,29.5714286 L38.8571429,29.5714286 L38.8571429,18.4285714 L8.85714286,18.4285714 L8.85714286,29.5714286 Z M12.7142857,22.7142857 C12.7142857,22.4785714 12.9071429,22.2857143 13.1428571,22.2857143 L23,22.2857143 C23.2357143,22.2857143 23.4285714,22.4785714 23.4285714,22.7142857 L23.4285714,25.2857143 C23.4285714,25.5214286 23.2357143,25.7142857 23,25.7142857 L13.1428571,25.7142857 C12.9071429,25.7142857 12.7142857,25.5214286 12.7142857,25.2857143 L12.7142857,22.7142857 Z M8.85714286,15 L38.8571429,15 L38.8571429,3.85714286 L8.85714286,3.85714286 L8.85714286,15 Z M12.7142857,8.14285714 C12.7142857,7.90714286 12.9071429,7.71428571 13.1428571,7.71428571 L23,7.71428571 C23.2357143,7.71428571 23.4285714,7.90714286 23.4285714,8.14285714 L23.4285714,10.7142857 C23.4285714,10.95 23.2357143,11.1428571 23,11.1428571 L13.1428571,11.1428571 C12.9071429,11.1428571 12.7142857,10.95 12.7142857,10.7142857 L12.7142857,8.14285714 Z" fill="#2F88FF"></path>
  <path d="M41,0 L6.71428571,0 C5.76607143,0 5,0.766071429 5,1.71428571 L5,46.2857143 C5,47.2339286 5.76607143,48 6.71428571,48 L41,48 C41.9482143,48 42.7142857,47.2339286 42.7142857,46.2857143 L42.7142857,1.71428571 C42.7142857,0.766071429 41.9482143,0 41,0 Z M38.8571429,44.1428571 L8.85714286,44.1428571 L8.85714286,33 L38.8571429,33 L38.8571429,44.1428571 Z M38.8571429,29.5714286 L8.85714286,29.5714286 L8.85714286,18.4285714 L38.8571429,18.4285714 L38.8571429,29.5714286 Z M38.8571429,15 L8.85714286,15 L8.85714286,3.85714286 L38.8571429,3.85714286 L38.8571429,15 Z" fill="#000"></path>
  <path d="M13.1428571,25.7142857 L23,25.7142857 C23.2357143,25.7142857 23.4285714,25.5214286 23.4285714,25.2857143 L23.4285714,22.7142857 C23.4285714,22.4785714 23.2357143,22.2857143 23,22.2857143 L13.1428571,22.2857143 C12.9071429,22.2857143 12.7142857,22.4785714 12.7142857,22.7142857 L12.7142857,25.2857143 C12.7142857,25.5214286 12.9071429,25.7142857 13.1428571,25.7142857 Z M13.1428571,11.1428571 L23,11.1428571 C23.2357143,11.1428571 23.4285714,10.95 23.4285714,10.7142857 L23.4285714,8.14285714 C23.4285714,7.90714286 23.2357143,7.71428571 23,7.71428571 L13.1428571,7.71428571 C12.9071429,7.71428571 12.7142857,7.90714286 12.7142857,8.14285714 L12.7142857,10.7142857 C12.7142857,10.95 12.9071429,11.1428571 13.1428571,11.1428571 Z M30.7142857,38.7857143 C30.7142857,39.9691816 31.6736755,40.9285714 32.8571429,40.9285714 C34.0406102,40.9285714 35,39.9691816 35,38.7857143 C35,37.602247 34.0406102,36.6428571 32.8571429,36.6428571 C31.6736755,36.6428571 30.7142857,37.602247 30.7142857,38.7857143 L30.7142857,38.7857143 Z" fill="#FFFFFF"></path>
</svg>
