<svg width="48" height="48" viewBox="0 0 48 48" fill="none" xmlns="http://www.w3.org/2000/svg">
  <rect width="48" height="48" fill="white" fill-opacity="0.01"/>
  <path d="M3.85714286,44.1428571 L33.8571429,44.1428571 L33.8571429,33 L3.85714286,33 L3.85714286,44.1428571 Z M27.8571429,36.6428571 C29.0410714,36.6428571 30,37.6017857 30,38.7857143 C30,39.9696429 29.0410714,40.9285714 27.8571429,40.9285714 C26.6732143,40.9285714 25.7142857,39.9696429 25.7142857,38.7857143 C25.7142857,37.6017857 26.6732143,36.6428571 27.8571429,36.6428571 Z M3.85714286,29.5714286 L33.8571429,29.5714286 L33.8571429,18.4285714 L3.85714286,18.4285714 L3.85714286,29.5714286 Z M7.71428571,22.7142857 C7.71428571,22.4785714 7.90714286,22.2857143 8.14285714,22.2857143 L18,22.2857143 C18.2357143,22.2857143 18.4285714,22.4785714 18.4285714,22.7142857 L18.4285714,25.2857143 C18.4285714,25.5214286 18.2357143,25.7142857 18,25.7142857 L8.14285714,25.7142857 C7.90714286,25.7142857 7.71428571,25.5214286 7.71428571,25.2857143 L7.71428571,22.7142857 Z M3.85714286,15 L33.8571429,15 L33.8571429,3.85714286 L3.85714286,3.85714286 L3.85714286,15 Z M7.71428571,8.14285714 C7.71428571,7.90714286 7.90714286,7.71428571 8.14285714,7.71428571 L18,7.71428571 C18.2357143,7.71428571 18.4285714,7.90714286 18.4285714,8.14285714 L18.4285714,10.7142857 C18.4285714,10.95 18.2357143,11.1428571 18,11.1428571 L8.14285714,11.1428571 C7.90714286,11.1428571 7.71428571,10.95 7.71428571,10.7142857 L7.71428571,8.14285714 Z" fill="#2F88FF"></path>
  <path d="M36,0 L1.71428571,0 C0.766071429,0 0,0.766071429 0,1.71428571 L0,46.2857143 C0,47.2339286 0.766071429,48 1.71428571,48 L36,48 C36.9482143,48 37.7142857,47.2339286 37.7142857,46.2857143 L37.7142857,1.71428571 C37.7142857,0.766071429 36.9482143,0 36,0 Z M33.8571429,44.1428571 L3.85714286,44.1428571 L3.85714286,33 L33.8571429,33 L33.8571429,44.1428571 Z M33.8571429,29.5714286 L3.85714286,29.5714286 L3.85714286,18.4285714 L33.8571429,18.4285714 L33.8571429,29.5714286 Z M33.8571429,15 L3.85714286,15 L3.85714286,3.85714286 L33.8571429,3.85714286 L33.8571429,15 Z" fill="#000"></path>
  <path d="M8.14285714,25.7142857 L18,25.7142857 C18.2357143,25.7142857 18.4285714,25.5214286 18.4285714,25.2857143 L18.4285714,22.7142857 C18.4285714,22.4785714 18.2357143,22.2857143 18,22.2857143 L8.14285714,22.2857143 C7.90714286,22.2857143 7.71428571,22.4785714 7.71428571,22.7142857 L7.71428571,25.2857143 C7.71428571,25.5214286 7.90714286,25.7142857 8.14285714,25.7142857 Z M8.14285714,11.1428571 L18,11.1428571 C18.2357143,11.1428571 18.4285714,10.95 18.4285714,10.7142857 L18.4285714,8.14285714 C18.4285714,7.90714286 18.2357143,7.71428571 18,7.71428571 L8.14285714,7.71428571 C7.90714286,7.71428571 7.71428571,7.90714286 7.71428571,8.14285714 L7.71428571,10.7142857 C7.71428571,10.95 7.90714286,11.1428571 8.14285714,11.1428571 Z M25.7142857,38.7857143 C25.7142857,39.9691816 26.6736755,40.9285714 27.8571429,40.9285714 C29.0406102,40.9285714 30,39.9691816 30,38.7857143 C30,37.602247 29.0406102,36.6428571 27.8571429,36.6428571 C26.6736755,36.6428571 25.7142857,37.602247 25.7142857,38.7857143 L25.7142857,38.7857143 Z" fill="#000"></path>
</svg>
