<svg width="48" height="48" viewBox="0 0 48 48" fill="none" xmlns="http://www.w3.org/2000/svg">
  <rect width="48" height="48" fill="white" fill-opacity="0.01"/>
  <path fill="#000" d="M47.2809308,22.3685393 L22.6426747,0.262921348 C22.453551,0.0943820225 22.2122552,0 21.9579164,0 L16.1863821,0 C15.7037905,0 15.4820593,0.620224719 15.8472637,0.943820225 L38.6855836,21.4382022 L0.521720615,21.4382022 C0.234774277,21.4382022 5.68434189e-14,21.6808989 5.68434189e-14,21.9775281 L5.68434189e-14,26.0224719 C5.68434189e-14,26.3191011 0.234774277,26.5617978 0.521720615,26.5617978 L38.6790621,26.5617978 L15.8407422,47.0561798 C15.4755378,47.3865169 15.697269,48 16.1798606,48 L22.1470401,48 C22.2709488,48 22.3948574,47.952809 22.4861585,47.8651685 L47.2809308,25.6314607 C47.7377207,25.2208406 48,24.625768 48,24 C48,23.374232 47.7377207,22.7791594 47.2809308,22.3685393 Z"></path>
</svg>
