<svg width="48" height="48" viewBox="0 0 48 48" fill="none" xmlns="http://www.w3.org/2000/svg">
  <rect width="48" height="48" fill="white" fill-opacity="0.01"/>
  <path d="M47.1111111,12 C47.6,12 48,11.6 48,11.1111111 L48,0.888888889 C48,0.4 47.6,0 47.1111111,0 L36.8888889,0 C36.4,0 36,0.4 36,0.888888889 L36,4 L12,4 L12,0.888888889 C12,0.4 11.6,0 11.1111111,0 L0.888888889,0 C0.4,0 0,0.4 0,0.888888889 L0,11.1111111 C0,11.6 0.4,12 0.888888889,12 L4,12 L4,25.3333333 L0.888888889,25.3333333 C0.4,25.3333333 0,25.7333333 0,26.2222222 L0,36.4444444 C0,36.9333333 0.4,37.3333333 0.888888889,37.3333333 L11.1111111,37.3333333 C11.6,37.3333333 12,36.9333333 12,36.4444444 L12,33.3333333 L36,33.3333333 L36,36.4444444 C36,36.9333333 36.4,37.3333333 36.8888889,37.3333333 L47.1111111,37.3333333 C47.6,37.3333333 48,36.9333333 48,36.4444444 L48,26.2222222 C48,25.7333333 47.6,25.3333333 47.1111111,25.3333333 L44,25.3333333 L44,12 L47.1111111,12 Z M39.5555556,3.55555556 L44.4444444,3.55555556 L44.4444444,8.44444444 L39.5555556,8.44444444 L39.5555556,3.55555556 Z M3.55555556,8.44444444 L3.55555556,3.55555556 L8.44444444,3.55555556 L8.44444444,8.44444444 L3.55555556,8.44444444 Z M8.44444444,33.7777778 L3.55555556,33.7777778 L3.55555556,28.8888889 L8.44444444,28.8888889 L8.44444444,33.7777778 Z M44.4444444,28.8888889 L44.4444444,33.7777778 L39.5555556,33.7777778 L39.5555556,28.8888889 L44.4444444,28.8888889 Z M40,25.3333333 L36.8888889,25.3333333 C36.4,25.3333333 36,25.7333333 36,26.2222222 L36,29.3333333 L12,29.3333333 L12,26.2222222 C12,25.7333333 11.6,25.3333333 11.1111111,25.3333333 L8,25.3333333 L8,12 L11.1111111,12 C11.6,12 12,11.6 12,11.1111111 L12,8 L36,8 L36,11.1111111 C36,11.6 36.4,12 36.8888889,12 L40,12 L40,25.3333333 Z" fill="#000"></path>
</svg>
