<?xml version="1.0" encoding="UTF-8"?>
<svg width="48" height="48" viewBox="0 0 48 48" fill="none" xmlns="http://www.w3.org/2000/svg">
  <rect width="48" height="48" fill="white" fill-opacity="0.01"/>
  <path d="M24,0 C10.7464286,0 0,10.7464286 0,24 C0,37.2535714 10.7464286,48 24,48 C37.2535714,48 48,37.2535714 48,24 C48,10.7464286 37.2535714,0 24,0 Z M24,43.9285714 C12.9964286,43.9285714 4.07142857,35.0035714 4.07142857,24 C4.07142857,12.9964286 12.9964286,4.07142857 24,4.07142857 C35.0035714,4.07142857 43.9285714,12.9964286 43.9285714,24 C43.9285714,35.0035714 35.0035714,43.9285714 24,43.9285714 Z" fill="#000"></path>
  <path d="M24,4.07142857 C12.9964286,4.07142857 4.07142857,12.9964286 4.07142857,24 C4.07142857,35.0035714 12.9964286,43.9285714 24,43.9285714 C35.0035714,43.9285714 43.9285714,35.0035714 43.9285714,24 C43.9285714,12.9964286 35.0035714,4.07142857 24,4.07142857 Z M25.7142857,35.5714286 C25.7142857,35.8071429 25.5214286,36 25.2857143,36 L22.7142857,36 C22.4785714,36 22.2857143,35.8071429 22.2857143,35.5714286 L22.2857143,21 C22.2857143,20.7642857 22.4785714,20.5714286 22.7142857,20.5714286 L25.2857143,20.5714286 C25.5214286,20.5714286 25.7142857,20.7642857 25.7142857,21 L25.7142857,35.5714286 Z M24,17.1428571 C22.6002926,17.1142842 21.4805275,15.9714275 21.4805275,14.5714286 C21.4805275,13.1714296 22.6002926,12.0285729 24,12 C25.3997074,12.0285729 26.5194725,13.1714296 26.5194725,14.5714286 C26.5194725,15.9714275 25.3997074,17.1142842 24,17.1428571 L24,17.1428571 Z" fill="#2F88FF"></path>
  <path d="M21.4285714,14.5714286 C21.4285714,15.9915894 22.5798392,17.1428571 24,17.1428571 C25.4201608,17.1428571 26.5714286,15.9915894 26.5714286,14.5714286 C26.5714286,13.1512678 25.4201608,12 24,12 C22.5798392,12 21.4285714,13.1512678 21.4285714,14.5714286 Z M25.2857143,20.5714286 L22.7142857,20.5714286 C22.4785714,20.5714286 22.2857143,20.7642857 22.2857143,21 L22.2857143,35.5714286 C22.2857143,35.8071429 22.4785714,36 22.7142857,36 L25.2857143,36 C25.5214286,36 25.7142857,35.8071429 25.7142857,35.5714286 L25.7142857,21 C25.7142857,20.7642857 25.5214286,20.5714286 25.2857143,20.5714286 Z" fill="#FFF"></path>
</svg>
