<?xml version="1.0" encoding="UTF-8"?>
<svg width="48" height="48" viewBox="0 0 48 48" fill="none" xmlns="http://www.w3.org/2000/svg">
  <rect width="48" height="48" fill="white" fill-opacity="0.01"/>
  <path fill="#000" d="M42.9761092,35.4948805 L39.1372014,35.4948805 C38.8750853,35.4948805 38.6293515,35.6095563 38.465529,35.8116041 C38.0832765,36.2757679 37.6737201,36.7235495 37.2423208,37.1494881 C35.4779153,38.9156588 33.3879676,40.3231746 31.0880546,41.294198 C28.70529,42.3006102 26.1442622,42.8169015 23.5576792,42.8122867 C20.9419795,42.8122867 18.4081911,42.2989761 16.0273038,41.294198 C13.7273908,40.3231746 11.6374431,38.9156588 9.87303754,37.1494881 C8.10547626,35.3892838 6.69606494,33.3029841 5.72286689,31.0061433 C4.71262799,28.625256 4.20477816,26.0969283 4.20477816,23.4812287 C4.20477816,20.865529 4.71808874,18.3372014 5.72286689,15.956314 C6.69488055,13.6573379 8.09283276,11.5877133 9.87303754,9.81296928 C11.6532423,8.03822526 13.7228669,6.64027304 16.0273038,5.66825939 C18.4081911,4.66348123 20.9419795,4.15017065 23.5576792,4.15017065 C26.1733788,4.15017065 28.7071672,4.65802048 31.0880546,5.66825939 C33.3924915,6.64027304 35.462116,8.03822526 37.2423208,9.81296928 C37.6737201,10.2443686 38.0778157,10.6921502 38.465529,11.1508532 C38.6293515,11.352901 38.8805461,11.4675768 39.1372014,11.4675768 L42.9761092,11.4675768 C43.3201365,11.4675768 43.5331058,11.0853242 43.3419795,10.7959044 C39.1535836,4.28668942 31.825256,-0.0218430034 23.4976109,-8.26685103e-05 C10.4136519,0.0327645051 -0.0764505119,10.6539249 0.0546075085,23.7215017 C0.185665529,36.58157 10.6593857,46.9624573 23.5576792,46.9624573 C31.8634812,46.9624573 39.1590444,42.6593857 43.3419795,36.1665529 C43.5276451,35.8771331 43.3201365,35.4948805 42.9761092,35.4948805 Z M47.8307167,23.1372014 L40.0819113,17.0211604 C39.7924915,16.7918089 39.3720137,16.9993174 39.3720137,17.3651877 L39.3720137,21.5153584 L22.225256,21.5153584 C21.9849829,21.5153584 21.7883959,21.7119454 21.7883959,21.9522184 L21.7883959,25.0102389 C21.7883959,25.2505119 21.9849829,25.447099 22.225256,25.447099 L39.3720137,25.447099 L39.3720137,29.5972696 C39.3720137,29.9631399 39.7979522,30.1706485 40.0819113,29.9412969 L47.8307167,23.825256 C47.9365165,23.7424547 47.9983335,23.6155776 47.9983335,23.4812287 C47.9983335,23.3468797 47.9365165,23.2200026 47.8307167,23.1372014 L47.8307167,23.1372014 Z"></path>
</svg>
