<svg width="48" height="48" viewBox="0 0 48 48" fill="none" xmlns="http://www.w3.org/2000/svg">
  <rect width="48" height="48" fill="white" fill-opacity="0.01"/>
  <path d="M35.2957256,23.4969224 C32.2842615,20.8766271 28.3511392,19.2905178 24.0429236,19.2905178 C19.7347079,19.2905178 15.8015857,20.8766271 12.7847631,23.5022809 C12.6116384,23.6583647 12.5927127,23.9233246 12.7418952,24.1024303 L14.670947,26.401217 C14.8263429,26.5834052 15.0996252,26.6048391 15.2818134,26.4494433 C17.6181095,24.3917881 20.6831584,23.1486214 24.0429236,23.1486214 C27.4026888,23.1486214 30.4677377,24.3917881 32.8040338,26.4440848 C32.986222,26.5994807 33.2595043,26.5780468 33.4149002,26.3958585 L35.3439519,24.0970718 C35.4939893,23.9202421 35.4725554,23.6523182 35.2957256,23.4969224 Z M41.5865778,15.9896959 C36.8336086,12.0297812 30.7195861,9.64525891 24.0429236,9.64525891 C17.366261,9.64525891 11.2522386,12.0297812 6.49391085,15.9896959 C6.31271104,16.1425237 6.28878132,16.4129296 6.44032608,16.5952038 L8.36937786,18.8939905 C8.51941522,19.0761787 8.79269756,19.0976126 8.96952731,18.9475753 C13.0580454,15.5503007 18.3147115,13.5033625 24.0429236,13.5033625 C29.7711357,13.5033625 35.0278018,15.5503007 39.1109614,18.9475753 C39.2931496,19.0976126 39.5610735,19.0761787 39.7111108,18.8939905 L41.6401626,16.5952038 C41.7902,16.4130156 41.7687661,16.1397332 41.5865778,15.9896959 L41.5865778,15.9896959 Z M47.8399207,8.54141261 C41.3347294,3.20436935 33.0076559,0 23.935754,0 C14.9227954,0 6.64930669,3.16150153 0.160190839,8.43424307 C0.0701248061,8.5066036 0.0130795831,8.61225521 0.00198317313,8.72725437 C-0.00911323684,8.84225352 0.0266787128,8.95686311 0.10124759,9.04510946 L2.03029937,11.3438962 C2.18033673,11.5207259 2.44826059,11.5475183 2.62509034,11.4028394 C8.44975502,6.68202103 15.8605289,3.85810356 23.935754,3.85810356 C32.0699224,3.85810356 39.5289226,6.72488885 45.3696627,11.5046505 C45.5518509,11.6546878 45.8197748,11.6278955 45.9698122,11.4457072 L47.8988639,9.14692053 C48.0542598,8.96473231 48.0274674,8.69144997 47.8399207,8.54141261 Z M20.5599134,31.9365239 C20.5599134,33.8305433 22.0953195,35.3659493 23.9893388,35.3659493 C25.8833582,35.3659493 27.4187642,33.8305433 27.4187642,31.9365239 C27.4187642,30.0425046 25.8833582,28.5070985 23.9893388,28.5070985 C22.0953195,28.5070985 20.5599134,30.0425046 20.5599134,31.9365239 Z" fill="#000"></path>
</svg>
