<svg width="48" height="48" viewBox="0 0 48 48" fill="none" xmlns="http://www.w3.org/2000/svg">
  <rect width="48" height="48" fill="white" fill-opacity="0.01"/>
  <path d="M46.08,0 L1.92,0 C0.858,0 0,0.858 0,1.92 L0,46.08 C0,47.142 0.858,48 1.92,48 L46.08,48 C47.142,48 48,47.142 48,46.08 L48,1.92 C48,0.858 47.142,0 46.08,0 Z M43.68,27.84 L24.96,27.84 L24.96,20.16 L43.68,20.16 L43.68,27.84 Z M43.68,16.32 L23.04,16.32 C21.978,16.32 21.12,17.178 21.12,18.24 L21.12,29.76 C21.12,30.822 21.978,31.68 23.04,31.68 L43.68,31.68 L43.68,43.68 L4.32,43.68 L4.32,4.32 L43.68,4.32 L43.68,16.32 Z" fill="#000"></path>
  <path d="M24.96,27.84 L43.68,27.84 L43.68,20.16 L24.96,20.16 L24.96,27.84 Z M30.48,21.6 C31.806,21.6 32.88,22.674 32.88,24 C32.88,25.326 31.806,26.4 30.48,26.4 C29.154,26.4 28.08,25.326 28.08,24 C28.08,22.674 29.154,21.6 30.48,21.6 Z" fill="#2F88FF"></path>
  <path d="M28.08,24 C28.08,25.3254834 29.1545166,26.4 30.48,26.4 C31.8054834,26.4 32.88,25.3254834 32.88,24 C32.88,22.6745166 31.8054834,21.6 30.48,21.6 C29.1545166,21.6 28.08,22.6745166 28.08,24 Z" fill="#000"></path>
  <path d="M4.32,43.68 L43.68,43.68 L43.68,31.68 L23.04,31.68 C21.978,31.68 21.12,30.822 21.12,29.76 L21.12,18.24 C21.12,17.178 21.978,16.32 23.04,16.32 L43.68,16.32 L43.68,4.32 L4.32,4.32 L4.32,43.68 Z" fill="#2F88FF"></path>
</svg>
