<svg width="48" height="48" viewBox="0 0 48 48" fill="none" xmlns="http://www.w3.org/2000/svg">
  <rect width="48" height="48" fill="white" fill-opacity="0.01"/>
  <path d="M43.5555556,13.2222243 L33.1777778,13.2222243 L32.2277778,10.5666688 L30.9555556,7.0000021 L17.0388889,7.0000021 L15.7666667,10.5666688 L14.8166667,13.2222243 L4.44444444,13.2222243 C4.2,13.2222243 4,13.4222243 4,13.6666688 L4,39.0000021 C4,39.2444465 4.2,39.4444465 4.44444444,39.4444465 L43.5555556,39.4444465 C43.8,39.4444465 44,39.2444465 44,39.0000021 L44,13.6666688 C44,13.4222243 43.8,13.2222243 43.5555556,13.2222243 Z M24,34.5555577 C19.0888889,34.5555577 15.1111111,30.5777799 15.1111111,25.6666688 C15.1111111,20.7555577 19.0888889,16.7777799 24,16.7777799 C28.9111111,16.7777799 32.8888889,20.7555577 32.8888889,25.6666688 C32.8888889,30.5777799 28.9111111,34.5555577 24,34.5555577 Z" fill="#2F88FF"></path>
  <path d="M24,16.7777799 C19.0888889,16.7777799 15.1111111,20.7555577 15.1111111,25.6666688 C15.1111111,30.5777799 19.0888889,34.5555577 24,34.5555577 C28.9111111,34.5555577 32.8888889,30.5777799 32.8888889,25.6666688 C32.8888889,20.7555577 28.9111111,16.7777799 24,16.7777799 Z M24,31.0000021 C21.0555556,31.0000021 18.6666667,28.6111132 18.6666667,25.6666688 C18.6666667,22.7222243 21.0555556,20.3333354 24,20.3333354 C26.9444444,20.3333354 29.3333333,22.7222243 29.3333333,25.6666688 C29.3333333,28.6111132 26.9444444,31.0000021 24,31.0000021 Z" fill="#000000"></path>
  <path d="M43.5555556,9.22222432 L36,9.22222432 L34.2,4.17777988 C33.9452068,3.47055449 33.2739448,2.9993375 32.5222222,3.0000007 L15.4777778,3.0000007 C14.7277778,3.0000007 14.0555556,3.47222432 13.8055556,4.17777988 L12,9.22222432 L4.44444444,9.22222432 C1.98888889,9.22222432 0,11.2111132 0,13.6666688 L0,39.0000007 C0,41.4555577 1.98888889,43.4444465 4.44444444,43.4444465 L43.5555556,43.4444465 C46.0111111,43.4444465 48,41.4555577 48,39.0000007 L48,13.6666688 C48,11.2111132 46.0111111,9.22222432 43.5555556,9.22222432 Z M44,39.0000021 C44,39.2444465 43.8,39.4444465 43.5555556,39.4444465 L4.44444444,39.4444465 C4.2,39.4444465 4,39.2444465 4,39.0000021 L4,13.6666688 C4,13.4222243 4.2,13.2222243 4.44444444,13.2222243 L14.8166667,13.2222243 L15.7666667,10.5666688 L17.0388889,7.0000021 L30.9555556,7.0000021 L32.2277778,10.5666688 L33.1777778,13.2222243 L43.5555556,13.2222243 C43.8,13.2222243 44,13.4222243 44,13.6666688 L44,39.0000021 Z" fill="#000000"></path>
</svg>
