<svg width="48" height="48" viewBox="0 0 48 48" fill="none" xmlns="http://www.w3.org/2000/svg">
  <rect width="48" height="48" fill="white" fill-opacity="0.01"/>
  <path d="M43.5555556,10.2222222 L33.1777778,10.2222222 L32.2277778,7.56666667 L30.9555556,4 L17.0388889,4 L15.7666667,7.56666667 L14.8166667,10.2222222 L4.44444444,10.2222222 C4.2,10.2222222 4,10.4222222 4,10.6666667 L4,36 C4,36.2444444 4.2,36.4444444 4.44444444,36.4444444 L43.5555556,36.4444444 C43.8,36.4444444 44,36.2444444 44,36 L44,10.6666667 C44,10.4222222 43.8,10.2222222 43.5555556,10.2222222 Z M24,31.5555556 C19.0888889,31.5555556 15.1111111,27.5777778 15.1111111,22.6666667 C15.1111111,17.7555556 19.0888889,13.7777778 24,13.7777778 C28.9111111,13.7777778 32.8888889,17.7555556 32.8888889,22.6666667 C32.8888889,27.5777778 28.9111111,31.5555556 24,31.5555556 Z" fill="#2F88FF"></path>
  <path d="M24,13.7777778 C19.0888889,13.7777778 15.1111111,17.7555556 15.1111111,22.6666667 C15.1111111,27.5777778 19.0888889,31.5555556 24,31.5555556 C28.9111111,31.5555556 32.8888889,27.5777778 32.8888889,22.6666667 C32.8888889,17.7555556 28.9111111,13.7777778 24,13.7777778 Z M24,28 C21.0555556,28 18.6666667,25.6111111 18.6666667,22.6666667 C18.6666667,19.7222222 21.0555556,17.3333333 24,17.3333333 C26.9444444,17.3333333 29.3333333,19.7222222 29.3333333,22.6666667 C29.3333333,25.6111111 26.9444444,28 24,28 Z" fill="#000"></path>
  <path d="M43.5555556,6.22222222 L36,6.22222222 L34.2,1.17777778 C33.9452068,0.470552384 33.2739448,-0.00066460016 32.5222222,-7.02101797e-07 L15.4777778,-7.02101797e-07 C14.7277778,-7.02101797e-07 14.0555556,0.472222222 13.8055556,1.17777778 L12,6.22222222 L4.44444444,6.22222222 C1.98888889,6.22222222 0,8.21111111 0,10.6666667 L0,35.9999993 C0,38.4555556 1.98888889,40.4444444 4.44444444,40.4444444 L43.5555556,40.4444444 C46.0111111,40.4444444 48,38.4555556 48,35.9999993 L48,10.6666667 C48,8.21111111 46.0111111,6.22222222 43.5555556,6.22222222 Z M44,36 C44,36.2444444 43.8,36.4444444 43.5555556,36.4444444 L4.44444444,36.4444444 C4.2,36.4444444 4,36.2444444 4,36 L4,10.6666667 C4,10.4222222 4.2,10.2222222 4.44444444,10.2222222 L14.8166667,10.2222222 L15.7666667,7.56666667 L17.0388889,4 L30.9555556,4 L32.2277778,7.56666667 L33.1777778,10.2222222 L43.5555556,10.2222222 C43.8,10.2222222 44,10.4222222 44,10.6666667 L44,36 Z" fill="#000"></path>
</svg>
