<svg width="48" height="48" viewBox="0 0 48 48" fill="none" xmlns="http://www.w3.org/2000/svg">
  <rect width="48" height="48" fill="white" fill-opacity="0.01"/>
  <path d="M41.3270903,27.1143813 L41.3377926,27.1197324 C41.5036789,26.1083612 41.5839465,25.0755853 41.5839465,24.0535117 C41.5839465,23.1384615 41.5143813,22.2180602 41.3859532,21.3190635 C41.5143813,22.212709 41.5785953,23.1170569 41.5785953,24.0214047 C41.5785953,25.0595318 41.4929766,26.0976589 41.3270903,27.1143813 Z M0.642140468,17.9317726 C0.615384615,17.9103679 0.593979933,17.8889632 0.56722408,17.8622074 C0.604682274,17.8996656 0.642140468,17.9371237 0.684949833,17.9745819 L4.18996656,20.9658863 L4.18996656,20.9605351 L0.642140468,17.9317726 Z M29.3565217,6.37324415 L29.3618729,6.37324415 L28.5324415,1.88896321 C28.5217391,1.83545151 28.5110368,1.78729097 28.4949833,1.73913043 C28.5003344,1.76588629 28.5110368,1.79799331 28.516388,1.82474916 L29.3565217,6.37324415 Z M32.2461538,35.6173913 L33.9264214,34.2367893 L38.8923077,35.9973244 C39.8020067,34.7719064 40.5672241,33.4555184 41.1719064,32.0588629 L37.1745819,28.6394649 L37.5277592,26.4936455 C37.6615385,25.6856187 37.7311037,24.8561873 37.7311037,24.0267559 C37.7311037,23.1973244 37.6615385,22.367893 37.5277592,21.5598662 L37.1799331,19.4247492 L41.1772575,16.0053512 C40.5672241,14.6140468 39.8073579,13.2923077 38.8976589,12.0668896 L33.9317726,13.8274247 L32.251505,12.4468227 C30.9725753,11.3979933 29.5438127,10.573913 28.0080268,9.99598662 L25.9692308,9.23076923 L25.0113712,4.04013378 C23.5000412,3.86889537 21.9742063,3.86889537 20.4628763,4.04013378 L19.5050167,9.24147157 L17.4769231,10.006689 C15.9518395,10.5846154 14.5337793,11.4086957 13.2655518,12.4521739 L11.5852843,13.8381271 L6.58729097,12.0615385 C5.67759197,13.2869565 4.91237458,14.6033445 4.30769231,16 L8.34782609,19.451505 L8,21.5919732 C7.86622074,22.3892977 7.80200669,23.2080268 7.80200669,24.0267559 C7.80200669,24.8401338 7.87157191,25.664214 8,26.4615385 L8.34782609,28.6020067 L4.30769231,32.0535117 C4.91772575,33.4448161 5.67759197,34.7665552 6.58729097,35.9919732 L11.5852843,34.2153846 L13.2655518,35.6013378 C14.5337793,36.6448161 15.9518395,37.4688963 17.4769231,38.0468227 L19.4996656,38.8227425 L20.4575251,44.0240803 C21.9665552,44.1953177 23.5023411,44.1953177 25.0060201,44.0240803 L25.9638796,38.8334448 L28.0026756,38.0682274 C29.5438127,37.490301 30.9672241,36.6662207 32.2461538,35.6173913 Z M22.7692308,32.9257525 C21.1371237,32.9257525 19.6013378,32.5083612 18.258194,31.7752508 C15.3204013,30.180602 13.3244147,27.0715719 13.3244147,23.4916388 C13.3244147,18.290301 17.5411371,14.0735786 22.7424749,14.0735786 C26.322408,14.0735786 29.4314381,16.0695652 31.026087,19.0073579 C31.7591973,20.3451505 32.1765886,21.8809365 32.1765886,23.5183946 C32.1765886,28.7143813 27.9652174,32.9257525 22.7692308,32.9257525 L22.7692308,32.9257525 Z M6.43210702,40.1230769 C6.13779264,40.2247492 5.83277592,40.2461538 5.54381271,40.187291 C5.84882943,40.251505 6.16989967,40.2408027 6.48026756,40.1337793 L10.8361204,38.5819398 C10.8307692,38.5765886 10.8200669,38.5712375 10.8147157,38.5658863 L6.43210702,40.1230769 L6.43210702,40.1230769 Z M44.832107,17.9317726 L41.3270903,20.9284281 C41.3270903,20.9391304 41.3324415,20.9551839 41.3324415,20.9658863 L44.832107,17.9745819 C45.2120401,17.6481605 45.426087,17.1772575 45.4314381,16.690301 C45.4153846,17.161204 45.2013378,17.6160535 44.832107,17.9317726 Z" fill="#2F88FF"></path>
  <path d="M45.4207358,31.2294314 C45.4474916,31.4809365 45.4207358,31.7377926 45.3297659,31.9839465 L45.2816054,32.1230769 C44.3142424,34.8187977 42.869585,37.3183994 41.0167224,39.5023411 L40.9204013,39.6147157 C40.460768,40.1579889 39.7130371,40.3603662 39.0421405,40.1230769 L34.6916388,38.5765886 C33.0956209,39.8914977 31.2928589,40.9330132 29.3565217,41.6588629 L28.516388,46.2073579 C28.3866099,46.9080906 27.8370174,47.4555529 27.135786,47.5826087 L26.9913043,47.6093645 C25.592756,47.8621706 24.1743909,47.9892977 22.7531773,47.9892977 L22.7692308,47.9892977 C24.1979933,47.9892977 25.6267559,47.8608696 27.0180602,47.6093645 L27.1625418,47.5826087 C27.8637733,47.4555529 28.4133658,46.9080906 28.5431438,46.2073579 L29.3832776,41.664214 C31.3204013,40.9364548 33.1076923,39.9036789 34.7130435,38.587291 L39.058194,40.1337793 C39.7290906,40.3710685 40.4768215,40.1686912 40.9364548,39.6254181 L41.0327759,39.5130435 C42.8949833,37.3137124 44.3237458,34.8361204 45.2923077,32.1444816 L45.3404682,32.0053512 C45.426087,31.7538462 45.4528428,31.4862876 45.4207358,31.2294314 L45.4207358,31.2294314 Z" fill="#2F88FF"></path>
  <path d="M32.1605351,23.4916388 C32.1605351,21.8702341 31.748495,20.3397993 31.026087,19.0073579 C29.4314381,16.0695652 26.322408,14.0735786 22.7424749,14.0735786 C17.5411371,14.0735786 13.3244147,18.290301 13.3244147,23.4916388 C13.3244147,27.0715719 15.3204013,30.180602 18.258194,31.7752508 C19.5906355,32.4976589 21.1157191,32.909699 22.7424749,32.909699 C27.9438127,32.909699 32.1605351,28.6929766 32.1605351,23.4916388 Z M16.7491566,23.4916388 C16.7491566,21.8916388 17.3752508,20.3879599 18.5043478,19.2535117 C19.638796,18.1190635 21.1424749,17.4983278 22.7424749,17.4983278 C24.3424749,17.4983278 25.8461538,18.1190635 26.980602,19.2535117 C28.1065409,20.3762258 28.7382621,21.9016013 28.7357932,23.4916388 C28.7357932,25.0916388 28.109699,26.5953177 26.980602,27.7297659 C25.857888,28.8557048 24.3325124,29.487426 22.7424749,29.4849571 C21.1424749,29.4849571 19.638796,28.8588629 18.5043478,27.7297659 C17.3784089,26.6070518 16.7466877,25.0816762 16.7491566,23.4916388 L16.7491566,23.4916388 Z" fill="#000"></path>
  <path d="M27.135786,47.5826087 C27.8370174,47.4555529 28.3866099,46.9080906 28.516388,46.2073579 L29.3565217,41.6588629 C31.2928589,40.9330132 33.0956209,39.8914977 34.6916388,38.5765886 L39.0421405,40.1230769 C39.7130371,40.3603662 40.460768,40.1579889 40.9204013,39.6147157 L41.0167224,39.5023411 C42.8789298,37.30301 44.3130435,34.8200669 45.2816054,32.1230769 L45.3297659,31.9839465 C45.4207358,31.7377926 45.4474916,31.4809365 45.4207358,31.2294314 C45.3725753,30.806689 45.1692308,30.4053512 44.832107,30.1110368 L41.3377926,27.1197324 L41.3270903,27.1143813 C41.4929766,26.0976589 41.5785953,25.0595318 41.5785953,24.0214047 C41.5785953,23.1170569 41.5143813,22.2073579 41.3859532,21.3190635 C41.3698997,21.2013378 41.348495,21.083612 41.3324415,20.9658863 C41.3324415,20.9551839 41.3270903,20.9391304 41.3270903,20.9284281 L44.832107,17.9317726 C45.2013378,17.6160535 45.4153846,17.161204 45.4314381,16.690301 C45.4367893,16.4762542 45.4046823,16.2568562 45.3297659,16.0481605 L45.2816054,15.9090301 C44.3166753,13.2121816 42.8717768,10.7121626 41.0167224,8.52976589 L40.9204013,8.4173913 C40.4597388,7.87573881 39.7131085,7.67365937 39.0421405,7.9090301 L34.6916388,9.45551839 C33.0862876,8.13913043 31.2989967,7.10100334 29.3618729,6.37324415 L29.3565217,6.37324415 L28.516388,1.82474916 C28.5110368,1.79799331 28.5056856,1.76588629 28.4949833,1.73913043 C28.3371383,1.0781034 27.8041869,0.572428992 27.135786,0.449498328 L26.9913043,0.422742475 C24.2033445,-0.0802675585 21.270903,-0.0802675585 18.4829431,0.422742475 L18.3384615,0.449498328 C17.63723,0.576554124 17.0876376,1.12401638 16.9578595,1.82474916 L16.1123746,6.39464883 C14.1907077,7.12255956 12.4011587,8.16013643 10.8147157,9.46622074 L6.43210702,7.9090301 C5.76121039,7.67174085 5.01347946,7.87411817 4.55384615,8.4173913 L4.45752508,8.52976589 C2.60466249,10.7137077 1.1600051,13.2133093 0.19264214,15.9090301 L0.144481605,16.0481605 C-0.0832861669,16.6833796 0.0821099072,17.3931172 0.56722408,17.8622074 C0.593979933,17.883612 0.615384615,17.9103679 0.642140468,17.9317726 L4.18996656,20.9605351 L4.18996656,20.9658863 C4.02408027,21.9719064 3.94381271,22.9939799 3.94381271,24.0160535 C3.94381271,25.0434783 4.02408027,26.070903 4.18996656,27.0715719 L0.642140468,30.1003344 C0.100846235,30.5637204 -0.097293855,31.31367 0.144481605,31.9839465 L0.19264214,32.1230769 C1.16120401,34.8200669 2.59531773,37.3083612 4.45752508,39.5023411 L4.55384615,39.6147157 C4.81605351,39.9197324 5.1638796,40.1177258 5.54381271,40.187291 C5.83277592,40.2408027 6.13779264,40.2247492 6.43210702,40.1230769 L10.8147157,38.5658863 C10.8200669,38.5712375 10.8307692,38.5765886 10.8361204,38.5819398 C12.4254181,39.8822742 14.1966555,40.9150502 16.1123746,41.6374582 L16.9578595,46.2073579 C17.0876376,46.9080906 17.63723,47.4555529 18.3384615,47.5826087 L18.4829431,47.6093645 C19.8795987,47.8608696 21.3083612,47.9892977 22.7371237,47.9892977 L22.7531773,47.9892977 C24.1765886,47.9892977 25.6053512,47.8608696 26.9913043,47.6093645 L27.135786,47.5826087 L27.135786,47.5826087 Z M25.0060201,44.0240803 C23.4946901,44.1953187 21.9688551,44.1953187 20.4575251,44.0240803 L19.4996656,38.8227425 L17.4769231,38.0468227 C15.9518395,37.4688963 14.5337793,36.6448161 13.2655518,35.6013378 L11.5852843,34.2153846 L6.58729097,35.9919732 C5.67759197,34.7665552 4.91772575,33.4448161 4.30769231,32.0535117 L8.34782609,28.6020067 L8,26.4615385 C7.87157191,25.664214 7.80200669,24.8401338 7.80200669,24.0267559 C7.80200669,23.2080268 7.86622074,22.3892977 8,21.5919732 L8.34782609,19.451505 L4.30769231,16 C4.91237458,14.6033445 5.67759197,13.2869565 6.58729097,12.0615385 L11.5852843,13.8381271 L13.2655518,12.4521739 C14.5337793,11.4086957 15.9518395,10.5846154 17.4769231,10.006689 L19.5050167,9.24147157 L20.4628763,4.04013378 C21.9665552,3.86889632 23.5023411,3.86889632 25.0113712,4.04013378 L25.9692308,9.23076923 L28.0080268,9.99598662 C29.5438127,10.573913 30.9725753,11.3979933 32.251505,12.4468227 L33.9317726,13.8274247 L38.8976589,12.0668896 C39.8073579,13.2923077 40.5672241,14.6140468 41.1772575,16.0053512 L37.1799331,19.4247492 L37.5277592,21.5598662 C37.6615385,22.367893 37.7311037,23.1973244 37.7311037,24.0267559 C37.7311037,24.8561873 37.6615385,25.6856187 37.5277592,26.4936455 L37.1745819,28.6394649 L41.1719064,32.0588629 C40.5659213,33.4549265 39.801005,34.776472 38.8923077,35.9973244 L33.9264214,34.2367893 L32.2461538,35.6173913 C30.9672241,36.6662207 29.5438127,37.490301 28.0026756,38.0682274 L25.9638796,38.8334448 L25.0060201,44.0240803 L25.0060201,44.0240803 Z" fill="#000"></path>
</svg>
