<svg width="48" height="48" viewBox="0 0 48 48" fill="none" xmlns="http://www.w3.org/2000/svg">
  <rect width="48" height="48" fill="white" fill-opacity="0.01"/>
  <path d="M13.9271807,32.25 C13.9271807,33.6701608 15.0784485,34.8214286 16.4986093,34.8214286 C17.9187701,34.8214286 19.0700379,33.6701608 19.0700379,32.25 C19.0700379,30.8298392 17.9187701,29.6785714 16.4986093,29.6785714 C15.0784485,29.6785714 13.9271807,30.8298392 13.9271807,32.25 Z M46.9646807,15.6642857 L32.3343236,1.02857143 C31.6700379,0.369642857 30.7861093,0 29.8432522,0 C28.900395,0 28.0164665,0.364285714 27.3521807,1.02857143 L1.03253789,27.3482143 C-0.344179295,28.7256992 -0.344179295,30.9582294 1.03253789,32.3357143 L15.6682522,46.9714286 C16.3271807,47.6303571 17.2164665,48 18.1593236,48 C19.1021807,48 19.9861093,47.6357143 20.650395,46.9714286 L46.9700379,20.6517857 C48.3414665,19.275 48.3414665,17.0357143 46.9646807,15.6642857 L46.9646807,15.6642857 Z M18.1593236,43.7196429 L4.27896646,29.8392857 L29.8432522,4.275 L43.7182522,18.1607143 L18.1593236,43.7196429 Z M4.75575217,16.5910714 C4.83517982,16.6708946 4.94314449,16.7157722 5.05575217,16.7157722 C5.16835985,16.7157722 5.27632452,16.6708946 5.35575217,16.5910714 L16.5896807,5.35714286 C16.6695039,5.27771521 16.7143815,5.16975054 16.7143815,5.05714286 C16.7143815,4.94453518 16.6695039,4.83657051 16.5896807,4.75714286 L14.5325379,2.7 C14.4531102,2.62017684 14.3451456,2.57529925 14.2325379,2.57529925 C14.1199302,2.57529925 14.0119655,2.62017684 13.9325379,2.7 L2.69325217,13.9232143 C2.61342901,14.0026419 2.56855142,14.1106066 2.56855142,14.2232143 C2.56855142,14.335822 2.61342901,14.4437866 2.69325217,14.5232143 L4.75575217,16.5910714 L4.75575217,16.5910714 Z M43.2521807,31.4089286 C43.1727531,31.3291054 43.0647884,31.2842278 42.9521807,31.2842278 C42.8395731,31.2842278 42.7316084,31.3291054 42.6521807,31.4089286 L31.4075379,42.6482143 C31.3277147,42.7276419 31.2828371,42.8356066 31.2828371,42.9482143 C31.2828371,43.060822 31.3277147,43.1687866 31.4075379,43.2482143 L33.4646807,45.3053571 C33.5441084,45.3851803 33.6520731,45.4300579 33.7646807,45.4300579 C33.8772884,45.4300579 33.9852531,45.3851803 34.0646807,45.3053571 L45.3039665,34.0714286 C45.3837896,33.9920009 45.4286672,33.8840362 45.4286672,33.7714286 C45.4286672,33.6588209 45.3837896,33.5508562 45.3039665,33.4714286 L43.2521807,31.4089286 L43.2521807,31.4089286 Z" fill="#000"></path>
</svg>
