<svg width="48" height="48" viewBox="0 0 48 48" fill="none" xmlns="http://www.w3.org/2000/svg">
  <rect width="48" height="48" fill="white" fill-opacity="0.01"/>
  <path d="M25.0357143,15.4285714 L25.0357143,3.85714286 L8.85714286,3.85714286 L8.85714286,44.1428571 L38.8571429,44.1428571 L38.8571429,17.6785714 L27.2857143,17.6785714 C26.0430736,17.6785714 25.0357143,16.6712121 25.0357143,15.4285714 Z M31.7857143,28.0714286 L31.7857143,30.6428571 C31.7857143,30.8785714 31.5928571,31.0714286 31.3571429,31.0714286 L25.5714286,31.0714286 L25.5714286,36.8571429 C25.5714286,37.0928571 25.3785714,37.2857143 25.1428571,37.2857143 L22.5714286,37.2857143 C22.3357143,37.2857143 22.1428571,37.0928571 22.1428571,36.8571429 L22.1428571,31.0714286 L16.3571429,31.0714286 C16.1214286,31.0714286 15.9285714,30.8785714 15.9285714,30.6428571 L15.9285714,28.0714286 C15.9285714,27.8357143 16.1214286,27.6428571 16.3571429,27.6428571 L22.1428571,27.6428571 L22.1428571,21.8571429 C22.1428571,21.6214286 22.3357143,21.4285714 22.5714286,21.4285714 L25.1428571,21.4285714 C25.3785714,21.4285714 25.5714286,21.6214286 25.5714286,21.8571429 L25.5714286,27.6428571 L31.3571429,27.6428571 C31.5928571,27.6428571 31.7857143,27.8357143 31.7857143,28.0714286 Z" fill="#2F88FF"></path>
  <path d="M42.2107143,12.0321429 L30.6821429,0.503571429 C30.3607143,0.182142857 29.9267857,0 29.4714286,0 L6.71428571,0 C5.76607143,0 5,0.766071429 5,1.71428571 L5,46.2857143 C5,47.2339286 5.76607143,48 6.71428571,48 L41,48 C41.9482143,48 42.7142857,47.2339286 42.7142857,46.2857143 L42.7142857,13.2482143 C42.7142857,12.7928571 42.5321429,12.3535714 42.2107143,12.0321429 Z M28.6785714,3.95357143 L38.7607143,14.0357143 L28.6785714,14.0357143 L28.6785714,3.95357143 Z M38.8571429,44.1428571 L8.85714286,44.1428571 L8.85714286,3.85714286 L25.0357143,3.85714286 L25.0357143,15.4285714 C25.0357143,16.6712121 26.0430736,17.6785714 27.2857143,17.6785714 L38.8571429,17.6785714 L38.8571429,44.1428571 Z" fill="#000000"></path>
  <path d="M25.5714286,21.8571429 C25.5714286,21.6214286 25.3785714,21.4285714 25.1428571,21.4285714 L22.5714286,21.4285714 C22.3357143,21.4285714 22.1428571,21.6214286 22.1428571,21.8571429 L22.1428571,27.6428571 L16.3571429,27.6428571 C16.1214286,27.6428571 15.9285714,27.8357143 15.9285714,28.0714286 L15.9285714,30.6428571 C15.9285714,30.8785714 16.1214286,31.0714286 16.3571429,31.0714286 L22.1428571,31.0714286 L22.1428571,36.8571429 C22.1428571,37.0928571 22.3357143,37.2857143 22.5714286,37.2857143 L25.1428571,37.2857143 C25.3785714,37.2857143 25.5714286,37.0928571 25.5714286,36.8571429 L25.5714286,31.0714286 L31.3571429,31.0714286 C31.5928571,31.0714286 31.7857143,30.8785714 31.7857143,30.6428571 L31.7857143,28.0714286 C31.7857143,27.8357143 31.5928571,27.6428571 31.3571429,27.6428571 L25.5714286,27.6428571 L25.5714286,21.8571429 Z" fill="#FFFFFF"></path>
</svg>
