<?xml version="1.0" encoding="UTF-8"?>
<svg width="48" height="48" viewBox="0 0 48 48" fill="none" xmlns="http://www.w3.org/2000/svg">
  <rect width="48" height="48" fill="white" fill-opacity="0.01"/>
  <path d="M24,0 C10.7464286,0 0,10.7464286 0,24 C0,37.2535714 10.7464286,48 24,48 C37.2535714,48 48,37.2535714 48,24 C48,10.7464286 37.2535714,0 24,0 Z M24,43.9285714 C12.9964286,43.9285714 4.07142857,35.0035714 4.07142857,24 C4.07142857,12.9964286 12.9964286,4.07142857 24,4.07142857 C35.0035714,4.07142857 43.9285714,12.9964286 43.9285714,24 C43.9285714,35.0035714 35.0035714,43.9285714 24,43.9285714 Z" fill="#000"></path>
  <path d="M24,4.07142857 C12.9964286,4.07142857 4.07142857,12.9964286 4.07142857,24 C4.07142857,35.0035714 12.9964286,43.9285714 24,43.9285714 C35.0035714,43.9285714 43.9285714,35.0035714 43.9285714,24 C43.9285714,12.9964286 35.0035714,4.07142857 24,4.07142857 Z M22.2857143,12.4285714 C22.2857143,12.1928571 22.4785714,12 22.7142857,12 L25.2857143,12 C25.5214286,12 25.7142857,12.1928571 25.7142857,12.4285714 L25.7142857,27 C25.7142857,27.2357143 25.5214286,27.4285714 25.2857143,27.4285714 L22.7142857,27.4285714 C22.4785714,27.4285714 22.2857143,27.2357143 22.2857143,27 L22.2857143,12.4285714 Z M24,36 C22.6002926,35.9714271 21.4805275,34.8285704 21.4805275,33.4285714 C21.4805275,32.0285725 22.6002926,30.8857158 24,30.8571429 C25.3997074,30.8857158 26.5194725,32.0285725 26.5194725,33.4285714 C26.5194725,34.8285704 25.3997074,35.9714271 24,36 L24,36 Z" fill="#2F88FF"></path>
  <path d="M22.7142857,27.4285714 L25.2857143,27.4285714 C25.5214286,27.4285714 25.7142857,27.2357143 25.7142857,27 L25.7142857,12.4285714 C25.7142857,12.1928571 25.5214286,12 25.2857143,12 L22.7142857,12 C22.4785714,12 22.2857143,12.1928571 22.2857143,12.4285714 L22.2857143,27 C22.2857143,27.2357143 22.4785714,27.4285714 22.7142857,27.4285714 Z M21.4285714,33.4285714 C21.4285714,34.8487322 22.5798392,36 24,36 C25.4201608,36 26.5714286,34.8487322 26.5714286,33.4285714 C26.5714286,32.0084106 25.4201608,30.8571429 24,30.8571429 C22.5798392,30.8571429 21.4285714,32.0084106 21.4285714,33.4285714 Z" fill="#FFF"></path>
</svg>
