<svg width="48" height="48" viewBox="0 0 48 48" fill="none" xmlns="http://www.w3.org/2000/svg">
  <rect width="48" height="48" fill="white" fill-opacity="0.01"/>
  <path d="M47.3085999,18.7657426 L33.4357675,18.7657426 C33.1973282,18.7657426 33.0022415,18.9608293 33.0022415,19.1992686 L33.0022415,21.8004247 C33.0022415,22.038864 33.1973282,22.2339507 33.4357675,22.2339507 L47.3085999,22.2339507 C47.5470392,22.2339507 47.7421259,22.038864 47.7421259,21.8004247 L47.7421259,19.1992686 C47.7421259,18.9608293 47.5470392,18.7657426 47.3085999,18.7657426 Z M40.0470392,26.1356848 L33.4357675,26.1356848 C33.1973282,26.1356848 33.0022415,26.3307715 33.0022415,26.5692108 L33.0022415,29.1703668 C33.0022415,29.4088062 33.1973282,29.6038929 33.4357675,29.6038929 L40.0470392,29.6038929 C40.2854785,29.6038929 40.4805652,29.4088062 40.4805652,29.1703668 L40.4805652,26.5692108 C40.4805652,26.3307715 40.2854785,26.1356848 40.0470392,26.1356848 Z M21.9635855,13.9156703 L19.6171259,13.9156703 C19.2811433,13.9156703 19.0101895,14.1866241 19.0101895,14.5226067 L19.0101895,27.9619131 C19.0101895,28.1569998 19.1023138,28.3358293 19.259467,28.4496299 L27.3284699,34.3347455 C27.5994236,34.5298322 27.9787589,34.4756414 28.1738456,34.2046877 L29.5665479,32.3025923 L29.5665479,32.2971732 C29.7616346,32.0262194 29.7020248,31.6468842 29.431071,31.4517975 L22.5651028,26.4879247 L22.5651028,14.5226067 C22.5705219,14.1866241 22.294149,13.9156703 21.9635855,13.9156703 L21.9635855,13.9156703 Z" fill="#000000"></path>
  <path d="M39.7110566,32.9583004 L36.5788311,32.9583004 C36.2753629,32.9583004 35.9881519,33.1154536 35.8255797,33.3755692 C35.1373571,34.4648033 34.335334,35.4727512 33.4140912,36.393994 C31.8263022,37.981783 29.9783976,39.2281703 27.9245681,40.0952223 C25.7948716,40.9947888 23.5351173,41.4499911 21.2049149,41.4499911 C18.8692936,41.4499911 16.6095392,40.9947888 14.4852618,40.0952223 C12.4314323,39.2281703 10.5835277,37.981783 8.99573866,36.393994 C7.40794964,34.806205 6.16156236,32.9583004 5.29451034,30.9044709 C4.39494386,28.7801934 3.93974155,26.5204391 3.93974155,24.1848177 C3.93974155,21.8491963 4.39494386,19.5948611 5.29451034,17.4651645 C6.16156236,15.4113351 7.40794964,13.5634304 8.99573866,11.9756414 C10.5835277,10.3878524 12.4314323,9.1414651 14.4852618,8.27441308 C16.6095392,7.37484661 18.8747126,6.91964429 21.2049149,6.91964429 C23.5405363,6.91964429 25.8002907,7.37484661 27.9245681,8.27441308 C29.9783976,9.1414651 31.8263022,10.3878524 33.4140912,11.9756414 C34.335334,12.8968842 35.1373571,13.9048322 35.8255797,14.9940663 C35.9881519,15.2541819 36.2753629,15.4113351 36.5788311,15.4113351 L39.7110566,15.4113351 C40.0849727,15.4113351 40.3234121,15.0211616 40.1554207,14.6905981 C36.6221837,7.66205759 29.4581664,3.09377724 21.4596115,3.00165296 C9.7489901,2.85533793 0.0217502186,12.4416819 0,24.1414651 C-0.0216023826,35.8629247 9.47803635,45.3734015 21.1994959,45.3734015 C29.3010132,45.3734015 36.5842502,40.788864 40.1554207,33.6790374 C40.3234121,33.3484738 40.0795537,32.9583004 39.7110566,32.9583004 Z" fill="#000000"></path>
</svg>
