<svg width="48" height="48" viewBox="0 0 48 48" fill="none" xmlns="http://www.w3.org/2000/svg">
  <rect width="48" height="48" fill="white" fill-opacity="0.01"/>
  <path d="M15.9270833,27.9583333 L15.546875,26.265625 C15.5364583,26.2135417 15.515625,26.1666667 15.4895833,26.125 C15.359375,25.9322917 15.1041667,25.8802083 14.9114583,26.0104167 L13.6979167,26.8229167 L13.6979167,18.6979167 C13.6979167,18.46875 13.5104167,18.28125 13.28125,18.28125 L9.0625,18.28125 C8.83333333,18.28125 8.64583333,18.46875 8.64583333,18.6979167 L8.64583333,20.5729167 C8.64583333,20.8020833 8.83333333,20.9895833 9.0625,20.9895833 L10.9895833,20.9895833 L10.9895833,31.0104167 C10.9895833,31.0989583 11.015625,31.1822917 11.0677083,31.2552083 C11.203125,31.4427083 11.4635417,31.484375 11.6510417,31.3489583 L15.765625,28.390625 C15.9010417,28.2916667 15.9635417,28.125 15.9270833,27.9583333 L15.9270833,27.9583333 Z M12.9739583,16.6770833 L12.984375,16.6875 C13.1510417,16.84375 13.4166667,16.8333333 13.5729167,16.6614583 L14.828125,15.296875 C14.9791667,15.1302083 14.9739583,14.875 14.8125,14.7135417 L12.015625,12 C11.8541667,11.84375 11.59375,11.84375 11.4322917,12.0052083 L10.1458333,13.2916667 C9.984375,13.453125 9.984375,13.71875 10.1510417,13.8802083 L12.9739583,16.6770833 L12.9739583,16.6770833 Z" fill="#000"></path>
  <path d="M37.7552083,6.140625 L20.0572917,0.109375 C19.84375,0.0364583333 19.5572917,-2.96059473e-15 19.2708333,-2.96059473e-15 C18.984375,-2.96059473e-15 18.6979167,0.0364583333 18.484375,0.109375 L0.786458333,6.140625 C0.354166667,6.28645833 0,6.78645833 0,7.24479167 L0,32.3697917 C0,32.828125 0.296875,33.4322917 0.65625,33.71875 L18.609375,47.7083333 C18.7916667,47.8489583 19.0260417,47.921875 19.265625,47.921875 C19.5052083,47.921875 19.7447917,47.8489583 19.921875,47.7083333 L37.875,33.71875 C38.234375,33.4375 38.5314741,32.8333333 38.5314741,32.3697917 L38.5314741,7.24479167 C38.5416667,6.78645833 38.1875,6.29166667 37.7552083,6.140625 Z M34.7916667,31.3697917 L19.2708333,43.4635417 L3.75,31.3697917 L3.75,9.09895833 L19.2708333,3.80729167 L34.7916667,9.09895833 L34.7916667,31.3697917 Z" fill="#000"></path>
  <path d="M16.1458333,12.7604167 L16.1458333,14.6354167 C16.1458333,14.8645833 16.3333333,15.0520833 16.5625,15.0520833 L22.1875,15.0520833 L22.1875,29.3229167 L20.2083333,29.3229167 L20.2083333,18.3854167 C20.2083333,18.15625 20.0208333,17.96875 19.7916667,17.96875 L17.96875,17.96875 C17.7395833,17.96875 17.5520833,18.15625 17.5520833,18.3854167 L17.5520833,29.3229167 L15.9375,29.3229167 C15.7083333,29.3229167 15.5208333,29.5104167 15.5208333,29.7395833 L15.5208333,31.6666667 C15.5208333,31.8958333 15.7083333,32.0833333 15.9375,32.0833333 L28.6458333,32.0833333 C28.875,32.0833333 29.0625,31.8958333 29.0625,31.6666667 L29.0625,29.7395833 C29.0625,29.5104167 28.875,29.3229167 28.6458333,29.3229167 L24.8958333,29.3229167 L24.8958333,22.96875 L27.9166667,22.96875 C28.1458333,22.96875 28.3333333,22.78125 28.3333333,22.5520833 L28.3333333,20.7291667 C28.3333333,20.5 28.1458333,20.3125 27.9166667,20.3125 L24.8958333,20.3125 L24.8958333,15.0520833 L28.1770833,15.0520833 C28.40625,15.0520833 28.59375,14.8645833 28.59375,14.6354167 L28.59375,12.7604167 C28.59375,12.53125 28.40625,12.34375 28.1770833,12.34375 L16.5625,12.34375 C16.3333333,12.34375 16.1458333,12.53125 16.1458333,12.7604167 Z" fill="#000"></path>
</svg>
