<?xml version="1.0" encoding="UTF-8"?>
<svg width="48" height="48" viewBox="0 0 48 48" fill="none" xmlns="http://www.w3.org/2000/svg">
  <rect width="48" height="48" fill="white" fill-opacity="0.01"/>
  <path fill="#000" d="M47.4606742,23.9700375 L44.1048689,23.9700375 C43.8411985,23.9700375 43.6254682,24.1857678 43.6254682,24.4494382 L43.6254682,43.6254682 L4.31460674,43.6254682 L4.31460674,4.31460674 L23.4906367,4.31460674 C23.7543071,4.31460674 23.9700375,4.0988764 23.9700375,3.83520599 L23.9700375,0.479400749 C23.9700375,0.215730337 23.7543071,0 23.4906367,0 L1.917603,0 C0.856928839,0 0,0.856928839 0,1.917603 L0,46.0224719 C0,47.0831461 0.856928839,47.9400749 1.917603,47.9400749 L46.0224719,47.9400749 C47.0831461,47.9400749 47.9400749,47.0831461 47.9400749,46.0224719 L47.9400749,24.4494382 C47.9400749,24.1857678 47.7243446,23.9700375 47.4606742,23.9700375 Z"></path>
  <path fill="#000" d="M14.6157303,25.3423221 L14.501811,32.4674157 C14.4958801,33.0007491 14.9273408,33.4382022 15.4606742,33.4382022 L15.4846442,33.4382022 L22.5558052,33.2644195 C22.6756554,33.258427 22.7955056,33.2104869 22.8794007,33.1265918 L47.8022472,8.2576779 C47.988015,8.07191011 47.988015,7.76629213 47.8022472,7.58052434 L40.3535581,0.137827715 C40.2576779,0.0419475655 40.1378277,0 40.011985,0 C39.8861423,0 39.7662921,0.0479400749 39.670412,0.137827715 L14.7535581,25.0067416 C14.6670043,25.0972598 14.6177847,25.2170988 14.6157303,25.3423221 Z M18.4209738,26.7565543 L40.011985,5.21348315 L42.7205993,7.91610487 L21.117603,29.471161 L18.3790262,29.5370787 L18.4209738,26.7565543 L18.4209738,26.7565543 Z"></path>
</svg>
