<svg width="48" height="48" viewBox="0 0 48 48" fill="none" xmlns="http://www.w3.org/2000/svg">
  <rect width="48" height="48" fill="white" fill-opacity="0.01"/>
  <path d="M38.0739421,9.88329621 C36.2531376,8.05635901 34.0922147,6.60363767 31.7131403,5.60712695 C29.2730399,4.58191148 26.6520646,4.05662587 24.0053452,4.06231434 L23.9144766,4.06231434 C18.5853007,4.08374165 13.5982183,6.16837416 9.86726058,9.93674833 C6.13095768,13.7051225 4.09443207,18.7082405 4.11564626,24.0374165 C4.13184855,27.2605791 4.93363029,30.4623608 6.44097996,33.2899777 L6.68151448,33.7389755 L6.68151448,41.2650334 L14.2075724,41.2650334 L14.6565702,41.5055679 C17.4841871,43.0129176 20.6859688,43.8146993 23.9091314,43.830735 L24,43.830735 C29.2917595,43.830735 34.2628062,41.7888641 38.0097996,38.0792873 C41.7728285,34.3483296 43.8628062,29.3612472 43.8950395,24.0374165 C43.9055679,21.3327394 43.3870824,18.7135857 42.3501114,16.244098 C41.3529548,13.8653718 39.9003131,11.7045674 38.0739421,9.88329621 L38.0739421,9.88329621 Z M13.3095768,26.5122494 C11.9129869,26.4837402 10.7957156,25.3434288 10.7957156,23.9465479 C10.7957156,22.549667 11.9129869,21.4093556 13.3095768,21.3808463 C14.7061668,21.4093556 15.823438,22.549667 15.823438,23.9465479 C15.823438,25.3434288 14.7061668,26.4837402 13.3095768,26.5122494 L13.3095768,26.5122494 Z M24,26.5122494 C22.60341,26.4837402 21.4861388,25.3434288 21.4861388,23.9465479 C21.4861388,22.549667 22.60341,21.4093556 24,21.3808463 C25.39659,21.4093556 26.5138612,22.549667 26.5138612,23.9465479 C26.5138612,25.3434288 25.39659,26.4837402 24,26.5122494 Z M34.6904232,26.5122494 C33.2938332,26.4837402 32.176562,25.3434288 32.176562,23.9465479 C32.176562,22.549667 33.2938332,21.4093556 34.6904232,21.3808463 C36.0870131,21.4093556 37.2042844,22.549667 37.2042844,23.9465479 C37.2042844,25.3434288 36.0870131,26.4837402 34.6904232,26.5122494 Z" fill="#2F88FF"></path>
  <path d="M32.1247216,23.9465479 C32.1247216,25.3635457 33.2734253,26.5122494 34.6904232,26.5122494 C36.107421,26.5122494 37.2561247,25.3635457 37.2561247,23.9465479 C37.2561247,22.52955 36.107421,21.3808463 34.6904232,21.3808463 C33.2734253,21.3808463 32.1247216,22.52955 32.1247216,23.9465479 Z M10.7438753,23.9465479 C10.7438753,25.3635457 11.892579,26.5122494 13.3095768,26.5122494 C14.7265747,26.5122494 15.8752784,25.3635457 15.8752784,23.9465479 C15.8752784,22.52955 14.7265747,21.3808463 13.3095768,21.3808463 C11.892579,21.3808463 10.7438753,22.52955 10.7438753,23.9465479 Z" fill="#000"></path>
  <path d="M46.0864143,14.6672606 C44.8783964,11.796882 43.1465479,9.22048998 40.9389755,7.00757238 C38.7468476,4.80746439 36.1445042,3.05864607 33.2792873,1.86013363 C30.3394209,0.625389755 27.2178174,0 24,0 L23.8930958,0 C20.6538976,0.0160356347 17.5162584,0.657461024 14.5657016,1.91893096 C11.7250279,3.12973507 9.14706562,4.88166012 6.97550111,7.07706013 C4.78930958,9.28463252 3.07349666,11.8503341 1.88685969,14.7100223 C0.657461024,17.6712695 0.0374164811,20.8195991 0.0531488675,24.0587973 C0.0715897607,27.7708906 0.949800416,31.428272 2.61915367,34.7438753 L2.61915367,42.8685969 C2.61915367,44.2265531 3.71999474,45.3273942 5.077951,45.3273942 L13.2080178,45.3273942 C16.5236211,46.9967475 20.1810025,47.8749581 23.8930958,47.8930958 L24.0053452,47.8930958 C27.2071269,47.8930958 30.3126949,47.2730512 33.2365256,46.0596882 C36.0872692,44.8754574 38.6799118,43.147029 40.8694878,40.9710468 C43.0770601,38.7848552 44.8142539,36.2298441 46.0276169,33.3808463 C47.2890869,30.4302895 47.9305122,27.2926503 47.9468461,24.0534521 C47.9625835,20.7982183 47.3318486,17.6391982 46.0864143,14.6672606 L46.0864143,14.6672606 Z M38.0097996,38.0792873 C34.2628062,41.7888641 29.2917595,43.830735 24,43.830735 L23.9091314,43.830735 C20.6859688,43.8146993 17.4841871,43.0129176 14.6565702,41.5055679 L14.2075724,41.2650334 L6.68151448,41.2650334 L6.68151448,33.7389755 L6.44097996,33.2899777 C4.93363029,30.4623608 4.13184855,27.2605791 4.11564626,24.0374165 C4.09443207,18.7082405 6.13095768,13.7051225 9.86726058,9.93674833 C13.5982183,6.16837416 18.5853007,4.08374165 23.9144766,4.0623608 L24.0053452,4.0623608 C26.677951,4.0623608 29.2703786,4.58084633 31.7131403,5.60712695 C34.0971047,6.60668151 36.2351893,8.04454343 38.0739421,9.88329621 C39.9073497,11.7167038 41.3505568,13.8601336 42.3501114,16.244098 C43.3870824,18.7135857 43.9055679,21.3327394 43.8950395,24.0374165 C43.8628062,29.3612472 41.7728285,34.3483296 38.0097996,38.0792873 Z" fill="#000"></path>
  <path d="M21.4342984,23.9465479 C21.4342984,25.3635457 22.5830022,26.5122494 24,26.5122494 C25.4169978,26.5122494 26.5657016,25.3635457 26.5657016,23.9465479 C26.5657016,22.52955 25.4169978,21.3808463 24,21.3808463 C22.5830022,21.3808463 21.4342984,22.52955 21.4342984,23.9465479 Z" fill="#000"></path>
</svg>
