<svg width="48" height="48" viewBox="0 0 48 48" fill="none" xmlns="http://www.w3.org/2000/svg">
  <rect width="48" height="48" fill="white" fill-opacity="0.01"/>
  <path d="M8.80733945,9.57798165 C8.56513761,9.57798165 8.36697248,9.77614679 8.36697248,10.0183486 L8.36697248,12.6605505 C8.36697248,12.9027523 8.56513761,13.1009174 8.80733945,13.1009174 L29.9449541,13.1009174 C30.187156,13.1009174 30.3853211,12.9027523 30.3853211,12.6605505 L30.3853211,10.0183486 C30.3853211,9.77614679 30.187156,9.57798165 29.9449541,9.57798165 L8.80733945,9.57798165 Z M18.9357798,17.5045872 L8.80733945,17.5045872 C8.56513761,17.5045872 8.36697248,17.7027523 8.36697248,17.9449541 L8.36697248,20.587156 C8.36697248,20.8293578 8.56513761,21.0275229 8.80733945,21.0275229 L18.9357798,21.0275229 C19.1779817,21.0275229 19.3761468,20.8293578 19.3761468,20.587156 L19.3761468,17.9449541 C19.3761468,17.7027523 19.1779817,17.5045872 18.9357798,17.5045872 Z M16.293578,42.7155963 L3.96330275,42.7155963 L3.96330275,3.96330275 L34.7889908,3.96330275 L34.7889908,21.5779817 C34.7889908,21.8201835 34.987156,22.0183486 35.2293578,22.0183486 L38.3119266,22.0183486 C38.5541284,22.0183486 38.7522936,21.8201835 38.7522936,21.5779817 L38.7522936,1.76146789 C38.7522936,0.787155963 37.9651376,0 36.9908257,0 L1.76146789,0 C0.787155963,0 0,0.787155963 0,1.76146789 L0,44.9174312 C0,45.8917431 0.787155963,46.6788991 1.76146789,46.6788991 L16.293578,46.6788991 C16.5357798,46.6788991 16.733945,46.4807339 16.733945,46.2385321 L16.733945,43.1559633 C16.733945,42.9137615 16.5357798,42.7155963 16.293578,42.7155963 Z M40.5137615,37.8715596 L32.587156,37.8715596 L32.587156,35.8568807 C35.1357798,35.0972477 36.9908257,32.7412844 36.9908257,29.9449541 C36.9908257,26.5376147 34.2330275,23.7798165 30.8256881,23.7798165 C27.4183486,23.7798165 24.6605505,26.5376147 24.6605505,29.9449541 C24.6605505,32.7357798 26.5155963,35.0972477 29.0642202,35.8568807 L29.0642202,37.8715596 L21.1376147,37.8715596 C20.653211,37.8715596 20.2568807,38.2678899 20.2568807,38.7522936 L20.2568807,47.1192661 C20.2568807,47.6036697 20.653211,48 21.1376147,48 L40.5137615,48 C40.9981651,48 41.3944954,47.6036697 41.3944954,47.1192661 L41.3944954,38.7522936 C41.3944954,38.2678899 40.9981651,37.8715596 40.5137615,37.8715596 Z M28.0733945,29.9449541 C28.0733945,28.4256881 29.306422,27.1926606 30.8256881,27.1926606 C32.3449541,27.1926606 33.5779817,28.4256881 33.5779817,29.9449541 C33.5779817,31.4642202 32.3449541,32.6972477 30.8256881,32.6972477 C29.306422,32.6972477 28.0733945,31.4642202 28.0733945,29.9449541 Z M37.9816514,44.587156 L23.6697248,44.587156 L23.6697248,41.2844037 L37.9816514,41.2844037 L37.9816514,44.587156 Z" fill="#000"></path>
</svg>
