<svg width="48" height="48" viewBox="0 0 48 48" fill="none" xmlns="http://www.w3.org/2000/svg">
  <rect width="48" height="48" fill="white" fill-opacity="0.01"/>
  <circle fill="#2F88FF" cx="33.5" cy="29.5" r="5.5"></circle>
  <rect fill="#2F88FF" x="25" y="40" width="18" height="6"></rect>
  <path d="M11.8073395,9.57798165 C11.5651376,9.57798165 11.3669725,9.77614679 11.3669725,10.0183486 L11.3669725,12.6605505 C11.3669725,12.9027523 11.5651376,13.1009174 11.8073395,13.1009174 L32.9449541,13.1009174 C33.187156,13.1009174 33.3853211,12.9027523 33.3853211,12.6605505 L33.3853211,10.0183486 C33.3853211,9.77614679 33.187156,9.57798165 32.9449541,9.57798165 L11.8073395,9.57798165 Z M21.9357798,17.5045872 L11.8073395,17.5045872 C11.5651376,17.5045872 11.3669725,17.7027523 11.3669725,17.9449541 L11.3669725,20.587156 C11.3669725,20.8293578 11.5651376,21.0275229 11.8073395,21.0275229 L21.9357798,21.0275229 C22.1779817,21.0275229 22.3761468,20.8293578 22.3761468,20.587156 L22.3761468,17.9449541 C22.3761468,17.7027523 22.1779817,17.5045872 21.9357798,17.5045872 Z M19.293578,42.7155963 L6.96330275,42.7155963 L6.96330275,3.96330275 L37.7889908,3.96330275 L37.7889908,21.5779817 C37.7889908,21.8201835 37.987156,22.0183486 38.2293578,22.0183486 L41.3119266,22.0183486 C41.5541284,22.0183486 41.7522936,21.8201835 41.7522936,21.5779817 L41.7522936,1.76146789 C41.7522936,0.787155963 40.9651376,0 39.9908257,0 L4.76146789,0 C3.78715596,0 3,0.787155963 3,1.76146789 L3,44.9174312 C3,45.8917431 3.78715596,46.6788991 4.76146789,46.6788991 L19.293578,46.6788991 C19.5357798,46.6788991 19.733945,46.4807339 19.733945,46.2385321 L19.733945,43.1559633 C19.733945,42.9137615 19.5357798,42.7155963 19.293578,42.7155963 Z M43.5137615,37.8715596 L35.587156,37.8715596 L35.587156,35.8568807 C38.1357798,35.0972477 39.9908257,32.7412844 39.9908257,29.9449541 C39.9908257,26.5376147 37.2330275,23.7798165 33.8256881,23.7798165 C30.4183486,23.7798165 27.6605505,26.5376147 27.6605505,29.9449541 C27.6605505,32.7357798 29.5155963,35.0972477 32.0642202,35.8568807 L32.0642202,37.8715596 L24.1376147,37.8715596 C23.653211,37.8715596 23.2568807,38.2678899 23.2568807,38.7522936 L23.2568807,47.1192661 C23.2568807,47.6036697 23.653211,48 24.1376147,48 L43.5137615,48 C43.9981651,48 44.3944954,47.6036697 44.3944954,47.1192661 L44.3944954,38.7522936 C44.3944954,38.2678899 43.9981651,37.8715596 43.5137615,37.8715596 Z M31.0733945,29.9449541 C31.0733945,28.4256881 32.306422,27.1926606 33.8256881,27.1926606 C35.3449541,27.1926606 36.5779817,28.4256881 36.5779817,29.9449541 C36.5779817,31.4642202 35.3449541,32.6972477 33.8256881,32.6972477 C32.306422,32.6972477 31.0733945,31.4642202 31.0733945,29.9449541 Z M40.9816514,44.587156 L26.6697248,44.587156 L26.6697248,41.2844037 L40.9816514,41.2844037 L40.9816514,44.587156 Z" fill="#000000"></path>
</svg>
