<svg width="48" height="48" viewBox="0 0 48 48" fill="none" xmlns="http://www.w3.org/2000/svg">
  <rect width="48" height="48" fill="white" fill-opacity="0.01"/>
  <path d="M18.7071429,22.8642857 C18.6696429,22.7946429 18.6321429,22.7625 18.5892857,22.7571429 C18.4339286,22.9339286 18.4714286,24.4446429 18.7339286,25.5107143 C18.9482143,24.7821429 18.9857143,23.3410714 18.7071429,22.8642857 L18.7071429,22.8642857 Z M18.6214286,29.3196429 C18.2089286,30.3910714 17.6142857,31.8535714 16.9017857,33.1446429 C17.1160714,33.0589286 17.3357143,32.9678571 17.5607143,32.8767857 C18.5035714,32.4910714 19.5589286,32.0571429 20.7160714,31.7946429 C19.9178571,31.1625 19.1946429,30.3107143 18.6214286,29.3196429 L18.6214286,29.3196429 Z" fill="#2F88FF"></path>
  <path d="M20.0357143,15.4285714 L20.0357143,3.85714286 L3.85714286,3.85714286 L3.85714286,44.1428571 L33.8571429,44.1428571 L33.8571429,17.6785714 L22.2857143,17.6785714 C21.0430736,17.6785714 20.0357143,16.6712121 20.0357143,15.4285714 Z M22.9821429,30.8357143 C23.8446429,30.7339286 24.6214286,30.6857143 25.3553571,30.7125 C26.0410714,30.7339286 26.6196429,30.8196429 27.0696429,30.9857143 C27.0803571,30.9910714 27.0857143,30.9910714 27.0964286,30.9964286 C27.1178571,31.0071429 27.1392857,31.0125 27.1607143,31.0232143 C27.1875,31.0339286 27.2196429,31.0446429 27.2464286,31.0607143 C27.2517857,31.0660714 27.2625,31.0660714 27.2678571,31.0714286 C27.4875,31.1678571 27.6696429,31.2857143 27.8089286,31.425 C28.2964286,31.9125 28.4410714,32.8232143 28.1410714,33.5464286 C27.9696429,33.9589286 27.5142857,34.6446429 26.3571429,34.6446429 C25.1892857,34.6446429 23.4696429,34.125 21.9589286,33.3160714 C20.5928571,33.5464286 19.0821429,34.0607143 17.625,34.5535714 C17.3142857,34.6607143 16.9928571,34.7678571 16.6821429,34.8696429 C14.6464286,38.3625 13.1196429,39.1232143 12.1767857,39.1232143 C11.9517857,39.1232143 11.7589286,39.075 11.5982143,39.0160714 C11.2285714,38.8767857 10.9125,38.5875 10.7142857,38.2125 C10.6660714,38.1214286 10.6285714,38.0303571 10.5964286,37.9339286 C10.5107143,37.6767857 10.4839286,37.4196429 10.5267857,37.2053571 L10.5589286,37.0607143 C10.5642857,37.05 10.5642857,37.0392857 10.5696429,37.0285714 C10.5803571,36.9910714 10.5910714,36.9535714 10.6071429,36.9160714 C10.6071429,36.9107143 10.6125,36.9053571 10.6125,36.9 C10.8321429,36.2625 11.3410714,35.6464286 12.0964286,35.0464286 C12.7553571,34.5214286 13.5482143,34.0446429 14.5553571,33.525 C15.4071429,32.025 16.5696429,29.5017857 17.2982143,27.7714286 C16.7196429,25.5321429 16.4035714,23.775 16.7571429,22.4892857 C16.8053571,22.3125 16.8910714,22.1464286 17.0035714,22.0017857 C17.0142857,21.9910714 17.0196429,21.9803571 17.0303571,21.9696429 C17.0357143,21.9642857 17.0357143,21.9589286 17.0410714,21.9589286 C17.3785714,21.5571429 17.9464286,21.3214286 18.5464286,21.3428571 C19.4357143,21.3803571 20.1375,21.9589286 20.3142857,22.9553571 C20.4053571,23.3839286 20.4321429,23.8392857 20.4160714,24.3321429 L20.4160714,24.3696429 C20.4160714,24.3964286 20.4160714,24.4232143 20.4107143,24.45 C20.3732143,25.1625 20.25,25.875 20.0196429,26.8446429 C19.9982143,26.9303571 19.9767857,27.0160714 19.9553571,27.1232143 L19.9017857,27.3428571 L19.8964286,27.3589286 C19.9017857,27.3696429 19.9017857,27.375 19.9071429,27.3857143 L20.0035714,27.6267857 C20.0089286,27.6428571 20.0196429,27.6642857 20.025,27.6803571 C20.0625,27.7660714 20.1,27.8571429 20.1375,27.9375 L20.1375,27.9428571 C20.6035714,28.95 21.1928571,29.7321429 21.9535714,30.3589286 C22.1839286,30.5464286 22.4303571,30.7178571 22.6982143,30.8839286 C22.7946429,30.8571429 22.8857143,30.8464286 22.9821429,30.8357143 L22.9821429,30.8357143 Z" fill="#2F88FF"></path>
  <path d="M12.4017857,37.3392857 C12.7071429,37.1035714 13.2696429,36.5625 14.0142857,35.4803571 C13.4625,35.9839286 12.7607143,36.6803571 12.4017857,37.3392857 Z M26.9142857,32.8928571 L26.925,32.8767857 L26.9357143,32.8767857 C26.9678571,32.8553571 26.9625,32.8392857 26.9571429,32.8285714 C26.9517857,32.8232143 26.7160714,32.3303571 24.5410714,32.4321429 C26.4321429,33.1767857 26.8714286,32.9196429 26.9142857,32.8928571 L26.9142857,32.8928571 Z" fill="#2F88FF"></path>
  <path d="M37.2107143,12.0321429 L25.6821429,0.503571429 C25.3607143,0.182142857 24.9267857,0 24.4714286,0 L1.71428571,0 C0.766071429,0 0,0.766071429 0,1.71428571 L0,46.2857143 C0,47.2339286 0.766071429,48 1.71428571,48 L36,48 C36.9482143,48 37.7142857,47.2339286 37.7142857,46.2857143 L37.7142857,13.2482143 C37.7142857,12.7928571 37.5321429,12.3535714 37.2107143,12.0321429 Z M23.6785714,3.95357143 L33.7607143,14.0357143 L23.6785714,14.0357143 L23.6785714,3.95357143 Z M33.8571429,44.1428571 L3.85714286,44.1428571 L3.85714286,3.85714286 L20.0357143,3.85714286 L20.0357143,15.4285714 C20.0357143,16.6712121 21.0430736,17.6785714 22.2857143,17.6785714 L33.8571429,17.6785714 L33.8571429,44.1428571 Z" fill="#000"></path>
  <path d="M20.1375,27.9267857 C20.0946429,27.8357143 20.0571429,27.75 20.0196429,27.6642857 C20.0142857,27.6482143 20.0035714,27.6267857 19.9982143,27.6107143 L19.9017857,27.3696429 C19.8964286,27.3589286 19.8964286,27.3535714 19.8910714,27.3428571 L19.8964286,27.3267857 L19.9071429,27.2678571 C20.1214286,26.3946429 20.3678571,25.3767857 20.4107143,24.3535714 L20.4107143,24.3160714 C20.4267857,23.8553571 20.4,23.3946429 20.3035714,22.9446429 C20.1,21.8035714 19.2589286,21.3589286 18.5410714,21.3267857 C17.9357143,21.3 17.3732143,21.5410714 17.0357143,21.9375 C17.0303571,21.9428571 17.0303571,21.9482143 17.025,21.9482143 C17.0142857,21.9589286 17.0035714,21.9696429 16.9982143,21.9803571 C16.8857143,22.125 16.8,22.2910714 16.7517857,22.4678571 C16.3982143,23.7535714 16.7142857,25.5107143 17.2928571,27.75 C16.5642857,29.4857143 15.4017857,32.0035714 14.55,33.5035714 L14.55,33.5089286 C13.0660714,34.275 11.1160714,35.4267857 10.6071429,36.8785714 C10.6071429,36.8839286 10.6017857,36.8892857 10.6017857,36.8946429 C10.5910714,36.9321429 10.575,36.9696429 10.5642857,37.0071429 C10.5589286,37.0178571 10.5589286,37.0285714 10.5535714,37.0392857 C10.5428571,37.0875 10.5267857,37.1357143 10.5214286,37.1839286 C10.4732143,37.3982143 10.5,37.6553571 10.5910714,37.9125 C10.6232143,38.0089286 10.6607143,38.1 10.7089286,38.1910714 C10.9071429,38.5660714 11.2232143,38.8553571 11.5928571,38.9946429 C11.7535714,39.0535714 11.9464286,39.1017857 12.1714286,39.1017857 C13.1142857,39.1017857 14.6410714,38.3410714 16.6767857,34.8482143 C16.9875,34.7464286 17.3089286,34.6392857 17.6196429,34.5321429 C19.0767857,34.0392857 20.5875,33.525 21.9535714,33.2946429 C23.4642857,34.1035714 25.1839286,34.6232143 26.3517857,34.6232143 C27.5089286,34.6232143 27.9642857,33.9375 28.1357143,33.525 C28.4357143,32.8017857 28.2910714,31.8910714 27.8035714,31.4035714 C27.6642857,31.2642857 27.4821429,31.1464286 27.2625,31.05 C27.2571429,31.0446429 27.2464286,31.0446429 27.2410714,31.0392857 C27.2142857,31.0285714 27.1821429,31.0178571 27.1553571,31.0017857 C27.1339286,30.9910714 27.1125,30.9857143 27.0910714,30.975 C27.0803571,30.9696429 27.075,30.9696429 27.0642857,30.9642857 C26.1964286,30.6535714 24.8303571,30.6053571 22.9767857,30.8142857 L22.6928571,30.8464286 C22.425,30.6857143 22.1785714,30.5089286 21.9482143,30.3214286 C21.1875,29.7160714 20.6035714,28.9392857 20.1375,27.9267857 Z M12.4017857,37.3392857 C12.7607143,36.6803571 13.4625,35.9839286 14.0142857,35.4803571 C13.2696429,36.5625 12.7071429,37.1035714 12.4017857,37.3392857 Z M18.5892857,22.7571429 C18.6321429,22.7625 18.6696429,22.7946429 18.7071429,22.8642857 C18.9857143,23.3410714 18.9482143,24.7821429 18.7339286,25.5107143 C18.4714286,24.4446429 18.4339286,22.9339286 18.5892857,22.7571429 L18.5892857,22.7571429 Z M17.5607143,32.8767857 C17.3357143,32.9678571 17.1160714,33.0589286 16.9017857,33.1446429 C17.6142857,31.8535714 18.2089286,30.3910714 18.6214286,29.3196429 C19.1946429,30.3107143 19.9178571,31.1625 20.7160714,31.7946429 C19.5589286,32.0571429 18.5035714,32.4910714 17.5607143,32.8767857 L17.5607143,32.8767857 Z M26.9571429,32.8285714 C26.9625,32.8392857 26.9678571,32.8553571 26.9357143,32.8767857 L26.925,32.8767857 L26.9142857,32.8928571 C26.8714286,32.9196429 26.4321429,33.1767857 24.5410714,32.4321429 C26.7160714,32.3303571 26.9517857,32.8232143 26.9571429,32.8285714 L26.9571429,32.8285714 Z" fill="#000"></path>
</svg>
