<svg width="48" height="48" viewBox="0 0 48 48" fill="none" xmlns="http://www.w3.org/2000/svg">
  <rect width="48" height="48" fill="white" fill-opacity="0.01"/>
  <path d="M23.7071429,22.8642857 C23.6696429,22.7946429 23.6321429,22.7625 23.5892857,22.7571429 C23.4339286,22.9339286 23.4714286,24.4446429 23.7339286,25.5107143 C23.9482143,24.7821429 23.9857143,23.3410714 23.7071429,22.8642857 L23.7071429,22.8642857 Z M23.6214286,29.3196429 C23.2089286,30.3910714 22.6142857,31.8535714 21.9017857,33.1446429 C22.1160714,33.0589286 22.3357143,32.9678571 22.5607143,32.8767857 C23.5035714,32.4910714 24.5589286,32.0571429 25.7160714,31.7946429 C24.9178571,31.1625 24.1946429,30.3107143 23.6214286,29.3196429 L23.6214286,29.3196429 Z" fill="#2F88FF"></path>
  <path d="M25.0357143,15.4285714 L25.0357143,3.85714286 L8.85714286,3.85714286 L8.85714286,44.1428571 L38.8571429,44.1428571 L38.8571429,17.6785714 L27.2857143,17.6785714 C26.0430736,17.6785714 25.0357143,16.6712121 25.0357143,15.4285714 Z M27.9821429,30.8357143 C28.8446429,30.7339286 29.6214286,30.6857143 30.3553571,30.7125 C31.0410714,30.7339286 31.6196429,30.8196429 32.0696429,30.9857143 C32.0803571,30.9910714 32.0857143,30.9910714 32.0964286,30.9964286 C32.1178571,31.0071429 32.1392857,31.0125 32.1607143,31.0232143 C32.1875,31.0339286 32.2196429,31.0446429 32.2464286,31.0607143 C32.2517857,31.0660714 32.2625,31.0660714 32.2678571,31.0714286 C32.4875,31.1678571 32.6696429,31.2857143 32.8089286,31.425 C33.2964286,31.9125 33.4410714,32.8232143 33.1410714,33.5464286 C32.9696429,33.9589286 32.5142857,34.6446429 31.3571429,34.6446429 C30.1892857,34.6446429 28.4696429,34.125 26.9589286,33.3160714 C25.5928571,33.5464286 24.0821429,34.0607143 22.625,34.5535714 C22.3142857,34.6607143 21.9928571,34.7678571 21.6821429,34.8696429 C19.6464286,38.3625 18.1196429,39.1232143 17.1767857,39.1232143 C16.9517857,39.1232143 16.7589286,39.075 16.5982143,39.0160714 C16.2285714,38.8767857 15.9125,38.5875 15.7142857,38.2125 C15.6660714,38.1214286 15.6285714,38.0303571 15.5964286,37.9339286 C15.5107143,37.6767857 15.4839286,37.4196429 15.5267857,37.2053571 L15.5589286,37.0607143 C15.5642857,37.05 15.5642857,37.0392857 15.5696429,37.0285714 C15.5803571,36.9910714 15.5910714,36.9535714 15.6071429,36.9160714 C15.6071429,36.9107143 15.6125,36.9053571 15.6125,36.9 C15.8321429,36.2625 16.3410714,35.6464286 17.0964286,35.0464286 C17.7553571,34.5214286 18.5482143,34.0446429 19.5553571,33.525 C20.4071429,32.025 21.5696429,29.5017857 22.2982143,27.7714286 C21.7196429,25.5321429 21.4035714,23.775 21.7571429,22.4892857 C21.8053571,22.3125 21.8910714,22.1464286 22.0035714,22.0017857 C22.0142857,21.9910714 22.0196429,21.9803571 22.0303571,21.9696429 C22.0357143,21.9642857 22.0357143,21.9589286 22.0410714,21.9589286 C22.3785714,21.5571429 22.9464286,21.3214286 23.5464286,21.3428571 C24.4357143,21.3803571 25.1375,21.9589286 25.3142857,22.9553571 C25.4053571,23.3839286 25.4321429,23.8392857 25.4160714,24.3321429 L25.4160714,24.3696429 C25.4160714,24.3964286 25.4160714,24.4232143 25.4107143,24.45 C25.3732143,25.1625 25.25,25.875 25.0196429,26.8446429 C24.9982143,26.9303571 24.9767857,27.0160714 24.9553571,27.1232143 L24.9017857,27.3428571 L24.8964286,27.3589286 C24.9017857,27.3696429 24.9017857,27.375 24.9071429,27.3857143 L25.0035714,27.6267857 C25.0089286,27.6428571 25.0196429,27.6642857 25.025,27.6803571 C25.0625,27.7660714 25.1,27.8571429 25.1375,27.9375 L25.1375,27.9428571 C25.6035714,28.95 26.1928571,29.7321429 26.9535714,30.3589286 C27.1839286,30.5464286 27.4303571,30.7178571 27.6982143,30.8839286 C27.7946429,30.8571429 27.8857143,30.8464286 27.9821429,30.8357143 L27.9821429,30.8357143 Z" fill="#2F88FF"></path>
  <path d="M17.4017857,37.3392857 C17.7071429,37.1035714 18.2696429,36.5625 19.0142857,35.4803571 C18.4625,35.9839286 17.7607143,36.6803571 17.4017857,37.3392857 Z M31.9142857,32.8928571 L31.925,32.8767857 L31.9357143,32.8767857 C31.9678571,32.8553571 31.9625,32.8392857 31.9571429,32.8285714 C31.9517857,32.8232143 31.7160714,32.3303571 29.5410714,32.4321429 C31.4321429,33.1767857 31.8714286,32.9196429 31.9142857,32.8928571 L31.9142857,32.8928571 Z" fill="#2F88FF"></path>
  <path d="M42.2107143,12.0321429 L30.6821429,0.503571429 C30.3607143,0.182142857 29.9267857,0 29.4714286,0 L6.71428571,0 C5.76607143,0 5,0.766071429 5,1.71428571 L5,46.2857143 C5,47.2339286 5.76607143,48 6.71428571,48 L41,48 C41.9482143,48 42.7142857,47.2339286 42.7142857,46.2857143 L42.7142857,13.2482143 C42.7142857,12.7928571 42.5321429,12.3535714 42.2107143,12.0321429 Z M28.6785714,3.95357143 L38.7607143,14.0357143 L28.6785714,14.0357143 L28.6785714,3.95357143 Z M38.8571429,44.1428571 L8.85714286,44.1428571 L8.85714286,3.85714286 L25.0357143,3.85714286 L25.0357143,15.4285714 C25.0357143,16.6712121 26.0430736,17.6785714 27.2857143,17.6785714 L38.8571429,17.6785714 L38.8571429,44.1428571 Z" fill="#000000"></path>
  <path d="M25.1375,27.9267857 C25.0946429,27.8357143 25.0571429,27.75 25.0196429,27.6642857 C25.0142857,27.6482143 25.0035714,27.6267857 24.9982143,27.6107143 L24.9017857,27.3696429 C24.8964286,27.3589286 24.8964286,27.3535714 24.8910714,27.3428571 L24.8964286,27.3267857 L24.9071429,27.2678571 C25.1214286,26.3946429 25.3678571,25.3767857 25.4107143,24.3535714 L25.4107143,24.3160714 C25.4267857,23.8553571 25.4,23.3946429 25.3035714,22.9446429 C25.1,21.8035714 24.2589286,21.3589286 23.5410714,21.3267857 C22.9357143,21.3 22.3732143,21.5410714 22.0357143,21.9375 C22.0303571,21.9428571 22.0303571,21.9482143 22.025,21.9482143 C22.0142857,21.9589286 22.0035714,21.9696429 21.9982143,21.9803571 C21.8857143,22.125 21.8,22.2910714 21.7517857,22.4678571 C21.3982143,23.7535714 21.7142857,25.5107143 22.2928571,27.75 C21.5642857,29.4857143 20.4017857,32.0035714 19.55,33.5035714 L19.55,33.5089286 C18.0660714,34.275 16.1160714,35.4267857 15.6071429,36.8785714 C15.6071429,36.8839286 15.6017857,36.8892857 15.6017857,36.8946429 C15.5910714,36.9321429 15.575,36.9696429 15.5642857,37.0071429 C15.5589286,37.0178571 15.5589286,37.0285714 15.5535714,37.0392857 C15.5428571,37.0875 15.5267857,37.1357143 15.5214286,37.1839286 C15.4732143,37.3982143 15.5,37.6553571 15.5910714,37.9125 C15.6232143,38.0089286 15.6607143,38.1 15.7089286,38.1910714 C15.9071429,38.5660714 16.2232143,38.8553571 16.5928571,38.9946429 C16.7535714,39.0535714 16.9464286,39.1017857 17.1714286,39.1017857 C18.1142857,39.1017857 19.6410714,38.3410714 21.6767857,34.8482143 C21.9875,34.7464286 22.3089286,34.6392857 22.6196429,34.5321429 C24.0767857,34.0392857 25.5875,33.525 26.9535714,33.2946429 C28.4642857,34.1035714 30.1839286,34.6232143 31.3517857,34.6232143 C32.5089286,34.6232143 32.9642857,33.9375 33.1357143,33.525 C33.4357143,32.8017857 33.2910714,31.8910714 32.8035714,31.4035714 C32.6642857,31.2642857 32.4821429,31.1464286 32.2625,31.05 C32.2571429,31.0446429 32.2464286,31.0446429 32.2410714,31.0392857 C32.2142857,31.0285714 32.1821429,31.0178571 32.1553571,31.0017857 C32.1339286,30.9910714 32.1125,30.9857143 32.0910714,30.975 C32.0803571,30.9696429 32.075,30.9696429 32.0642857,30.9642857 C31.1964286,30.6535714 29.8303571,30.6053571 27.9767857,30.8142857 L27.6928571,30.8464286 C27.425,30.6857143 27.1785714,30.5089286 26.9482143,30.3214286 C26.1875,29.7160714 25.6035714,28.9392857 25.1375,27.9267857 Z M17.4017857,37.3392857 C17.7607143,36.6803571 18.4625,35.9839286 19.0142857,35.4803571 C18.2696429,36.5625 17.7071429,37.1035714 17.4017857,37.3392857 Z M23.5892857,22.7571429 C23.6321429,22.7625 23.6696429,22.7946429 23.7071429,22.8642857 C23.9857143,23.3410714 23.9482143,24.7821429 23.7339286,25.5107143 C23.4714286,24.4446429 23.4339286,22.9339286 23.5892857,22.7571429 L23.5892857,22.7571429 Z M22.5607143,32.8767857 C22.3357143,32.9678571 22.1160714,33.0589286 21.9017857,33.1446429 C22.6142857,31.8535714 23.2089286,30.3910714 23.6214286,29.3196429 C24.1946429,30.3107143 24.9178571,31.1625 25.7160714,31.7946429 C24.5589286,32.0571429 23.5035714,32.4910714 22.5607143,32.8767857 L22.5607143,32.8767857 Z M31.9571429,32.8285714 C31.9625,32.8392857 31.9678571,32.8553571 31.9357143,32.8767857 L31.925,32.8767857 L31.9142857,32.8928571 C31.8714286,32.9196429 31.4321429,33.1767857 29.5410714,32.4321429 C31.7160714,32.3303571 31.9517857,32.8232143 31.9571429,32.8285714 L31.9571429,32.8285714 Z" fill="#FFFFFF"></path>
</svg>
