<svg width="48" height="48" viewBox="0 0 48 48" fill="none" xmlns="http://www.w3.org/2000/svg">
  <rect width="48" height="48" fill="white" fill-opacity="0.01"/>
  <path d="M47.9650063,46.2732234 L44.7365799,27.6579949 L45.8269353,27.6579949 C46.7040926,27.6579949 47.4106916,26.9513959 47.4106916,26.0742386 L47.4106916,14.3788071 C47.4106916,13.5016497 46.7040926,12.7950508 45.8269353,12.7950508 L30.8421637,12.7950508 L30.8421637,1.70875635 C30.8421637,0.831598985 30.1355647,0.125 29.2584074,0.125 L19.5122145,0.125 C18.6350571,0.125 17.9284581,0.831598985 17.9284581,1.70875635 L17.9284581,12.7950508 L2.94368655,12.7950508 C2.06652919,12.7950508 1.3599302,13.5016497 1.3599302,14.3788071 L1.3599302,26.0742386 C1.3599302,26.9513959 2.06652919,27.6579949 2.94368655,27.6579949 L4.03404188,27.6579949 L0.805615482,46.2732234 C0.787341371,46.3645939 0.78125,46.4559645 0.78125,46.5412437 C0.78125,47.418401 1.48784898,48.125 2.36500635,48.125 L46.4056155,48.125 C46.496986,48.125 46.5883566,48.1189086 46.6736358,48.1006345 C47.5386104,47.9544416 48.1172906,47.1321066 47.9650063,46.2732234 Z M5.62388959,17.0590102 L22.1924175,17.0590102 L22.1924175,4.38895939 L26.5782043,4.38895939 L26.5782043,17.0590102 L43.1467322,17.0590102 L43.1467322,23.3940355 L5.62388959,23.3940355 L5.62388959,17.0590102 Z M34.1315038,43.8610406 L34.1315038,34.3585025 C34.1315038,34.0904822 33.9122145,33.8711929 33.6441942,33.8711929 L30.7203363,33.8711929 C30.452316,33.8711929 30.2330266,34.0904822 30.2330266,34.3585025 L30.2330266,43.8610406 L18.5375952,43.8610406 L18.5375952,34.3585025 C18.5375952,34.0904822 18.3183058,33.8711929 18.0502855,33.8711929 L15.1264277,33.8711929 C14.8584074,33.8711929 14.639118,34.0904822 14.639118,34.3585025 L14.639118,43.8610406 L5.55079315,43.8610406 L8.29800127,28.0234772 L40.4665292,28.0234772 L43.2137373,43.8610406 L34.1315038,43.8610406 Z" fill="#000"></path>
</svg>
