<svg width="48" height="48" viewBox="0 0 48 48" fill="none" xmlns="http://www.w3.org/2000/svg">
  <rect width="48" height="48" fill="white" fill-opacity="0.01"/>
  <path d="M47.6431432,24.2316224 L1.41317578,1.05308284 C1.22527155,0.959130729 1.00973434,0.937024348 0.805250323,0.986763704 C0.335489745,1.1028222 0.042580208,1.57810937 0.158638704,2.05339655 L4.92256362,21.5180643 C4.99440936,21.8109738 5.20994657,22.0486174 5.49732951,22.1425695 L13.6601104,24.9445532 L5.5028561,27.7465369 C5.21547316,27.8460156 4.99993595,28.0781326 4.93361681,28.3710421 L0.158638704,47.8633428 C0.108899348,48.0678268 0.131005729,48.283364 0.224957844,48.4657416 C0.44049505,48.9023427 0.971048174,49.0791937 1.41317578,48.8636565 L47.6431432,25.8177552 C47.8144677,25.7348563 47.9526326,25.5911648 48.0410581,25.4253669 C48.2565953,24.9832393 48.0797442,24.4526862 47.6431432,24.2316224 Z M5.60786141,42.3256946 L8.38773871,30.9630152 L24.7022473,25.3645744 C24.8293589,25.3203616 24.9343642,25.2208829 24.978577,25.0882446 C25.0559493,24.8561277 24.9343642,24.6074309 24.7022473,24.524532 L8.38773871,18.9316178 L5.6189146,7.61315115 L40.3259314,25.0163989 L5.60786141,42.3256946 Z" fill="#000"></path>
</svg>
