<svg width="48" height="48" viewBox="0 0 48 48" fill="none" xmlns="http://www.w3.org/2000/svg">
  <rect width="48" height="48" fill="white" fill-opacity="0.01"/>
  <path d="M25.1594203,16.2318841 L42.4347826,16.2318841 L42.4347826,22.2608696 L25.1594203,22.2608696 L25.1594203,16.2318841 Z M6.72463768,26.2028986 L21.2173913,26.2028986 L21.2173913,44.057971 L6.72463768,44.057971 L6.72463768,26.2028986 Z M3.94202899,16.2318841 L21.2173913,16.2318841 L21.2173913,22.2608696 L3.94202899,22.2608696 L3.94202899,16.2318841 Z M25.1594203,26.2028986 L39.6521739,26.2028986 L39.6521739,44.057971 L25.1594203,44.057971 L25.1594203,26.2028986 Z" fill="#2F88FF"></path>
  <path d="M44.5217391,12.2898551 L35.9652174,12.2898551 C36.7536232,11.0492754 37.2173913,9.57681159 37.2173913,8 C37.2173913,3.5884058 33.6289855,0 29.2173913,0 C26.8173913,0 24.6550725,1.06666667 23.1884058,2.74782609 C21.7217391,1.06666667 19.5594203,0 17.1594203,0 C12.7478261,0 9.15942029,3.5884058 9.15942029,8 C9.15942029,9.57681159 9.6173913,11.0492754 10.4115942,12.2898551 L1.85507246,12.2898551 C0.828985507,12.2898551 0,13.1188406 0,14.1449275 L0,25.7391304 C0,25.9942029 0.208695652,26.2028986 0.463768116,26.2028986 L2.7826087,26.2028986 L2.7826087,46.1449275 C2.7826087,47.1710145 3.6115942,48 4.63768116,48 L41.7391304,48 C42.7652174,48 43.5942029,47.1710145 43.5942029,46.1449275 L43.5942029,26.2028986 L45.9130435,26.2028986 C46.1681159,26.2028986 46.3768116,25.9942029 46.3768116,25.7391304 L46.3768116,14.1449275 C46.3768116,13.1188406 45.5478261,12.2898551 44.5217391,12.2898551 Z M21.2173913,44.057971 L6.72463768,44.057971 L6.72463768,26.2028986 L21.2173913,26.2028986 L21.2173913,44.057971 Z M21.2173913,22.2608696 L3.94202899,22.2608696 L3.94202899,16.2318841 L21.2173913,16.2318841 L21.2173913,22.2608696 Z M21.2173913,12.057971 L17.1594203,12.057971 C14.9217391,12.057971 13.1014493,10.2376812 13.1014493,8 C13.1014493,5.76231884 14.9217391,3.94202899 17.1594203,3.94202899 C19.3971014,3.94202899 21.2173913,5.76231884 21.2173913,8 L21.2173913,12.057971 Z M25.1594203,8 C25.1594203,5.76231884 26.9797101,3.94202899 29.2173913,3.94202899 C31.4550725,3.94202899 33.2753623,5.76231884 33.2753623,8 C33.2753623,10.2376812 31.4550725,12.057971 29.2173913,12.057971 L25.1594203,12.057971 L25.1594203,8 Z M39.6521739,44.057971 L25.1594203,44.057971 L25.1594203,26.2028986 L39.6521739,26.2028986 L39.6521739,44.057971 Z M42.4347826,22.2608696 L25.1594203,22.2608696 L25.1594203,16.2318841 L42.4347826,16.2318841 L42.4347826,22.2608696 Z" fill="#000"></path>
</svg>
