<svg width="48" height="48" viewBox="0 0 48 48" fill="none" xmlns="http://www.w3.org/2000/svg">
  <rect width="48" height="48" fill="white" fill-opacity="0.01"/>
  <path d="M32.4669573,31.9150262 C32.3829678,31.8430352 32.2749813,31.8010405 32.1609955,31.8010405 L28.8794057,31.8010405 C28.7354237,31.8010405 28.6034402,31.8670322 28.5134514,31.9750187 L24.1220004,37.2423603 L19.7365486,31.9750187 C19.6465598,31.8670322 19.5085771,31.8010405 19.3705943,31.8010405 L16.0830052,31.8010405 C15.9690195,31.8010405 15.861033,31.8430352 15.7770435,31.9150262 C15.573069,32.0830052 15.5430727,32.388967 15.717051,32.5929415 L21.8542838,39.9600206 L15.7110517,47.333099 C15.5430727,47.5370735 15.5670697,47.837036 15.7710442,48.0110142 C15.8550337,48.0830052 15.9630202,48.125 16.077006,48.125 L19.3585958,48.125 C19.5025778,48.125 19.6345613,48.0590082 19.7245501,47.9510217 L24.1100019,42.6836802 L28.4954537,47.9510217 C28.5854424,48.0590082 28.7234252,48.125 28.8614079,48.125 L32.1609955,48.125 C32.2749813,48.125 32.3829678,48.0830052 32.4669573,48.0110142 C32.6709318,47.8430352 32.700928,47.5370735 32.5269498,47.333099 L26.3897169,39.9600206 L32.532949,32.5869423 C32.700928,32.3829678 32.6709318,32.0830052 32.4669573,31.9150262 L32.4669573,31.9150262 Z M21.7223003,26.0417604 L26.5217004,26.0417604 C26.7856674,26.0417604 27.0016404,25.8257874 27.0016404,25.5618204 L27.0016404,0.604940007 C27.0016404,0.340973003 26.7856674,0.125 26.5217004,0.125 L21.7223003,0.125 C21.4583333,0.125 21.2423603,0.340973003 21.2423603,0.604940007 L21.2423603,25.5618204 C21.2423603,25.8257874 21.4583333,26.0417604 21.7223003,26.0417604 Z M14.4032152,16.5629453 L4.44446007,16.5629453 L4.44446007,1.56482002 C4.44446007,1.36684477 4.28248031,1.20486502 4.08450506,1.20486502 L0.484955006,1.20486502 C0.286979753,1.20486502 0.125,1.36684477 0.125,1.56482002 L0.125,19.0826303 C0.125,20.0785058 0.928899513,20.8824053 1.92477503,20.8824053 L14.4032152,20.8824053 C14.6011905,20.8824053 14.7631702,20.7204256 14.7631702,20.5224503 L14.7631702,16.9229003 C14.7631702,16.724925 14.6011905,16.5629453 14.4032152,16.5629453 Z M47.7590457,1.20486502 L44.1594957,1.20486502 C43.9615204,1.20486502 43.7995407,1.36684477 43.7995407,1.56482002 L43.7995407,16.5629453 L33.8407855,16.5629453 C33.6428103,16.5629453 33.4808305,16.724925 33.4808305,16.9229003 L33.4808305,20.5224503 C33.4808305,20.7204256 33.6428103,20.8824053 33.8407855,20.8824053 L46.3192257,20.8824053 C47.3151012,20.8824053 48.1190007,20.0785058 48.1190007,19.0826303 L48.1190007,1.56482002 C48.1190007,1.36684477 47.957021,1.20486502 47.7590457,1.20486502 Z" fill="#000"></path>
</svg>
