<svg width="48" height="48" viewBox="0 0 48 48" fill="none" xmlns="http://www.w3.org/2000/svg">
  <rect width="48" height="48" fill="white" fill-opacity="0.01"/>
  <path fill="#000" d="M24.0026813,0 C10.7411462,-0.00536052126 0,10.7304232 0,23.9812332 C0,34.4596155 6.71924925,43.3667767 16.0768629,46.6379196 C17.3370573,46.9543088 17.1440063,46.0587664 17.1440063,45.447438 L17.1440063,41.2914778 C9.86705396,42.14412 9.57211485,37.3285686 9.08412468,36.5241892 C8.09741928,34.840355 5.76471903,34.4113527 6.46184784,33.6069733 C8.1188694,32.7543311 9.80806614,33.8214745 11.7653893,36.7118778 C13.1810971,38.8086267 15.9427997,38.4546998 17.3424198,38.1061354 C17.648084,36.845941 18.3023126,35.7198099 19.2032175,34.8457176 C11.6635013,33.4943602 8.5210591,28.89331 8.5210591,23.4235301 C8.5210591,20.7690781 9.39515138,18.3291272 11.1111608,16.361079 C10.0172048,13.1167487 11.2130488,10.3389585 11.3739247,9.92604379 C14.4895542,9.64719227 17.728522,12.156856 17.9805608,12.3552696 C19.7501955,11.8780045 21.7718691,11.6259656 24.0348564,11.6259656 C26.3085689,11.6259656 28.335605,11.8887295 30.1213272,12.3713572 C30.727293,11.9101796 33.7303095,9.75444285 36.6260753,10.0172068 C36.7815886,10.4301215 37.95062,13.1435614 36.9210144,16.3449914 C38.6584739,18.3184022 39.5432913,20.7798031 39.5432913,23.4396177 C39.5432913,28.9201227 36.3793989,33.5265354 28.8182326,34.8564426 C30.1264876,36.1430242 30.8627094,37.9014543 30.8613563,39.7363443 L30.8613563,45.7691898 C30.9042565,46.2518174 30.8613563,46.7290826 31.6657357,46.7290826 C41.1627751,43.5276525 48,34.556141 48,23.9865957 C48,10.7304232 37.2534912,0 24.0026813,0 Z"></path>
</svg>
