<svg width="48" height="48" viewBox="0 0 48 48" fill="none" xmlns="http://www.w3.org/2000/svg">
  <rect width="48" height="48" fill="white" fill-opacity="0.01"/>
  <path d="M21.2303571,24.6071429 C21.2303571,26.1456504 22.4703685,27.3928571 24,27.3928571 C25.5296315,27.3928571 26.7696429,26.1456504 26.7696429,24.6071429 C26.7696429,23.611903 26.241752,22.6922634 25.3848215,22.1946434 C24.527891,21.6970235 23.472109,21.6970235 22.6151785,22.1946434 C21.758248,22.6922634 21.2303571,23.611903 21.2303571,24.6071429 L21.2303571,24.6071429 Z" fill="#2F88FF"></path>
  <path d="M37.7142857,15.2857143 C37.7142857,15.5214286 37.5214286,15.7142857 37.2857143,15.7142857 L34.2857143,15.7142857 C34.05,15.7142857 33.8571429,15.5214286 33.8571429,15.2857143 L33.8571429,12.2857143 L25.9285714,12.2857143 L25.9285714,15.2857143 C25.9285714,15.5214286 25.7357143,15.7142857 25.5,15.7142857 L22.5,15.7142857 C22.2642857,15.7142857 22.0714286,15.5214286 22.0714286,15.2857143 L22.0714286,12.2857143 L14.1428571,12.2857143 L14.1428571,15.2857143 C14.1428571,15.5214286 13.95,15.7142857 13.7142857,15.7142857 L10.7142857,15.7142857 C10.4785714,15.7142857 10.2857143,15.5214286 10.2857143,15.2857143 L10.2857143,12.2857143 L3.85714286,12.2857143 L3.85714286,38.8571429 L44.1428571,38.8571429 L44.1428571,12.2857143 L37.7142857,12.2857143 L37.7142857,15.2857143 Z M31.9821429,35.8571432 L29.6357143,35.8571432 C29.4107143,35.8571432 29.2285714,35.6803571 29.2125,35.4553571 C29.0089286,32.75 26.7482143,30.6071429 24.0053571,30.6071429 C21.2625,30.6071429 19.0017857,32.7446429 18.7982143,35.4553571 C18.7821429,35.6803571 18.6,35.8571432 18.375,35.8571432 L16.0232143,35.8571432 C15.905738,35.8571432 15.7933516,35.8092073 15.7123334,35.7241383 C15.6313152,35.6390692 15.5887689,35.5244723 15.5946429,35.4071429 C15.7446429,32.5517857 17.3035714,30.0714286 19.5910714,28.6517857 C18.6214286,27.5803571 18.0321429,26.1660714 18.0321429,24.6071429 C18.0321429,21.2910714 20.7053571,18.6071429 24,18.6071429 C27.2946429,18.6071429 29.9678571,21.2910714 29.9678571,24.6071429 C29.9678571,26.1660714 29.3785714,27.5857143 28.4089286,28.6517857 C30.6964286,30.0660714 32.2607143,32.5517857 32.4107143,35.4071429 C32.4165882,35.5244723 32.3740419,35.6390692 32.2930238,35.7241383 C32.2120056,35.8092073 32.0996191,35.8571432 31.9821429,35.8571432 L31.9821429,35.8571432 Z" fill="#2F88FF"></path>
  <path d="M28.4089286,28.6517857 C29.4153342,27.5454968 29.971429,26.1027079 29.9678571,24.6071429 C29.9678571,21.2910714 27.2946429,18.6071429 24,18.6071429 C20.7053571,18.6071429 18.0321429,21.2910714 18.0321429,24.6071429 C18.0321429,26.1660714 18.6214286,27.5803571 19.5910714,28.6517857 C17.2329027,30.1131 15.7399488,32.6367123 15.5946429,35.4071429 C15.5887689,35.5244723 15.6313152,35.6390692 15.7123334,35.7241383 C15.7933516,35.8092073 15.905738,35.8571432 16.0232143,35.8571432 L18.375,35.8571432 C18.6,35.8571432 18.7821429,35.6803571 18.7982143,35.4553571 C19.0017857,32.7446429 21.2625,30.6071429 24.0053571,30.6071429 C26.7482143,30.6071429 29.0089286,32.75 29.2125,35.4553571 C29.2285714,35.6803571 29.4107143,35.8571432 29.6357143,35.8571432 L31.9821429,35.8571432 C32.0996191,35.8571432 32.2120056,35.8092073 32.2930238,35.7241383 C32.3740419,35.6390692 32.4165882,35.5244723 32.4107143,35.4071429 C32.2607143,32.5517857 30.6964286,30.0660714 28.4089286,28.6517857 L28.4089286,28.6517857 Z M24,27.3928571 C22.4732143,27.3928571 21.2303571,26.1446429 21.2303571,24.6071429 C21.2303571,23.0696429 22.4732143,21.8214286 24,21.8214286 C25.5267857,21.8214286 26.7696429,23.0696429 26.7696429,24.6071429 C26.7696429,26.1446429 25.5267857,27.3928571 24,27.3928571 Z" fill="#FFFFFF"></path>
  <path d="M46.2857143,8.42857143 L37.7142857,8.42857143 L37.7142857,5.42857143 C37.7142857,5.19285714 37.5214286,5 37.2857143,5 L34.2857143,5 C34.05,5 33.8571429,5.19285714 33.8571429,5.42857143 L33.8571429,8.42857143 L25.9285714,8.42857143 L25.9285714,5.42857143 C25.9285714,5.19285714 25.7357143,5 25.5,5 L22.5,5 C22.2642857,5 22.0714286,5.19285714 22.0714286,5.42857143 L22.0714286,8.42857143 L14.1428571,8.42857143 L14.1428571,5.42857143 C14.1428571,5.19285714 13.95,5 13.7142857,5 L10.7142857,5 C10.4785714,5 10.2857143,5.19285714 10.2857143,5.42857143 L10.2857143,8.42857143 L1.71428571,8.42857143 C0.766071429,8.42857143 0,9.19464286 0,10.1428571 L0,41 C0,41.9482143 0.766071429,42.7142857 1.71428571,42.7142857 L46.2857143,42.7142857 C47.2339286,42.7142857 48,41.9482143 48,41 L48,10.1428571 C48,9.19464286 47.2339286,8.42857143 46.2857143,8.42857143 Z M44.1428571,38.8571429 L3.85714286,38.8571429 L3.85714286,12.2857143 L10.2857143,12.2857143 L10.2857143,15.2857143 C10.2857143,15.5214286 10.4785714,15.7142857 10.7142857,15.7142857 L13.7142857,15.7142857 C13.95,15.7142857 14.1428571,15.5214286 14.1428571,15.2857143 L14.1428571,12.2857143 L22.0714286,12.2857143 L22.0714286,15.2857143 C22.0714286,15.5214286 22.2642857,15.7142857 22.5,15.7142857 L25.5,15.7142857 C25.7357143,15.7142857 25.9285714,15.5214286 25.9285714,15.2857143 L25.9285714,12.2857143 L33.8571429,12.2857143 L33.8571429,15.2857143 C33.8571429,15.5214286 34.05,15.7142857 34.2857143,15.7142857 L37.2857143,15.7142857 C37.5214286,15.7142857 37.7142857,15.5214286 37.7142857,15.2857143 L37.7142857,12.2857143 L44.1428571,12.2857143 L44.1428571,38.8571429 Z" fill="#000000"></path>
</svg>
