<svg width="48" height="48" viewBox="0 0 48 48" fill="none" xmlns="http://www.w3.org/2000/svg">
  <rect width="48" height="48" fill="white" fill-opacity="0.01"/>
  <path d="M46.2857143,0 L1.71428571,0 C0.766071429,0 0,0.766071429 0,1.71428571 L0,36 C0,36.9482143 0.766071429,37.7142857 1.71428571,37.7142857 L46.2857143,37.7142857 C47.2339286,37.7142857 48,36.9482143 48,36 L48,1.71428571 C48,0.766071429 47.2339286,0 46.2857143,0 Z M44.1428571,33.8571429 L3.85714286,33.8571429 L3.85714286,3.85714286 L44.1428571,3.85714286 L44.1428571,33.8571429 Z" fill="#000"></path>
  <path d="M3.85714286,33.8571429 L44.1428571,33.8571429 L44.1428571,3.85714286 L3.85714286,3.85714286 L3.85714286,33.8571429 Z M6.87857143,26.8660714 L18.3910714,15.3482143 C18.5571429,15.1821429 18.8303571,15.1821429 18.9964286,15.3482143 L25.125,21.4821429 L38.7589286,7.84285714 C38.925,7.67678571 39.1982143,7.67678571 39.3642857,7.84285714 L41.3357143,9.81428571 C41.5017857,9.98035714 41.5017857,10.2535714 41.3357143,10.4196429 L25.425,26.3410714 C25.2573546,26.5070717 24.9872883,26.5070717 24.8196429,26.3410714 L18.6910714,20.2071429 L9.45,29.4482143 C9.28235456,29.6142145 9.0122883,29.6142145 8.84464286,29.4482143 L6.87857143,27.4714286 C6.7125712,27.3037831 6.7125712,27.0337169 6.87857143,26.8660714 L6.87857143,26.8660714 Z" fill="#2F88FF"></path>
  <path d="M8.84464286,29.4482143 C9.01071429,29.6142857 9.28392857,29.6142857 9.45,29.4482143 L18.6910714,20.2071429 L24.8196429,26.3410714 C24.9857143,26.5071429 25.2589286,26.5071429 25.425,26.3410714 L41.3357143,10.4196429 C41.5017857,10.2535714 41.5017857,9.98035714 41.3357143,9.81428571 L39.3642857,7.84285714 C39.1966403,7.67685692 38.926574,7.67685692 38.7589286,7.84285714 L25.125,21.4821429 L18.9964286,15.3482143 C18.8287831,15.1822141 18.5587169,15.1822141 18.3910714,15.3482143 L6.87857143,26.8660714 C6.7125712,27.0337169 6.7125712,27.3037831 6.87857143,27.4714286 L8.84464286,29.4482143 L8.84464286,29.4482143 Z" fill="#FFF"></path>
</svg>
