<svg width="48" height="48" viewBox="0 0 48 48" fill="none" xmlns="http://www.w3.org/2000/svg">
  <rect width="48" height="48" fill="white" fill-opacity="0.01"/>
  <path d="M25.0357143,15.4285714 L25.0357143,3.85714286 L8.85714286,3.85714286 L8.85714286,44.1428571 L38.8571429,44.1428571 L38.8571429,17.6785714 L27.2857143,17.6785714 C26.0430736,17.6785714 25.0357143,16.6712121 25.0357143,15.4285714 Z M23.8571429,32.6785714 C23.8571429,32.9142857 23.6642857,33.1071429 23.4285714,33.1071429 L13.5714286,33.1071429 C13.3357143,33.1071429 13.1428571,32.9142857 13.1428571,32.6785714 L13.1428571,30.1071429 C13.1428571,29.8714286 13.3357143,29.6785714 13.5714286,29.6785714 L23.4285714,29.6785714 C23.6642857,29.6785714 23.8571429,29.8714286 23.8571429,30.1071429 L23.8571429,32.6785714 Z M34.5714286,22.8214286 L34.5714286,25.3928571 C34.5714286,25.6285714 34.3785714,25.8214286 34.1428571,25.8214286 L13.5714286,25.8214286 C13.3357143,25.8214286 13.1428571,25.6285714 13.1428571,25.3928571 L13.1428571,22.8214286 C13.1428571,22.5857143 13.3357143,22.3928571 13.5714286,22.3928571 L34.1428571,22.3928571 C34.3785714,22.3928571 34.5714286,22.5857143 34.5714286,22.8214286 Z" fill="#2F88FF"></path>
  <path d="M42.2107143,12.0321429 L30.6821429,0.503571429 C30.3607143,0.182142857 29.9267857,0 29.4714286,0 L6.71428571,0 C5.76607143,0 5,0.766071429 5,1.71428571 L5,46.2857143 C5,47.2339286 5.76607143,48 6.71428571,48 L41,48 C41.9482143,48 42.7142857,47.2339286 42.7142857,46.2857143 L42.7142857,13.2482143 C42.7142857,12.7928571 42.5321429,12.3535714 42.2107143,12.0321429 Z M28.6785714,3.95357143 L38.7607143,14.0357143 L28.6785714,14.0357143 L28.6785714,3.95357143 Z M38.8571429,44.1428571 L8.85714286,44.1428571 L8.85714286,3.85714286 L25.0357143,3.85714286 L25.0357143,15.4285714 C25.0357143,16.6712121 26.0430736,17.6785714 27.2857143,17.6785714 L38.8571429,17.6785714 L38.8571429,44.1428571 Z" fill="#000000"></path>
  <path d="M13.1428571,22.8214286 L13.1428571,25.3928571 C13.1428571,25.6285714 13.3357143,25.8214286 13.5714286,25.8214286 L34.1428571,25.8214286 C34.3785714,25.8214286 34.5714286,25.6285714 34.5714286,25.3928571 L34.5714286,22.8214286 C34.5714286,22.5857143 34.3785714,22.3928571 34.1428571,22.3928571 L13.5714286,22.3928571 C13.3357143,22.3928571 13.1428571,22.5857143 13.1428571,22.8214286 Z M23.4285714,29.6785714 L13.5714286,29.6785714 C13.3357143,29.6785714 13.1428571,29.8714286 13.1428571,30.1071429 L13.1428571,32.6785714 C13.1428571,32.9142857 13.3357143,33.1071429 13.5714286,33.1071429 L23.4285714,33.1071429 C23.6642857,33.1071429 23.8571429,32.9142857 23.8571429,32.6785714 L23.8571429,30.1071429 C23.8571429,29.8714286 23.6642857,29.6785714 23.4285714,29.6785714 Z" fill="#FFFFFF"></path>
</svg>
