<svg width="48" height="48" viewBox="0 0 48 48" fill="none" xmlns="http://www.w3.org/2000/svg">
  <rect width="48" height="48" fill="white" fill-opacity="0.01"/>
  <path d="M20.0357143,15.4285714 L20.0357143,3.85714286 L3.85714286,3.85714286 L3.85714286,44.1428571 L33.8571429,44.1428571 L33.8571429,17.6785714 L22.2857143,17.6785714 C21.0430736,17.6785714 20.0357143,16.6712121 20.0357143,15.4285714 Z M18.8571429,32.6785714 C18.8571429,32.9142857 18.6642857,33.1071429 18.4285714,33.1071429 L8.57142857,33.1071429 C8.33571429,33.1071429 8.14285714,32.9142857 8.14285714,32.6785714 L8.14285714,30.1071429 C8.14285714,29.8714286 8.33571429,29.6785714 8.57142857,29.6785714 L18.4285714,29.6785714 C18.6642857,29.6785714 18.8571429,29.8714286 18.8571429,30.1071429 L18.8571429,32.6785714 Z M29.5714286,22.8214286 L29.5714286,25.3928571 C29.5714286,25.6285714 29.3785714,25.8214286 29.1428571,25.8214286 L8.57142857,25.8214286 C8.33571429,25.8214286 8.14285714,25.6285714 8.14285714,25.3928571 L8.14285714,22.8214286 C8.14285714,22.5857143 8.33571429,22.3928571 8.57142857,22.3928571 L29.1428571,22.3928571 C29.3785714,22.3928571 29.5714286,22.5857143 29.5714286,22.8214286 Z" fill="#2F88FF"></path>
  <path d="M37.2107143,12.0321429 L25.6821429,0.503571429 C25.3607143,0.182142857 24.9267857,0 24.4714286,0 L1.71428571,0 C0.766071429,0 0,0.766071429 0,1.71428571 L0,46.2857143 C0,47.2339286 0.766071429,48 1.71428571,48 L36,48 C36.9482143,48 37.7142857,47.2339286 37.7142857,46.2857143 L37.7142857,13.2482143 C37.7142857,12.7928571 37.5321429,12.3535714 37.2107143,12.0321429 Z M23.6785714,3.95357143 L33.7607143,14.0357143 L23.6785714,14.0357143 L23.6785714,3.95357143 Z M33.8571429,44.1428571 L3.85714286,44.1428571 L3.85714286,3.85714286 L20.0357143,3.85714286 L20.0357143,15.4285714 C20.0357143,16.6712121 21.0430736,17.6785714 22.2857143,17.6785714 L33.8571429,17.6785714 L33.8571429,44.1428571 Z" fill="#000"></path>
  <path d="M8.14285714,22.8214286 L8.14285714,25.3928571 C8.14285714,25.6285714 8.33571429,25.8214286 8.57142857,25.8214286 L29.1428571,25.8214286 C29.3785714,25.8214286 29.5714286,25.6285714 29.5714286,25.3928571 L29.5714286,22.8214286 C29.5714286,22.5857143 29.3785714,22.3928571 29.1428571,22.3928571 L8.57142857,22.3928571 C8.33571429,22.3928571 8.14285714,22.5857143 8.14285714,22.8214286 Z M18.4285714,29.6785714 L8.57142857,29.6785714 C8.33571429,29.6785714 8.14285714,29.8714286 8.14285714,30.1071429 L8.14285714,32.6785714 C8.14285714,32.9142857 8.33571429,33.1071429 8.57142857,33.1071429 L18.4285714,33.1071429 C18.6642857,33.1071429 18.8571429,32.9142857 18.8571429,32.6785714 L18.8571429,30.1071429 C18.8571429,29.8714286 18.6642857,29.6785714 18.4285714,29.6785714 Z" fill="#000"></path>
</svg>
