<svg width="48" height="48" viewBox="0 0 48 48" fill="none" xmlns="http://www.w3.org/2000/svg">
  <rect width="48" height="48" fill="white" fill-opacity="0.01"/>
  <path d="M31.5182022,8.51595506 C28.4602247,5.52808989 24.3937079,3.88314607 20.0629213,3.88314607 C15.7321348,3.88314607 11.665618,5.52808989 8.60764045,8.5105618 C5.56044944,11.4876404 3.88314607,15.4355056 3.88314607,19.6368539 C3.88314607,32.6507865 16.508764,41.5982022 20.0629213,43.8579775 C23.6170787,41.5982022 36.2426966,32.6507865 36.2426966,19.6368539 C36.2426966,15.4355056 34.5653933,11.4876404 31.5182022,8.51595506 Z M20.0629213,29.5550562 C14.8206742,29.5550562 10.5707865,25.3051685 10.5707865,20.0629213 C10.5707865,14.8206742 14.8206742,10.5707865 20.0629213,10.5707865 C25.3051685,10.5707865 29.5550562,14.8206742 29.5550562,20.0629213 C29.5550562,25.3051685 25.3051685,29.5550562 20.0629213,29.5550562 Z" fill="#2F88FF"></path>
  <path d="M20.0629213,10.5707865 C14.8206742,10.5707865 10.5707865,14.8206742 10.5707865,20.0629213 C10.5707865,25.3051685 14.8206742,29.5550562 20.0629213,29.5550562 C25.3051685,29.5550562 29.5550562,25.3051685 29.5550562,20.0629213 C29.5550562,14.8206742 25.3051685,10.5707865 20.0629213,10.5707865 Z M24.334382,24.334382 C23.2028376,25.4691766 21.6654647,26.1058664 20.0629213,26.1033781 C18.4503371,26.1033781 16.9348315,25.4723596 15.7914607,24.334382 C14.6566661,23.2028376 14.0199763,21.6654647 14.0224646,20.0629213 C14.0224646,18.4503371 14.6534831,16.9348315 15.7914607,15.7914607 C16.9348315,14.6480899 18.4503371,14.0224719 20.0629213,14.0224719 C21.6755056,14.0224719 23.1910112,14.6480899 24.334382,15.7914607 C25.4777528,16.9348315 26.1033708,18.4503371 26.1033708,20.0629213 C26.1033708,21.6755056 25.4777528,23.1910112 24.334382,24.334382 Z" fill="#000"></path>
  <path d="M38.5402247,11.978427 C37.5248643,9.63710732 36.060924,7.51723378 34.2310112,5.73842697 C32.3950988,3.94355 30.2307569,2.51896623 27.8561798,1.54247191 C25.3860674,0.517752809 22.7649438,0 20.0629213,0 C17.3608989,0 14.7397753,0.517752809 12.2696629,1.53707865 C9.88044944,2.52404494 7.73932584,3.93707865 5.89483146,5.73303371 C4.06610043,7.51283957 2.60233121,9.63246534 1.58561798,11.9730337 C0.533932584,14.4 -3.06571248e-15,16.9779775 -3.06571248e-15,19.6314607 C-3.06571248e-15,23.4391011 0.911460674,27.2305618 2.70202247,30.887191 C4.14202247,33.8265169 6.15370787,36.6903371 8.68853933,39.4139326 C13.0193258,44.0629213 17.5604494,46.9051685 18.8494382,47.665618 C19.2153167,47.8817027 19.6326055,47.9953393 20.0575281,47.9946103 C20.4782022,47.9946103 20.8934831,47.8867416 21.265618,47.665618 C22.5546067,46.9051685 27.0957303,44.0629213 31.4265169,39.4139326 C33.9613483,36.6957303 35.9730337,33.8265169 37.4130337,30.887191 C39.214382,27.2359551 40.1258427,23.4498876 40.1258427,19.6368539 C40.1258427,16.9833708 39.5919101,14.4053933 38.5402247,11.978427 Z M20.0629213,43.8579775 C16.508764,41.5982022 3.88314607,32.6507865 3.88314607,19.6368539 C3.88314607,15.4355056 5.56044944,11.4876404 8.60764045,8.5105618 C11.665618,5.52808989 15.7321348,3.88314607 20.0629213,3.88314607 C24.3937079,3.88314607 28.4602247,5.52808989 31.5182022,8.51595506 C34.5653933,11.4876404 36.2426966,15.4355056 36.2426966,19.6368539 C36.2426966,32.6507865 23.6170787,41.5982022 20.0629213,43.8579775 Z" fill="#000"></path>
</svg>
