<?xml version="1.0" encoding="UTF-8"?>
<svg width="48" height="48" viewBox="0 0 48 48" fill="none" xmlns="http://www.w3.org/2000/svg">
  <rect width="48" height="48" fill="white" fill-opacity="0.01"/>
  <path fill="#000" d="M47.52,0 L17.76,0 C17.496,0 17.28,0.216 17.28,0.48 L17.28,3.84 C17.28,4.104 17.496,4.32 17.76,4.32 L47.52,4.32 C47.784,4.32 48,4.104 48,3.84 L48,0.48 C48,0.216 47.784,0 47.52,0 Z M47.52,25.44 L17.76,25.44 C17.496,25.44 17.28,25.656 17.28,25.92 L17.28,29.28 C17.28,29.544 17.496,29.76 17.76,29.76 L47.52,29.76 C47.784,29.76 48,29.544 48,29.28 L48,25.92 C48,25.656 47.784,25.44 47.52,25.44 Z M47.52,38.16 L0.48,38.16 C0.216,38.16 0,38.376 0,38.64 L0,42 C0,42.264 0.216,42.48 0.48,42.48 L47.52,42.48 C47.784,42.48 48,42.264 48,42 L48,38.64 C48,38.376 47.784,38.16 47.52,38.16 Z M47.52,12.72 L0.48,12.72 C0.216,12.72 0,12.936 0,13.2 L0,16.56 C0,16.824 0.216,17.04 0.48,17.04 L47.52,17.04 C47.784,17.04 48,16.824 48,16.56 L48,13.2 C48,12.936 47.784,12.72 47.52,12.72 Z"></path>
</svg>
