<svg width="48" height="48" viewBox="0 0 48 48" fill="none" xmlns="http://www.w3.org/2000/svg">
  <rect width="48" height="48" fill="white" fill-opacity="0.01"/>
  <path fill="#000" d="M48,4.63215954 C46.2348275,5.39360648 44.3139046,5.94161754 42.3352962,6.15505342 C44.3895447,4.93463708 45.9278857,3.00658302 46.6616993,0.732628234 C44.7340453,1.87935087 42.6223013,2.68345303 40.4201418,3.10926566 C38.559614,1.12025089 35.956091,-0.00599219628 33.2325442,0 C27.7812763,0 23.3971878,4.41872366 23.3971878,9.84114884 C23.3971878,10.6025958 23.4894844,11.3640427 23.6394664,12.096647 C15.4769859,11.6697752 8.1970917,7.77024391 3.35728879,1.79980766 C2.47542514,3.30606181 2.0132985,5.02110936 2.0189881,6.76651839 C2.0189881,10.1814926 3.75531787,13.1926691 6.40307655,14.9636101 C4.84271276,14.9021586 3.31888553,14.4732733 1.95553419,13.7118375 L1.95553419,13.8329768 C1.95553419,18.6150943 5.33589713,22.5780795 9.84112486,23.4895084 C8.99521886,23.7092342 8.12502549,23.8216423 7.25105156,23.8240836 C6.6107439,23.8240836 6.00504747,23.7606297 5.3935825,23.6741016 C6.63958659,27.5736329 10.2679966,30.4059848 14.5886312,30.4982814 C11.2082682,33.1460401 6.97416176,34.7035452 2.37663742,34.7035452 C1.55173657,34.7035452 0.790289629,34.6747025 0,34.5824059 C4.3610143,37.3801466 9.53539238,38.995337 15.1077995,38.995337 C33.1979329,38.995337 43.0967432,24.0086768 43.0967432,11.0006249 C43.0967432,10.5737531 43.0967432,10.1468813 43.0679005,9.72000956 C44.9830549,8.31825496 46.6616993,6.58192519 48,4.63215954 Z"></path>
</svg>
