<svg width="48" height="48" viewBox="0 0 48 48" fill="none" xmlns="http://www.w3.org/2000/svg">
  <rect width="48" height="48" fill="white" fill-opacity="0.01"/>
  <path d="M46.2857143,0 L1.71428571,0 C0.766071429,0 0,0.766071429 0,1.71428571 L0,36 C0,36.9482143 0.766071429,37.7142857 1.71428571,37.7142857 L46.2857143,37.7142857 C47.2339286,37.7142857 48,36.9482143 48,36 L48,1.71428571 C48,0.766071429 47.2339286,0 46.2857143,0 Z M44.1428571,33.8571429 L3.85714286,33.8571429 L3.85714286,3.85714286 L44.1428571,3.85714286 L44.1428571,33.8571429 Z" fill="#000"></path>
  <path d="M3.85714286,33.8571429 L44.1428571,33.8571429 L44.1428571,3.85714286 L3.85714286,3.85714286 L3.85714286,33.8571429 Z M29.1428571,13.9285714 C29.1428571,13.6928571 29.1964286,13.5 29.2660714,13.5 L35.8767857,13.5 C35.9464286,13.5 36,13.6928571 36,13.9285714 L36,16.5 C36,16.7357143 35.9464286,16.9285714 35.8767857,16.9285714 L29.2660714,16.9285714 C29.1964286,16.9285714 29.1428571,16.7357143 29.1428571,16.5 L29.1428571,13.9285714 Z M29.1428571,21.6428571 C29.1428571,21.4071429 29.3142857,21.2142857 29.5232143,21.2142857 L39.4714286,21.2142857 C39.6803571,21.2142857 39.8517857,21.4071429 39.8517857,21.6428571 L39.8517857,24.2142857 C39.8517857,24.45 39.6803571,24.6428571 39.4714286,24.6428571 L29.5232143,24.6428571 C29.3142857,24.6428571 29.1428571,24.45 29.1428571,24.2142857 L29.1428571,21.6428571 Z M8.15357143,27.0321429 C8.30357143,24.1767857 9.8625,21.6964286 12.15,20.2767857 C11.1803571,19.2053571 10.5910714,17.7910714 10.5910714,16.2321429 C10.5910714,12.9160714 13.2642857,10.2321429 16.5589286,10.2321429 C19.8535714,10.2321429 22.5267857,12.9160714 22.5267857,16.2321429 C22.5267857,17.7910714 21.9375,19.2107143 20.9678571,20.2767857 C23.25,21.6910714 24.8142857,24.1767857 24.9642857,27.0321429 C24.9701596,27.1494723 24.9276133,27.2640692 24.8465952,27.3491383 C24.765577,27.4342073 24.6531905,27.4821432 24.5357143,27.4821432 L22.1839286,27.4821432 C21.9589286,27.4821432 21.7767857,27.3053571 21.7607143,27.0803571 C21.5571429,24.375 19.2964286,22.2321429 16.5535714,22.2321429 C13.8107143,22.2321429 11.55,24.375 11.3464286,27.0803571 C11.3303571,27.3053571 11.1482143,27.4821432 10.9232143,27.4821432 L8.57142857,27.4821432 C8.325,27.4821432 8.13214286,27.2785714 8.15357143,27.0321429 L8.15357143,27.0321429 Z" fill="#2F88FF"></path>
  <path d="M13.7839286,16.2321429 C13.7839286,17.7706504 15.0239399,19.0178571 16.5535714,19.0178571 C18.0832029,19.0178571 19.3232143,17.7706504 19.3232143,16.2321429 C19.3232143,15.236903 18.7953234,14.3172634 17.9383929,13.8196434 C17.0814624,13.3220235 16.0256805,13.3220235 15.16875,13.8196434 C14.3118195,14.3172634 13.7839286,15.236903 13.7839286,16.2321429 L13.7839286,16.2321429 Z" fill="#2F88FF"></path>
  <path d="M29.2660714,16.9285714 L35.8767857,16.9285714 C35.9464286,16.9285714 36,16.7357143 36,16.5 L36,13.9285714 C36,13.6928571 35.9464286,13.5 35.8767857,13.5 L29.2660714,13.5 C29.1964286,13.5 29.1428571,13.6928571 29.1428571,13.9285714 L29.1428571,16.5 C29.1428571,16.7357143 29.1964286,16.9285714 29.2660714,16.9285714 Z M29.5232143,24.6428571 L39.4714286,24.6428571 C39.6803571,24.6428571 39.8517857,24.45 39.8517857,24.2142857 L39.8517857,21.6428571 C39.8517857,21.4071429 39.6803571,21.2142857 39.4714286,21.2142857 L29.5232143,21.2142857 C29.3142857,21.2142857 29.1428571,21.4071429 29.1428571,21.6428571 L29.1428571,24.2142857 C29.1428571,24.45 29.3142857,24.6428571 29.5232143,24.6428571 L29.5232143,24.6428571 Z M8.57142857,27.4821432 L10.9232143,27.4821432 C11.1482143,27.4821432 11.3303571,27.3053571 11.3464286,27.0803571 C11.55,24.375 13.8107143,22.2321429 16.5535714,22.2321429 C19.2964286,22.2321429 21.5571429,24.375 21.7607143,27.0803571 C21.7767857,27.3053571 21.9589286,27.4821432 22.1839286,27.4821432 L24.5357143,27.4821432 C24.6531905,27.4821432 24.765577,27.4342073 24.8465952,27.3491383 C24.9276133,27.2640692 24.9701596,27.1494723 24.9642857,27.0321429 C24.8142857,24.1767857 23.25,21.6910714 20.9678571,20.2767857 C21.9742628,19.1704968 22.5303576,17.7277079 22.5267857,16.2321429 C22.5267857,12.9160714 19.8535714,10.2321429 16.5589286,10.2321429 C13.2642857,10.2321429 10.5910714,12.9160714 10.5910714,16.2321429 C10.5910714,17.7910714 11.1803571,19.2053571 12.15,20.2767857 C9.79183124,21.7381 8.29887741,24.2617123 8.15357143,27.0321429 C8.13214286,27.2785714 8.325,27.4821432 8.57142857,27.4821432 L8.57142857,27.4821432 Z M16.5535714,13.4464286 C18.0803571,13.4464286 19.3232143,14.6946429 19.3232143,16.2321429 C19.3232143,17.7696429 18.0803571,19.0178571 16.5535714,19.0178571 C15.0267857,19.0178571 13.7839286,17.7696429 13.7839286,16.2321429 C13.7839286,14.6946429 15.0267857,13.4464286 16.5535714,13.4464286 Z" fill="#FFF"></path>
</svg>
