<?xml version="1.0" encoding="UTF-8"?>
<svg width="48" height="48" viewBox="0 0 48 48" fill="none" xmlns="http://www.w3.org/2000/svg">
  <rect width="48" height="48" fill="white" fill-opacity="0.01"/>
  <path d="M3.85714286,34.3928571 L11.4642857,34.3928571 C12.6482143,34.3928571 13.6071429,35.3517857 13.6071429,36.5357143 L13.6071429,44.1428571 L27,44.1428571 L27,10.7142857 L3.85714286,10.7142857 L3.85714286,34.3928571 Z" fill="#2F88FF"></path>
  <path d="M36,0 L7.28571429,0 C7.05,0 6.85714286,0.192857143 6.85714286,0.428571429 L6.85714286,3.42857143 C6.85714286,3.66428571 7.05,3.85714286 7.28571429,3.85714286 L33.8571429,3.85714286 L33.8571429,40.7142857 C33.8571429,40.95 34.05,41.1428571 34.2857143,41.1428571 L37.2857143,41.1428571 C37.5214286,41.1428571 37.7142857,40.95 37.7142857,40.7142857 L37.7142857,1.71428571 C37.7142857,0.766071429 36.9482143,0 36,0 Z" fill="#000"></path>
  <path d="M29.1428571,6.85714286 L1.71428571,6.85714286 C0.766071429,6.85714286 0,7.62321429 0,8.57142857 L0,37.0017857 C0,37.4571429 0.182142857,37.8910714 0.503571429,38.2125 L9.7875,47.4964286 C9.90535714,47.6142857 10.0392857,47.7107143 10.1839286,47.7910714 L10.1839286,47.8928571 L10.4089286,47.8928571 C10.5964286,47.9625 10.7946429,48 10.9982143,48 L29.1428571,48 C30.0910714,48 30.8571429,47.2339286 30.8571429,46.2857143 L30.8571429,8.57142857 C30.8571429,7.62321429 30.0910714,6.85714286 29.1428571,6.85714286 Z M10.1785714,42.4392857 L5.56607143,37.8214286 L10.1785714,37.8214286 L10.1785714,42.4392857 Z M27,44.1428571 L13.6071429,44.1428571 L13.6071429,36.5357143 C13.6071429,35.3517857 12.6482143,34.3928571 11.4642857,34.3928571 L3.85714286,34.3928571 L3.85714286,10.7142857 L27,10.7142857 L27,44.1428571 Z" fill="#000"></path>
</svg>
