<?xml version="1.0" encoding="UTF-8"?>
<svg width="48" height="48" viewBox="0 0 48 48" fill="none" xmlns="http://www.w3.org/2000/svg">
  <rect width="48" height="48" fill="white" fill-opacity="0.01"/>
  <path d="M24,4.07142857 C12.9964286,4.07142857 4.07142857,12.9964286 4.07142857,24 C4.07142857,35.0035714 12.9964286,43.9285714 24,43.9285714 C35.0035714,43.9285714 43.9285714,35.0035714 43.9285714,24 C43.9285714,12.9964286 35.0035714,4.07142857 24,4.07142857 Z M33.8785714,18.9482143 L24.3428571,32.1267857 C24.2628132,32.2378723 24.1342421,32.3037011 23.9973214,32.3037011 C23.8604008,32.3037011 23.7318297,32.2378723 23.6517857,32.1267857 L14.1160714,18.9482143 C13.9125,18.6642857 14.1160714,18.2678571 14.4642857,18.2678571 L16.9767857,18.2678571 C17.5285714,18.2678571 18.0428571,18.5303571 18.3642857,18.975 L24,26.7642857 L29.6357143,18.975 C29.9571429,18.5303571 30.4767857,18.2678571 31.0232143,18.2678571 L33.5357143,18.2678571 C33.8839286,18.2678571 34.0875,18.6642857 33.8785714,18.9482143 Z" fill="#2F88FF"></path>
  <path d="M24,0 C10.7464286,0 0,10.7464286 0,24 C0,37.2535714 10.7464286,48 24,48 C37.2535714,48 48,37.2535714 48,24 C48,10.7464286 37.2535714,0 24,0 Z M24,43.9285714 C12.9964286,43.9285714 4.07142857,35.0035714 4.07142857,24 C4.07142857,12.9964286 12.9964286,4.07142857 24,4.07142857 C35.0035714,4.07142857 43.9285714,12.9964286 43.9285714,24 C43.9285714,35.0035714 35.0035714,43.9285714 24,43.9285714 Z" fill="#000"></path>
  <path d="M33.5357143,18.2678571 L31.0232143,18.2678571 C30.4767857,18.2678571 29.9571429,18.5303571 29.6357143,18.975 L24,26.7642857 L18.3642857,18.975 C18.0428571,18.5303571 17.5285714,18.2678571 16.9767857,18.2678571 L14.4642857,18.2678571 C14.1160714,18.2678571 13.9125,18.6642857 14.1160714,18.9482143 L23.6517857,32.1267857 C23.8232143,32.3625 24.1714286,32.3625 24.3428571,32.1267857 L33.8785714,18.9482143 C34.0875,18.6642857 33.8839286,18.2678571 33.5357143,18.2678571 Z" fill="#FFF"></path>
</svg>
