<svg width="48" height="48" viewBox="0 0 48 48" fill="none" xmlns="http://www.w3.org/2000/svg">
  <rect width="48" height="48" fill="white" fill-opacity="0.01"/>
  <path d="M28.3278689,4.41779859 L5.86229508,26.8833724 L21.0604215,42.0814988 L43.5259953,19.6159251 L42.2107728,5.73302108 L28.3278689,4.41779859 Z M33.442623,19.4473068 C30.7166276,19.4473068 28.4964871,17.2271663 28.4964871,14.501171 C28.4964871,11.7751756 30.7166276,9.55503513 33.442623,9.55503513 C36.1686183,9.55503513 38.3887588,11.7751756 38.3887588,14.501171 C38.3887588,17.2271663 36.1686183,19.4473068 33.442623,19.4473068 Z" fill="#2F88FF"></path>
  <path d="M33.442623,9.55503513 C30.7166276,9.55503513 28.4964871,11.7751756 28.4964871,14.501171 C28.4964871,17.2271663 30.7166276,19.4473068 33.442623,19.4473068 C36.1686183,19.4473068 38.3887588,17.2271663 38.3887588,14.501171 C38.3887588,11.7751756 36.1686183,9.55503513 33.442623,9.55503513 Z M33.442623,16.2997658 C32.4477752,16.2997658 31.6440281,15.4960187 31.6440281,14.501171 C31.6440281,13.5063232 32.4477752,12.7025761 33.442623,12.7025761 C34.4374707,12.7025761 35.2412178,13.5063232 35.2412178,14.501171 C35.2412178,15.4960187 34.4374707,16.2997658 33.442623,16.2997658 Z" fill="#000"></path>
  <path d="M47.9437939,20.95363 L46.2800937,3.38360656 C46.1957845,2.47306792 45.470726,1.75362998 44.5601874,1.66370023 L26.9901639,3.19494626e-15 L26.9676815,3.19494626e-15 C26.787822,3.19494626e-15 26.6473068,0.056206089 26.5405152,0.162997658 L0.219203747,26.4843091 C0.113970161,26.5893272 0.0548323941,26.7318916 0.0548323941,26.8805621 C0.0548323941,27.0292325 0.113970161,27.1717969 0.219203747,27.276815 L20.6669789,47.7245902 C20.7726967,47.8303337 20.9165239,47.88908 21.0660422,47.8876156 C21.2177986,47.8876156 21.3583138,47.8313817 21.4651054,47.7245902 L47.7864169,21.4032787 C47.898829,21.2852459 47.9550351,21.1222482 47.9437939,20.95363 Z M21.0604215,42.0814988 L5.86229508,26.8833724 L28.3278689,4.41779859 L42.2107728,5.73302108 L43.5259953,19.6159251 L21.0604215,42.0814988 Z" fill="#000"></path>
</svg>
