<svg width="48" height="48" viewBox="0 0 48 48" fill="none" xmlns="http://www.w3.org/2000/svg">
  <rect width="48" height="48" fill="white" fill-opacity="0.01"/>
  <path fill="#000" d="M22.5427878,9.02893596 C13.819731,5.85009713 1.05822197,0.0404951323 1.05822197,0.0404951323 C0.152454827,-0.196042784 0.0255320428,0.680878272 0.0255320428,0.680878272 C-0.262928831,4.20587015 1.96398911,9.94047232 3.11783261,11.2270078 C4.26590689,12.5135433 21.5274056,17.7866081 21.5274056,17.7866081 C21.5274056,17.7866081 8.25243616,15.1096912 5.05052046,14.1866164 C1.84283555,13.2635416 2.86398704,15.2135371 2.86398704,15.2135371 C3.52167783,18.7731443 6.60820918,22.8173657 9.04858817,23.1981341 C11.4831979,23.5789024 21.7466358,23.4289028 21.7466358,23.4289028 C21.7466358,23.4289028 19.6985636,23.6654407 16.3697251,24.1154397 C13.9062693,24.4500543 10.7735842,24.8365918 9.96012453,25.1423604 C8.05051355,25.8635125 11.3447367,28.7538905 11.3447367,28.7538905 C16.2312639,33.1846495 18.8274118,31.6673453 18.8274118,31.6673453 C20.7485612,31.0500391 22.3697113,30.6000401 23.7427851,30.2711947 L22.0408659,37.3327169 L26.9216239,37.3327169 L24.2331686,48 L36.077372,32.3134977 L29.8754633,32.3134977 L31.1619988,30.0808105 C31.1793064,30.1096566 31.1850756,30.1269643 31.1850756,30.1269643 C31.1850756,30.1269643 35.5869886,23.0827497 37.2716001,19.4885272 L37.3062154,19.4308351 L37.3004461,19.4308351 C37.588907,18.8077596 37.7965989,18.2942992 37.8773679,17.942377 C38.8581349,13.8289249 31.2716139,12.2077748 22.5427878,9.02893596 Z"></path>
</svg>
