<svg width="48" height="48" viewBox="0 0 48 48" fill="none" xmlns="http://www.w3.org/2000/svg">
  <rect width="48" height="48" fill="white" fill-opacity="0.01"/>
  <path d="M18.5124892,41.64 L29.4864892,41.64 L29.4864892,32.28 L18.5124892,32.28 L18.5124892,41.64 Z M17.9364892,27.444 L18.5064892,28.44 L29.4864892,28.44 L30.0564892,27.444 L41.9544892,7.32 L6.03848919,7.32 L17.9364892,27.444 Z" fill="#2F88FF"></path>
  <path d="M46.0824892,3 L1.91048919,3 C0.44048919,3 -0.47751081,4.602 0.26048919,5.88 L14.2164892,29.604 L14.2164892,44.04 C14.2164892,45.102 15.0684892,45.96 16.1244892,45.96 L31.8684892,45.96 C32.9244892,45.96 33.7764892,45.102 33.7764892,44.04 L33.7764892,29.604 L47.7384892,5.88 C48.4704892,4.602 47.5524892,3 46.0824892,3 Z M29.4864892,41.64 L18.5124892,41.64 L18.5124892,32.28 L29.4864892,32.28 L29.4864892,41.64 Z M30.0564892,27.444 L29.4864892,28.44 L18.5064892,28.44 L17.9364892,27.444 L6.03848919,7.32 L41.9544892,7.32 L30.0564892,27.444 Z" fill="#000"></path>
</svg>
