<svg width="48" height="48" viewBox="0 0 48 48" fill="none" xmlns="http://www.w3.org/2000/svg">
  <rect width="48" height="48" fill="white" fill-opacity="0.01"/>
  <path d="M8.97647058,7.37628869 C10.1995148,8.08241365 11.7063675,8.08241365 12.9294117,7.37628869 C14.152456,6.67016373 14.9058823,5.36519105 14.9058823,3.95294113 C14.9058823,2.54069135 14.152456,1.23571861 12.9294117,0.52959372 C11.7063675,-0.17653124 10.1995148,-0.17653124 8.97647058,0.52959372 C7.75342628,1.23571861 7,2.54069135 7,3.95294113 C7,5.36519105 7.75342628,6.67016373 8.97647058,7.37628869 Z M8.97647058,27.4233475 C10.1995148,28.1294725 11.7063675,28.1294725 12.9294117,27.4233475 C14.152456,26.7172226 14.9058823,25.4122499 14.9058823,24 C14.9058823,22.5877501 14.152456,21.2827774 12.9294117,20.5766525 C11.7063675,19.8705275 10.1995148,19.8705275 8.97647058,20.5766525 C7.75342628,21.2827774 7,22.5877501 7,24 C7,25.4122499 7.75342628,26.7172226 8.97647058,27.4233475 Z M32.9764704,3.95294113 C32.9764704,5.36519105 33.7298967,6.67016373 34.952941,7.37628869 C36.1759852,8.08241365 37.6828379,8.08241365 38.9058821,7.37628869 C40.1289264,6.67016373 40.8823527,5.36519105 40.8823527,3.95294113 C40.8823527,2.54069135 40.1289264,1.23571861 38.9058821,0.52959372 C37.6828379,-0.17653124 36.1759852,-0.17653124 34.952941,0.52959372 C33.7298967,1.23571861 32.9764704,2.54069135 32.9764704,3.95294113 L32.9764704,3.95294113 Z M32.9764704,24 C32.9764704,25.4122499 33.7298967,26.7172226 34.952941,27.4233475 C36.1759852,28.1294725 37.6828379,28.1294725 38.9058821,27.4233475 C40.1289264,26.7172226 40.8823527,25.4122499 40.8823527,24 C40.8823527,22.5877501 40.1289264,21.2827774 38.9058821,20.5766525 C37.6828379,19.8705275 36.1759852,19.8705275 34.952941,20.5766525 C33.7298967,21.2827774 32.9764704,22.5877501 32.9764704,24 L32.9764704,24 Z M8.97647058,47.4704063 C10.1995148,48.1765312 11.7063675,48.1765312 12.9294117,47.4704063 C14.152456,46.7642814 14.9058823,45.4593086 14.9058823,44.0470587 C14.9058823,42.6348089 14.152456,41.3298363 12.9294117,40.6237113 C11.7063675,39.9175864 10.1995148,39.9175864 8.97647058,40.6237113 C7.75342628,41.3298363 7,42.6348089 7,44.0470587 C7,45.4593086 7.75342628,46.7642814 8.97647058,47.4704063 Z M32.9764704,44.0470587 C32.9764704,45.4593086 33.7298967,46.7642814 34.952941,47.4704063 C36.1759852,48.1765312 37.6828379,48.1765312 38.9058821,47.4704063 C40.1289264,46.7642814 40.8823527,45.4593086 40.8823527,44.0470587 C40.8823527,42.6348089 40.1289264,41.3298363 38.9058821,40.6237113 C37.6828379,39.9175864 36.1759852,39.9175864 34.952941,40.6237113 C33.7298967,41.3298363 32.9764704,42.6348089 32.9764704,44.0470587 L32.9764704,44.0470587 Z" fill="#000"></path>
</svg>
