<svg width="48" height="48" viewBox="0 0 48 48" fill="none" xmlns="http://www.w3.org/2000/svg">
  <rect width="48" height="48" fill="white" fill-opacity="0.01"/>
  <path fill="#000" d="M47.9190529,14.8106128 L36.1792857,0.138795278 C36.1084657,0.0516675045 36.0024059,0.000758816025 35.8901288,0 L12.1098712,0 C12,0 11.890112,0.0520482293 11.8207143,0.138795278 L0.0809470736,14.8106128 C-0.0311940107,14.9525538 -0.0263341494,15.1542381 0.0925133468,15.2906131 L23.7224094,41.8641258 C23.7918071,41.9450897 23.8959035,41.9855716 24,41.9855716 C24.1040965,41.9855716 24.2024098,41.9393065 24.2775906,41.8641258 L47.9074867,15.2906131 C48.0263341,15.1542381 48.031194,14.9525538 47.9190529,14.8106128 Z M31.7031379,3.3195204 L33.6925369,11.0631403 L26.0298809,3.3195204 L31.7031379,3.3195204 Z M32.1773551,13.6424192 L15.8226449,13.6424192 L24,5.37831703 L32.1773551,13.6424192 L32.1773551,13.6424192 Z M16.2968621,3.3195204 L21.9701191,3.3195204 L14.3016799,11.0631403 L16.2968621,3.3195204 Z M13.2086671,3.72433996 L10.6583039,13.6424192 L5.27420373,13.6424192 L13.2086671,3.72433996 L13.2086671,3.72433996 Z M5.64432447,16.5339875 L11.1036054,16.5339875 L18.3787912,30.8588168 L5.64432447,16.5339875 L5.64432447,16.5339875 Z M24,35.5315912 L14.347945,16.5339875 L33.6462718,16.5339875 L24,35.5315912 Z M29.6154256,30.8588168 L36.8963946,16.5339875 L42.3556755,16.5339875 L29.6154256,30.8588168 Z M37.3416961,13.6424192 L34.7913329,3.72433996 L42.7257963,13.6424192 L37.3416961,13.6424192 L37.3416961,13.6424192 Z"></path>
</svg>
