<svg width="48" height="48" viewBox="0 0 48 48" fill="none" xmlns="http://www.w3.org/2000/svg">
  <rect width="48" height="48" fill="white" fill-opacity="0.01"/>
  <path d="M47.2597816,16.4751453 L25.0541883,0.344456864 C24.4265935,-0.114818955 23.5733732,-0.114818955 22.9457784,0.344456864 L0.740185192,16.4751453 C0.111076226,16.9319851 -0.151605239,17.741729 0.0897183193,18.4802795 L8.57382503,44.5806296 C8.81405659,45.3181803 9.50199003,45.8177066 10.2784968,45.8184359 L37.7270774,45.8184359 C38.5065161,45.8184359 39.1906278,45.3199528 39.4317492,44.5806296 L47.9158559,18.4802795 C48.1513698,17.7409563 47.8878185,16.9344219 47.2597816,16.4751453 Z M42.3139903,17.5897311 L36.7906294,19.3820298 L25.5756833,11.277479 L25.5756833,5.43010447 L42.3139903,17.5897311 Z M21.4205458,26.0023332 L16.4242873,32.8522748 L13.3289622,23.3754954 L21.4205458,26.0023332 Z M14.8990546,20.5806296 L22.4298909,15.1421231 L22.4298909,23.0282375 L14.8990546,20.5806296 Z M23.9999834,27.7946319 L29.2654006,35.0142352 L18.7345662,35.0142352 L23.9999834,27.7946319 Z M25.5756833,15.1421231 L33.1009121,20.5806296 L25.5756833,23.0226366 L25.5756833,15.1421231 L25.5756833,15.1421231 Z M26.579421,26.0023332 L34.6710046,23.3754954 L31.5756795,32.8522748 L26.579421,26.0023332 Z M22.4298909,5.43010447 L22.4298909,11.277479 L11.2093374,19.3820298 L5.68597642,17.5897311 L22.4298909,5.43010447 Z M4.78317326,20.6030333 L9.63363744,22.1768956 L14.1420458,35.9775957 L11.1252253,40.1166856 L4.78317326,20.6030333 L4.78317326,20.6030333 Z M13.6317657,42.0098011 L16.4523247,38.145157 L31.5532496,38.145157 L34.3738085,42.0098011 L13.6317657,42.0098011 Z M36.8747415,40.1166856 L33.857921,35.9775957 L38.3663293,22.1768956 L43.2167935,20.6030333 L36.8747415,40.1166856 Z" fill="#000"></path>
</svg>
