<?xml version="1.0" encoding="UTF-8"?>
<svg width="48" height="48" viewBox="0 0 48 48" fill="none" xmlns="http://www.w3.org/2000/svg">
  <rect width="48" height="48" fill="white" fill-opacity="0.01"/>
  <path fill="#000" d="M47.5714286,33.8571429 L0.428571429,33.8571429 C0.192857143,33.8571429 0,34.05 0,34.2857143 L0,37.2857143 C0,37.5214286 0.192857143,37.7142857 0.428571429,37.7142857 L47.5714286,37.7142857 C47.8071429,37.7142857 48,37.5214286 48,37.2857143 L48,34.2857143 C48,34.05 47.8071429,33.8571429 47.5714286,33.8571429 Z M47.5714286,0 L0.428571429,0 C0.192857143,0 0,0.192857143 0,0.428571429 L0,3.42857143 C0,3.66428571 0.192857143,3.85714286 0.428571429,3.85714286 L47.5714286,3.85714286 C47.8071429,3.85714286 48,3.66428571 48,3.42857143 L48,0.428571429 C48,0.192857143 47.8071429,0 47.5714286,0 Z M46.2857143,26.7857143 C46.7571429,26.7857143 47.1428571,26.4 47.1428571,25.9285714 L47.1428571,11.7857143 C47.1428571,11.3142857 46.7571429,10.9285714 46.2857143,10.9285714 L18.8571429,10.9285714 C18.3857143,10.9285714 18,11.3142857 18,11.7857143 L18,25.9285714 C18,26.4 18.3857143,26.7857143 18.8571429,26.7857143 L46.2857143,26.7857143 Z M21.8571429,14.7857143 L43.2857143,14.7857143 L43.2857143,22.9285714 L21.8571429,22.9285714 L21.8571429,14.7857143 Z M0.857142857,26.0357143 C0.857142857,26.2714286 1.05,26.4642857 1.28571429,26.4642857 L13.2857143,26.4642857 C13.5214286,26.4642857 13.7142857,26.2714286 13.7142857,26.0357143 L13.7142857,23.0357143 C13.7142857,22.8 13.5214286,22.6071429 13.2857143,22.6071429 L1.28571429,22.6071429 C1.05,22.6071429 0.857142857,22.8 0.857142857,23.0357143 L0.857142857,26.0357143 Z M1.28571429,15.1071429 L13.2857143,15.1071429 C13.5214286,15.1071429 13.7142857,14.9142857 13.7142857,14.6785714 L13.7142857,11.6785714 C13.7142857,11.4428571 13.5214286,11.25 13.2857143,11.25 L1.28571429,11.25 C1.05,11.25 0.857142857,11.4428571 0.857142857,11.6785714 L0.857142857,14.6785714 C0.857142857,14.9142857 1.05,15.1071429 1.28571429,15.1071429 Z"></path>
</svg>
