<svg width="48" height="48" viewBox="0 0 48 48" fill="none" xmlns="http://www.w3.org/2000/svg">
  <rect width="48" height="48" fill="white" fill-opacity="0.01"/>
  <path d="M21.6255319,14.1510638 L20.0617021,15.7148936 L17.8659574,15.4723404 C17.2531915,15.4021277 16.6340426,15.3702128 16.0212766,15.3702128 C14.1702128,15.3702128 12.3510638,15.6702128 10.6148936,16.2702128 C9.7212766,16.5765957 8.86595745,16.9595745 8.04255319,17.412766 L30.5808511,39.9638298 C32.2239526,36.9673595 32.9016351,33.5365916 32.5212766,30.1404255 L32.2787234,27.9446809 L33.8425532,26.3808511 L42.3829787,17.8404255 L30.1595745,5.61702128 L21.6255319,14.1510638 Z" fill="#2F88FF"></path>
  <path d="M47.3808511,16.3468085 L31.6531915,0.619148936 C31.2382979,0.204255319 30.6957447,0 30.1531915,0 C29.6106383,0 29.0680851,0.204255319 28.6531915,0.619148936 L18.3702128,10.9085106 C17.5914894,10.8191489 16.806383,10.7808511 16.0212766,10.7808511 C11.3489362,10.7808511 6.67659574,12.3191489 2.84042553,15.3957447 C2.37060531,15.7729879 2.0833987,16.332244 2.05051593,16.9338769 C2.01763316,17.5355099 2.24217778,18.1227362 2.66808511,18.5489362 L14.2659574,30.1468085 L0.517021277,43.8829787 C0.348539867,44.050407 0.244559923,44.2719295 0.223404255,44.5085106 L0.00638297872,46.8829787 C-0.0510638298,47.4829787 0.427659574,47.993617 1.0212766,47.993617 C1.05319149,47.993617 1.08510638,47.993617 1.11702128,47.987234 L3.49148936,47.7702128 C3.72765957,47.7510638 3.95106383,47.6425532 4.11702128,47.4765957 L17.8659574,33.7276596 L29.4638298,45.3255319 C29.8787234,45.7404255 30.4212766,45.9446809 30.9638298,45.9446809 C31.5829787,45.9446809 32.1957447,45.6765957 32.6170213,45.1531915 C36.2106383,40.6659574 37.7042553,35.0489362 37.0978723,29.6170213 L47.3808511,19.3340426 C48.2042553,18.5170213 48.2042553,17.1765957 47.3808511,16.3468085 Z M33.8425532,26.3808511 L32.2787234,27.9446809 L32.5212766,30.1404255 C32.9016351,33.5365916 32.2239526,36.9673595 30.5808511,39.9638298 L8.04255319,17.412766 C8.86595745,16.9595745 9.7212766,16.5765957 10.6148936,16.2702128 C12.3510638,15.6702128 14.1702128,15.3702128 16.0212766,15.3702128 C16.6340426,15.3702128 17.2531915,15.4021277 17.8659574,15.4723404 L20.0617021,15.7148936 L21.6255319,14.1510638 L30.1595745,5.61702128 L42.3829787,17.8404255 L33.8425532,26.3808511 Z" fill="#000"></path>
</svg>
