<?xml version="1.0" encoding="UTF-8"?>
<svg width="48" height="48" viewBox="0 0 48 48" fill="none" xmlns="http://www.w3.org/2000/svg">
  <rect width="48" height="48" fill="white" fill-opacity="0.01"/>
  <path fill="#000" d="M47.8676605,26.2341289 L25.6152064,0.735060907 C25.208207,0.26820009 24.6174302,0 23.9960537,0 C23.3746771,0 22.7839004,0.26820009 22.376901,0.735060907 L0.13115144,26.2341289 C-0.00613090611,26.3910913 -0.0386649487,26.6132739 0.0479043471,26.8026429 C0.134473643,26.9920118 0.324221558,27.113732 0.533425393,27.1140967 L5.96412376,27.1140967 C6.27253379,27.1140967 6.56753469,26.9807683 6.77537623,26.7474435 L21.4516709,9.92805823 L21.4516709,47.4666862 C21.4516709,47.7600088 21.6930353,48 21.9880362,48 L26.0107757,48 C26.3057766,48 26.547141,47.7600088 26.547141,47.4666862 L26.547141,9.92805823 L41.2234357,26.7474435 C41.4245727,26.9807683 41.7195736,27.1140967 42.0346882,27.1140967 L47.4653866,27.1140967 C47.921297,27.1140967 48.169366,26.5807829 47.8676605,26.2341289 Z"></path>
</svg>
