<svg width="48" height="48" viewBox="0 0 48 48" fill="none" xmlns="http://www.w3.org/2000/svg">
  <rect width="48" height="48" fill="white" fill-opacity="0.01"/>
  <path d="M9.39325243,23.0621359 L9.39325243,47.9941748 L9.42325243,23.0621359 L9.39325243,23.0621359 Z M40.7300971,17.9184466 L22.415534,17.9184466 L22.9747573,6.36116505 C23.0097087,5.66796117 22.7009709,5.01553398 22.1242718,4.58446602 C21.768932,4.3223301 21.3320388,4.18834951 20.8951456,4.19399261 C19.7533981,4.2 18.7456311,4.97475728 18.4368932,6.07572816 C16.2757282,13.9048544 14.6563107,19.776699 13.5728155,23.6970874 L13.5728155,43.8058252 L36.838835,43.8058252 C38.0282044,43.2727941 38.7943204,42.0916985 38.7961165,40.7883495 C38.7961165,40.223301 38.6621359,39.6873786 38.3941748,39.1980583 L37.584466,37.7184466 L38.8601942,36.6116505 C39.5867827,35.9823536 40.0035508,35.0680156 40.0019417,34.1067961 C40.0019417,33.5417476 39.8679612,33.0058252 39.6,32.5165049 L38.7902913,31.0368932 L40.0660194,29.9300971 C40.792608,29.3008002 41.209376,28.3864622 41.207767,27.4252427 C41.207767,26.8601942 41.0737864,26.3242718 40.8058252,25.8349515 L39.9902913,24.3495146 L41.2660194,23.2427184 C41.992608,22.6134216 42.409376,21.6990835 42.4077716,20.7378641 C42.4077716,19.6252427 41.7669903,18.5533981 40.7300971,17.9184466 L40.7300971,17.9184466 Z" fill="#2F88FF"></path>
  <path d="M0,24.9320388 L0,46.1359223 C0,47.1669903 0.833009709,48 1.86407767,48 L5.65048544,48 L5.65048544,23.0679612 L1.86407767,23.0679612 C0.833009709,23.0679612 0,23.9009709 0,24.9320388 Z M45.0815534,25.2640777 C46.0601942,23.9708738 46.6019417,22.3864078 46.6019417,20.7378641 C46.6019417,18.1223301 45.1398058,15.6407767 42.7864078,14.2718447 C42.1805482,13.9164763 41.4907398,13.7294437 40.7883495,13.7300971 L26.8135922,13.7300971 L27.1631068,6.57087379 C27.2504854,4.8407767 26.638835,3.19805825 25.4446602,1.94563107 C24.2667841,0.696597964 22.6235993,-0.00792544296 20.9067961,-6.61522485e-05 C17.8776699,-6.61522485e-05 15.1980583,2.03883495 14.3941748,4.95728155 L9.3961165,23.0621359 L9.37864078,47.9941748 L36.8796117,47.9941748 C37.4213592,47.9941748 37.9398058,47.8893204 38.423301,47.6796117 C41.1961165,46.4970874 42.984466,43.7883495 42.984466,40.7825243 C42.984466,40.0485437 42.8796117,39.3262136 42.6699029,38.6271845 C43.6485437,37.3339806 44.1902913,35.7495146 44.1902913,34.1009709 C44.1902913,33.3669903 44.0854369,32.6446602 43.8757282,31.9456311 C44.8543689,30.6524272 45.3961165,29.0679612 45.3961165,27.4194175 C45.3961165,26.6854369 45.2912621,25.9631068 45.0815534,25.2640777 Z M41.2660194,23.2427184 L39.9902913,24.3495146 L40.8058252,25.8349515 C41.0725868,26.3223509 41.210909,26.8696259 41.207767,27.4252427 C41.207767,28.3864078 40.7941748,29.3009709 40.0660194,29.9300971 L38.7902913,31.0368932 L39.6,32.5165049 C39.8667615,33.0039043 40.0050838,33.5511793 40.0019417,34.1067961 C40.0019417,35.0679612 39.5883495,35.9825243 38.8601942,36.6116505 L37.584466,37.7184466 L38.3941748,39.1980583 C38.6609363,39.6854577 38.7992586,40.2327327 38.7961165,40.7883495 C38.7961165,42.0932039 38.0271845,43.2699029 36.838835,43.8058252 L13.5728155,43.8058252 L13.5728155,23.6970874 C14.6563107,19.7825243 16.2757282,13.9106796 18.4368932,6.07572816 C18.7470489,4.97188989 19.7486152,4.20528818 20.8951456,4.19399261 C21.3320388,4.18834951 21.768932,4.3223301 22.1242718,4.58446602 C22.7009709,5.01553398 23.0097087,5.66796117 22.9747573,6.36116505 L22.415534,17.9184466 L40.7300971,17.9184466 C41.7669903,18.5533981 42.407767,19.6252427 42.407767,20.7378641 C42.407767,21.6990291 41.9941748,22.6135922 41.2660194,23.2427184 Z" fill="#000"></path>
</svg>
