<svg width="48" height="48" viewBox="0 0 48 48" fill="none" xmlns="http://www.w3.org/2000/svg">
  <rect width="48" height="48" fill="white" fill-opacity="0.01"/>
  <path d="M46.08,0 L1.92,0 C0.858,0 0,0.858 0,1.92 L0,46.08 C0,47.142 0.858,48 1.92,48 L46.08,48 C47.142,48 48,47.142 48,46.08 L48,1.92 C48,0.858 47.142,0 46.08,0 Z M43.68,43.68 L4.32,43.68 L4.32,4.32 L43.68,4.32 L43.68,43.68 Z" fill="#000"></path>
  <path d="M4.32,43.68 L43.68,43.68 L43.68,4.32 L4.32,4.32 L4.32,43.68 Z M32.64,10.08 C32.64,9.816 32.856,9.6 33.12,9.6 L37.92,9.6 C38.184,9.6 38.4,9.816 38.4,10.08 L38.4,25.44 C38.4,25.704 38.184,25.92 37.92,25.92 L33.12,25.92 C32.856,25.92 32.64,25.704 32.64,25.44 L32.64,10.08 Z M21.12,10.08 C21.12,9.816 21.336,9.6 21.6,9.6 L26.4,9.6 C26.664,9.6 26.88,9.816 26.88,10.08 L26.88,21.12 C26.88,21.384 26.664,21.6 26.4,21.6 L21.6,21.6 C21.336,21.6 21.12,21.384 21.12,21.12 L21.12,10.08 Z M9.6,10.08 C9.6,9.816 9.816,9.6 10.08,9.6 L14.88,9.6 C15.144,9.6 15.36,9.816 15.36,10.08 L15.36,37.92 C15.36,38.184 15.144,38.4 14.88,38.4 L10.08,38.4 C9.816,38.4 9.6,38.184 9.6,37.92 L9.6,10.08 Z" fill="#2F88FF"></path>
  <path d="M10.08,38.4 L14.88,38.4 C15.144,38.4 15.36,38.184 15.36,37.92 L15.36,10.08 C15.36,9.816 15.144,9.6 14.88,9.6 L10.08,9.6 C9.816,9.6 9.6,9.816 9.6,10.08 L9.6,37.92 C9.6,38.184 9.816,38.4 10.08,38.4 Z M21.6,21.6 L26.4,21.6 C26.664,21.6 26.88,21.384 26.88,21.12 L26.88,10.08 C26.88,9.816 26.664,9.6 26.4,9.6 L21.6,9.6 C21.336,9.6 21.12,9.816 21.12,10.08 L21.12,21.12 C21.12,21.384 21.336,21.6 21.6,21.6 Z M33.12,25.92 L37.92,25.92 C38.184,25.92 38.4,25.704 38.4,25.44 L38.4,10.08 C38.4,9.816 38.184,9.6 37.92,9.6 L33.12,9.6 C32.856,9.6 32.64,9.816 32.64,10.08 L32.64,25.44 C32.64,25.704 32.856,25.92 33.12,25.92 Z" fill="#FFF"></path>
</svg>
