<svg width="48" height="48" viewBox="0 0 48 48" fill="none" xmlns="http://www.w3.org/2000/svg">
  <rect width="48" height="48" fill="white" fill-opacity="0.01"/>
  <path fill="#000" d="M43.7653846,13.3029469 C43.1942308,11.02987 44.3365385,7.40679305 48,6.12602381 L44.0826923,5.91833151 C44.0826923,5.91833151 42.6,0.726023815 35.7980769,0.264485353 C29.0019231,-0.202822339 24.5538462,0.0914084303 24.5480769,0.0914084303 C24.5538462,0.0914084303 29.5903846,3.29910074 27.5711538,9.01640843 C26.0942308,12.0452546 23.775,14.531793 21.2942308,17.3644854 C21.2192308,17.4394854 21.15,17.5144854 21.0923077,17.5779469 C12.8884615,26.8260238 0,41.5375623 0,41.5375623 C14.1865385,45.2529469 23.6942308,41.1741007 29.3192308,36.281793 C30.5019231,36.2702546 31.3903846,36.2644854 31.9903846,36.2644854 C39.825,36.2644854 46.4480769,29.47987 46.1769231,21.9337161 C45.9923077,16.7471777 44.3365385,15.5760238 43.7653846,13.3029469 Z M31.9903846,32.5721777 C31.3788462,32.5721777 30.4788462,32.5779469 29.2903846,32.5894854 L27.9288462,32.6010238 L26.9019231,33.4952546 C24.1846154,35.8606392 20.8788462,37.6202546 17.0134615,38.5491007 C13.9846154,39.2760238 10.6673077,39.4837161 7.05,39.1029469 C8.08846154,37.9202546 9.15576923,36.7029469 10.2461538,35.4625623 C15.5538462,29.4279469 20.2730769,24.0683315 23.9134615,19.9721777 L23.9942308,19.8914084 L24.0692308,19.80487 C24.3057692,19.5394854 25.2576923,18.4606392 25.4942308,18.1837161 C26.0538462,17.5433315 26.4923077,17.0356392 26.9076923,16.5337161 C28.6788462,14.4164084 29.9192308,12.6221777 30.8884615,10.6375623 L30.9807692,10.4471777 L31.05,10.2510238 C31.8403846,8.01256228 31.9384615,5.81448535 31.4076923,3.74333151 C32.7057692,3.78371612 34.0903846,3.85294689 35.5442308,3.95102381 C37.4653846,4.08371612 38.7461538,4.69525458 39.6461538,5.6356392 C39.9807692,5.98179305 40.2346154,6.35679305 40.4192308,6.71448535 C40.4769231,6.82986997 40.5173077,6.92217766 40.5519231,7.00294689 L40.8403846,8.02410074 C39.9346154,10.0144854 39.6923077,12.2529469 40.1826923,14.2087161 C40.3557692,14.8894854 40.5807692,15.5010238 40.8923077,16.1933315 C41.0134615,16.4644854 41.4403846,17.3529469 41.5269231,17.5375623 C42.1211538,18.8471777 42.4153846,20.0183315 42.4903846,22.0779469 C42.6807692,27.5356392 37.7192308,32.5721777 31.9903846,32.5721777 L31.9903846,32.5721777 Z"></path>
</svg>
