<svg width="48" height="48" viewBox="0 0 48 48" fill="none" xmlns="http://www.w3.org/2000/svg">
  <rect width="48" height="48" fill="white" fill-opacity="0.01"/>
  <path fill="#000" d="M31.3395872,1.99324578 L43.3170732,1.99324578 L43.3170732,4.89906191 L31.3395872,4.89906191 L31.3395872,1.99324578 Z M19.3380863,13.4904315 C21.9857411,12.2236398 23.3726079,10.2964353 23.3726079,7.31857411 C23.3726079,1.42889306 18.9898687,0 13.9287054,0 L0,0 L0,29.5624765 L14.3189493,29.5624765 C19.6863039,29.5624765 24.7234522,26.980863 24.7234522,20.9771107 C24.7234522,17.2667917 22.9703565,14.5230769 19.3380863,13.4904315 Z M6.49606004,5.04315197 L12.5898687,5.04315197 C14.9373358,5.04315197 17.0446529,5.69756098 17.0446529,8.42326454 C17.0446529,10.932833 15.4056285,11.9414634 13.0821764,11.9414634 L6.49606004,11.9414634 L6.49606004,5.04315197 Z M13.430394,24.5433396 L6.49005629,24.5433396 L6.49005629,16.4022514 L13.5684803,16.4022514 C16.4262664,16.4022514 18.2333959,17.5969981 18.2333959,20.6228893 C18.2333959,23.6007505 16.0780488,24.5433396 13.430394,24.5433396 L13.430394,24.5433396 Z M48,19.1699812 C48,12.8360225 44.2956848,7.5587242 37.5954972,7.5587242 C31.0814259,7.5587242 26.6506567,12.4637899 26.6506567,18.8938086 C26.6506567,25.5579737 30.8472795,30.132833 37.5954972,30.132833 C42.7046904,30.132833 46.012758,27.8333959 47.6037523,22.9283302 L42.4225141,22.9283302 C41.8581614,24.7594747 39.564728,25.720075 37.7816135,25.720075 C34.3354597,25.720075 32.534334,23.7028143 32.534334,20.2746717 L47.9579737,20.2746717 C47.975985,19.9204503 48,19.5482176 48,19.1699812 L48,19.1699812 Z M32.534334,16.5643527 C32.7204503,13.7485929 34.5996248,11.9894934 37.4093809,11.9894934 C40.363227,11.9894934 41.8401501,13.7245779 42.0983114,16.5643527 L32.534334,16.5643527 Z"></path>
</svg>
