<svg width="48" height="48" viewBox="0 0 48 48" fill="none" xmlns="http://www.w3.org/2000/svg">
  <rect width="48" height="48" fill="white" fill-opacity="0.01"/>
  <path d="M45.4285714,40.5053571 L45.4285714,7.49464286 C46.9285714,6.96428571 48,5.53392857 48,3.85714286 C48,1.725 46.275,0 44.1428571,0 C42.4660714,0 41.0357143,1.07142857 40.5053571,2.57142857 L7.49464286,2.57142857 C6.96428571,1.07142857 5.53392857,0 3.85714286,0 C1.725,0 0,1.725 0,3.85714286 C0,5.53392857 1.07142857,6.96428571 2.57142857,7.49464286 L2.57142857,40.5053571 C1.07142857,41.0357143 0,42.4660714 0,44.1428571 C0,46.275 1.725,48 3.85714286,48 C5.53392857,48 6.96428571,46.9285714 7.49464286,45.4285714 L40.5053571,45.4285714 C41.0357143,46.9285714 42.4660714,48 44.1428571,48 C46.275,48 48,46.275 48,44.1428571 C48,42.4660714 46.9285714,41.0357143 45.4285714,40.5053571 Z M44.1428571,2.57142857 C44.8553571,2.57142857 45.4285714,3.14464286 45.4285714,3.85714286 C45.4285714,4.56964286 44.8553571,5.14285714 44.1428571,5.14285714 C43.4303571,5.14285714 42.8571429,4.56964286 42.8571429,3.85714286 C42.8571429,3.14464286 43.4303571,2.57142857 44.1428571,2.57142857 Z M3.85714286,45.4285714 C3.14464286,45.4285714 2.57142857,44.8553571 2.57142857,44.1428571 C2.57142857,43.4303571 3.14464286,42.8571429 3.85714286,42.8571429 C4.56964286,42.8571429 5.14285714,43.4303571 5.14285714,44.1428571 C5.14285714,44.8553571 4.56964286,45.4285714 3.85714286,45.4285714 Z M3.85714286,5.14285714 C3.14464286,5.14285714 2.57142857,4.56964286 2.57142857,3.85714286 C2.57142857,3.14464286 3.14464286,2.57142857 3.85714286,2.57142857 C4.56964286,2.57142857 5.14285714,3.14464286 5.14285714,3.85714286 C5.14285714,4.56964286 4.56964286,5.14285714 3.85714286,5.14285714 Z M41.5714286,41.5714286 L6.42857143,41.5714286 L6.42857143,6.42857143 L41.5714286,6.42857143 L41.5714286,41.5714286 Z M44.1428571,45.4285714 C43.4303571,45.4285714 42.8571429,44.8553571 42.8571429,44.1428571 C42.8571429,43.4303571 43.4303571,42.8571429 44.1428571,42.8571429 C44.8553571,42.8571429 45.4285714,43.4303571 45.4285714,44.1428571 C45.4285714,44.8553571 44.8553571,45.4285714 44.1428571,45.4285714 Z" fill="#000"></path>
  <path d="M12,21.9642857 L36,21.9642857 C36.4714286,21.9642857 36.8571429,21.5785714 36.8571429,21.1071429 L36.8571429,11.6785714 C36.8571429,11.2071429 36.4714286,10.8214286 36,10.8214286 L12,10.8214286 C11.5285714,10.8214286 11.1428571,11.2071429 11.1428571,11.6785714 L11.1428571,21.1071429 C11.1428571,21.5785714 11.5285714,21.9642857 12,21.9642857 Z M15,14.6785714 L33,14.6785714 L33,18.1071429 L15,18.1071429 L15,14.6785714 Z M12,37.1785714 L36,37.1785714 C36.4714286,37.1785714 36.8571429,36.7928571 36.8571429,36.3214286 L36.8571429,26.8928571 C36.8571429,26.4214286 36.4714286,26.0357143 36,26.0357143 L12,26.0357143 C11.5285714,26.0357143 11.1428571,26.4214286 11.1428571,26.8928571 L11.1428571,36.3214286 C11.1428571,36.7928571 11.5285714,37.1785714 12,37.1785714 Z M15,29.8928571 L33,29.8928571 L33,33.3214286 L15,33.3214286 L15,29.8928571 Z" fill="#000"></path>
</svg>
