<svg width="48" height="48" viewBox="0 0 48 48" fill="none" xmlns="http://www.w3.org/2000/svg">
  <rect width="48" height="48" fill="white" fill-opacity="0.01"/>
  <path d="M46.08,0 L1.92,0 C0.858,0 0,0.858 0,1.92 L0,46.08 C0,47.142 0.858,48 1.92,48 L46.08,48 C47.142,48 48,47.142 48,46.08 L48,1.92 C48,0.858 47.142,0 46.08,0 Z M43.68,43.68 L4.32,43.68 L4.32,4.32 L43.68,4.32 L43.68,43.68 Z" fill="#000"></path>
  <path d="M30.24,19.68 C30.24,20.8729351 31.2070649,21.84 32.4,21.84 C33.5929351,21.84 34.56,20.8729351 34.56,19.68 C34.56,18.4870649 33.5929351,17.52 32.4,17.52 C31.2070649,17.52 30.24,18.4870649 30.24,19.68 Z M13.704,29.37 L13.794,29.514 C13.794,29.52 13.8,29.52 13.8,29.526 L13.854,29.598 C13.86,29.604 13.866,29.61 13.866,29.616 C13.926,29.694 13.986,29.766 14.058,29.832 L14.07,29.844 C14.094,29.868 14.118,29.892 14.142,29.91 C14.19,29.958 14.244,30 14.298,30.036 L14.304,30.036 L14.376,30.09 C14.382,30.096 14.394,30.102 14.4,30.108 C14.472,30.156 14.55,30.204 14.634,30.24 C14.646,30.246 14.664,30.252 14.676,30.264 C14.7,30.276 14.718,30.282 14.742,30.294 C14.76,30.3 14.784,30.312 14.802,30.318 C14.832,30.33 14.862,30.342 14.892,30.348 C14.916,30.354 14.946,30.366 14.97,30.372 L15.024,30.39 L15.108,30.408 C15.12,30.414 15.138,30.414 15.15,30.42 C15.192,30.426 15.234,30.438 15.276,30.444 C15.288,30.444 15.3,30.444 15.312,30.45 C15.348,30.456 15.378,30.456 15.414,30.462 C15.426,30.462 15.438,30.462 15.456,30.468 C15.504,30.468 15.546,30.474 15.594,30.474 C15.642,30.474 15.684,30.474 15.732,30.468 C15.744,30.468 15.756,30.468 15.774,30.462 C15.81,30.462 15.846,30.456 15.876,30.45 C15.888,30.45 15.9,30.45 15.912,30.444 C15.954,30.438 15.996,30.432 16.038,30.42 C16.05,30.414 16.068,30.414 16.08,30.408 L16.164,30.39 L16.218,30.372 C16.242,30.366 16.272,30.354 16.296,30.348 C16.326,30.336 16.356,30.324 16.386,30.318 C16.404,30.312 16.428,30.3 16.446,30.294 C16.47,30.282 16.488,30.276 16.512,30.264 C16.524,30.258 16.542,30.252 16.554,30.24 C16.632,30.198 16.71,30.156 16.788,30.108 C16.794,30.102 16.806,30.096 16.812,30.09 L16.884,30.036 L16.89,30.036 C16.944,29.994 16.998,29.952 17.046,29.91 C17.07,29.886 17.094,29.868 17.118,29.844 L17.13,29.832 C17.196,29.766 17.262,29.688 17.322,29.616 C17.328,29.61 17.334,29.604 17.334,29.598 L17.388,29.526 C17.388,29.52 17.394,29.52 17.394,29.514 L17.484,29.37 C17.49,29.358 17.496,29.352 17.502,29.34 C17.664,29.034 17.76,28.686 17.76,28.32 C17.76,27.954 17.664,27.6 17.502,27.3 C17.496,27.288 17.49,27.276 17.484,27.27 L17.394,27.126 C17.394,27.12 17.388,27.12 17.388,27.114 L17.334,27.042 C17.328,27.036 17.322,27.03 17.322,27.024 C17.262,26.946 17.202,26.874 17.13,26.808 L17.118,26.796 C17.094,26.772 17.07,26.748 17.046,26.73 C16.998,26.682 16.944,26.64 16.89,26.604 L16.884,26.604 L16.812,26.55 C16.806,26.544 16.794,26.538 16.788,26.532 C16.716,26.484 16.638,26.436 16.554,26.4 C16.542,26.394 16.524,26.388 16.512,26.376 C16.488,26.364 16.47,26.358 16.446,26.346 C16.428,26.34 16.404,26.328 16.386,26.322 C16.356,26.31 16.326,26.298 16.296,26.292 C16.272,26.286 16.242,26.274 16.218,26.268 L16.164,26.25 L16.08,26.232 C16.068,26.226 16.05,26.226 16.038,26.22 C15.996,26.214 15.954,26.202 15.912,26.196 C15.9,26.196 15.888,26.196 15.876,26.19 C15.84,26.184 15.81,26.184 15.774,26.178 C15.762,26.178 15.75,26.178 15.732,26.172 C15.684,26.172 15.642,26.166 15.594,26.166 C15.546,26.166 15.504,26.166 15.456,26.172 C15.444,26.172 15.432,26.172 15.414,26.178 C15.378,26.178 15.342,26.184 15.312,26.19 C15.3,26.19 15.288,26.19 15.276,26.196 C15.234,26.202 15.192,26.208 15.15,26.22 C15.138,26.226 15.12,26.226 15.108,26.232 L15.024,26.25 L14.97,26.268 C14.946,26.274 14.916,26.286 14.892,26.292 C14.862,26.304 14.832,26.316 14.802,26.322 C14.784,26.328 14.76,26.34 14.742,26.346 C14.718,26.358 14.7,26.364 14.676,26.376 C14.664,26.382 14.646,26.388 14.634,26.4 C14.556,26.442 14.478,26.484 14.4,26.532 C14.394,26.538 14.382,26.544 14.376,26.55 L14.304,26.604 L14.298,26.604 C14.244,26.646 14.19,26.688 14.142,26.73 C14.118,26.754 14.094,26.772 14.07,26.796 L14.058,26.808 C13.9908652,26.8771512 13.9268033,26.9492208 13.866,27.024 C13.86,27.03 13.854,27.036 13.854,27.042 L13.8,27.114 C13.8,27.12 13.794,27.12 13.794,27.126 L13.704,27.27 C13.698,27.282 13.692,27.288 13.686,27.3 C13.524,27.606 13.428,27.954 13.428,28.32 C13.428,28.686 13.524,29.04 13.686,29.34 C13.692,29.352 13.698,29.358 13.704,29.37 L13.704,29.37 Z" fill="#2F88FF"></path>
  <path d="M4.32,43.68 L43.68,43.68 L43.68,4.32 L4.32,4.32 L4.32,43.68 Z M30.504,13.734 C30.492,13.734 30.486,13.74 30.48,13.74 L30.48,9.12 C30.48,8.856 30.696,8.64 30.96,8.64 L33.84,8.64 C34.104,8.64 34.32,8.856 34.32,9.12 L34.32,13.74 C34.308,13.74 34.302,13.734 34.296,13.734 C36.816,14.538 38.64,16.896 38.64,19.68 C38.64,22.464 36.816,24.822 34.296,25.626 C34.308,25.626 34.314,25.62 34.32,25.62 L34.32,38.88 C34.32,39.144 34.104,39.36 33.84,39.36 L30.96,39.36 C30.696,39.36 30.48,39.144 30.48,38.88 L30.48,25.62 C30.492,25.62 30.498,25.626 30.504,25.626 C27.984,24.822 26.16,22.464 26.16,19.68 C26.16,16.896 27.984,14.538 30.504,13.734 Z M13.68,22.38 L13.68,9.12 C13.68,8.856 13.896,8.64 14.16,8.64 L17.04,8.64 C17.304,8.64 17.52,8.856 17.52,9.12 L17.52,22.38 C20.022,23.196 21.84,25.548 21.84,28.32 C21.84,31.092 20.022,33.45 17.52,34.26 L17.52,38.88 C17.52,39.144 17.304,39.36 17.04,39.36 L14.16,39.36 C13.896,39.36 13.68,39.144 13.68,38.88 L13.68,34.26 C11.178,33.444 9.36,31.092 9.36,28.32 C9.36,25.548 11.178,23.19 13.68,22.38 Z" fill="#2F88FF"></path>
  <path d="M13.68,34.26 L13.68,38.88 C13.68,39.144 13.896,39.36 14.16,39.36 L17.04,39.36 C17.304,39.36 17.52,39.144 17.52,38.88 L17.52,34.26 C20.022,33.45 21.84,31.092 21.84,28.32 C21.84,25.548 20.022,23.196 17.52,22.38 L17.52,9.12 C17.52,8.856 17.304,8.64 17.04,8.64 L14.16,8.64 C13.896,8.64 13.68,8.856 13.68,9.12 L13.68,22.38 C11.178,23.19 9.36,25.548 9.36,28.32 C9.36,31.092 11.178,33.444 13.68,34.26 Z M13.686,27.3 C13.692,27.288 13.698,27.282 13.704,27.27 L13.794,27.126 C13.794,27.12 13.8,27.12 13.8,27.114 L13.854,27.042 C13.854,27.036 13.86,27.03 13.866,27.024 C13.926,26.952 13.992,26.874 14.058,26.808 L14.07,26.796 C14.094,26.772 14.118,26.754 14.142,26.73 C14.19,26.688 14.244,26.646 14.298,26.604 L14.304,26.604 L14.376,26.55 C14.382,26.544 14.394,26.538 14.4,26.532 C14.478,26.484 14.556,26.442 14.634,26.4 C14.646,26.388 14.664,26.382 14.676,26.376 C14.7,26.364 14.718,26.358 14.742,26.346 C14.76,26.34 14.784,26.328 14.802,26.322 C14.832,26.316 14.862,26.304 14.892,26.292 C14.916,26.286 14.946,26.274 14.97,26.268 L15.024,26.25 L15.108,26.232 C15.12,26.226 15.138,26.226 15.15,26.22 C15.192,26.208 15.234,26.202 15.276,26.196 C15.288,26.19 15.3,26.19 15.312,26.19 C15.342,26.184 15.378,26.178 15.414,26.178 C15.432,26.172 15.444,26.172 15.456,26.172 C15.504,26.166 15.546,26.166 15.594,26.166 C15.642,26.166 15.684,26.172 15.732,26.172 C15.75,26.178 15.762,26.178 15.774,26.178 C15.81,26.184 15.84,26.184 15.876,26.19 C15.888,26.196 15.9,26.196 15.912,26.196 C15.954,26.202 15.996,26.214 16.038,26.22 C16.05,26.226 16.068,26.226 16.08,26.232 L16.164,26.25 L16.218,26.268 C16.242,26.274 16.272,26.286 16.296,26.292 C16.326,26.298 16.356,26.31 16.386,26.322 C16.404,26.328 16.428,26.34 16.446,26.346 C16.47,26.358 16.488,26.364 16.512,26.376 C16.524,26.388 16.542,26.394 16.554,26.4 C16.638,26.436 16.716,26.484 16.788,26.532 C16.794,26.538 16.806,26.544 16.812,26.55 L16.884,26.604 L16.89,26.604 C16.944,26.64 16.998,26.682 17.046,26.73 C17.07,26.748 17.094,26.772 17.118,26.796 L17.13,26.808 C17.202,26.874 17.262,26.946 17.322,27.024 C17.322,27.03 17.328,27.036 17.334,27.042 L17.388,27.114 C17.388,27.12 17.394,27.12 17.394,27.126 L17.484,27.27 C17.663819,27.5908242 17.7588147,27.9522206 17.76,28.32 C17.76,28.686 17.664,29.034 17.502,29.34 C17.496,29.352 17.49,29.358 17.484,29.37 L17.394,29.514 C17.394,29.52 17.388,29.52 17.388,29.526 L17.334,29.598 C17.334,29.604 17.328,29.61 17.322,29.616 C17.262,29.688 17.196,29.766 17.13,29.832 L17.118,29.844 C17.094,29.868 17.07,29.886 17.046,29.91 C16.998,29.952 16.944,29.994 16.89,30.036 L16.884,30.036 L16.812,30.09 C16.806,30.096 16.794,30.102 16.788,30.108 C16.71,30.156 16.632,30.198 16.554,30.24 C16.542,30.252 16.524,30.258 16.512,30.264 C16.488,30.276 16.47,30.282 16.446,30.294 C16.428,30.3 16.404,30.312 16.386,30.318 C16.356,30.324 16.326,30.336 16.296,30.348 C16.272,30.354 16.242,30.366 16.218,30.372 L16.164,30.39 L16.08,30.408 C16.068,30.414 16.05,30.414 16.038,30.42 C15.996,30.432 15.954,30.438 15.912,30.444 C15.9,30.45 15.888,30.45 15.876,30.45 C15.846,30.456 15.81,30.462 15.774,30.462 C15.756,30.468 15.744,30.468 15.732,30.468 C15.684,30.474 15.642,30.474 15.594,30.474 C15.546,30.474 15.504,30.468 15.456,30.468 C15.438,30.462 15.426,30.462 15.414,30.462 C15.378,30.456 15.348,30.456 15.312,30.45 C15.3,30.444 15.288,30.444 15.276,30.444 C15.234,30.438 15.192,30.426 15.15,30.42 C15.138,30.414 15.12,30.414 15.108,30.408 L15.024,30.39 L14.97,30.372 C14.946,30.366 14.916,30.354 14.892,30.348 C14.862,30.342 14.832,30.33 14.802,30.318 C14.784,30.312 14.76,30.3 14.742,30.294 C14.718,30.282 14.7,30.276 14.676,30.264 C14.664,30.252 14.646,30.246 14.634,30.24 C14.55,30.204 14.472,30.156 14.4,30.108 C14.394,30.102 14.382,30.096 14.376,30.09 L14.304,30.036 L14.298,30.036 C14.244,30 14.19,29.958 14.142,29.91 C14.118,29.892 14.094,29.868 14.07,29.844 L14.058,29.832 C13.986,29.766 13.926,29.694 13.866,29.616 C13.866,29.61 13.86,29.604 13.854,29.598 L13.8,29.526 C13.8,29.52 13.794,29.52 13.794,29.514 L13.704,29.37 C13.698,29.358 13.692,29.352 13.686,29.34 C13.524,29.04 13.428,28.686 13.428,28.32 C13.428,27.954 13.524,27.606 13.686,27.3 L13.686,27.3 Z M30.504,25.626 C30.498,25.626 30.492,25.62 30.48,25.62 L30.48,38.88 C30.48,39.144 30.696,39.36 30.96,39.36 L33.84,39.36 C34.104,39.36 34.32,39.144 34.32,38.88 L34.32,25.62 C34.314,25.62 34.308,25.626 34.296,25.626 C36.816,24.822 38.64,22.464 38.64,19.68 C38.64,16.896 36.816,14.538 34.296,13.734 C34.302,13.734 34.308,13.74 34.32,13.74 L34.32,9.12 C34.32,8.856 34.104,8.64 33.84,8.64 L30.96,8.64 C30.696,8.64 30.48,8.856 30.48,9.12 L30.48,13.74 C30.486,13.74 30.492,13.734 30.504,13.734 C27.984,14.538 26.16,16.896 26.16,19.68 C26.16,22.464 27.984,24.822 30.504,25.626 Z M32.4,17.52 C33.594,17.52 34.56,18.486 34.56,19.68 C34.56,20.874 33.594,21.84 32.4,21.84 C31.206,21.84 30.24,20.874 30.24,19.68 C30.24,18.486 31.206,17.52 32.4,17.52 Z" fill="#000"></path>
</svg>
