<?xml version="1.0" encoding="UTF-8"?>
<svg width="48" height="48" viewBox="0 0 48 48" fill="none" xmlns="http://www.w3.org/2000/svg">
  <rect width="48" height="48" fill="white" fill-opacity="0.01"/>
  <path fill="#000" d="M45.9060216,28.1731689 L0.522437668,28.1731689 C0.235488725,28.1731689 0.000712316934,28.4079453 0.000712316934,28.6948943 L0.000712316934,32.6078344 C0.000712316934,32.8947834 0.235488725,33.1295598 0.522437668,33.1295598 L39.9909604,33.1295598 L30.5803394,45.0640272 C30.3129552,45.4031486 30.5542532,45.9118309 30.9911981,45.9118309 L35.7193341,45.9118309 C36.0388909,45.9118309 36.338883,45.7683564 36.5410516,45.5140153 L47.5494565,31.5513406 C48.625515,30.1818115 47.6538015,28.1731689 45.9060216,28.1731689 L45.9060216,28.1731689 Z M47.4777192,12.7822711 L8.00919645,12.7822711 L17.4198175,0.847803695 C17.6872017,0.508682217 17.4459037,0 17.0089587,0 L12.2808228,0 C11.961266,0 11.6612739,0.143474471 11.4591053,0.39781558 L0.450700432,14.3604903 C-0.625358104,15.7300193 0.346355362,17.7386619 2.08761372,17.7386619 L47.4777192,17.7386619 C47.7646682,17.7386619 47.9994446,17.5038855 47.9994446,17.2169366 L47.9994446,13.3039964 C47.9994446,13.0170475 47.7646682,12.7822711 47.4777192,12.7822711 Z"></path>
</svg>
