<svg width="48" height="48" viewBox="0 0 48 48" fill="none" xmlns="http://www.w3.org/2000/svg">
  <rect width="48" height="48" fill="white" fill-opacity="0.01"/>
  <path d="M24.317602,1.39094388 L20.4420918,1.39094388 C20.240051,1.39094388 20.0747449,1.55625 20.0747449,1.75829082 L20.0747449,22.5868622 L19.7257653,22.5868622 L5.30127551,1.55012755 C5.23392857,1.45216837 5.11760204,1.39094388 5.00127551,1.39094388 L0.929846939,1.39094388 C0.727806122,1.39094388 0.5625,1.55625 0.5625,1.75829082 L0.5625,30.1664541 C0.5625,30.3684949 0.727806122,30.533801 0.929846939,30.533801 L4.76862245,30.533801 C4.97066327,30.533801 5.13596939,30.3684949 5.13596939,30.1664541 L5.13596939,9.05012755 L5.48494898,9.05012755 L20.0686224,30.3746173 C20.1359694,30.4725765 20.2522959,30.533801 20.3747449,30.533801 L24.317602,30.533801 C24.5196429,30.533801 24.684949,30.3684949 24.684949,30.1664541 L24.684949,1.75829082 C24.684949,1.55625 24.5196429,1.39094388 24.317602,1.39094388 Z M47.4604592,26.6766582 L28.8482143,26.6766582 C28.5788265,26.6766582 28.3584184,26.8970663 28.3584184,27.1664541 L28.3584184,30.1052296 C28.3584184,30.3746173 28.5788265,30.5950255 28.8482143,30.5950255 L47.4604592,30.5950255 C47.7298469,30.5950255 47.9502551,30.3746173 47.9502551,30.1052296 L47.9502551,27.1664541 C47.9502551,26.8970663 47.7298469,26.6766582 47.4604592,26.6766582 Z M38.1420918,22.8195153 C41.3808673,22.8195153 43.9706633,21.7664541 45.8686224,19.6542092 C47.6686224,17.6399235 48.5625,15.0133929 48.5625,11.7684949 C48.5625,8.51747449 47.6686224,5.86033163 45.8686224,3.85216837 C43.9767857,1.72155612 41.3869898,0.65625 38.1420918,0.65625 C34.8543367,0.65625 32.2706633,1.72767857 30.4094388,3.88890306 C28.6216837,5.91543367 27.7522959,8.53584184 27.7522959,11.7684949 C27.7522959,14.9766582 28.6278061,17.5970663 30.4155612,19.6235969 C32.2890306,21.7480867 34.884949,22.8195153 38.1420918,22.8195153 L38.1420918,22.8195153 Z M33.7645408,6.67461735 C34.7992347,5.41339286 36.2318878,4.78278061 38.1359694,4.78278061 C40.0645408,4.78278061 41.4910714,5.37053571 42.4829082,6.56441327 C43.4869898,7.80727041 44.007398,9.53992347 44.007398,11.7623724 C44.007398,13.9848214 43.4931122,15.6868622 42.4890306,16.8991071 C41.4788265,18.0868622 40.040051,18.6868622 38.1359694,18.6868622 C36.2257653,18.6868622 34.7686224,18.05625 33.7645408,16.8256378 C32.7665816,15.5950255 32.2645408,13.9297194 32.2645408,11.7684949 C32.2706633,9.57665816 32.7665816,7.91135204 33.7645408,6.67461735 L33.7645408,6.67461735 Z" fill="#000"></path>
</svg>
