<svg width="48" height="48" viewBox="0 0 48 48" fill="none" xmlns="http://www.w3.org/2000/svg">
  <rect width="48" height="48" fill="white" fill-opacity="0.01"/>
  <path d="M9.39325243,0.00582524272 L9.39325243,24.9378641 L9.42325243,24.9378641 L9.39325243,0.00582524272 Z M41.2660194,24.7572816 L39.9902913,23.6504854 L40.8058252,22.1650485 C41.0725868,21.6776491 41.210909,21.1303741 41.207767,20.5747573 C41.207767,19.6135922 40.7941748,18.6990291 40.0660194,18.0699029 L38.7902913,16.9631068 L39.6,15.4834951 C39.8667615,14.9960957 40.0050838,14.4488207 40.0019417,13.8932039 C40.0019417,12.9320388 39.5883495,12.0174757 38.8601942,11.3883495 L37.584466,10.2815534 L38.3941748,8.80194175 C38.6609363,8.31454234 38.7992586,7.76726728 38.7961165,7.21165049 C38.7961165,5.90679612 38.0271845,4.73009709 36.838835,4.19417476 L13.5728155,4.19417476 L13.5728155,24.3029126 C14.6563107,28.2174757 16.2757282,34.0893204 18.4368932,41.9242718 C18.7470489,43.0281101 19.7486152,43.7947118 20.8951456,43.8060074 C21.3320388,43.8116505 21.768932,43.6776699 22.1242718,43.415534 C22.7009709,42.984466 23.0097087,42.3320388 22.9747573,41.638835 L22.415534,30.0815534 L40.7300971,30.0815534 C41.7669903,29.4466019 42.407767,28.3747573 42.407767,27.2621359 C42.407767,26.3009709 41.9941748,25.3864078 41.2660194,24.7572816 Z" fill="#2F88FF"></path>
  <path d="M0,1.86407767 L0,23.0679612 C0,24.0990291 0.833009709,24.9320388 1.86407767,24.9320388 L5.65048544,24.9320388 L5.65048544,0 L1.86407767,0 C0.833009709,0 0,0.833009709 0,1.86407767 Z M45.0815534,22.7359223 C45.2912621,22.0368932 45.3961165,21.3145631 45.3961165,20.5805825 C45.3961165,18.9320388 44.8543689,17.3475728 43.8757282,16.0543689 C44.0854369,15.3553398 44.1902913,14.6330097 44.1902913,13.8990291 C44.1902913,12.2504854 43.6485437,10.6660194 42.6699029,9.37281553 C42.8796117,8.67378641 42.984466,7.95145631 42.984466,7.21747573 C42.984466,4.21165049 41.1961165,1.50291262 38.423301,0.32038835 C37.9359169,0.1102637 37.4103551,0.0031680917 36.8796117,0.0057769829 L9.37864078,0.0057769829 L9.3961165,24.9378641 L14.3941748,43.0427184 C15.1980583,45.961165 17.8776699,48 20.9067961,48 C22.6368932,48 24.2504854,47.3126214 25.4446602,46.0543689 C26.638835,44.8019417 27.2504854,43.1592233 27.1631068,41.4291262 L26.8135922,34.2699029 L40.7883495,34.2699029 C41.4932039,34.2699029 42.1805825,34.0834951 42.7864078,33.7281553 C45.1398058,32.3592233 46.6019417,29.8776699 46.6019417,27.2621359 C46.6019417,25.6135922 46.0601942,24.0291262 45.0815534,22.7359223 L45.0815534,22.7359223 Z M40.7300971,30.0815534 L22.415534,30.0815534 L22.9747573,41.638835 C23.0097087,42.3320388 22.7009709,42.984466 22.1242718,43.415534 C21.768932,43.6776699 21.3320388,43.8116505 20.8951456,43.8060074 C19.7486152,43.7947118 18.7470489,43.0281101 18.4368932,41.9242718 C16.2757282,34.0951456 14.6563107,28.223301 13.5728155,24.3029126 L13.5728155,4.19417476 L36.838835,4.19417476 C38.0282044,4.72720594 38.7943204,5.90830148 38.7961165,7.21165049 C38.7961165,7.77669903 38.6621359,8.31262136 38.3941748,8.80194175 L37.584466,10.2815534 L38.8601942,11.3883495 C39.5867827,12.0176464 40.0035508,12.9319844 40.0019417,13.8932039 C40.0019417,14.4582524 39.8679612,14.9941748 39.6,15.4834951 L38.7902913,16.9631068 L40.0660194,18.0699029 C40.792608,18.6991998 41.209376,19.6135378 41.207767,20.5747573 C41.207767,21.1398058 41.0737864,21.6757282 40.8058252,22.1650485 L39.9902913,23.6504854 L41.2660194,24.7572816 C41.992608,25.3865784 42.409376,26.3009165 42.4077716,27.2621359 C42.4077716,28.3747573 41.7669903,29.4466019 40.7300971,30.0815534 L40.7300971,30.0815534 Z" fill="#000"></path>
</svg>
