<svg width="48" height="48" viewBox="0 0 48 48" fill="none" xmlns="http://www.w3.org/2000/svg">
  <rect width="48" height="48" fill="white" fill-opacity="0.01"/>
  <path d="M42.3428571,39.4767857 C42.3535714,39.4607143 42.3696429,39.4446429 42.3803571,39.4285714 C45.8892857,35.2553571 48,29.8767857 48,24 C48,18.1232143 45.8892857,12.7446429 42.3857143,8.57142857 C42.375,8.55535714 42.3589286,8.54464286 42.3482143,8.52857143 C42.2892857,8.45892857 42.2357143,8.39464286 42.1767857,8.33035714 C42.1553571,8.30357143 42.1339286,8.28214286 42.1125,8.25535714 L41.8928571,8.00357143 L41.8875,7.99821429 C41.8071429,7.90714286 41.7214286,7.81607143 41.6410714,7.725 L41.6357143,7.71964286 C41.4642857,7.5375 41.2928571,7.35535714 41.1160714,7.17857143 L41.1107143,7.17321429 L40.8535714,6.91607143 L40.8375,6.9 C40.7571429,6.81964286 40.6767857,6.74464286 40.5964286,6.66964286 C40.5696429,6.64285714 40.5428571,6.61607143 40.5107143,6.58928571 C40.4571429,6.53571429 40.4035714,6.4875 40.35,6.43928571 C40.3339286,6.42321429 40.3125,6.40714286 40.2964286,6.38571429 C36.0214286,2.42142857 30.2946429,0 24,0 C17.7053571,0 11.9785714,2.42142857 7.69821429,6.38571429 C7.68214286,6.40178571 7.66071429,6.41785714 7.64464286,6.43928571 C7.59107143,6.4875 7.5375,6.54107143 7.48392857,6.59464286 C7.45714286,6.62142857 7.43035714,6.64821429 7.39821429,6.675 C7.31785714,6.75 7.2375,6.83035714 7.15714286,6.90535714 L7.14107143,6.92142857 L6.88392857,7.17857143 L6.87857143,7.18392857 C6.70178571,7.36071429 6.53035714,7.54285714 6.35892857,7.725 L6.35357143,7.73035714 C6.26785714,7.82142857 6.1875,7.9125 6.10714286,8.00357143 L6.10178571,8.00892857 C6.02678571,8.08928571 5.95178571,8.175 5.88214286,8.26071429 C5.86071429,8.2875 5.83928571,8.30892857 5.81785714,8.33571429 C5.75892857,8.4 5.70535714,8.46964286 5.64642857,8.53392857 C5.63571429,8.55 5.61964286,8.56071429 5.60892857,8.57678571 C2.11071429,12.7446429 0,18.1232143 0,24 C0,29.8767857 2.11071429,35.2553571 5.61428571,39.4285714 C5.625,39.4446429 5.64107143,39.4607143 5.65178571,39.4767857 L5.81785714,39.675 C5.83928571,39.7017857 5.86071429,39.7232143 5.88214286,39.75 L6.10178571,40.0017857 C6.10178571,40.0071429 6.10714286,40.0071429 6.10714286,40.0125 C6.1875,40.1035714 6.26785714,40.1946429 6.35357143,40.2803571 L6.35892857,40.2857143 C6.53035714,40.4678571 6.70178571,40.65 6.87321429,40.8267857 L6.87857143,40.8321429 C6.96428571,40.9178571 7.04464286,41.0035714 7.13035714,41.0839286 L7.14642857,41.1 C7.32321429,41.2767857 7.50535714,41.4482143 7.6875,41.6142857 C11.9785714,45.5785714 17.7053571,48 24,48 C30.2946429,48 36.0214286,45.5785714 40.3017857,41.6142857 C40.4842945,41.4470062 40.6629136,41.2755319 40.8375,41.1 L40.8535714,41.0839286 C40.9392857,40.9982143 41.025,40.9178571 41.1053571,40.8321429 L41.1107143,40.8267857 C41.2875,40.65 41.4589286,40.4678571 41.625,40.2857143 L41.6303571,40.2803571 C41.7107143,40.1892857 41.7964286,40.1035714 41.8767857,40.0125 C41.8767857,40.0071429 41.8821429,40.0071429 41.8821429,40.0017857 C41.9571429,39.9214286 42.0321429,39.8357143 42.1017857,39.75 C42.1232143,39.7232143 42.1446429,39.7017857 42.1660714,39.675 C42.2266454,39.6104147 42.2855925,39.5443226 42.3428571,39.4767857 L42.3428571,39.4767857 Z M42.5625,31.8375 C41.8232143,33.5839286 40.8482143,35.2017857 39.6589286,36.6696429 C38.3195277,35.5120875 36.855104,34.5076546 35.2928571,33.675 C35.9142857,31.1625 36.3,28.4035714 36.4017857,25.5 L44.0892857,25.5 C43.9285714,27.6910714 43.4142857,29.8178571 42.5625,31.8375 L42.5625,31.8375 Z M44.0892857,22.5 L36.4017857,22.5 C36.3,19.5964286 35.9142857,16.8375 35.2928571,14.325 C36.8625,13.4892857 38.325,12.4821429 39.6589286,11.3303571 C42.2441279,14.5123636 43.7905301,18.4110924 44.0892857,22.5 L44.0892857,22.5 Z M31.8375,5.4375 C33.9642857,6.3375 35.8982143,7.58035714 37.6017857,9.14464286 C36.6121477,9.98728469 35.5469248,10.736886 34.4196429,11.3839286 C33.5785714,8.97321429 32.5017857,6.87857143 31.2482143,5.20178571 C31.4464286,5.27678571 31.6446429,5.35714286 31.8375,5.4375 Z M26.9839286,42.9696429 C26.4910714,43.3553571 25.9982143,43.65 25.5,43.8482143 L25.5,33.9107143 C27.6256667,34.0590166 29.716027,34.5323739 31.6982143,35.3142857 C31.2535714,36.6321429 30.7392857,37.8482143 30.1446429,38.9464286 C29.2125,40.6821429 28.1196429,42.0696429 26.9839286,42.9696429 L26.9839286,42.9696429 Z M30.1446429,9.05357143 C30.7339286,10.1571429 31.2535714,11.3732143 31.6982143,12.6857143 C29.716027,13.4676261 27.6256667,13.9409834 25.5,14.0892857 L25.5,4.15714286 C25.9928571,4.35535714 26.4910714,4.64464286 26.9839286,5.03571429 C28.1196429,5.93035714 29.2125,7.31785714 30.1446429,9.05357143 L30.1446429,9.05357143 Z M25.5,30.9053571 L25.5,25.5 L33.4017857,25.5 C33.3160714,27.8678571 33.0214286,30.1660714 32.5285714,32.3464286 L32.5125,32.4107143 C30.2642861,31.558175 27.9000374,31.0506472 25.5,30.9053571 L25.5,30.9053571 Z M25.5,22.5 L25.5,17.0946429 C27.9535714,16.9446429 30.3107143,16.425 32.5125,15.5892857 L32.5285714,15.6535714 C33.0214286,17.8339286 33.3160714,20.1267857 33.4017857,22.5 L25.5,22.5 Z M22.5,25.5 L22.5,30.9053571 C20.0464286,31.0553571 17.6892857,31.575 15.4875,32.4107143 L15.4714286,32.3464286 C14.9785714,30.1660714 14.6839286,27.8732143 14.5982143,25.5 L22.5,25.5 Z M14.5982143,22.5 C14.6839286,20.1321429 14.9785714,17.8339286 15.4714286,15.6535714 L15.4875,15.5892857 C17.6892857,16.425 20.0410714,16.9446429 22.5,17.0946429 L22.5,22.5 L14.5982143,22.5 Z M22.5,33.9107143 L22.5,43.8428571 C22.0071429,43.6446429 21.5089286,43.3553571 21.0160714,42.9642857 C19.8803571,42.0696429 18.7821429,40.6767857 17.85,38.9410714 C17.2607143,37.8375 16.7410714,36.6214286 16.2964286,35.3089286 C18.2892857,34.5267857 20.3625,34.0607143 22.5,33.9107143 Z M22.5,14.0892857 C20.3743333,13.9409834 18.283973,13.4676261 16.3017857,12.6857143 C16.7464286,11.3678571 17.2607143,10.1517857 17.8553571,9.05357143 C18.7875,7.31785714 19.8803571,5.925 21.0214286,5.03035714 C21.5142857,4.64464286 22.0071429,4.35 22.5053571,4.15178571 L22.5053571,14.0892857 L22.5,14.0892857 Z M16.1625,5.4375 C16.3607143,5.35714286 16.5535714,5.27678571 16.7517857,5.20178571 C15.4982143,6.87857143 14.4214286,8.97321429 13.5803571,11.3839286 C12.4553571,10.7410714 11.3892857,9.99107143 10.3982143,9.14464286 C12.1017857,7.58035714 14.0357143,6.3375 16.1625,5.4375 L16.1625,5.4375 Z M5.4375,16.1625 C6.17678571,14.4160714 7.15178571,12.7982143 8.34107143,11.3303571 C9.675,12.4821429 11.1375,13.4892857 12.7071429,14.325 C12.0857143,16.8375 11.7,19.5964286 11.5982143,22.5 L3.91071429,22.5 C4.07142857,20.3089286 4.58571429,18.1821429 5.4375,16.1625 Z M3.91071429,25.5 L11.5982143,25.5 C11.7,28.4035714 12.0857143,31.1625 12.7071429,33.675 C11.144896,34.5076546 9.68047227,35.5120875 8.34107143,36.6696429 C5.75587214,33.4876364 4.20946989,29.5889076 3.91071429,25.5 Z M16.1625,42.5625 C14.0357143,41.6625 12.1017857,40.4196429 10.3982143,38.8553571 C11.3892857,38.0089286 12.4553571,37.2642857 13.5803571,36.6160714 C14.4214286,39.0267857 15.4982143,41.1214286 16.7517857,42.7982143 C16.5535714,42.7232143 16.3553571,42.6428571 16.1625,42.5625 Z M31.8375,42.5625 C31.6392857,42.6428571 31.4464286,42.7232143 31.2482143,42.7982143 C32.5017857,41.1214286 33.5785714,39.0267857 34.4196429,36.6160714 C35.5446429,37.2589286 36.6107143,38.0089286 37.6017857,38.8553571 C35.9076564,40.4131244 33.9576772,41.6672002 31.8375,42.5625 L31.8375,42.5625 Z" fill="#000"></path>
</svg>
