<svg width="48" height="48" viewBox="0 0 48 48" fill="none" xmlns="http://www.w3.org/2000/svg">
  <rect width="48" height="48" fill="white" fill-opacity="0.01"/>
  <path d="M33.0833637,3.55296687 C29.4838005,3.55296687 26.5598835,6.47688387 26.5598835,10.076447 C26.5598835,12.9945395 28.4878049,15.4699672 31.1321442,16.3028759 L31.1321442,21.8886058 L8.62031307,29.2624681 L8.62031307,12.7033127 C11.1947579,11.8296323 13.0469603,9.3891518 13.0469603,6.52348016 C13.0469603,2.923917 10.1230433,0 6.52348016,0 C2.923917,0 0,2.923917 0,6.52348016 C0,9.3891518 1.8522024,11.8238078 4.42664725,12.7033127 L4.42664725,35.2966873 C1.8522024,36.1703677 0,38.6108482 0,41.4765198 C0,45.076083 2.923917,48 6.52348016,48 C10.1230433,48 13.0469603,45.076083 13.0469603,41.4765198 C13.0469603,38.6108482 11.1947579,36.1761922 8.62031307,35.2966873 L8.62031307,33.6774663 L33.2872224,25.5988351 C34.5025489,25.2037216 35.3239138,24.0693437 35.3199854,22.7914088 L35.3199854,16.2038588 C37.8187113,15.2835821 39.6068438,12.8838733 39.6068438,10.076447 C39.6068438,6.47688387 36.6829268,3.55296687 33.0833637,3.55296687 Z M3.72770295,6.52348016 C3.75876873,5.00165296 5.00133591,3.78419203 6.52348016,3.78419203 C8.04562441,3.78419203 9.28819159,5.00165296 9.31925737,6.52348016 C9.28819159,8.04530736 8.04562441,9.26276829 6.52348016,9.26276829 C5.00133591,9.26276829 3.75876873,8.04530736 3.72770295,6.52348016 L3.72770295,6.52348016 Z M9.31925737,41.4706953 C9.28819159,42.9925225 8.04562441,44.2099834 6.52348016,44.2099834 C5.00133591,44.2099834 3.75876873,42.9925225 3.72770295,41.4706953 C3.75876873,39.9488681 5.00133591,38.7314072 6.52348016,38.7314072 C8.04562441,38.7314072 9.28819159,39.9488681 9.31925737,41.4706953 L9.31925737,41.4706953 Z M33.0833637,12.8722242 C31.5615365,12.8411585 30.3440755,11.5985913 30.3440755,10.076447 C30.3440755,8.55430279 31.5615365,7.31173561 33.0833637,7.28066982 C34.6051909,7.31173561 35.8226518,8.55430279 35.8226518,10.076447 C35.8226518,11.5985913 34.6051909,12.8411585 33.0833637,12.8722242 L33.0833637,12.8722242 Z" fill="#000"></path>
</svg>
