<svg width="48" height="48" viewBox="0 0 48 48" fill="none" xmlns="http://www.w3.org/2000/svg">
  <rect width="48" height="48" fill="white" fill-opacity="0.01"/>
  <path d="M48.5636364,12.5945595 L34.8181818,12.5945595 C34.5781818,12.5945595 34.3818182,12.7909231 34.3818182,13.0309231 L34.3818182,35.1763777 C34.3818182,35.4163777 34.5781818,35.6127413 34.8181818,35.6127413 L38.0472727,35.6127413 C38.2872727,35.6127413 38.4836364,35.4163777 38.4836364,35.1763777 L38.4836364,26.2800141 L47.6581818,26.2800141 C47.8981818,26.2800141 48.0945455,26.0836504 48.0945455,25.8436504 L48.0945455,23.2854686 C48.0945455,23.0454686 47.8981818,22.849105 47.6581818,22.849105 L38.4836364,22.849105 L38.4836364,16.1509231 L48.5636364,16.1509231 C48.8036364,16.1509231 49,15.9545595 49,15.7145595 L49,13.0309231 C49,12.7909231 48.8036364,12.5945595 48.5636364,12.5945595 Z M29.1454545,12.6491049 L26.0909091,12.6491049 C25.8509091,12.6491049 25.6545455,12.8454686 25.6545455,13.0854686 L25.6545455,35.2309232 C25.6545455,35.4709232 25.8509091,35.6672868 26.0909091,35.6672868 L29.1454545,35.6672868 C29.3854545,35.6672868 29.5818182,35.4709232 29.5818182,35.2309232 L29.5818182,13.0854686 C29.5818182,12.8454686 29.3854545,12.6491049 29.1454545,12.6491049 Z M21.7272727,23.6072868 L12.9181818,23.6072868 C12.6781818,23.6072868 12.4818182,23.8036504 12.4818182,24.0436504 L12.4818182,26.4272868 C12.4818182,26.6672868 12.6781818,26.8636504 12.9181818,26.8636504 L18.0945455,26.8636504 L18.0781818,27.349105 C18.0127273,30.5563777 15.5909091,32.7218322 12.0290909,32.7218322 C7.87272727,32.7218322 5.27090909,29.4654686 5.27090909,24.1745595 C5.27090909,18.9491049 7.82363636,15.7091049 11.8981818,15.7091049 C14.8872727,15.7091049 16.9763636,17.1763777 17.8163636,19.8218322 L21.9727273,19.8218322 C21.2309091,15.0654686 17.2818182,12.0000047 11.8981818,12.0000047 C5.25454545,11.9945595 1,16.7509231 1,24.2072868 C1,31.7509232 5.20545455,36.4309232 11.9636364,36.4309232 C18.1872727,36.4309232 22.1636364,32.5745595 22.1636364,26.5254686 L22.1636364,24.0436504 C22.1636364,23.8036504 21.9672727,23.6072868 21.7272727,23.6072868 Z" fill="#000"></path>
</svg>
