<svg width="48" height="48" viewBox="0 0 48 48" fill="none" xmlns="http://www.w3.org/2000/svg">
  <rect width="48" height="48" fill="white" fill-opacity="0.01"/>
  <path d="M8.86560588,28.1008568 C7.39681763,29.569645 6.59192166,31.5143207 6.59192166,33.5882497 C6.59192166,35.6621787 7.40269278,37.6127295 8.86560588,39.0756426 C10.3343941,40.5444308 12.2790698,41.3493268 14.3529988,41.3493268 C16.4269278,41.3493268 18.3774786,40.5385557 19.8403917,39.0756426 L23.3302326,35.5858017 L12.3554468,24.6110159 L8.86560588,28.1008568 L8.86560588,28.1008568 Z M33.5882497,6.59192166 C31.5143207,6.59192166 29.5637699,7.40269278 28.1008568,8.86560588 L24.6110159,12.3554468 L35.5858017,23.3302326 L39.0756426,19.8403917 C40.5385557,18.3716034 41.3493268,16.4269278 41.3493268,14.3529988 C41.3493268,12.2790698 40.5385557,10.328519 39.0756426,8.86560588 C37.6068543,7.39681763 35.6621787,6.59192166 33.5882497,6.59192166 Z" fill="#2F88FF"></path>
  <path d="M27.9011016,26.0093023 C27.7172456,25.8272507 27.4210653,25.8272507 27.2372093,26.0093023 L23.3243574,29.9221542 L18.0190942,24.6168911 L21.9378213,20.698164 C22.119951,20.5160343 22.119951,20.2164015 21.9378213,20.0342717 L19.7992656,17.895716 C19.6154096,17.7136644 19.3192293,17.7136644 19.1353733,17.895716 L15.2166463,21.8144431 L12.6903305,19.2881273 C12.6017102,19.1994379 12.4808016,19.1506502 12.3554468,19.1529988 C12.2379437,19.1529988 12.1145655,19.2 12.020563,19.2881273 L6.03965728,25.2749082 C3.84725725,27.4615951 2.60949118,30.4271643 2.59681763,33.523623 C2.58506732,35.8443084 3.25483476,38.170869 4.6119951,40.1684211 L0.141003672,44.6394125 C-0.0410479827,44.8232684 -0.0410479827,45.1194488 0.141003672,45.3033048 L2.63206854,47.7943696 C2.72607099,47.8883721 2.84357405,47.9294982 2.96695226,47.9294982 C3.09033048,47.9294982 3.20783354,47.8824969 3.30183599,47.7943696 L7.77282742,43.3233782 C9.75275398,44.6687882 12.055814,45.3385557 14.3588739,45.3385557 C17.3669523,45.3385557 20.3750306,44.1929009 22.6722154,41.895716 L28.6589963,35.9089351 C28.8411261,35.7268054 28.8411261,35.4271726 28.6589963,35.2450428 L26.1326805,32.7187271 L30.0514076,28.8 C30.2335373,28.6178703 30.2335373,28.3182375 30.0514076,28.1361077 L27.9011016,26.0093023 L27.9011016,26.0093023 Z M19.8403917,39.0756426 C18.3879928,40.5354843 16.412265,41.354121 14.3529988,41.3493477 C12.2790698,41.3493477 10.3343941,40.5444308 8.86560588,39.0756426 C7.40269278,37.6127295 6.59192166,35.6621787 6.59192166,33.5882497 C6.59192166,31.5143207 7.39681763,29.569645 8.86560588,28.1008568 L12.3554468,24.6110159 L23.3302326,35.5858017 L19.8403917,39.0756426 L19.8403917,39.0756426 Z M47.80612,2.63206854 L45.3150551,0.141003672 C45.2210526,0.047001224 45.1035496,0.005875153 44.9801714,0.005875153 C44.8567931,0.005875153 44.7392901,0.052876377 44.6452876,0.141003672 L40.1742962,4.6119951 C38.2306644,3.29509713 35.9359955,2.59298166 33.5882497,2.59681763 C30.5801714,2.59681763 27.572093,3.74247246 25.2749082,6.03965728 L19.2881273,12.0264382 C19.1060756,12.2102941 19.1060756,12.5064745 19.2881273,12.6903305 L35.250918,28.6531212 C35.3449204,28.7471236 35.4624235,28.7882497 35.5858017,28.7882497 C35.7033048,28.7882497 35.826683,28.7412485 35.9206854,28.6531212 L41.9074663,22.6663403 C45.9554468,18.6124847 46.4313341,12.3436965 43.3351285,7.77282742 L47.80612,3.30183599 C47.9882497,3.11383109 47.9882497,2.81419829 47.80612,2.63206854 Z M39.0756426,19.8403917 L35.5858017,23.3302326 L24.6110159,12.3554468 L28.1008568,8.86560588 C29.5637699,7.40269278 31.5143207,6.59192166 33.5882497,6.59192166 C35.6621787,6.59192166 37.6068543,7.39681763 39.0756426,8.86560588 C40.5385557,10.328519 41.3493268,12.2790698 41.3493268,14.3529988 C41.3493268,16.4269278 40.5385557,18.3716034 39.0756426,19.8403917 L39.0756426,19.8403917 Z" fill="#000"></path>
</svg>
