<svg width="48" height="48" viewBox="0 0 48 48" fill="none" xmlns="http://www.w3.org/2000/svg">
  <rect width="48" height="48" fill="white" fill-opacity="0.01"/>
  <path d="M37.7798046,6.14462541 L20.0703583,0.109446254 C19.8566775,0.0364820847 19.5700326,-2.96252346e-15 19.2833876,-2.96252346e-15 C18.9967427,-2.96252346e-15 18.7100977,0.0364820847 18.4964169,0.109446254 L0.786970684,6.14462541 C0.354397394,6.29055375 0,6.79087948 0,7.2495114 L0,32.3908795 C0,32.8495114 0.297068404,33.4540717 0.656677524,33.7407166 L18.6214984,47.7394137 C18.8039088,47.8801303 19.0384365,47.9530945 19.2781759,47.9530945 C19.5179153,47.9530945 19.7576547,47.8801303 19.9348534,47.7394137 L37.8996743,33.7407166 C38.2592834,33.4592834 38.556576,32.8547231 38.556576,32.3908795 L38.556576,7.2495114 C38.5667752,6.79087948 38.2123779,6.29576547 37.7798046,6.14462541 Z M34.8143322,31.390228 L19.2833876,43.4918567 L3.752443,31.390228 L3.752443,9.10488599 L19.2833876,3.80977199 L34.8143322,9.10488599 L34.8143322,31.390228 Z" fill="#000"></path>
  <path d="M3.752443,9.10488599 L3.752443,31.390228 L19.2833876,43.4918567 L34.8143322,31.390228 L34.8143322,9.10488599 L19.2833876,3.80977199 L3.752443,9.10488599 Z M25.5791531,14.3843648 L28.4560261,14.3843648 C28.7947883,14.3843648 28.9928339,14.7700326 28.7947883,15.0462541 L17.714658,30.3009772 C17.5566679,30.517222 17.3049445,30.6450609 17.0371336,30.6450609 C16.7693226,30.6450609 16.5175992,30.517222 16.3596091,30.3009772 L9.77198697,21.2325733 C9.57394137,20.9563518 9.77198697,20.570684 10.1107492,20.570684 L12.9876221,20.570684 C13.2586319,20.570684 13.5087948,20.7009772 13.6651466,20.914658 L17.0371336,25.5583062 L24.9016287,14.7283388 C25.0579805,14.514658 25.313355,14.3843648 25.5791531,14.3843648 Z" fill="#2F88FF"></path>
  <path d="M13.6651466,20.914658 C13.5087948,20.7009772 13.2586319,20.570684 12.9876221,20.570684 L10.1107492,20.570684 C9.77198697,20.570684 9.57394137,20.9563518 9.77198697,21.2325733 L16.3596091,30.3009772 C16.5175992,30.517222 16.7693226,30.6450609 17.0371336,30.6450609 C17.3049445,30.6450609 17.5566679,30.517222 17.714658,30.3009772 L28.7947883,15.0462541 C28.9928339,14.7700326 28.7947883,14.3843648 28.4560261,14.3843648 L25.5791531,14.3843648 C25.313355,14.3843648 25.0579805,14.514658 24.9016287,14.7283388 L17.0371336,25.5583062 L13.6651466,20.914658 L13.6651466,20.914658 Z" fill="#FFF"></path>
</svg>
