<?xml version="1.0" encoding="UTF-8"?>
<svg width="48" height="48" viewBox="0 0 48 48" fill="none" xmlns="http://www.w3.org/2000/svg">
  <rect width="48" height="48" fill="white" fill-opacity="0.01"/>
  <path fill="#000" d="M0.48,4.32 L30.24,4.32 C30.504,4.32 30.72,4.104 30.72,3.84 L30.72,0.48 C30.72,0.216 30.504,0 30.24,0 L0.48,0 C0.216,0 0,0.216 0,0.48 L0,3.84 C0,4.104 0.216,4.32 0.48,4.32 Z M0.48,29.76 L30.24,29.76 C30.504,29.76 30.72,29.544 30.72,29.28 L30.72,25.92 C30.72,25.656 30.504,25.44 30.24,25.44 L0.48,25.44 C0.216,25.44 0,25.656 0,25.92 L0,29.28 C0,29.544 0.216,29.76 0.48,29.76 Z M47.52,38.16 L0.48,38.16 C0.216,38.16 0,38.376 0,38.64 L0,42 C0,42.264 0.216,42.48 0.48,42.48 L47.52,42.48 C47.784,42.48 48,42.264 48,42 L48,38.64 C48,38.376 47.784,38.16 47.52,38.16 Z M47.52,12.72 L0.48,12.72 C0.216,12.72 0,12.936 0,13.2 L0,16.56 C0,16.824 0.216,17.04 0.48,17.04 L47.52,17.04 C47.784,17.04 48,16.824 48,16.56 L48,13.2 C48,12.936 47.784,12.72 47.52,12.72 Z"></path>
</svg>
