<svg width="48" height="48" viewBox="0 0 48 48" fill="none" xmlns="http://www.w3.org/2000/svg">
  <rect width="48" height="48" fill="white" fill-opacity="0.01"/>
  <path d="M41,0 L6.71428571,0 C5.76607143,0 5,0.766071429 5,1.71428571 L5,46.2857143 C5,47.2339286 5.76607143,48 6.71428571,48 L41,48 C41.9482143,48 42.7142857,47.2339286 42.7142857,46.2857143 L42.7142857,1.71428571 C42.7142857,0.766071429 41.9482143,0 41,0 Z M27.0714286,3.85714286 L32.2142857,3.85714286 L32.2142857,15.1017857 L29.7232143,13.2857143 L27.0714286,15.1821429 L27.0714286,3.85714286 Z M8.85714286,44.1428571 L8.85714286,3.85714286 L23.8571429,3.85714286 L23.8571429,19.7625 C23.8571429,19.9392857 23.9107143,20.1160714 24.0178571,20.2607143 C24.149225,20.446419 24.3494143,20.5718637 24.573819,20.6090968 C24.7982237,20.6463298 25.0281983,20.5922577 25.2125,20.4589286 L29.7017857,17.25 L34.0625,20.4321429 C34.2071429,20.5392857 34.3839286,20.5982143 34.5660714,20.5982143 C35.0375,20.5982143 35.4232143,20.2125 35.4232143,19.7410714 L35.4232143,3.85714286 L38.8517857,3.85714286 L38.8517857,44.1428571 L8.85714286,44.1428571 Z" fill="#000000"></path>
  <polygon fill="#2F88FF" points="32.2142857 15.1017857 32.2142857 3.85714286 27.0714286 3.85714286 27.0714286 15.1821429 29.7232143 13.2857143"></polygon>
  <path d="M35.4232143,3.85714286 L35.4232143,19.7410714 C35.4232143,20.2125 35.0375,20.5982143 34.5660714,20.5982143 C34.3839286,20.5982143 34.2071429,20.5392857 34.0625,20.4321429 L29.7017857,17.25 L25.2125,20.4589286 C25.0281983,20.5922577 24.7982237,20.6463298 24.573819,20.6090968 C24.3494143,20.5718637 24.149225,20.446419 24.0178571,20.2607143 C23.9107143,20.1160714 23.8571429,19.9392857 23.8571429,19.7625 L23.8571429,3.85714286 L8.85714286,3.85714286 L8.85714286,44.1428571 L38.8517857,44.1428571 L38.8517857,3.85714286 L35.4232143,3.85714286 Z" fill="#2F88FF"></path>
</svg>
