<svg width="48" height="48" viewBox="0 0 48 48" fill="none" xmlns="http://www.w3.org/2000/svg">
  <rect width="48" height="48" fill="white" fill-opacity="0.01"/>
  <path d="M36,0 L1.71428571,0 C0.766071429,0 0,0.766071429 0,1.71428571 L0,46.2857143 C0,47.2339286 0.766071429,48 1.71428571,48 L36,48 C36.9482143,48 37.7142857,47.2339286 37.7142857,46.2857143 L37.7142857,1.71428571 C37.7142857,0.766071429 36.9482143,0 36,0 Z M22.0714286,3.85714286 L27.2142857,3.85714286 L27.2142857,15.1017857 L24.7232143,13.2857143 L22.0714286,15.1821429 L22.0714286,3.85714286 Z M3.85714286,44.1428571 L3.85714286,3.85714286 L18.8571429,3.85714286 L18.8571429,19.7625 C18.8571429,19.9392857 18.9107143,20.1160714 19.0178571,20.2607143 C19.149225,20.446419 19.3494143,20.5718637 19.573819,20.6090968 C19.7982237,20.6463298 20.0281983,20.5922577 20.2125,20.4589286 L24.7017857,17.25 L29.0625,20.4321429 C29.2071429,20.5392857 29.3839286,20.5982143 29.5660714,20.5982143 C30.0375,20.5982143 30.4232143,20.2125 30.4232143,19.7410714 L30.4232143,3.85714286 L33.8517857,3.85714286 L33.8517857,44.1428571 L3.85714286,44.1428571 Z" fill="#000"></path>
  <polygon fill="#2F88FF" points="27.2142857 15.1017857 27.2142857 3.85714286 22.0714286 3.85714286 22.0714286 15.1821429 24.7232143 13.2857143"></polygon>
  <path d="M30.4232143,3.85714286 L30.4232143,19.7410714 C30.4232143,20.2125 30.0375,20.5982143 29.5660714,20.5982143 C29.3839286,20.5982143 29.2071429,20.5392857 29.0625,20.4321429 L24.7017857,17.25 L20.2125,20.4589286 C20.0281983,20.5922577 19.7982237,20.6463298 19.573819,20.6090968 C19.3494143,20.5718637 19.149225,20.446419 19.0178571,20.2607143 C18.9107143,20.1160714 18.8571429,19.9392857 18.8571429,19.7625 L18.8571429,3.85714286 L3.85714286,3.85714286 L3.85714286,44.1428571 L33.8517857,44.1428571 L33.8517857,3.85714286 L30.4232143,3.85714286 Z" fill="#2F88FF"></path>
</svg>
