<svg width="48" height="48" viewBox="0 0 48 48" fill="none" xmlns="http://www.w3.org/2000/svg">
  <rect width="48" height="48" fill="white" fill-opacity="0.01"/>
  <path d="M8.62921348,37.8966292 L23.9700375,43.4756554 L39.3108614,37.8966292 L39.3108614,4.31460674 L8.62921348,4.31460674 L8.62921348,37.8966292 Z M14.8434457,12.0449438 C14.9153558,12.0029963 14.9932584,11.9850187 15.071161,11.9850187 L18.4089888,11.9850187 C18.589079,11.9860158 18.7534179,12.0878596 18.8344569,12.2486891 L23.9101124,22.3640449 L24.1078652,22.3640449 L29.1835206,12.2486891 C29.2614232,12.0868914 29.4292135,11.9850187 29.6089888,11.9850187 L32.8749064,11.9850187 C33.1385768,11.9850187 33.3543071,12.2007491 33.3602996,12.458427 C33.3602996,12.5363296 33.3363296,12.6142322 33.3003745,12.6861423 L27.0861423,24.1677903 L30.5378277,24.1677903 C30.8014981,24.1677903 31.0172285,24.3835206 31.0172285,24.647191 L31.0172285,26.271161 C31.0172285,26.5348315 30.8014981,26.7505618 30.5378277,26.7505618 L25.9655431,26.7505618 L25.9655431,29.0876404 L30.5378277,29.0876404 C30.8014981,29.0876404 31.0172285,29.3033708 31.0172285,29.5670412 L31.0172285,31.1910112 C31.0172285,31.4546816 30.8014981,31.670412 30.5378277,31.670412 L25.9655431,31.670412 L25.9655431,35.4756554 C25.9655431,35.7393258 25.7498127,35.9550562 25.4861423,35.9550562 L22.4958801,35.9550562 C22.2322097,35.9550562 22.0164794,35.7393258 22.0164794,35.4756554 L22.0164794,31.6764045 L17.4621723,31.6764045 C17.1985019,31.6764045 16.9827715,31.4606742 16.9827715,31.1970037 L16.9827715,29.5730337 C16.9827715,29.3093633 17.1985019,29.093633 17.4621723,29.093633 L22.0164794,29.093633 L22.0164794,26.7565543 L17.4621723,26.7565543 C17.1985019,26.7565543 16.9827715,26.540824 16.9827715,26.2771536 L16.9827715,24.6531835 C16.9827715,24.3895131 17.1985019,24.1737828 17.4621723,24.1737828 L20.8779026,24.1737828 L14.6516854,12.6921348 C14.5258427,12.4644195 14.6097378,12.1707865 14.8434457,12.0449438 Z" fill="#2F88FF"></path>
  <path d="M47.9101124,35.2779026 C47.8668777,35.1575545 47.7773526,35.0594678 47.6614426,35.0054515 C47.5455326,34.9514352 47.4128456,34.9459668 47.2928839,34.9902622 L43.6254682,36.3265918 L43.6254682,4.07490637 C43.6254682,1.82172285 41.8037453,0 39.5505618,0 L8.38951311,0 C6.13632959,0 4.31460674,1.82172285 4.31460674,4.07490637 L4.31460674,36.3265918 L0.641198502,34.9902622 C0.587265918,34.9722846 0.533333333,34.9602996 0.479400749,34.9602996 C0.215730337,34.9602996 0,35.17603 0,35.4397004 L0,39.011236 C0,39.2089888 0.125842697,39.388764 0.317602996,39.4606742 L23.3108614,47.8262172 C23.7363296,47.9820225 24.1977528,47.9820225 24.623221,47.8262172 L47.6224719,39.4666667 C47.8142322,39.3947566 47.9400749,39.2149813 47.9400749,39.0172285 L47.9400749,35.4456929 C47.9400749,35.3857678 47.9280899,35.3318352 47.9101124,35.2779026 Z M39.3108614,37.8966292 L23.9700375,43.4756554 L8.62921348,37.8966292 L8.62921348,4.31460674 L39.3108614,4.31460674 L39.3108614,37.8966292 Z" fill="#000"></path>
  <path d="M20.8779026,24.1737828 L17.4621723,24.1737828 C17.1985019,24.1737828 16.9827715,24.3895131 16.9827715,24.6531835 L16.9827715,26.2771536 C16.9827715,26.540824 17.1985019,26.7565543 17.4621723,26.7565543 L22.0164794,26.7565543 L22.0164794,29.093633 L17.4621723,29.093633 C17.1985019,29.093633 16.9827715,29.3093633 16.9827715,29.5730337 L16.9827715,31.1970037 C16.9827715,31.4606742 17.1985019,31.6764045 17.4621723,31.6764045 L22.0164794,31.6764045 L22.0164794,35.4756554 C22.0164794,35.7393258 22.2322097,35.9550562 22.4958801,35.9550562 L25.4861423,35.9550562 C25.7498127,35.9550562 25.9655431,35.7393258 25.9655431,35.4756554 L25.9655431,31.670412 L30.5378277,31.670412 C30.8014981,31.670412 31.0172285,31.4546816 31.0172285,31.1910112 L31.0172285,29.5670412 C31.0172285,29.3033708 30.8014981,29.0876404 30.5378277,29.0876404 L25.9655431,29.0876404 L25.9655431,26.7505618 L30.5378277,26.7505618 C30.8014981,26.7505618 31.0172285,26.5348315 31.0172285,26.271161 L31.0172285,24.647191 C31.0172285,24.3835206 30.8014981,24.1677903 30.5378277,24.1677903 L27.0861423,24.1677903 L33.3003745,12.6861423 C33.3363296,12.6142322 33.3602996,12.5363296 33.3602996,12.458427 C33.3543071,12.2007491 33.1385768,11.9850187 32.8749064,11.9850187 L29.6089888,11.9850187 C29.4292135,11.9850187 29.2614232,12.0868914 29.1835206,12.2486891 L24.1078652,22.3640449 L23.9101124,22.3640449 L18.8344569,12.2486891 C18.7534179,12.0878596 18.589079,11.9860158 18.4089888,11.9850187 L15.071161,11.9850187 C14.9932584,11.9850187 14.9153558,12.0029963 14.8434457,12.0449438 C14.6097378,12.1707865 14.5258427,12.4644195 14.6516854,12.6921348 L20.8779026,24.1737828 Z" fill="#FFF"></path>
</svg>
