<svg width="48" height="48" viewBox="0 0 48 48" fill="none" xmlns="http://www.w3.org/2000/svg">
  <rect width="48" height="48" fill="white" fill-opacity="0.01"/>
  <path fill="#000" d="M-5.68434189e-14,39.2516228 L19.7266132,42.465063 L19.7266132,25.3959527 L-5.68434189e-14,25.3959527 L-5.68434189e-14,39.2516228 L-5.68434189e-14,39.2516228 Z M3.87323406,29.2630775 L15.8594884,29.2630775 L15.8594884,37.9137075 L3.87323406,35.9648721 L3.87323406,29.2630775 Z M24.6628484,43.10042 L48,46.9003436 L48,25.3959527 L24.6628484,25.3959527 L24.6628484,43.10042 L24.6628484,43.10042 Z M28.5360825,29.2630775 L44.1328751,29.2630775 L44.1328751,42.3612066 L28.5360825,39.8197785 L28.5360825,29.2630775 L28.5360825,29.2630775 Z M24.6628484,3.86712486 L24.6628484,21.5105002 L48,21.5105002 L48,0 L24.6628484,3.86712486 Z M44.1328751,17.6433753 L28.5421917,17.6433753 L28.5421917,7.14165712 L44.1389843,4.55746468 L44.1389843,17.6433753 L44.1328751,17.6433753 Z M-5.5067062e-14,21.5105002 L19.7266132,21.5105002 L19.7266132,4.50859107 L-5.5067062e-14,7.77701413 L-5.5067062e-14,21.5105002 Z M3.87323406,11.0515464 L15.8594884,9.06605575 L15.8594884,17.6433753 L3.87323406,17.6433753 L3.87323406,11.0515464 Z"></path>
</svg>
