<svg width="48" height="48" viewBox="0 0 48 48" fill="none" xmlns="http://www.w3.org/2000/svg">
  <rect width="48" height="48" fill="white" fill-opacity="0.01"/>
  <path d="M24,4.07142857 C12.9964286,4.07142857 4.07142857,12.9964286 4.07142857,24 C4.07142857,35.0035714 12.9964286,43.9285714 24,43.9285714 C35.0035714,43.9285714 43.9285714,35.0035714 43.9285714,24 C43.9285714,12.9964286 35.0035714,4.07142857 24,4.07142857 Z M14.1214286,34.1625 C14.0142857,34.2107143 13.8857143,34.1625 13.8375,34.05 C13.8160714,33.9964286 13.8160714,33.9321429 13.8375,33.8785714 L19.125,21.7982143 L26.2017857,28.875 L14.1214286,34.1625 Z M34.2160714,14.0678571 L28.9285714,26.1482143 L21.8517857,19.0714286 L33.9321429,13.7839286 C34.0392857,13.7357143 34.1678571,13.7839286 34.2160714,13.8964286 C34.2375,13.95 34.2375,14.0089286 34.2160714,14.0678571 L34.2160714,14.0678571 Z" fill="#2F88FF"></path>
  <path d="M13.8375,33.8785714 C13.8160714,33.9321429 13.8160714,33.9964286 13.8375,34.05 C13.8857143,34.1625 14.0142857,34.2107143 14.1214286,34.1625 L26.2017857,28.875 L19.125,21.7982143 L13.8375,33.8785714 Z M33.9321429,13.7839286 L21.8517857,19.0714286 L28.9285714,26.1482143 L34.2160714,14.0678571 C34.2375,14.0089286 34.2375,13.95 34.2160714,13.8964286 C34.1678571,13.7839286 34.0392857,13.7357143 33.9321429,13.7839286 L33.9321429,13.7839286 Z" fill="#000"></path>
  <path d="M24,0 C10.7464286,0 0,10.7464286 0,24 C0,37.2535714 10.7464286,48 24,48 C37.2535714,48 48,37.2535714 48,24 C48,10.7464286 37.2535714,0 24,0 Z M24,43.9285714 C12.9964286,43.9285714 4.07142857,35.0035714 4.07142857,24 C4.07142857,12.9964286 12.9964286,4.07142857 24,4.07142857 C35.0035714,4.07142857 43.9285714,12.9964286 43.9285714,24 C43.9285714,35.0035714 35.0035714,43.9285714 24,43.9285714 Z" fill="#000"></path>
</svg>
