<svg width="48" height="48" viewBox="0 0 48 48" fill="none" xmlns="http://www.w3.org/2000/svg">
  <rect width="48" height="48" fill="white" fill-opacity="0.01"/>
  <path d="M43.2857143,30.8571429 L37.7142857,30.8571429 L37.7142857,22.7142857 C37.7142857,22.4785714 37.5214286,22.2857143 37.2857143,22.2857143 L24,22.2857143 L24,17.1428571 L29.7857143,17.1428571 C30.2571429,17.1428571 30.6428571,16.7571429 30.6428571,16.2857143 L30.6428571,0.857142857 C30.6428571,0.385714286 30.2571429,0 29.7857143,0 L14.3571429,0 C13.8857143,0 13.5,0.385714286 13.5,0.857142857 L13.5,16.2857143 C13.5,16.7571429 13.8857143,17.1428571 14.3571429,17.1428571 L20.1428571,17.1428571 L20.1428571,22.2857143 L6.85714286,22.2857143 C6.62142857,22.2857143 6.42857143,22.4785714 6.42857143,22.7142857 L6.42857143,30.8571429 L0.857142857,30.8571429 C0.385714286,30.8571429 0,31.2428571 0,31.7142857 L0,47.1428571 C0,47.6142857 0.385714286,48 0.857142857,48 L16.2857143,48 C16.7571429,48 17.1428571,47.6142857 17.1428571,47.1428571 L17.1428571,31.7142857 C17.1428571,31.2428571 16.7571429,30.8571429 16.2857143,30.8571429 L10.2857143,30.8571429 L10.2857143,26.1428571 L33.8571429,26.1428571 L33.8571429,30.8571429 L27.8571429,30.8571429 C27.3857143,30.8571429 27,31.2428571 27,31.7142857 L27,47.1428571 C27,47.6142857 27.3857143,48 27.8571429,48 L43.2857143,48 C43.7571429,48 44.1428571,47.6142857 44.1428571,47.1428571 L44.1428571,31.7142857 C44.1428571,31.2428571 43.7571429,30.8571429 43.2857143,30.8571429 Z M13.0714286,34.9285714 L13.0714286,43.9285714 L4.07142857,43.9285714 L4.07142857,34.9285714 L13.0714286,34.9285714 Z M17.5714286,13.0714286 L17.5714286,4.07142857 L26.5714286,4.07142857 L26.5714286,13.0714286 L17.5714286,13.0714286 Z M40.0714286,43.9285714 L31.0714286,43.9285714 L31.0714286,34.9285714 L40.0714286,34.9285714 L40.0714286,43.9285714 Z" fill="#000"></path>
</svg>
