<svg width="48" height="48" viewBox="0 0 48 48" fill="none" xmlns="http://www.w3.org/2000/svg">
  <rect width="48" height="48" fill="white" fill-opacity="0.01"/>
  <path d="M47.994,8.394 L47.994,8.424 L43.41,43.26 C43.35,43.74 42.936,44.1 42.456,44.1 L5.55,44.1 C5.064,44.1 4.656,43.734 4.59,43.26 L0.006,8.424 L0.006,8.388 L0.006,8.484 L4.59,43.32 C4.656,43.794 5.064,44.16 5.55,44.16 L42.456,44.16 C42.936,44.16 43.35,43.8 43.41,43.32 L47.994,8.484 C48,8.454 48,8.424 47.994,8.394 Z" fill="#2F88FF"></path>
  <path d="M39.696,39.996 L42.93,15.432 L34.542,20.598 L24,6.534 L13.458,20.598 L5.07,15.432 L8.298,39.996 L39.696,39.996 L39.696,39.996 Z M17.244,28.656 C17.244,24.93 20.274,21.9 24,21.9 C27.726,21.9 30.756,24.93 30.756,28.656 L30.756,28.716 C30.756,32.442 27.726,35.472 24,35.472 C20.274,35.472 17.244,32.442 17.244,28.716 L17.244,28.656 L17.244,28.656 Z" fill="#2F88FF"></path>
  <path d="M24,35.412 C27.714,35.412 30.738,32.4 30.756,28.686 L30.756,28.656 C30.756,24.93 27.726,21.9 24,21.9 C20.274,21.9 17.244,24.93 17.244,28.656 L17.244,28.686 C17.262,32.4 20.286,35.412 24,35.412 Z M24,25.758 C25.596,25.758 26.892,27.054 26.892,28.656 C26.892,30.252 25.596,31.554 24,31.554 C22.404,31.554 21.108,30.258 21.108,28.656 C21.108,27.06 22.404,25.758 24,25.758 Z" fill="#000"></path>
  <path d="M4.59,43.26 C4.656,43.734 5.064,44.1 5.55,44.1 L42.456,44.1 C42.936,44.1 43.35,43.74 43.41,43.26 L47.994,8.424 L47.994,8.394 C48.012,8.01 47.592,7.746 47.256,7.95 L35.58,15.144 L24.384,0.21 C24.2926782,0.0881325837 24.149287,0.016399931 23.997,0.016399931 C23.844713,0.016399931 23.7013218,0.0881325837 23.61,0.21 L12.42,15.144 L0.738,7.95 C0.408,7.746 -0.018,8.004 0.006,8.388 L0.006,8.424 L4.59,43.26 Z M13.458,20.598 L24,6.534 L34.542,20.598 L42.93,15.432 L39.696,39.996 L8.298,39.996 L5.07,15.432 L13.458,20.598 Z" fill="#000"></path>
</svg>
