<svg width="48" height="48" viewBox="0 0 48 48" fill="none" xmlns="http://www.w3.org/2000/svg">
  <rect width="48" height="48" fill="white" fill-opacity="0.01"/>
  <path d="M46.08,10.864 L24.54,10.864 L17.502,4.132 C17.4124499,4.04816668 17.2946627,4.00105178 17.172,4 L1.92,4 C0.858,4 0,4.858 0,5.92 L0,41.44 C0,42.502 0.858,43.36 1.92,43.36 L46.08,43.36 C47.142,43.36 48,42.502 48,41.44 L48,12.784 C48,11.722 47.142,10.864 46.08,10.864 Z M43.68,39.04 L4.32,39.04 L4.32,8.32 L15.63,8.32 L22.806,15.184 L43.68,15.184 L43.68,39.04 Z" fill="#000"></path>
  <polygon fill="#2F88FF" points="15.63 8.32 4.32 8.32 4.32 39.04 43.68 39.04 43.68 15.184 22.806 15.184"></polygon>
</svg>
