<svg width="48" height="48" viewBox="0 0 48 48" fill="none" xmlns="http://www.w3.org/2000/svg">
  <rect width="48" height="48" fill="white" fill-opacity="0.01"/>
  <path fill="#000" d="M22.7196429,18.7875 L22.7196429,12.825 L12.6910714,19.5 L17.1696429,22.4892857 L22.7196429,18.7875 Z M36.3321429,26.1642857 L36.3321429,21.8892857 L33.1285714,24.0267857 L36.3321429,26.1642857 Z M24,0 C10.7464286,0 0,10.7464286 0,24 C0,37.2535714 10.7464286,48 24,48 C37.2535714,48 48,37.2535714 48,24 C48,10.7464286 37.2535714,0 24,0 Z M38.8928571,28.5535714 C38.8928571,28.6125 38.8875,28.6660714 38.8821429,28.7196429 C38.8821429,28.7410714 38.8767857,28.7571429 38.8714286,28.7732143 C38.8638699,28.8318316 38.8494866,28.8893647 38.8285714,28.9446429 C38.8178571,28.9767857 38.8071429,29.0089286 38.7964286,29.0357143 C38.7857143,29.0571429 38.775,29.0785714 38.7696429,29.1 C38.7535714,29.1267857 38.7428571,29.1589286 38.7267857,29.1857143 C38.7160714,29.2071429 38.7053571,29.2232143 38.6892857,29.2446429 C38.6732143,29.2714286 38.6517857,29.2982143 38.6357143,29.325 C38.6196429,29.3464286 38.6089286,29.3625 38.5928571,29.3785714 C38.5714286,29.4 38.55,29.4267857 38.5285714,29.4482143 C38.5125,29.4642857 38.4964286,29.4803571 38.475,29.4964286 C38.4535714,29.5178571 38.4267857,29.5392857 38.4,29.5553571 C38.3785714,29.5714286 38.3625,29.5875 38.3410714,29.5982143 C38.3357143,29.6035714 38.325,29.6089286 38.3196429,29.6142857 L24.7071429,38.6785714 C24.4928571,38.8232143 24.2464286,38.8928571 24,38.8928571 C23.7482143,38.8928571 23.5017857,38.8178571 23.2875,38.6785714 L9.675,29.6196429 C9.66964286,29.6142857 9.65892857,29.6089286 9.65357143,29.6035714 L9.59464286,29.5607143 C9.56785714,29.5392857 9.54642857,29.5232143 9.525,29.5017857 C9.50892857,29.4857143 9.49285714,29.4696429 9.47142857,29.4535714 C9.45,29.4321429 9.42857143,29.4107143 9.40714286,29.3839286 C9.39125027,29.3674184 9.37690454,29.3494863 9.36428571,29.3303571 C9.34285714,29.3035714 9.32678571,29.2767857 9.31071429,29.25 C9.3,29.2285714 9.28392857,29.2125 9.27321429,29.1910714 C9.25714286,29.1642857 9.24107143,29.1321429 9.23035714,29.1053571 C9.21964286,29.0839286 9.20892857,29.0625 9.20357143,29.0410714 C9.19285714,29.0089286 9.18214286,28.9767857 9.17142857,28.95 C9.16607143,28.9285714 9.15535714,28.9071429 9.15,28.8857143 C9.13928571,28.8482143 9.13392857,28.8160714 9.12857143,28.7785714 C9.12321429,28.7625 9.12321429,28.7410714 9.11785714,28.725 C9.1125,28.6714286 9.10714286,28.6125 9.10714286,28.5589286 L9.10714286,19.4946429 C9.10714286,19.4410714 9.1125,19.3821429 9.11785714,19.3285714 C9.12321429,19.3125 9.12321429,19.2910714 9.12857143,19.275 C9.1361301,19.2163827 9.15051337,19.1588496 9.17142857,19.1035714 C9.18214286,19.0714286 9.19285714,19.0392857 9.20357143,19.0125 C9.21428571,18.9910714 9.225,18.9696429 9.23035714,18.9482143 C9.24107143,18.9214286 9.25714286,18.8892857 9.27321429,18.8625 C9.28392857,18.8410714 9.29464286,18.825 9.31071429,18.8035714 C9.34285714,18.7553571 9.375,18.7125 9.40714286,18.6696429 C9.42857143,18.6482143 9.45,18.6214286 9.47142857,18.6 C9.4875,18.5839286 9.50357143,18.5678571 9.525,18.5517857 C9.54642857,18.5303571 9.57321429,18.5089286 9.59464286,18.4928571 C9.61607143,18.4767857 9.63214286,18.4607143 9.65357143,18.45 C9.65892857,18.4446429 9.66964286,18.4392857 9.675,18.4339286 L23.2875,9.375 C23.7160714,9.09107143 24.2785714,9.09107143 24.7071429,9.375 L38.3196429,18.4339286 C38.325,18.4392857 38.3357143,18.4446429 38.3410714,18.45 L38.4,18.4928571 L38.475,18.5517857 C38.4910714,18.5678571 38.5071429,18.5839286 38.5285714,18.6 C38.55,18.6214286 38.5714286,18.6428571 38.5928571,18.6696429 C38.6303571,18.7125 38.6625,18.7553571 38.6892857,18.8035714 C38.7,18.825 38.7160714,18.8410714 38.7267857,18.8625 C38.7428571,18.8892857 38.7589286,18.9160714 38.7696429,18.9482143 C38.7803571,18.9696429 38.7910714,18.9910714 38.7964286,19.0125 C38.8071429,19.0446429 38.8178571,19.0767857 38.8285714,19.1035714 C38.8339286,19.125 38.8446429,19.1464286 38.85,19.1678571 C38.8607143,19.2053571 38.8660714,19.2375 38.8714286,19.275 C38.8767857,19.2910714 38.8767857,19.3125 38.8821429,19.3285714 C38.8875,19.3821429 38.8928571,19.4410714 38.8928571,19.4946429 L38.8928571,28.5535714 L38.8928571,28.5535714 Z M25.2803571,29.2660714 L25.2803571,35.2285714 L35.3089286,28.5535714 L30.8303571,25.5642857 L25.2803571,29.2660714 Z M11.6678571,21.8892857 L11.6678571,26.1642857 L14.8714286,24.0267857 L11.6678571,21.8892857 Z M24,21.0053571 L19.4732143,24.0267857 L24,27.0482143 L28.5267857,24.0267857 L24,21.0053571 Z M35.3089286,19.5 L25.2803571,12.825 L25.2803571,18.7875 L30.8303571,22.4892857 L35.3089286,19.5 Z M17.1696429,25.5642857 L12.6910714,28.5535714 L22.7196429,35.2285714 L22.7196429,29.2660714 L17.1696429,25.5642857 L17.1696429,25.5642857 Z"></path>
</svg>
