<svg width="48" height="48" viewBox="0 0 48 48" fill="none" xmlns="http://www.w3.org/2000/svg">
  <rect width="48" height="48" fill="white" fill-opacity="0.01"/>
  <path fill="#000" d="M46.08,0 L1.92,0 C0.858,0 0,0.858 0,1.92 L0,46.08 C0,47.142 0.858,48 1.92,48 L46.08,48 C47.142,48 48,47.142 48,46.08 L48,1.92 C48,0.858 47.142,0 46.08,0 Z M44.16,44.16 L33.114,44.16 L33.114,29.412 L39.354,29.412 L40.29,22.17 L33.114,22.17 L33.114,17.544 C33.114,15.444 33.696,14.016 36.702,14.016 L40.536,14.016 L40.536,7.536 C39.87,7.446 37.596,7.248 34.944,7.248 C29.412,7.248 25.626,10.626 25.626,16.824 L25.626,22.164 L19.374,22.164 L19.374,29.406 L25.632,29.406 L25.632,44.16 L3.84,44.16 L3.84,3.84 L44.16,3.84 L44.16,44.16 Z"></path>
</svg>
