<svg width="48" height="48" viewBox="0 0 48 48" fill="none" xmlns="http://www.w3.org/2000/svg">
  <rect width="48" height="48" fill="white" fill-opacity="0.01"/>
  <path d="M36.954,23.52 L7.206,23.52 C5.616,23.52 4.32,24.702 4.32,26.16 L4.32,43.68 L39.84,43.68 L39.84,26.16 C39.84,24.702 38.544,23.52 36.954,23.52 Z" fill="#2F88FF"></path>
  <path d="M18.72,8.16 L15.84,8.16 C15.576,8.16 15.36,8.376 15.36,8.64 L15.36,11.52 C15.36,11.784 15.576,12 15.84,12 L18.72,12 C18.984,12 19.2,11.784 19.2,11.52 L19.2,8.64 C19.2,8.376 18.984,8.16 18.72,8.16 Z M28.32,8.16 L25.44,8.16 C25.176,8.16 24.96,8.376 24.96,8.64 L24.96,11.52 C24.96,11.784 25.176,12 25.44,12 L28.32,12 C28.584,12 28.8,11.784 28.8,11.52 L28.8,8.64 C28.8,8.376 28.584,8.16 28.32,8.16 Z" fill="#000"></path>
  <path d="M36.96,19.2 L36.96,1.92 C36.96,0.858 36.102,0 35.04,0 L9.12,0 C8.058,0 7.2,0.858 7.2,1.92 L7.2,19.2 C3.228,19.2 0,22.326 0,26.16 L0,47.52 C0,47.784 0.216,48 0.48,48 L43.68,48 C43.944,48 44.16,47.784 44.16,47.52 L44.16,26.16 C44.16,22.326 40.932,19.2 36.96,19.2 Z M11.52,4.32 L32.64,4.32 L32.64,19.2 L11.52,19.2 L11.52,4.32 Z M39.84,43.68 L4.32,43.68 L4.32,26.16 C4.32,24.702 5.616,23.52 7.206,23.52 L36.954,23.52 C38.544,23.52 39.84,24.702 39.84,26.16 L39.84,43.68 L39.84,43.68 Z" fill="#000"></path>
</svg>
