<svg width="48" height="48" viewBox="0 0 48 48" fill="none" xmlns="http://www.w3.org/2000/svg">
  <rect width="48" height="48" fill="white" fill-opacity="0.01"/>
  <path fill="#000" d="M33.7140743,25.3663218 C33.6909983,21.4318594 35.4736213,18.46659 39.0734814,16.2801365 C37.0600981,13.3956332 34.0140626,11.8091564 29.9988341,11.5033991 C26.1970588,11.2034107 22.037605,13.7186976 20.5145873,13.7186976 C18.9050345,13.7186976 15.2244083,11.6072412 12.328367,11.6072412 C6.35167622,11.6995453 0,16.3724406 0,25.8797634 C0,28.6892696 0.513441583,31.5910799 1.54032475,34.5794253 C2.91334831,38.5138878 7.86315593,48.1538977 13.0264168,47.9981345 C15.7263119,47.9346755 17.635853,46.0828244 21.149178,46.0828244 C24.5586609,46.0828244 26.3239769,47.9981345 29.3353983,47.9981345 C34.5448112,47.9231375 39.0215603,39.1600165 40.3253558,35.214016 C33.3390889,31.9199133 33.7140743,25.5682371 33.7140743,25.3663218 Z M33.1025596,40.7695693 C32.2775917,41.9176016 31.4468547,42.8233357 30.6853459,43.4060053 C30.0796002,43.8675258 29.6123106,44.0636721 29.3007843,44.0752101 C28.7815737,44.0694411 28.2796701,43.9425229 27.298939,43.5675375 C27.2297109,43.5386925 27.1547139,43.5098474 27.0566407,43.4752334 L26.8028045,43.3771603 C25.7989973,42.9906368 25.1990206,42.7829526 24.4317428,42.5810374 C23.3587075,42.3041251 22.2914413,42.1541309 21.149178,42.1541309 C19.9838387,42.1541309 18.8877275,42.2983561 17.7973852,42.5694994 C16.9954933,42.7714146 16.3205195,42.9964059 15.3340194,43.3656223 C15.2936364,43.3829293 14.8667299,43.5444615 14.7455808,43.5906135 C14.5436655,43.6656106 14.3879023,43.7233007 14.2436772,43.7752217 C13.6437005,43.982906 13.2629461,44.0694411 12.9225747,44.0752101 C12.8821916,44.0752101 12.8475776,44.0694411 12.8187326,44.0636721 C12.7552735,44.0521341 12.6745074,44.029058 12.5822033,43.988675 C12.322598,43.8848329 12.0110716,43.6944556 11.6591622,43.4233123 C10.8515013,42.7944906 9.96307432,41.8079905 9.05734029,40.5445781 C7.47086349,38.3177415 5.97092178,35.3640102 5.24979596,33.2929368 C4.36136896,30.7084219 3.92292446,28.2335181 3.92292446,25.8739944 C3.92292446,22.4010525 4.94980762,19.7588475 6.71512363,17.9646864 C8.23237235,16.4301307 10.2746007,15.5705487 12.357212,15.5243966 C12.6975834,15.5301656 13.193718,15.6109317 13.8225397,15.7840019 C14.3186743,15.9166891 14.8609609,16.0955283 15.5936247,16.3551336 C15.812847,16.4358997 16.5685868,16.707043 16.6608909,16.741657 C17.1051044,16.9031892 17.4397068,17.0185693 17.7685402,17.1224115 C18.8184994,17.4570138 19.6319293,17.641622 20.5145873,17.641622 C21.4087833,17.641622 22.1760612,17.4512448 23.2664034,17.0762594 C23.6760029,16.9378032 25.1644066,16.3839786 25.4297809,16.2916745 C26.9066466,15.7666949 27.9969888,15.4840136 28.9373369,15.4147855 C29.2142492,15.3917095 29.4623165,15.3917095 29.6988457,15.4090165 C31.0084102,15.5128586 32.1275975,15.7724639 33.0794836,16.2051394 C30.9103371,18.7088883 29.7911498,21.7722307 29.7969189,25.3432458 C29.7796118,26.1912898 29.8488399,27.1720209 30.0911382,28.3315912 C30.4603546,30.0911382 31.1641734,31.8333782 32.2775917,33.466007 C33.1256356,34.7063434 34.1755948,35.8255307 35.4332383,36.8004928 C34.7698025,38.1677474 33.9563726,39.581154 33.1025596,40.7695693 Z M27.6508484,7.77085183 C30.5757347,4.29790988 30.3103604,1.13649429 30.2238253,0 C27.6393104,0.14999417 24.650965,1.759547 22.9491081,3.73831625 C21.0741809,5.86131066 19.9723007,8.48620864 20.20883,11.445709 C23.0010291,11.6591622 25.55093,10.2226796 27.6508484,7.77085183 L27.6508484,7.77085183 Z"></path>
</svg>
