<svg width="48" height="48" viewBox="0 0 48 48" fill="none" xmlns="http://www.w3.org/2000/svg">
  <rect width="48" height="48" fill="white" fill-opacity="0.01"/>
  <path d="M22.1517857,20.1589286 L3.85178571,5.93035714 L2.37857143,4.78392857 L3.85714286,5.93571429 L3.85714286,33.8571429 L44.1428571,33.8571429 L44.1428571,5.93571429 L25.8321429,20.1589286 C24.749517,21.000007 23.2344116,21.000007 22.1517857,20.1589286 L22.1517857,20.1589286 Z" fill="#2F88FF"></path>
  <polygon fill="#2F88FF" points="43.5160714 2.07857143 45.6214286 4.78392857 44.1428571 5.93571429 45.6267857 4.78392857 43.5214286 2.07857143"></polygon>
  <path d="M46.2857143,0 L1.71428571,0 C0.766071429,0 0,0.766071429 0,1.71428571 L0,36 C0,36.9482143 0.766071429,37.7142857 1.71428571,37.7142857 L46.2857143,37.7142857 C47.2339286,37.7142857 48,36.9482143 48,36 L48,1.71428571 C48,0.766071429 47.2339286,0 46.2857143,0 Z M41.2232143,3.8625 L24,17.25 L6.77678571,3.8625 L41.2232143,3.8625 Z M44.1428571,5.93571429 L44.1428571,33.8571429 L3.85714286,33.8571429 L3.85714286,5.93571429 L2.37857143,4.78392857 L3.85178571,5.93035714 L22.1517857,20.1589286 C23.2344116,21.000007 24.749517,21.000007 25.8321429,20.1589286 L44.1428571,5.93571429 L45.6214286,4.78392857 L43.5160714,2.07857143 L43.5214286,2.07857143 L45.6267857,4.78392857 L44.1428571,5.93571429 Z" fill="#000"></path>
</svg>
