<svg width="48" height="48" viewBox="0 0 48 48" fill="none" xmlns="http://www.w3.org/2000/svg">
  <rect width="48" height="48" fill="white" fill-opacity="0.01"/>
  <polygon fill="#2F88FF" points="24 6.9364817 18.6502952 17.7775679 6.68146399 19.5173554 15.340732 27.9612751 13.2949233 39.8791027 24 34.2517119 34.7050767 39.8734357 32.659268 27.955608 41.318536 19.5173554 29.3497048 17.7775679"></polygon>
  <path d="M46.4472255,16.1397875 L32.0585596,14.0486423 L25.6264463,1.00873672 C25.4507674,0.651711924 25.1617473,0.362691854 24.8047226,0.187012987 C23.909327,-0.25501771 22.8212515,0.113341204 22.3735537,1.00873672 L15.9414404,14.0486423 L1.5527745,16.1397875 C1.15608028,16.1964581 0.79338843,16.3834711 0.515702479,16.6668241 C-0.183335147,17.3853115 -0.168117003,18.5342813 0.549704841,19.2340024 L10.9600945,29.3837072 L8.50059032,43.7157025 C8.38292647,44.3958482 8.66220603,45.0837265 9.22069504,45.4893532 C9.77918404,45.8949799 10.5197146,45.9477827 11.1301063,45.6255018 L24,38.8590319 L36.8698937,45.6255018 C37.2212515,45.8125148 37.6292798,45.8748524 38.020307,45.8068477 C39.0063754,45.6368359 39.6694215,44.701771 39.4994097,43.7157025 L37.0399055,29.3837072 L47.4502952,19.2340024 C47.7336482,18.9563164 47.9206612,18.5936246 47.9773318,18.1969303 C48.1303424,17.2051948 47.438961,16.2871311 46.4472255,16.1397875 Z M32.659268,27.955608 L34.7050767,39.8734357 L24,34.2517119 L13.2949233,39.8791027 L15.340732,27.9612751 L6.68146399,19.5173554 L18.6502952,17.7775679 L24,6.9364817 L29.3497048,17.7775679 L41.318536,19.5173554 L32.659268,27.955608 Z" fill="#000"></path>
</svg>
