<svg width="48" height="48" viewBox="0 0 48 48" fill="none" xmlns="http://www.w3.org/2000/svg">
  <rect width="48" height="48" fill="white" fill-opacity="0.01"/>
  <path d="M9.984,43.92 L31.776,43.92 L34.434,12.72 L7.32,12.72 L9.984,43.92 Z M20.88,18.24 C25.65,18.24 29.52,22.11 29.52,26.88 C29.52,31.65 25.65,35.52 20.88,35.52 C16.11,35.52 12.24,31.65 12.24,26.88 C12.24,22.11 16.11,18.24 20.88,18.24 Z" fill="#2F88FF"></path>
  <path d="M20.88,35.52 C25.65,35.52 29.52,31.65 29.52,26.88 C29.52,22.11 25.65,18.24 20.88,18.24 C16.11,18.24 12.24,22.11 12.24,26.88 C12.24,31.65 16.11,35.52 20.88,35.52 Z M20.88,22.08 C23.532,22.08 25.68,24.228 25.68,26.88 C25.68,29.532 23.532,31.68 20.88,31.68 C18.228,31.68 16.08,29.532 16.08,26.88 C16.08,24.228 18.228,22.08 20.88,22.08 Z" fill="#000"></path>
  <path d="M40.32,8.64 L38.634,8.64 L36.492,1.386 C36.252,0.564 35.502,0 34.65,0 L7.59,0 C6.732,0 5.982,0.564 5.748,1.386 L3.606,8.64 L1.92,8.64 C0.858,8.64 0,9.498 0,10.56 L0,12.24 C0,12.504 0.216,12.72 0.48,12.72 L3.228,12.72 L6.09,46.242 C6.1741987,47.2363532 7.00608847,48 8.004,48 L33.756,48 C34.7539115,48 35.5858013,47.2363532 35.67,46.242 L38.532,12.72 L41.76,12.72 C42.024,12.72 42.24,12.504 42.24,12.24 L42.24,10.56 C42.24,9.498 41.382,8.64 40.32,8.64 Z M9.204,4.08 L33.036,4.08 L34.38,8.64 L7.86,8.64 L9.204,4.08 Z M31.776,43.92 L9.984,43.92 L7.32,12.72 L34.434,12.72 L31.776,43.92 L31.776,43.92 Z" fill="#000"></path>
</svg>
