<svg width="48" height="48" viewBox="0 0 48 48" fill="none" xmlns="http://www.w3.org/2000/svg">
  <rect width="48" height="48" fill="white" fill-opacity="0.01"/>
  <path d="M12.984,43.92 L34.776,43.92 L37.434,12.72 L10.32,12.72 L12.984,43.92 Z M23.88,18.24 C28.65,18.24 32.52,22.11 32.52,26.88 C32.52,31.65 28.65,35.52 23.88,35.52 C19.11,35.52 15.24,31.65 15.24,26.88 C15.24,22.11 19.11,18.24 23.88,18.24 Z" fill="#2F88FF"></path>
  <path d="M23.88,35.52 C28.65,35.52 32.52,31.65 32.52,26.88 C32.52,22.11 28.65,18.24 23.88,18.24 C19.11,18.24 15.24,22.11 15.24,26.88 C15.24,31.65 19.11,35.52 23.88,35.52 Z M23.88,22.08 C26.532,22.08 28.68,24.228 28.68,26.88 C28.68,29.532 26.532,31.68 23.88,31.68 C21.228,31.68 19.08,29.532 19.08,26.88 C19.08,24.228 21.228,22.08 23.88,22.08 Z" fill="#000"></path>
  <path d="M43.32,8.64 L41.634,8.64 L39.492,1.386 C39.252,0.564 38.502,0 37.65,0 L10.59,0 C9.732,0 8.982,0.564 8.748,1.386 L6.606,8.64 L4.92,8.64 C3.858,8.64 3,9.498 3,10.56 L3,12.24 C3,12.504 3.216,12.72 3.48,12.72 L6.228,12.72 L9.09,46.242 C9.1741987,47.2363532 10.0060885,48 11.004,48 L36.756,48 C37.7539115,48 38.5858013,47.2363532 38.67,46.242 L41.532,12.72 L44.76,12.72 C45.024,12.72 45.24,12.504 45.24,12.24 L45.24,10.56 C45.24,9.498 44.382,8.64 43.32,8.64 Z M12.204,4.08 L36.036,4.08 L37.38,8.64 L10.86,8.64 L12.204,4.08 Z M34.776,43.92 L12.984,43.92 L10.32,12.72 L37.434,12.72 L34.776,43.92 L34.776,43.92 Z" fill="#000"></path>
</svg>
