<svg width="48" height="48" viewBox="0 0 48 48" fill="none" xmlns="http://www.w3.org/2000/svg">
  <rect width="48" height="48" fill="white" fill-opacity="0.01"/>
  <rect fill="#2F88FF" x="16" y="23" width="16" height="17"></rect>
  <path d="M34.2478041,20.1973244 L13.6993092,20.1973244 C13.4638577,20.1973244 13.2712155,20.3899666 13.2712155,20.6254181 L13.2712155,42.1371237 C13.2712155,42.3725753 13.4638577,42.5652174 13.6993092,42.5652174 L34.2478041,42.5652174 C34.4832556,42.5652174 34.6758978,42.3725753 34.6758978,42.1371237 L34.6758978,20.6254181 C34.6758978,20.3899666 34.4832556,20.1973244 34.2478041,20.1973244 Z M16.6959647,23.6220736 L31.2511486,23.6220736 L31.2511486,29.8829431 L16.6959647,29.8829431 L16.6959647,23.6220736 Z M31.2511486,39.1404682 L16.6959647,39.1404682 L16.6959647,32.8795987 L31.2511486,32.8795987 L31.2511486,39.1404682 Z" fill="#000000" fill-rule="nonzero"></path>
  <path d="M19.2645265,36.3578595 C19.2645265,37.3035779 20.0311828,38.0702341 20.9769011,38.0702341 C21.9226195,38.0702341 22.6892757,37.3035779 22.6892757,36.3578595 C22.6892757,35.4121412 21.9226195,34.6454849 20.9769011,34.6454849 C20.0311828,34.6454849 19.2645265,35.4121412 19.2645265,36.3578595 Z M19.2645265,26.8327759 C19.2645265,27.7784943 20.0311828,28.5451505 20.9769011,28.5451505 C21.9226195,28.5451505 22.6892757,27.7784943 22.6892757,26.8327759 C22.6892757,25.8870576 21.9226195,25.1204013 20.9769011,25.1204013 C20.0311828,25.1204013 19.2645265,25.8870576 19.2645265,26.8327759 Z" fill="#FFFFFF" fill-rule="nonzero"></path>
  <path d="M39.9949613,16.0715719 C37.5441252,9.60200669 31.2993092,5 23.984259,5 C16.6692088,5 10.4243928,9.59665552 7.97355662,16.0662207 C3.36619876,17.2809365 -0.0264433867,21.4923077 0,26.490301 C0.0324194895,32.0769231 4.36686765,36.6200669 9.82506163,37.1070234 C10.0765667,37.1284281 10.2906135,36.9304348 10.2906135,36.6789298 L10.2906135,33.4468227 C10.2906135,33.2327759 10.1300784,33.0508361 9.91603153,33.0240803 C8.47121548,32.8421405 7.10666699,32.2107023 6.05783755,31.1779264 C4.77355662,29.9204013 4.0672021,28.2294314 4.0672021,26.4367893 C4.0672021,24.9384615 4.55415862,23.5257525 5.46920879,22.348495 C6.36285428,21.2033445 7.62037936,20.373913 9.00633254,20.0100334 L11.0344262,19.4749164 L11.7782389,17.5110368 C12.2384396,16.2909699 12.8805801,15.1458194 13.6886068,14.1130435 C14.4859312,13.0856187 15.4330884,12.1866221 16.4926202,11.4374582 C18.6919513,9.8909699 21.2819179,9.0722408 23.984259,9.0722408 C26.6866001,9.0722408 29.2765667,9.8909699 31.4758978,11.4428094 C32.5407807,12.1919732 33.4825867,13.0909699 34.2799112,14.1183947 C35.0879379,15.1511706 35.7300784,16.2963211 36.1902791,17.516388 L36.9287406,19.4749164 L38.9514831,20.0100334 C41.8518175,20.780602 43.8799112,23.4187291 43.8799112,26.4314381 C43.8799112,28.2294314 43.1735566,29.9150502 41.8892757,31.1725753 C40.8457974,32.2 39.4866001,32.8367893 38.0417841,33.0187291 C37.8277372,33.0454849 37.6725533,33.2274247 37.6725533,33.4414716 L37.6725533,36.6789298 C37.6725533,36.9304348 37.8919513,37.1284281 38.1434563,37.1070234 C43.5855968,36.6147157 47.9093426,32.0769231 47.9472502,26.5010033 C47.9789078,21.50301 44.5916168,17.2916388 39.9949613,16.0715719 L39.9949613,16.0715719 Z" fill="#000000" fill-rule="nonzero"></path>
</svg>
