<svg width="48" height="48" viewBox="0 0 48 48" fill="none" xmlns="http://www.w3.org/2000/svg">
  <rect width="48" height="48" fill="white" fill-opacity="0.01"/>
  <path d="M25.0357143,15.4285714 L25.0357143,3.85714286 L8.85714286,3.85714286 L8.85714286,44.1428571 L38.8571429,44.1428571 L38.8571429,17.6785714 L27.2857143,17.6785714 C26.0430736,17.6785714 25.0357143,16.6712121 25.0357143,15.4285714 Z M27.8,21.8571429 L29.7125,21.8571429 C29.9472895,21.8583153 30.162896,21.9869801 30.2754049,22.1930608 C30.3879138,22.3991415 30.379551,22.6500814 30.2535714,22.8482143 L25.6839286,29.9464286 L30.1839286,36.9321429 C30.3767857,37.2321429 30.2910714,37.6285714 29.9910714,37.8214286 C29.8839286,37.8857143 29.7660714,37.9232143 29.6428571,37.9232143 L27.6339286,37.9232143 C27.4142857,37.9232143 27.2053571,37.8107143 27.0875,37.6178571 L23.75,32.1857143 L20.3910714,37.6232143 C20.2732143,37.8107143 20.0696429,37.9285714 19.8446429,37.9285714 L17.9964286,37.9285714 C17.762416,37.9281225 17.5470033,37.8009606 17.4335455,37.5962916 C17.3200877,37.3916225 17.3263847,37.1415563 17.45,36.9428571 L21.9178571,29.8285714 L17.5089286,22.8428571 C17.3160714,22.5375 17.4071429,22.1410714 17.7071429,21.9535714 C17.8089286,21.8839286 17.9267857,21.8517857 18.05,21.8517857 L20.1071429,21.8517857 C20.3321429,21.8517857 20.5410714,21.9696429 20.6589286,22.1625 L23.9696429,27.6482143 L27.2482143,22.1678571 C27.3660714,21.975 27.575,21.8571429 27.8,21.8571429 Z" fill="#2F88FF"></path>
  <path d="M42.2107143,12.0321429 L30.6821429,0.503571429 C30.3607143,0.182142857 29.9267857,0 29.4714286,0 L6.71428571,0 C5.76607143,0 5,0.766071429 5,1.71428571 L5,46.2857143 C5,47.2339286 5.76607143,48 6.71428571,48 L41,48 C41.9482143,48 42.7142857,47.2339286 42.7142857,46.2857143 L42.7142857,13.2482143 C42.7142857,12.7928571 42.5321429,12.3535714 42.2107143,12.0321429 Z M28.6785714,3.95357143 L38.7607143,14.0357143 L28.6785714,14.0357143 L28.6785714,3.95357143 Z M38.8571429,44.1428571 L8.85714286,44.1428571 L8.85714286,3.85714286 L25.0357143,3.85714286 L25.0357143,15.4285714 C25.0357143,16.6712121 26.0430736,17.6785714 27.2857143,17.6785714 L38.8571429,17.6785714 L38.8571429,44.1428571 Z" fill="#000000"></path>
  <path d="M20.6589286,22.1625 C20.5410714,21.9696429 20.3321429,21.8517857 20.1071429,21.8517857 L18.05,21.8517857 C17.9267857,21.8517857 17.8089286,21.8839286 17.7071429,21.9535714 C17.4071429,22.1410714 17.3160714,22.5375 17.5089286,22.8428571 L21.9178571,29.8285714 L17.45,36.9428571 C17.3263847,37.1415563 17.3200877,37.3916225 17.4335455,37.5962916 C17.5470033,37.8009606 17.762416,37.9281225 17.9964286,37.9285714 L19.8446429,37.9285714 C20.0696429,37.9285714 20.2732143,37.8107143 20.3910714,37.6232143 L23.75,32.1857143 L27.0875,37.6178571 C27.2053571,37.8107143 27.4142857,37.9232143 27.6339286,37.9232143 L29.6428571,37.9232143 C29.7660714,37.9232143 29.8839286,37.8857143 29.9910714,37.8214286 C30.2910714,37.6285714 30.3767857,37.2321429 30.1839286,36.9321429 L25.6839286,29.9464286 L30.2535714,22.8482143 C30.379551,22.6500814 30.3879138,22.3991415 30.2754049,22.1930608 C30.162896,21.9869801 29.9472895,21.8583153 29.7125,21.8571429 L27.8,21.8571429 C27.575,21.8571429 27.3660714,21.975 27.2482143,22.1678571 L23.9696429,27.6482143 L20.6589286,22.1625 Z" fill="#FFFFFF"></path>
</svg>
