<svg width="48" height="48" viewBox="0 0 48 48" fill="none" xmlns="http://www.w3.org/2000/svg">
  <rect width="48" height="48" fill="white" fill-opacity="0.01"/>
  <path d="M20.0357143,15.4285714 L20.0357143,3.85714286 L3.85714286,3.85714286 L3.85714286,44.1428571 L33.8571429,44.1428571 L33.8571429,17.6785714 L22.2857143,17.6785714 C21.0430736,17.6785714 20.0357143,16.6712121 20.0357143,15.4285714 Z M22.8,21.8571429 L24.7125,21.8571429 C24.9472895,21.8583153 25.162896,21.9869801 25.2754049,22.1930608 C25.3879138,22.3991415 25.379551,22.6500814 25.2535714,22.8482143 L20.6839286,29.9464286 L25.1839286,36.9321429 C25.3767857,37.2321429 25.2910714,37.6285714 24.9910714,37.8214286 C24.8839286,37.8857143 24.7660714,37.9232143 24.6428571,37.9232143 L22.6339286,37.9232143 C22.4142857,37.9232143 22.2053571,37.8107143 22.0875,37.6178571 L18.75,32.1857143 L15.3910714,37.6232143 C15.2732143,37.8107143 15.0696429,37.9285714 14.8446429,37.9285714 L12.9964286,37.9285714 C12.762416,37.9281225 12.5470033,37.8009606 12.4335455,37.5962916 C12.3200877,37.3916225 12.3263847,37.1415563 12.45,36.9428571 L16.9178571,29.8285714 L12.5089286,22.8428571 C12.3160714,22.5375 12.4071429,22.1410714 12.7071429,21.9535714 C12.8089286,21.8839286 12.9267857,21.8517857 13.05,21.8517857 L15.1071429,21.8517857 C15.3321429,21.8517857 15.5410714,21.9696429 15.6589286,22.1625 L18.9696429,27.6482143 L22.2482143,22.1678571 C22.3660714,21.975 22.575,21.8571429 22.8,21.8571429 Z" fill="#2F88FF"></path>
  <path d="M37.2107143,12.0321429 L25.6821429,0.503571429 C25.3607143,0.182142857 24.9267857,0 24.4714286,0 L1.71428571,0 C0.766071429,0 0,0.766071429 0,1.71428571 L0,46.2857143 C0,47.2339286 0.766071429,48 1.71428571,48 L36,48 C36.9482143,48 37.7142857,47.2339286 37.7142857,46.2857143 L37.7142857,13.2482143 C37.7142857,12.7928571 37.5321429,12.3535714 37.2107143,12.0321429 Z M23.6785714,3.95357143 L33.7607143,14.0357143 L23.6785714,14.0357143 L23.6785714,3.95357143 Z M33.8571429,44.1428571 L3.85714286,44.1428571 L3.85714286,3.85714286 L20.0357143,3.85714286 L20.0357143,15.4285714 C20.0357143,16.6712121 21.0430736,17.6785714 22.2857143,17.6785714 L33.8571429,17.6785714 L33.8571429,44.1428571 Z" fill="#000"></path>
  <path d="M18.9696429,27.6482143 L15.6589286,22.1625 C15.5410714,21.9696429 15.3321429,21.8517857 15.1071429,21.8517857 L13.05,21.8517857 C12.9267857,21.8517857 12.8089286,21.8839286 12.7071429,21.9535714 C12.4071429,22.1410714 12.3160714,22.5375 12.5089286,22.8428571 L16.9178571,29.8285714 L12.45,36.9428571 C12.3263847,37.1415563 12.3200877,37.3916225 12.4335455,37.5962916 C12.5470033,37.8009606 12.762416,37.9281225 12.9964286,37.9285714 L14.8446429,37.9285714 C15.0696429,37.9285714 15.2732143,37.8107143 15.3910714,37.6232143 L18.75,32.1857143 L22.0875,37.6178571 C22.2053571,37.8107143 22.4142857,37.9232143 22.6339286,37.9232143 L24.6428571,37.9232143 C24.7660714,37.9232143 24.8839286,37.8857143 24.9910714,37.8214286 C25.2910714,37.6285714 25.3767857,37.2321429 25.1839286,36.9321429 L20.6839286,29.9464286 L25.2535714,22.8482143 C25.379551,22.6500814 25.3879138,22.3991415 25.2754049,22.1930608 C25.162896,21.9869801 24.9472895,21.8583153 24.7125,21.8571429 L22.8,21.8571429 C22.575,21.8571429 22.3660714,21.975 22.2482143,22.1678571 L18.9696429,27.6482143 L18.9696429,27.6482143 Z" fill="#000"></path>
</svg>
