<?xml version="1.0" encoding="UTF-8"?>
<svg width="48" height="48" viewBox="0 0 48 48" fill="none" xmlns="http://www.w3.org/2000/svg">
  <rect width="48" height="48" fill="white" fill-opacity="0.01"/>
  <path fill="#000" d="M24.5023891,-8.26685103e-05 C16.174744,-0.0218430034 8.84641638,4.28668942 4.65802048,10.7959044 C4.47235495,11.0853242 4.67986348,11.4675768 5.02389078,11.4675768 L8.86279863,11.4675768 C9.12491468,11.4675768 9.37064846,11.352901 9.53447099,11.1508532 C9.91672355,10.6866894 10.3262799,10.2389078 10.7576792,9.81296928 C12.537884,8.03822526 14.6075085,6.64027304 16.9119454,5.66825939 C19.2928328,4.66348123 21.8266212,4.15017065 24.4423208,4.15017065 C27.0580205,4.15017065 29.5918089,4.65802048 31.9726962,5.66825939 C34.2771331,6.64027304 36.3467577,8.03822526 38.1269625,9.81296928 C39.9071672,11.5877133 41.2996587,13.6573379 42.2771331,15.956314 C43.287372,18.3372014 43.7952218,20.865529 43.7952218,23.4812287 C43.7952218,26.0969283 43.2819113,28.625256 42.2771331,31.0061433 C41.3051195,33.3051195 39.9071672,35.374744 38.1269625,37.1494881 C36.3467577,38.9242321 34.2771331,40.3221843 31.9726962,41.294198 C29.5899316,42.3006102 27.0289038,42.8169015 24.4423208,42.8122867 C21.8266212,42.8122867 19.2928328,42.2989761 16.9119454,41.294198 C14.6120324,40.3231746 12.5220847,38.9156588 10.7576792,37.1494881 C10.3262799,36.7180887 9.9221843,36.2703072 9.53447099,35.8116041 C9.37064846,35.6095563 9.11945392,35.4948805 8.86279863,35.4948805 L5.02389078,35.4948805 C4.67986348,35.4948805 4.4668942,35.8771331 4.65802048,36.1665529 C8.84095563,42.6593857 16.1365188,46.9624573 24.4423208,46.9624573 C37.3406143,46.9624573 47.8143345,36.58157 47.9453925,23.7215017 C48.0764505,10.6539249 37.5863481,0.0327645051 24.5023891,-8.26685103e-05 Z M17.5847099,29.5972696 L17.5847099,25.447099 L0.437952218,25.447099 C0.197679181,25.447099 0.00109215017,25.2505119 0.00109215017,25.0102389 L0.00109215017,21.9522184 C0.00109215017,21.7119454 0.197679181,21.5153584 0.437952218,21.5153584 L17.5847099,21.5153584 L17.5847099,17.3651877 C17.5847099,16.9993174 18.0106485,16.7918089 18.2946075,17.0211604 L26.043413,23.1372014 C26.1492128,23.2200026 26.2110298,23.3468797 26.2110298,23.4812287 C26.2110298,23.6155776 26.1492128,23.7424547 26.043413,23.825256 L18.2946075,29.9412969 C18.0106485,30.1651877 17.5847099,29.9631399 17.5847099,29.5972696 Z"></path>
</svg>
