<?xml version="1.0" encoding="UTF-8"?>
<svg width="48" height="48" viewBox="0 0 48 48" fill="none" xmlns="http://www.w3.org/2000/svg">
  <rect width="48" height="48" fill="white" fill-opacity="0.01"/>
  <path fill="#000" d="M47.5384615,14.7692308 L30,14.7692308 C29.7461538,14.7692308 29.5384615,14.9769231 29.5384615,15.2307692 L29.5384615,21.6923077 C29.5384615,21.9461538 29.7461538,22.1538462 30,22.1538462 L32.7692308,22.1538462 C33.0230769,22.1538462 33.2307692,21.9461538 33.2307692,21.6923077 L33.2307692,18.4615385 L36.6923077,18.4615385 L36.6923077,36.9230769 L34.0384615,36.9230769 C33.7846154,36.9230769 33.5769231,37.1307692 33.5769231,37.3846154 L33.5769231,40.1538462 C33.5769231,40.4076923 33.7846154,40.6153846 34.0384615,40.6153846 L43.5,40.6153846 C43.7538462,40.6153846 43.9615385,40.4076923 43.9615385,40.1538462 L43.9615385,37.3846154 C43.9615385,37.1307692 43.7538462,36.9230769 43.5,36.9230769 L40.8461538,36.9230769 L40.8461538,18.4615385 L44.3076923,18.4615385 L44.3076923,21.6923077 C44.3076923,21.9461538 44.5153846,22.1538462 44.7692308,22.1538462 L47.5384615,22.1538462 C47.7923077,22.1538462 48,21.9461538 48,21.6923077 L48,15.2307692 C48,14.9769231 47.7923077,14.7692308 47.5384615,14.7692308 Z M32.3076923,7.84615385 L32.3076923,0.461538462 C32.3076923,0.207692308 32.1,0 31.8461538,0 L0.461538462,0 C0.207692308,0 0,0.207692308 0,0.461538462 L0,7.84615385 C0,8.1 0.207692308,8.30769231 0.461538462,8.30769231 L3.69230769,8.30769231 C3.94615385,8.30769231 4.15384615,8.1 4.15384615,7.84615385 L4.15384615,4.15384615 L13.8461538,4.15384615 L13.8461538,36.4615385 L8.53846154,36.4615385 C8.28461538,36.4615385 8.07692308,36.6692308 8.07692308,36.9230769 L8.07692308,40.1538462 C8.07692308,40.4076923 8.28461538,40.6153846 8.53846154,40.6153846 L23.7692308,40.6153846 C24.0230769,40.6153846 24.2307692,40.4076923 24.2307692,40.1538462 L24.2307692,36.9230769 C24.2307692,36.6692308 24.0230769,36.4615385 23.7692308,36.4615385 L18.4615385,36.4615385 L18.4615385,4.15384615 L28.1538462,4.15384615 L28.1538462,7.84615385 C28.1538462,8.1 28.3615385,8.30769231 28.6153846,8.30769231 L31.8461538,8.30769231 C32.1,8.30769231 32.3076923,8.1 32.3076923,7.84615385 Z"></path>
</svg>
