<svg width="48" height="48" viewBox="0 0 48 48" fill="none" xmlns="http://www.w3.org/2000/svg">
  <rect width="48" height="48" fill="white" fill-opacity="0.01"/>
  <path d="M21.25,0 L2,0 C0.89375,0 0,0.89375 0,2 L0,21.25 C0,21.525 0.225,21.75 0.5,21.75 L21.25,21.75 C21.525,21.75 21.75,21.525 21.75,21.25 L21.75,0.5 C21.75,0.225 21.525,0 21.25,0 Z M17.75,17.75 L4,17.75 L4,4 L17.75,4 L17.75,17.75 Z M9.125,13.125 L12.625,13.125 C12.9,13.125 13.125,12.9 13.125,12.625 L13.125,9.125 C13.125,8.85 12.9,8.625 12.625,8.625 L9.125,8.625 C8.85,8.625 8.625,8.85 8.625,9.125 L8.625,12.625 C8.625,12.9 8.85,13.125 9.125,13.125 Z M21.25,26.25 L0.5,26.25 C0.225,26.25 0,26.475 0,26.75 L0,46 C0,47.10625 0.89375,48 2,48 L21.25,48 C21.525,48 21.75,47.775 21.75,47.5 L21.75,26.75 C21.75,26.475 21.525,26.25 21.25,26.25 Z M17.75,44 L4,44 L4,30.25 L17.75,30.25 L17.75,44 Z M9.125,39.375 L12.625,39.375 C12.9,39.375 13.125,39.15 13.125,38.875 L13.125,35.375 C13.125,35.1 12.9,34.875 12.625,34.875 L9.125,34.875 C8.85,34.875 8.625,35.1 8.625,35.375 L8.625,38.875 C8.625,39.15 8.85,39.375 9.125,39.375 Z M46,0 L26.75,0 C26.475,0 26.25,0.225 26.25,0.5 L26.25,21.25 C26.25,21.525 26.475,21.75 26.75,21.75 L47.5,21.75 C47.775,21.75 48,21.525 48,21.25 L48,2 C48,0.89375 47.10625,0 46,0 Z M44,17.75 L30.25,17.75 L30.25,4 L44,4 L44,17.75 Z M35.375,13.125 L38.875,13.125 C39.15,13.125 39.375,12.9 39.375,12.625 L39.375,9.125 C39.375,8.85 39.15,8.625 38.875,8.625 L35.375,8.625 C35.1,8.625 34.875,8.85 34.875,9.125 L34.875,12.625 C34.875,12.9 35.1,13.125 35.375,13.125 Z M47.5,26.25 L44.5,26.25 C44.225,26.25 44,26.475 44,26.75 L44,35.125 L39.125,35.125 L39.125,26.75 C39.125,26.475 38.9,26.25 38.625,26.25 L26.75,26.25 C26.475,26.25 26.25,26.475 26.25,26.75 L26.25,47.5 C26.25,47.775 26.475,48 26.75,48 L29.75,48 C30.025,48 30.25,47.775 30.25,47.5 L30.25,32.25 L35.125,32.25 L35.125,38.625 C35.125,38.9 35.35,39.125 35.625,39.125 L47.5,39.125 C47.775,39.125 48,38.9 48,38.625 L48,26.75 C48,26.475 47.775,26.25 47.5,26.25 Z M38.625,44 L35.625,44 C35.35,44 35.125,44.225 35.125,44.5 L35.125,47.5 C35.125,47.775 35.35,48 35.625,48 L38.625,48 C38.9,48 39.125,47.775 39.125,47.5 L39.125,44.5 C39.125,44.225 38.9,44 38.625,44 Z M47.5,44 L44.5,44 C44.225,44 44,44.225 44,44.5 L44,47.5 C44,47.775 44.225,48 44.5,48 L47.5,48 C47.775,48 48,47.775 48,47.5 L48,44.5 C48,44.225 47.775,44 47.5,44 Z" fill="#000"></path>
</svg>
