<svg width="48" height="48" viewBox="0 0 48 48" fill="none" xmlns="http://www.w3.org/2000/svg">
  <rect width="48" height="48" fill="white" fill-opacity="0.01"/>
  <path d="M35.628,22.542 C34.8771974,23.291957 33.6608026,23.291957 32.91,22.542 L25.44,15.072 C24.690043,14.3211974 24.690043,13.1048026 25.44,12.354 L33.414,4.386 C30.2039597,4.14672357 27.049113,5.31883677 24.774,7.596 C21.288,11.082 20.616,16.314 22.758,20.472 L19.59,23.64 C19.584,23.64 19.584,23.634 19.584,23.634 L5.778,37.44 L10.53,42.192 L26.97,25.746 L26.976,25.752 L27.504,25.224 C31.662,27.366 36.894,26.694 40.38,23.208 C42.732,20.862 43.818,17.682 43.596,14.574 L35.628,22.542 Z" fill="#2F88FF"></path>
  <path d="M45.816,7.59 C45.786,7.536 45.744,7.482 45.696,7.44 C45.396,7.14 44.91,7.14 44.61,7.44 L34.272,17.778 L30.198,13.704 L40.542,3.36 C40.59,3.312 40.626,3.264 40.662,3.21 C40.878,2.844 40.758,2.376 40.392,2.16 C34.5,-1.32 26.784,-0.522 21.714,4.542 C17.694,8.562 16.362,14.262 17.724,19.386 L0.144,36.966 C-0.036,37.146 -0.024,37.44 0.162,37.626 L10.344,47.808 C10.53,47.994 10.83,48.006 11.004,47.826 L28.578,30.252 C33.708,31.62 39.408,30.294 43.434,26.268 C48.498,21.198 49.296,13.482 45.816,7.59 Z M40.38,23.208 C36.894,26.694 31.662,27.366 27.504,25.224 L26.976,25.752 L26.97,25.746 L10.53,42.192 L5.778,37.44 L19.584,23.634 C19.584,23.634 19.584,23.64 19.59,23.64 L22.758,20.472 C20.616,16.314 21.288,11.082 24.774,7.596 C27.049113,5.31883677 30.2039597,4.14672357 33.414,4.386 L25.44,12.354 C24.690043,13.1048026 24.690043,14.3211974 25.44,15.072 L32.91,22.542 C33.6608026,23.291957 34.8771974,23.291957 35.628,22.542 L43.596,14.574 C43.818,17.682 42.732,20.862 40.38,23.208 Z" fill="#000"></path>
</svg>
