<svg width="48" height="48" viewBox="0 0 48 48" fill="none" xmlns="http://www.w3.org/2000/svg">
  <rect width="48" height="48" fill="white" fill-opacity="0.01"/>
  <path d="M46.669852,38.6347558 L43.3674213,38.6347558 C43.1096107,38.6347558 42.8947686,38.8495979 42.8947686,39.1074085 L42.8947686,42.9009069 L4.24159775,42.9009069 L4.24159775,4.24159775 L42.9009069,4.24159775 L42.9009069,8.03509617 C42.9009069,8.29290675 43.1157491,8.50774889 43.3735596,8.50774889 L46.6759903,8.50774889 C46.9338009,8.50774889 47.148643,8.29904509 47.148643,8.03509617 L47.148643,1.88447252 C47.148643,0.840953534 46.3076895,0 45.2641705,0 L1.88447252,0 C0.840953534,0 0,0.840953534 0,1.88447252 L0,45.2580322 C0,46.3015511 0.840953534,47.1425047 1.88447252,47.1425047 L45.2580322,47.1425047 C46.3015511,47.1425047 47.1425047,46.3015511 47.1425047,45.2580322 L47.1425047,39.1074085 C47.1425047,38.8434596 46.9276625,38.6347558 46.669852,38.6347558 Z M47.8115845,23.1845365 L39.1012702,16.3095879 C38.7759378,16.0517773 38.3032851,16.2850345 38.3032851,16.6963037 L38.3032851,21.3614474 L19.0288756,21.3614474 C18.7587883,21.3614474 18.5378078,21.5824279 18.5378078,21.8525152 L18.5378078,25.2899895 C18.5378078,25.5600768 18.7587883,25.7810572 19.0288756,25.7810572 L38.3032851,25.7810572 L38.3032851,30.4462009 C38.3032851,30.8574702 38.7820761,31.0907274 39.1012702,30.8329168 L47.8115845,23.9579682 C47.9305124,23.8648926 48,23.722272 48,23.5712523 C48,23.4202327 47.9305124,23.2776121 47.8115845,23.1845365 L47.8115845,23.1845365 Z" fill="#000"></path>
</svg>
