<svg width="48" height="48" viewBox="0 0 48 48" fill="none" xmlns="http://www.w3.org/2000/svg">
  <rect width="48" height="48" fill="white" fill-opacity="0.01"/>
  <path d="M12.4285714,18.6428571 L12.4285714,33 C12.4285714,34.9703036 12.9470357,36.8551071 13.918125,38.512875 C14.8696856,40.1357044 16.2214385,41.4874573 17.8442679,42.4390179 C19.5020357,43.4101071 21.3867857,43.9285714 23.3571429,43.9285714 C25.3274464,43.9285714 27.21225,43.4101071 28.8700179,42.4390179 C30.4928473,41.4874573 31.8446001,40.1357044 32.7961607,38.512875 C33.76725,36.8551071 34.2857143,34.9703571 34.2857143,33 L34.2857143,18.6428571 L12.4285714,18.6428571 Z M38.3571429,27.8571429 L38.3571429,33 C38.3571429,33.348375 38.34525,33.6939643 38.3218929,34.0363929 C41.9963036,35.6055 44.5714286,39.2520536 44.5714286,43.5 C44.5714286,43.7366935 44.3795506,43.9285714 44.1428571,43.9285714 L41.1428571,43.9285714 C40.9061637,43.9285714 40.7142857,43.7366935 40.7142857,43.5 C40.7142857,41.13 39.4317857,39.0595714 37.5230357,37.9448036 C37.2044046,38.8573607 36.7978888,39.7368113 36.3092143,40.5707679 C35.0052182,42.7952295 33.1524259,44.6480218 30.9279643,45.9520179 C28.7057143,47.2538571 26.1185357,48 23.3571429,48 C20.59575,48 18.0085714,47.2538036 15.786375,45.9520714 C13.5619134,44.6480753 11.7091211,42.7952831 10.405125,40.5708214 C9.91644732,39.7368478 9.50993146,38.8573791 9.19130357,37.9448036 C7.2825,39.059625 6,41.13 6,43.5 C6,43.7366935 5.80812204,43.9285714 5.57142857,43.9285714 L2.57142857,43.9285714 C2.33473511,43.9285714 2.14285714,43.7366935 2.14285714,43.5 C2.14285714,39.2520536 4.71803571,35.6055536 8.39239286,34.0363929 C8.36887464,33.6914292 8.35711782,33.3457644 8.35714286,33 L8.35714286,27.8571429 L0.428571429,27.8571429 C0.191877964,27.8571429 0,27.6652649 0,27.4285714 L0,24.4285714 C0,24.191878 0.191877964,24 0.428571429,24 L8.35714286,24 L8.35714286,18.6428571 C4.24457143,18.6428571 0.910714286,15.309 0.910714286,11.1964286 C0.910714286,10.9597351 1.10259225,10.7678571 1.33928571,10.7678571 L4.55357143,10.7678571 C4.79026489,10.7678571 4.98214286,10.9597351 4.98214286,11.1964286 C4.98214286,13.0603929 6.49317857,14.5714286 8.35714286,14.5714286 L38.3571429,14.5714286 C40.2211071,14.5714286 41.7321429,13.0603929 41.7321429,11.1964286 C41.7321429,10.9597351 41.9240208,10.7678571 42.1607143,10.7678571 L45.375,10.7678571 C45.6116935,10.7678571 45.8035714,10.9597351 45.8035714,11.1964286 C45.8035714,15.309 42.4697143,18.6428571 38.3571429,18.6428571 L38.3571429,24 L46.2857143,24 C46.5224077,24 46.7142857,24.191878 46.7142857,24.4285714 L46.7142857,27.4285714 C46.7142857,27.6652649 46.5224077,27.8571429 46.2857143,27.8571429 L38.3571429,27.8571429 Z M15.6428571,11.1428571 C15.6428571,11.3795506 15.4509792,11.5714286 15.2142857,11.5714286 L12.2142857,11.5714286 C11.9775923,11.5714286 11.7857143,11.3795506 11.7857143,11.1428571 C11.7857143,8.99791071 12.2560179,7.03146429 13.1732143,5.3535 C14.0965179,3.66460714 15.4503214,2.31080357 17.1392143,1.38755357 C18.8171786,0.470303571 20.7836786,0 22.9285714,0 L23.7857143,0 C25.9306607,0 27.8971071,0.470303571 29.5750714,1.3875 C31.2639643,2.31080357 32.6177679,3.66460714 33.5410179,5.3535 C34.4582679,7.03146429 34.9285714,8.99796429 34.9285714,11.1428571 C34.9285714,11.3795506 34.7366935,11.5714286 34.5,11.5714286 L31.5,11.5714286 C31.2633065,11.5714286 31.0714286,11.3795506 31.0714286,11.1428571 C31.0714286,9.62539286 30.7533214,8.29532143 30.1565893,7.20369643 C29.5873929,6.16242857 28.7661429,5.34117857 27.724875,4.77198214 C26.63325,4.17519643 25.3031786,3.85714286 23.7857143,3.85714286 L22.9285714,3.85714286 C21.4111071,3.85714286 20.0810357,4.17525 18.9894107,4.77198214 C17.9481429,5.34117857 17.1268929,6.16242857 16.5576964,7.20369643 C15.9609107,8.29532143 15.6428571,9.62539286 15.6428571,11.1428571 Z" fill="#000"></path>
  <path d="M12.4285714,18.6428571 L12.4285714,33 C12.4285714,34.9703036 12.9470357,36.8551071 13.918125,38.512875 C14.8696856,40.1357044 16.2214385,41.4874573 17.8442679,42.4390179 C19.5020357,43.4101071 21.3867857,43.9285714 23.3571429,43.9285714 C25.3274464,43.9285714 27.21225,43.4101071 28.8700179,42.4390179 C30.4928473,41.4874573 31.8446001,40.1357044 32.7961607,38.512875 C33.76725,36.8551071 34.2857143,34.9703571 34.2857143,33 L34.2857143,18.6428571 L12.4285714,18.6428571 Z" fill="#2F88FF"></path>
</svg>
