<svg width="48" height="48" viewBox="0 0 48 48" fill="none" xmlns="http://www.w3.org/2000/svg">
  <rect width="48" height="48" fill="white" fill-opacity="0.01"/>
  <path d="M20.9732143,22.8482143 L19.3392857,22.8482143 C19.0928571,22.8482143 18.8892857,23.0464286 18.8892857,23.2982143 L18.8892857,35.1428571 C18.8892857,35.3892857 19.0875,35.5928571 19.3392857,35.5928571 L20.9732143,35.5928571 C21.2196429,35.5928571 21.4232143,35.3946429 21.4232143,35.1428571 L21.4232143,23.2982143 C21.4178571,23.0517857 21.2196429,22.8482143 20.9732143,22.8482143 Z M16.9982143,28.7142857 L12.2785714,28.7142857 C12.0321429,28.7142857 11.8285714,28.9125 11.8285714,29.1642857 L11.8285714,30.4392857 C11.8285714,30.6857143 12.0267857,30.8892857 12.2785714,30.8892857 L14.8285714,30.8892857 L14.8285714,30.9267857 C14.7964286,32.5285714 13.5964286,33.5946429 11.8017857,33.5946429 C9.70178571,33.5946429 8.39464286,31.95 8.39464286,29.2339286 C8.39464286,26.55 9.675,24.9160714 11.7321429,24.9160714 C13.2375,24.9160714 14.2767857,25.6392857 14.7,26.9678571 L14.7482143,27.1178571 L17.3839286,27.1178571 L17.3464286,26.8714286 C16.9232143,24.2089286 14.7160714,22.5 11.7321429,22.5 C8.04642857,22.5 5.67857143,25.1464286 5.67857143,29.2446429 C5.67857143,33.3964286 8.01964286,36 11.7642857,36 C15.2142857,36 17.4428571,33.8410714 17.4428571,30.4875 L17.4428571,29.1589286 C17.4428571,28.9125 17.2446429,28.7142857 16.9982143,28.7142857 L16.9982143,28.7142857 Z" fill="#000"></path>
  <path d="M37.2107143,12.0321429 L25.6821429,0.503571429 C25.3607143,0.182142857 24.9267857,0 24.4714286,0 L1.71428571,0 C0.766071429,0 0,0.766071429 0,1.71428571 L0,46.2857143 C0,47.2339286 0.766071429,48 1.71428571,48 L36,48 C36.9482143,48 37.7142857,47.2339286 37.7142857,46.2857143 L37.7142857,13.2482143 C37.7142857,12.7928571 37.5321429,12.3535714 37.2107143,12.0321429 Z M23.6785714,3.95357143 L33.7607143,14.0357143 L23.6785714,14.0357143 L23.6785714,3.95357143 Z M33.8571429,44.1428571 L3.85714286,44.1428571 L3.85714286,3.85714286 L20.0357143,3.85714286 L20.0357143,15.4285714 C20.0357143,16.6714286 21.0428571,17.6785714 22.2857143,17.6785714 L33.8571429,17.6785714 L33.8571429,44.1428571 Z" fill="#000"></path>
  <path d="M24.0107143,35.5607143 L25.7410714,35.5607143 C25.9875,35.5607143 26.1910714,35.3625 26.1910714,35.1107143 L26.1910714,30.5678571 L30.8946429,30.5678571 C31.1410714,30.5678571 31.3446429,30.3696429 31.3446429,30.1178571 L31.3446429,28.7517857 C31.3446429,28.5053571 31.1464286,28.3017857 30.8946429,28.3017857 L26.1910714,28.3017857 L26.1910714,25.1464286 L31.3767857,25.1464286 C31.6232143,25.1464286 31.8267857,24.9482143 31.8267857,24.6964286 L31.8267857,23.2607143 C31.8267857,23.0142857 31.6285714,22.8107143 31.3767857,22.8107143 L24.0107143,22.8107143 C23.7642857,22.8107143 23.5607143,23.0089286 23.5607143,23.2607143 L23.5607143,35.1053571 C23.5607143,35.3625 23.7642857,35.5607143 24.0107143,35.5607143 L24.0107143,35.5607143 Z" fill="#000"></path>
</svg>
