<svg width="48" height="48" viewBox="0 0 48 48" fill="none" xmlns="http://www.w3.org/2000/svg">
  <rect width="48" height="48" fill="white" fill-opacity="0.01"/>
  <path d="M25.9732143,22.8482143 L24.3392857,22.8482143 C24.0928571,22.8482143 23.8892857,23.0464286 23.8892857,23.2982143 L23.8892857,35.1428571 C23.8892857,35.3892857 24.0875,35.5928571 24.3392857,35.5928571 L25.9732143,35.5928571 C26.2196429,35.5928571 26.4232143,35.3946429 26.4232143,35.1428571 L26.4232143,23.2982143 C26.4178571,23.0517857 26.2196429,22.8482143 25.9732143,22.8482143 Z M21.9982143,28.7142857 L17.2785714,28.7142857 C17.0321429,28.7142857 16.8285714,28.9125 16.8285714,29.1642857 L16.8285714,30.4392857 C16.8285714,30.6857143 17.0267857,30.8892857 17.2785714,30.8892857 L19.8285714,30.8892857 L19.8285714,30.9267857 C19.7964286,32.5285714 18.5964286,33.5946429 16.8017857,33.5946429 C14.7017857,33.5946429 13.3946429,31.95 13.3946429,29.2339286 C13.3946429,26.55 14.675,24.9160714 16.7321429,24.9160714 C18.2375,24.9160714 19.2767857,25.6392857 19.7,26.9678571 L19.7482143,27.1178571 L22.3839286,27.1178571 L22.3464286,26.8714286 C21.9232143,24.2089286 19.7160714,22.5 16.7321429,22.5 C13.0464286,22.5 10.6785714,25.1464286 10.6785714,29.2446429 C10.6785714,33.3964286 13.0196429,36 16.7642857,36 C20.2142857,36 22.4428571,33.8410714 22.4428571,30.4875 L22.4428571,29.1589286 C22.4428571,28.9125 22.2446429,28.7142857 21.9982143,28.7142857 L21.9982143,28.7142857 Z" fill="#000000"></path>
  <path d="M42.2107143,12.0321429 L30.6821429,0.503571429 C30.3607143,0.182142857 29.9267857,0 29.4714286,0 L6.71428571,0 C5.76607143,0 5,0.766071429 5,1.71428571 L5,46.2857143 C5,47.2339286 5.76607143,48 6.71428571,48 L41,48 C41.9482143,48 42.7142857,47.2339286 42.7142857,46.2857143 L42.7142857,13.2482143 C42.7142857,12.7928571 42.5321429,12.3535714 42.2107143,12.0321429 Z M28.6785714,3.95357143 L38.7607143,14.0357143 L28.6785714,14.0357143 L28.6785714,3.95357143 Z M38.8571429,44.1428571 L8.85714286,44.1428571 L8.85714286,3.85714286 L25.0357143,3.85714286 L25.0357143,15.4285714 C25.0357143,16.6714286 26.0428571,17.6785714 27.2857143,17.6785714 L38.8571429,17.6785714 L38.8571429,44.1428571 Z" fill="#000000"></path>
  <path d="M29.0107143,35.5607143 L30.7410714,35.5607143 C30.9875,35.5607143 31.1910714,35.3625 31.1910714,35.1107143 L31.1910714,30.5678571 L35.8946429,30.5678571 C36.1410714,30.5678571 36.3446429,30.3696429 36.3446429,30.1178571 L36.3446429,28.7517857 C36.3446429,28.5053571 36.1464286,28.3017857 35.8946429,28.3017857 L31.1910714,28.3017857 L31.1910714,25.1464286 L36.3767857,25.1464286 C36.6232143,25.1464286 36.8267857,24.9482143 36.8267857,24.6964286 L36.8267857,23.2607143 C36.8267857,23.0142857 36.6285714,22.8107143 36.3767857,22.8107143 L29.0107143,22.8107143 C28.7642857,22.8107143 28.5607143,23.0089286 28.5607143,23.2607143 L28.5607143,35.1053571 C28.5607143,35.3625 28.7642857,35.5607143 29.0107143,35.5607143 L29.0107143,35.5607143 Z" fill="#000000"></path>
</svg>
