<svg width="48" height="48" viewBox="0 0 48 48" fill="none" xmlns="http://www.w3.org/2000/svg">
  <rect width="48" height="48" fill="white" fill-opacity="0.01"/>
  <path d="M36.5363296,4.36853933 L29.8966292,11.0142322 L37.1355805,18.247191 L36.6561798,19.541573 C33.7385046,27.4858386 27.4788245,33.7477097 19.5355805,36.6681648 L18.2411985,37.1475655 L18.1872659,37.093633 L11.0082397,29.9026217 L4.36853933,36.5483146 L10.6307116,42.8104869 C11.2779026,43.4516854 12.188764,43.7513109 13.0756554,43.6014981 C20.140824,42.4329588 27.1820225,38.6337079 32.9048689,32.9108614 C38.6277154,27.188015 42.4269663,20.140824 43.5955056,13.0756554 C43.7453184,12.188764 43.4456929,11.2779026 42.7985019,10.6307116 L36.5363296,4.36853933 Z" fill="#2F88FF"></path>
  <path d="M45.8486891,7.59250936 L39.4666667,1.2164794 C38.6876404,0.437453184 37.6449438,0 36.5423221,0 C35.4397004,0 34.3970037,0.431460674 33.6179775,1.2164794 L26.7445693,8.07790262 C25.9655431,8.85692884 25.5280899,9.90561798 25.5280899,11.0082397 C25.5280899,12.1168539 25.9595506,13.1535581 26.7445693,13.9385768 L32.1138577,19.3138577 C30.8906884,22.1638108 29.1332126,24.7532398 26.9363296,26.9423221 C24.7370787,29.1535581 22.1662921,30.8973783 19.3138577,32.1318352 L13.9445693,26.7565543 C13.1655431,25.9775281 12.1228464,25.5400749 11.0202247,25.5400749 C9.92155686,25.5360097 8.86752294,25.9744705 8.09588015,26.7565543 L1.2164794,33.6179775 C0.437453184,34.3970037 0,35.4456929 0,36.5483146 C0,37.6569288 0.431460674,38.693633 1.2164794,39.4786517 L7.59250936,45.8546816 C8.92284644,47.1850187 10.7565543,47.9460674 12.6382022,47.9460674 C13.0277154,47.9460674 13.4052434,47.9161049 13.788764,47.8501873 C21.7228464,46.5438202 29.5970037,42.3191011 35.9550562,35.9670412 C42.3071161,29.6029963 46.5258427,21.728839 47.8441948,13.788764 C48.2217228,11.5355805 47.4666667,9.2164794 45.8486891,7.59250936 Z M43.5955056,13.0756554 C42.4269663,20.140824 38.6277154,27.188015 32.9048689,32.9108614 C27.1820225,38.6337079 20.140824,42.4329588 13.0756554,43.6014981 C12.188764,43.7513109 11.2779026,43.4516854 10.6307116,42.8104869 L4.36853933,36.5483146 L11.0082397,29.9026217 L18.1872659,37.093633 L18.2411985,37.1475655 L19.5355805,36.6681648 C27.4788245,33.7477097 33.7385046,27.4858386 36.6561798,19.541573 L37.1355805,18.247191 L29.8966292,11.0142322 L36.5363296,4.36853933 L42.7985019,10.6307116 C43.4456929,11.2779026 43.7453184,12.188764 43.5955056,13.0756554 Z" fill="#000"></path>
</svg>
