<svg width="48" height="48" viewBox="0 0 48 48" fill="none" xmlns="http://www.w3.org/2000/svg">
  <rect width="48" height="48" fill="white" fill-opacity="0.01"/>
  <path fill="#000" d="M0,24.7446429 L14.1535714,34.0392857 L24.0267857,25.8214286 L9.79285714,17.0196429 L0,24.7446429 Z M48,9.19285714 L33.9,0 L24.0267857,8.22321429 L38.2339286,17.0196429 L24.0267857,25.8214286 L33.9,34.0392857 L48,24.8464286 L38.2339286,17.0196429 L48,9.19285714 Z M24.0535714,27.5785714 L14.1535714,35.8017857 L9.9,33.0428571 L9.9,36.1392857 L24.0535714,44.625 L38.1803571,36.1392857 L38.1803571,33.0428571 L33.9535714,35.8017857 L24.0535714,27.5785714 Z M14.1535714,0 L0,9.1125 L9.79285714,17.0196429 L24.0267857,8.22321429 L14.1535714,0 Z"></path>
</svg>
