<svg width="48" height="48" viewBox="0 0 48 48" fill="none" xmlns="http://www.w3.org/2000/svg">
  <rect width="48" height="48" fill="white" fill-opacity="0.01"/>
  <path d="M46.1200205,6.70285714 L42.8971633,9.22285714 C38.5028776,3.60571429 31.6685919,0 23.9943062,0 C10.7428776,0 0.0171633345,10.7142857 -5.68434189e-14,23.9714286 C-0.0171223798,37.24 10.731449,48 23.9943062,48 C34.3543062,48 43.1828776,41.4285714 46.5428776,32.2228571 C46.6285919,31.9828571 46.5028776,31.7142857 46.2628776,31.6342857 L43.0228776,30.52 C42.787929,30.4394656 42.5316626,30.5612556 42.4457348,30.7942857 C42.3428776,31.08 42.2285919,31.3657143 42.1085919,31.6457143 C41.1200205,33.9885714 39.7028776,36.0914286 37.8971633,37.8971429 C36.1060179,39.6916582 33.9853214,41.1235649 31.651449,42.1142857 C29.2343062,43.1371429 26.6571633,43.6571429 24.0057348,43.6571429 C21.3485919,43.6571429 18.7771633,43.1371429 16.3600205,42.1142857 C14.0238805,41.1277436 11.9024233,39.6953232 10.1143062,37.8971429 C8.31830834,36.1062173 6.88792259,33.9829582 5.90287762,31.6457143 C4.88002048,29.2228571 4.36002048,26.6514286 4.36002048,23.9942857 C4.36002048,21.3371429 4.88002048,18.7657143 5.90287762,16.3428571 C6.89144905,14 8.30859191,11.8971429 10.1143062,10.0914286 C11.9200205,8.28571429 14.0228776,6.86857143 16.3600205,5.87428571 C18.7771633,4.85142857 21.3543062,4.33142857 24.0057348,4.33142857 C26.6628776,4.33142857 29.2343062,4.85142857 31.651449,5.87428571 C33.987589,6.86082787 36.1090463,8.29324824 37.8971633,10.0914286 C38.4628776,10.6571429 38.9943062,11.2571429 39.4857348,11.8857143 L36.0457348,14.5714286 C35.9068397,14.678875 35.8417681,14.8563857 35.8783125,15.0281446 C35.9148569,15.1999034 36.0465573,15.3355477 36.2171633,15.3771429 L46.251449,17.8342857 C46.5371633,17.9028571 46.8171633,17.6857143 46.8171633,17.3942857 L46.8628776,7.05714286 C46.8571633,6.68 46.4171633,6.46857143 46.1200205,6.70285714 L46.1200205,6.70285714 Z" fill="#000"></path>
</svg>
