<svg width="48" height="48" viewBox="0 0 48 48" fill="none" xmlns="http://www.w3.org/2000/svg">
  <rect width="48" height="48" fill="white" fill-opacity="0.01"/>
  <path fill="#000" d="M46.3077042,27.939394 C46.5537341,26.58923 46.6857501,25.2090623 46.6857501,23.8288946 C46.6857501,20.7685229 46.0856772,17.7981621 44.9035336,15.0078231 C43.7633951,12.3074951 42.1251961,9.88320057 40.0429432,7.80094763 C37.9780937,5.73082974 35.5303664,4.08202761 32.8360677,2.94635791 C30.039728,1.76421431 27.0753679,1.16414142 24.0149961,1.16414142 C22.5748212,1.16414142 21.1286455,1.30215818 19.7244749,1.57219098 C17.7815237,0.542604871 15.6165946,0.00291751781 13.4177088,0 C9.83527364,0 6.46286398,1.39816984 3.93055636,3.93047746 C1.40660314,6.44146732 -0.00859415128,9.85738629 3.9270459e-05,13.4176299 C3.9270459e-05,15.6979069 0.588150338,17.9421796 1.68628374,19.9224201 C1.46425676,21.2065761 1.34424219,22.5207357 1.34424219,23.8288946 C1.34424219,26.8892664 1.94431508,29.8596272 3.12645868,32.6499662 C4.26659718,35.3502942 5.89879546,37.7745887 7.9810484,39.8568417 C10.0633013,41.9390946 12.4875958,43.5712929 15.1879239,44.7114314 C17.9842636,45.893575 20.9486237,46.4936479 24.0089954,46.4936479 C25.3411572,46.4936479 26.6733191,46.3736333 27.981478,46.1396049 C29.9917222,47.2737426 32.2599977,47.8798163 34.5822798,47.8798163 C38.164715,47.8798163 41.5371247,46.4876471 44.0694323,43.9493388 C46.6077406,41.4170312 47.9999552,38.0446215 47.9999552,34.4621863 C48.0059105,32.1819093 47.417839,29.931636 46.3077042,27.939394 Z M41.021062,40.9009685 C39.2988528,42.6291784 37.0245765,43.5652922 34.5882805,43.5652922 C33.0220903,43.5652922 31.479903,43.1572426 30.1117368,42.3831485 L28.7615727,41.621056 L27.2313869,41.8910888 C26.1632571,42.0831121 25.0831259,42.1791238 24.0149961,42.1791238 C21.5306944,42.1791238 19.1364035,41.6930647 16.868128,40.7329481 C14.6898634,39.8148366 12.727625,38.4946762 11.0354194,36.8024706 C9.36029473,35.1330921 8.02541106,33.1542035 7.10494197,30.9757628 C6.14482534,28.713488 5.66476703,26.3191972 5.66476703,23.8348954 C5.66476703,22.7907685 5.76077869,21.7226388 5.94080056,20.6665105 L6.20483263,19.1603275 L5.46074224,17.822165 C4.71024365,16.4753868 4.31575691,14.9594011 4.31460301,13.4176299 C4.31460301,10.981334 5.25671746,8.7070577 6.97892667,6.98484849 C8.7071366,5.26263929 10.9814129,4.32052484 13.4177088,4.32052484 C14.9120135,4.3245608 16.3827492,4.69327465 17.7022293,5.39465532 L19.0463926,6.10274134 L20.5345734,5.81470635 C21.6687111,5.59868011 22.8388533,5.48466626 24.0149961,5.48466626 C26.4992979,5.48466626 28.8935888,5.9707253 31.1558636,6.9248412 C33.3461297,7.84895346 35.3023673,9.16911383 36.9885721,10.8553187 C38.6807777,12.5415235 40.0009381,14.5037619 40.9250503,16.6880272 C41.8851669,18.950302 42.3652253,21.3445929 42.3652253,23.8288946 C42.3652253,24.9330288 42.2632129,26.0491644 42.0591881,27.1592992 L41.7771538,28.6894851 L42.5332457,30.0456498 C43.2893375,31.3958138 43.6853856,32.9259997 43.6853856,34.4681871 C43.6853856,36.9104838 42.7432712,39.1787593 41.021062,40.9009685 Z M28.2875152,21.1945746 L22.9828708,20.0184318 C20.9666258,19.5563756 18.6443437,18.950302 18.6443437,17.0480709 C18.6443437,15.1458399 20.2705413,13.813678 23.2108985,13.813678 C29.1336179,13.813678 28.5935523,17.8821723 31.5339095,17.8821723 C33.0820976,17.8821723 34.4382623,16.9700615 34.4382623,15.4098719 C34.4382623,11.7614287 28.5935523,9.01909561 23.6369502,9.01909561 C18.2542964,9.01909561 12.5236002,11.3053733 12.5236002,17.3901125 C12.5236002,20.3184682 13.567727,23.4388473 19.3404283,24.8850229 L26.5052987,26.6732402 C28.6715618,27.207305 29.2176281,28.425453 29.2176281,29.5295871 C29.2176281,31.3598095 27.3994073,33.1480267 24.1050071,33.1480267 C17.6722256,33.1480267 18.5663343,28.1974253 15.1219158,28.1974253 C13.5737278,28.1974253 12.4515915,29.2655551 12.4515915,30.7837395 C12.4515915,33.7480996 16.0520288,37.7085807 24.1050071,37.7085807 C31.7679379,37.7085807 35.5663994,34.0181324 35.5663994,29.067531 C35.5663994,25.8811439 34.0962208,22.4907321 28.2875152,21.1945746 Z"></path>
</svg>
