<svg width="48" height="48" viewBox="0 0 48 48" fill="none" xmlns="http://www.w3.org/2000/svg">
  <rect width="48" height="48" fill="white" fill-opacity="0.01"/>
  <polygon fill="#2F88FF" points="8.28405797 15.8782609 39.715942 15.8782609 24 4.44637681"></polygon>
  <path d="M46.1449275,19.826087 C47.9362319,19.826087 48.684058,17.5246377 47.2289855,16.4637681 L25.0898551,0.35942029 C24.4410369,-0.115941276 23.5589631,-0.115941276 22.9101449,0.35942029 L0.771014493,16.4637681 C-0.684057971,17.5188406 0.0637681159,19.826087 1.86086957,19.826087 L5.44927536,19.826087 L5.44927536,41.5072464 L1.27536232,41.5072464 C1.02028986,41.5072464 0.811594203,41.715942 0.811594203,41.9710145 L0.811594203,44.9855072 C0.811594203,45.2405797 1.02028986,45.4492754 1.27536232,45.4492754 L46.7246377,45.4492754 C46.9797101,45.4492754 47.1884058,45.2405797 47.1884058,44.9855072 L47.1884058,41.9710145 C47.1884058,41.715942 46.9797101,41.5072464 46.7246377,41.5072464 L42.5507246,41.5072464 L42.5507246,19.826087 L46.1449275,19.826087 Z M16.4057971,41.5072464 L9.62318841,41.5072464 L9.62318841,19.826087 L16.4057971,19.826087 L16.4057971,41.5072464 Z M27.3623188,41.5072464 L20.5797101,41.5072464 L20.5797101,19.826087 L27.3623188,19.826087 L27.3623188,41.5072464 Z M38.3768116,41.5072464 L31.5362319,41.5072464 L31.5362319,19.826087 L38.3768116,19.826087 L38.3768116,41.5072464 Z M8.28405797,15.8782609 L24,4.44637681 L39.715942,15.8782609 L8.28405797,15.8782609 Z" fill="#000"></path>
</svg>
