<svg width="48" height="48" viewBox="0 0 48 48" fill="none" xmlns="http://www.w3.org/2000/svg">
  <rect width="48" height="48" fill="white" fill-opacity="0.01"/>
  <path d="M7.309699,17.9799331 L6.47491639,20.2809365 L6.47491639,32.9632107 L41.5785953,32.9632107 L41.5785953,20.2809365 L40.7438127,17.9799331 L7.309699,17.9799331 Z M10.7558528,25.8461538 C9.57324415,25.8461538 8.61538462,24.8882943 8.61538462,23.7056856 C8.61538462,22.5230769 9.57324415,21.5652174 10.7558528,21.5652174 C11.9384615,21.5652174 12.8963211,22.5230769 12.8963211,23.7056856 C12.8963211,24.8882943 11.9384615,25.8461538 10.7558528,25.8461538 Z M31.5183946,29.8595318 C31.5183946,30.0949833 31.3257525,30.2876254 31.090301,30.2876254 L16.9632107,30.2876254 C16.7277592,30.2876254 16.5351171,30.0949833 16.5351171,29.8595318 L16.5351171,25.3645485 C16.5351171,25.129097 16.7277592,24.9364548 16.9632107,24.9364548 L19.1036789,24.9364548 C19.3391304,24.9364548 19.5317726,25.129097 19.5317726,25.3645485 L19.5317726,27.2909699 L28.5217391,27.2909699 L28.5217391,25.3645485 C28.5217391,25.129097 28.7143813,24.9364548 28.9498328,24.9364548 L31.090301,24.9364548 C31.3257525,24.9364548 31.5183946,25.129097 31.5183946,25.3645485 L31.5183946,29.8595318 Z M37.2976589,25.8461538 C36.1150502,25.8461538 35.1571906,24.8882943 35.1571906,23.7056856 C35.1571906,22.5230769 36.1150502,21.5652174 37.2976589,21.5652174 C38.4802676,21.5652174 39.4381271,22.5230769 39.4381271,23.7056856 C39.4381271,24.8882943 38.4802676,25.8461538 37.2976589,25.8461538 Z" fill="#2F88FF"></path>
  <path d="M35.1571906,23.7056856 C35.1571906,24.8878336 36.1155109,25.8461538 37.2976589,25.8461538 C38.4798068,25.8461538 39.4381271,24.8878336 39.4381271,23.7056856 C39.4381271,22.5235377 38.4798068,21.5652174 37.2976589,21.5652174 C36.1155109,21.5652174 35.1571906,22.5235377 35.1571906,23.7056856 Z" fill="#000"></path>
  <path d="M47.9464883,14.7371237 L46.6782609,12.5217391 C46.5595749,12.3184359 46.2990059,12.2491103 46.0949833,12.3665552 L43.3819398,13.9505017 L39.1919732,2.3812709 C38.7380648,0.964796806 37.4205345,0.00423286186 35.9331104,0.00535019514 L12.7464883,0.00535019514 C10.8896321,0.00535019514 9.24147157,1.20401338 8.66889632,2.97525084 L4.67692308,13.9558528 L1.95852843,12.3719064 C1.75450576,12.2544614 1.49393685,12.3237871 1.37525084,12.5270903 L0.107023411,14.7371237 C-0.0107023411,14.9404682 0.0588628763,15.1973244 0.262207358,15.3150502 L3.49431438,17.1986622 L2.71839465,19.3391304 C2.6541806,19.5103679 2.62207358,19.6923077 2.62207358,19.8742475 L2.62207358,38.5070234 C2.62207358,39.3471572 3.25351171,40.0267559 4.02943144,40.0267559 L7.64682274,40.0267559 C8.30501672,40.0267559 8.87759197,39.529097 9.01672241,38.8334448 L9.42876254,36.8160535 L38.6247492,36.8160535 L39.0367893,38.8334448 C39.1812709,39.529097 39.748495,40.0267559 40.406689,40.0267559 L44.0240803,40.0267559 C44.8,40.0267559 45.4314381,39.3471572 45.4314381,38.5070234 L45.4314381,19.8742475 C45.4314381,19.6923077 45.3993311,19.5103679 45.3351171,19.3391304 L44.5591973,17.1986622 L47.7859532,15.3150502 C47.9880343,15.1983592 48.0594335,14.941322 47.9464883,14.7371237 Z M12.2916388,4.28628763 L12.3183946,4.21672241 L12.3397993,4.14715719 C12.3986622,3.97056856 12.5591973,3.85284281 12.7464883,3.85284281 L35.6280936,3.85284281 L39.6628763,14.9832776 L8.40133779,14.9832776 L12.2916388,4.28628763 Z M41.5785953,32.9632107 L6.47491639,32.9632107 L6.47491639,20.2809365 L7.309699,17.9799331 L40.7438127,17.9799331 L41.5785953,20.2809365 L41.5785953,32.9632107 Z" fill="#000"></path>
  <path d="M8.61538462,23.7056856 C8.61538462,24.8878336 9.57370488,25.8461538 10.7558528,25.8461538 C11.9380008,25.8461538 12.8963211,24.8878336 12.8963211,23.7056856 C12.8963211,22.5235377 11.9380008,21.5652174 10.7558528,21.5652174 C9.57370488,21.5652174 8.61538462,22.5235377 8.61538462,23.7056856 L8.61538462,23.7056856 Z M31.090301,24.9364548 L28.9498328,24.9364548 C28.7143813,24.9364548 28.5217391,25.129097 28.5217391,25.3645485 L28.5217391,27.2909699 L19.5317726,27.2909699 L19.5317726,25.3645485 C19.5317726,25.129097 19.3391304,24.9364548 19.1036789,24.9364548 L16.9632107,24.9364548 C16.7277592,24.9364548 16.5351171,25.129097 16.5351171,25.3645485 L16.5351171,29.8595318 C16.5351171,30.0949833 16.7277592,30.2876254 16.9632107,30.2876254 L31.090301,30.2876254 C31.3257525,30.2876254 31.5183946,30.0949833 31.5183946,29.8595318 L31.5183946,25.3645485 C31.5183946,25.129097 31.3257525,24.9364548 31.090301,24.9364548 Z" fill="#000"></path>
</svg>
