<svg width="48" height="48" viewBox="0 0 48 48" fill="none" xmlns="http://www.w3.org/2000/svg">
  <rect width="48" height="48" fill="white" fill-opacity="0.01"/>
  <path d="M7.25995919,21.9745849 L6.42517658,24.2755883 L6.42517658,36.9578625 L41.5288555,36.9578625 L41.5288555,24.2755883 L40.6940729,21.9745849 L7.25995919,21.9745849 Z M10.706113,29.8408056 C9.52350434,29.8408056 8.56564481,28.8829461 8.56564481,27.7003374 C8.56564481,26.5177287 9.52350434,25.5598692 10.706113,25.5598692 C11.8887217,25.5598692 12.8465813,26.5177287 12.8465813,27.7003374 C12.8465813,28.8829461 11.8887217,29.8408056 10.706113,29.8408056 Z M31.4686548,33.8541836 C31.4686548,34.0896351 31.2760127,34.2822772 31.0405612,34.2822772 L16.9134709,34.2822772 C16.6780194,34.2822772 16.4853773,34.0896351 16.4853773,33.8541836 L16.4853773,29.3592003 C16.4853773,29.1237488 16.6780194,28.9311066 16.9134709,28.9311066 L19.0539391,28.9311066 C19.2893906,28.9311066 19.4820328,29.1237488 19.4820328,29.3592003 L19.4820328,31.2856217 L28.4719993,31.2856217 L28.4719993,29.3592003 C28.4719993,29.1237488 28.6646415,28.9311066 28.900093,28.9311066 L31.0405612,28.9311066 C31.2760127,28.9311066 31.4686548,29.1237488 31.4686548,29.3592003 L31.4686548,33.8541836 Z M37.2479191,29.8408056 C36.0653104,29.8408056 35.1074508,28.8829461 35.1074508,27.7003374 C35.1074508,26.5177287 36.0653104,25.5598692 37.2479191,25.5598692 C38.4305278,25.5598692 39.3883873,26.5177287 39.3883873,27.7003374 C39.3883873,28.8829461 38.4305278,29.8408056 37.2479191,29.8408056 Z" fill="#2F88FF"></path>
  <path d="M35.1074508,27.7003374 C35.1074508,28.8824854 36.0657711,29.8408056 37.2479191,29.8408056 C38.430067,29.8408056 39.3883873,28.8824854 39.3883873,27.7003374 C39.3883873,26.5181895 38.430067,25.5598692 37.2479191,25.5598692 C36.0657711,25.5598692 35.1074508,26.5181895 35.1074508,27.7003374 Z" fill="#FFFFFF"></path>
  <path d="M47.8967485,18.7317755 L46.6285211,16.5163909 C46.5098351,16.3130877 46.2492661,16.2437621 46.0452435,16.361207 L43.3322,17.9451535 L39.1422334,6.37592265 C38.688325,4.95944856 37.3707947,3.99888461 35.8833706,4.00000097 L12.6967485,4.00000097 C10.8398923,4.00000097 9.19173176,5.19866513 8.61915651,6.96990259 L4.62718327,17.9505046 L1.90878862,16.3665582 C1.70476595,16.2491132 1.44419704,16.3184389 1.32551103,16.5217421 L0.0572836003,18.7317755 C-0.0604421518,18.93512 0.00912306561,19.1919762 0.212467547,19.309702 L3.44457457,21.193314 L2.66865484,23.3337822 C2.60444079,23.5050197 2.57233377,23.6869595 2.57233377,23.8688993 L2.57233377,42.5016752 C2.57233377,43.341809 3.2037719,44.0214077 3.97969163,44.0214077 L7.59708293,44.0214077 C8.25527691,44.0214077 8.82785216,43.5237488 8.9669826,42.8280966 L9.37902273,40.8107053 L38.5750094,40.8107053 L38.9870495,42.8280966 C39.1315311,43.5237488 39.6987552,44.0214077 40.3569492,44.0214077 L43.9743405,44.0214077 C44.7502602,44.0214077 45.3816983,43.341809 45.3816983,42.5016752 L45.3816983,23.8688993 C45.3816983,23.6869595 45.3495913,23.5050197 45.2853773,23.3337822 L44.5094575,21.193314 L47.7362134,19.309702 C47.9382945,19.193011 48.0096937,18.9359738 47.8967485,18.7317755 Z M12.241899,8.28093938 L12.2686548,8.21137416 L12.2900595,8.14180894 C12.3489224,7.96522031 12.5094575,7.84749456 12.6967485,7.84749456 L35.5783538,7.84749456 L39.6131365,18.9779294 L8.35159798,18.9779294 L12.241899,8.28093938 Z M41.5288555,36.9578625 L6.42517658,36.9578625 L6.42517658,24.2755883 L7.25995919,21.9745849 L40.6940729,21.9745849 L41.5288555,24.2755883 L41.5288555,36.9578625 Z" fill="#000000"></path>
  <path d="M8.56564481,27.7003374 C8.56564481,28.8824854 9.52396507,29.8408056 10.706113,29.8408056 C11.888261,29.8408056 12.8465813,28.8824854 12.8465813,27.7003374 C12.8465813,26.5181895 11.888261,25.5598692 10.706113,25.5598692 C9.52396507,25.5598692 8.56564481,26.5181895 8.56564481,27.7003374 L8.56564481,27.7003374 Z M31.0405612,28.9311066 L28.900093,28.9311066 C28.6646415,28.9311066 28.4719993,29.1237488 28.4719993,29.3592003 L28.4719993,31.2856217 L19.4820328,31.2856217 L19.4820328,29.3592003 C19.4820328,29.1237488 19.2893906,28.9311066 19.0539391,28.9311066 L16.9134709,28.9311066 C16.6780194,28.9311066 16.4853773,29.1237488 16.4853773,29.3592003 L16.4853773,33.8541836 C16.4853773,34.0896351 16.6780194,34.2822772 16.9134709,34.2822772 L31.0405612,34.2822772 C31.2760127,34.2822772 31.4686548,34.0896351 31.4686548,33.8541836 L31.4686548,29.3592003 C31.4686548,29.1237488 31.2760127,28.9311066 31.0405612,28.9311066 Z" fill="#FFFFFF"></path>
</svg>
