<svg width="48" height="48" viewBox="0 0 48 48" fill="none" xmlns="http://www.w3.org/2000/svg">
  <rect width="48" height="48" fill="white" fill-opacity="0.01"/>
  <path d="M24,0 C10.7464286,0 0,10.7464286 0,24 C0,37.2535714 10.7464286,48 24,48 C37.2535714,48 48,37.2535714 48,24 C48,10.7464286 37.2535714,0 24,0 Z M24,43.9285714 C12.9964286,43.9285714 4.07142857,35.0035714 4.07142857,24 C4.07142857,12.9964286 12.9964286,4.07142857 24,4.07142857 C35.0035714,4.07142857 43.9285714,12.9964286 43.9285714,24 C43.9285714,35.0035714 35.0035714,43.9285714 24,43.9285714 Z" fill="#000"></path>
  <path d="M24,4.07142857 C12.9964286,4.07142857 4.07142857,12.9964286 4.07142857,24 C4.07142857,35.0035714 12.9964286,43.9285714 24,43.9285714 C35.0035714,43.9285714 43.9285714,35.0035714 43.9285714,24 C43.9285714,12.9964286 35.0035714,4.07142857 24,4.07142857 Z M20.5982143,32.0785714 C23.2392857,32.0785714 25.0339286,30.5035714 25.2589286,28.2 C25.2803571,27.9803571 25.4625,27.8089286 25.6875,27.8089286 L28.5107143,27.8089286 C28.6392857,27.8089286 28.7464286,27.9160714 28.7464286,28.0446429 C28.7464286,32.1910714 25.3017857,35.1428571 20.5875,35.1428571 C15.075,35.1428571 11.8928571,31.4678571 11.8928571,25.3607143 L11.8928571,22.7357143 C11.8928571,16.5803571 15.075,12.8571429 20.5875,12.8571429 C25.3178571,12.8571429 28.7464286,15.9053571 28.7464286,20.2553571 C28.7464286,20.3839286 28.6392857,20.4910714 28.5107143,20.4910714 L25.6928571,20.4910714 C25.4678571,20.4910714 25.2857143,20.3196429 25.2642857,20.0946429 C25.0553571,17.625 23.2553571,15.9375 20.6035714,15.9375 C17.3303571,15.9375 15.4821429,18.3696429 15.4767857,22.7303571 L15.4767857,25.3714286 C15.4767857,29.6732143 17.325,32.0785714 20.5982143,32.0785714 L20.5982143,32.0785714 Z M36.1071429,34.2910714 C36.1071429,34.5267857 35.9142857,34.7196429 35.6785714,34.7196429 L32.9785714,34.7196429 C32.7428571,34.7196429 32.55,34.5267857 32.55,34.2910714 L32.55,13.7089286 C32.55,13.4732143 32.7428571,13.2803571 32.9785714,13.2803571 L35.6785714,13.2803571 C35.9142857,13.2803571 36.1071429,13.4732143 36.1071429,13.7089286 L36.1071429,34.2910714 L36.1071429,34.2910714 Z" fill="#2F88FF"></path>
  <path d="M35.6785714,13.2803571 L32.9785714,13.2803571 C32.7428571,13.2803571 32.55,13.4732143 32.55,13.7089286 L32.55,34.2910714 C32.55,34.5267857 32.7428571,34.7196429 32.9785714,34.7196429 L35.6785714,34.7196429 C35.9142857,34.7196429 36.1071429,34.5267857 36.1071429,34.2910714 L36.1071429,13.7089286 C36.1071429,13.4732143 35.9142857,13.2803571 35.6785714,13.2803571 Z M20.6035714,15.9375 C23.2553571,15.9375 25.0553571,17.625 25.2642857,20.0946429 C25.2857143,20.3196429 25.4678571,20.4910714 25.6928571,20.4910714 L28.5107143,20.4910714 C28.6392857,20.4910714 28.7464286,20.3839286 28.7464286,20.2553571 C28.7464286,15.9053571 25.3178571,12.8571429 20.5875,12.8571429 C15.075,12.8571429 11.8928571,16.5803571 11.8928571,22.7357143 L11.8928571,25.3607143 C11.8928571,31.4678571 15.075,35.1428571 20.5875,35.1428571 C25.3017857,35.1428571 28.7464286,32.1910714 28.7464286,28.0446429 C28.7464286,27.9160714 28.6392857,27.8089286 28.5107143,27.8089286 L25.6875,27.8089286 C25.4625,27.8089286 25.2803571,27.9803571 25.2589286,28.2 C25.0339286,30.5035714 23.2392857,32.0785714 20.5982143,32.0785714 C17.325,32.0785714 15.4767857,29.6732143 15.4767857,25.3714286 L15.4767857,22.7303571 C15.4821429,18.3696429 17.3303571,15.9375 20.6035714,15.9375 L20.6035714,15.9375 Z" fill="#FFF"></path>
</svg>
