<svg width="48" height="48" viewBox="0 0 48 48" fill="none" xmlns="http://www.w3.org/2000/svg">
  <rect width="48" height="48" fill="white" fill-opacity="0.01"/>
  <path d="M0,0 L3.80769231,43.0730769 L21.1615385,48 L38.4461538,43.0730769 L42.3288462,0 L0,0 Z M35.2442308,40.4192308 L21.1615385,44.4346154 L7.01538462,40.4192308 L3.74423077,3.42692308 L38.5788462,3.42692308 L35.2442308,40.4192308 Z" fill="#000"></path>
  <path d="M3.74423077,3.42692308 L7.01538462,40.4192308 L21.1615385,44.4346154 L35.2442308,40.4192308 L38.5788462,3.42692308 L3.74423077,3.42692308 Z M34.3442308,10.2288462 L34.0673077,12.9519231 L33.9692308,14.0769231 L13.6557692,14.0769231 L14.1288462,19.5115385 L21.1153846,19.5115385 L21.1153846,19.5 L33.5019231,19.5 L33.3173077,20.9019231 L32.0942308,34.875 L31.9961538,35.8153846 L21.1673077,38.7980769 L21.1673077,38.8211538 L21.0692308,38.8211538 L10.1884615,35.8211538 L9.53653846,27.4730769 L14.7865385,27.4730769 L15.1615385,31.6961538 L21.0692308,33.2942308 L21.1153846,33.2942308 L21.1153846,33.2826923 L27.0230769,31.6846154 L27.6807692,24.8480769 L21.1673077,24.8480769 L21.1673077,24.8538462 L9.25384615,24.8538462 L7.94423077,10.2288462 L7.84615385,8.82692308 L34.4423077,8.82692308 L34.3442308,10.2288462 Z" fill="#2F88FF"></path>
  <polygon fill="#000" points="7.84615385 8.82692308 7.94423077 10.2288462 9.25384615 24.8538462 21.1673077 24.8538462 21.1673077 24.8480769 27.6807692 24.8480769 27.0230769 31.6846154 21.1153846 33.2826923 21.1153846 33.2942308 21.0692308 33.2942308 15.1615385 31.6961538 14.7865385 27.4730769 9.53653846 27.4730769 10.1884615 35.8211538 21.0692308 38.8211538 21.1673077 38.8211538 21.1673077 38.7980769 31.9961538 35.8153846 32.0942308 34.875 33.3173077 20.9019231 33.5019231 19.5 21.1153846 19.5 21.1153846 19.5115385 14.1288462 19.5115385 13.6557692 14.0769231 33.9692308 14.0769231 34.0673077 12.9519231 34.3442308 10.2288462 34.4423077 8.82692308 21.1153846 8.82692308"></polygon>
</svg>
