<?xml version="1.0" encoding="UTF-8"?>
<svg width="48" height="48" viewBox="0 0 48 48" fill="none" xmlns="http://www.w3.org/2000/svg">
  <rect width="48" height="48" fill="white" fill-opacity="0.01"/>
  <path fill="#000" d="M39.3409091,0 L9.88636364,0 C9.58636364,0 9.34090909,0.245454545 9.34090909,0.545454545 L9.34090909,4.90909091 C9.34090909,5.20909091 9.58636364,5.45454545 9.88636364,5.45454545 L22.2409091,5.45454545 L11.6045455,42.5454545 L0.545454545,42.5454545 C0.245454545,42.5454545 0,42.7909091 0,43.0909091 L0,47.4545455 C0,47.7545455 0.245454545,48 0.545454545,48 L30,48 C30.3,48 30.5454545,47.7545455 30.5454545,47.4545455 L30.5454545,43.0909091 C30.5454545,42.7909091 30.3,42.5454545 30,42.5454545 L17.2772727,42.5454545 L27.9136364,5.45454545 L39.3409091,5.45454545 C39.6409091,5.45454545 39.8863636,5.20909091 39.8863636,4.90909091 L39.8863636,0.545454545 C39.8863636,0.245454545 39.6409091,0 39.3409091,0 Z"></path>
</svg>
