<?xml version="1.0" encoding="UTF-8"?>
<svg width="48" height="48" viewBox="0 0 48 48" fill="none" xmlns="http://www.w3.org/2000/svg">
  <rect width="48" height="48" fill="white" fill-opacity="0.01"/>
  <path d="M46.08,0 L1.92,0 C0.858,0 0,0.858 0,1.92 L0,46.08 C0,47.142 0.858,48 1.92,48 L46.08,48 C47.142,48 48,47.142 48,46.08 L48,1.92 C48,0.858 47.142,0 46.08,0 Z M43.68,43.68 L4.32,43.68 L4.32,4.32 L43.68,4.32 L43.68,43.68 Z" fill="#000"></path>
  <path d="M4.32,43.68 L43.68,43.68 L43.68,4.32 L4.32,4.32 L4.32,43.68 Z M17.28,31.866 C17.28,31.254 17.574,30.672 18.072,30.312 L26.796,24 L18.072,17.688 C17.574,17.328 17.28,16.752 17.28,16.134 L17.28,13.32 C17.28,12.93 17.724,12.702 18.042,12.93 L32.802,23.61 C33.066,23.802 33.066,24.192 32.802,24.384 L18.042,35.064 C17.724,35.298 17.28,35.07 17.28,34.68 L17.28,31.866 Z" fill="#2F88FF"></path>
  <path d="M18.042,35.064 L32.802,24.384 C33.066,24.192 33.066,23.802 32.802,23.61 L18.042,12.93 C17.724,12.702 17.28,12.93 17.28,13.32 L17.28,16.134 C17.28,16.752 17.574,17.328 18.072,17.688 L26.796,24 L18.072,30.312 C17.574,30.672 17.28,31.254 17.28,31.866 L17.28,34.68 C17.28,35.07 17.724,35.298 18.042,35.064 Z" fill="#000"></path>
</svg>
