<?xml version="1.0" encoding="UTF-8"?>
<svg width="48" height="48" viewBox="0 0 48 48" fill="none" xmlns="http://www.w3.org/2000/svg">
  <rect width="48" height="48" fill="white" fill-opacity="0.01"/>
  <polygon fill="#2F88FF" points="9.882 43.68 36.198 43.68 37.65 12.96 8.43 12.96"></polygon>
  <path d="M44.16,8.64 L36.48,8.64 L36.48,3.84 C36.48,1.722 34.758,0 32.64,0 L13.44,0 C11.322,0 9.6,1.722 9.6,3.84 L9.6,8.64 L1.92,8.64 C0.858,8.64 0,9.498 0,10.56 L0,12.48 C0,12.744 0.216,12.96 0.48,12.96 L4.104,12.96 L5.586,44.34 C5.682,46.386 7.374,48 9.42,48 L36.66,48 C38.712,48 40.398,46.392 40.494,44.34 L41.976,12.96 L45.6,12.96 C45.864,12.96 46.08,12.744 46.08,12.48 L46.08,10.56 C46.08,9.498 45.222,8.64 44.16,8.64 Z M13.92,4.32 L32.16,4.32 L32.16,8.64 L13.92,8.64 L13.92,4.32 Z M36.198,43.68 L9.882,43.68 L8.43,12.96 L37.65,12.96 L36.198,43.68 Z" fill="#000"></path>
</svg>
