<svg width="48" height="48" viewBox="0 0 48 48" fill="none" xmlns="http://www.w3.org/2000/svg">
  <rect width="48" height="48" fill="white" fill-opacity="0.01"/>
  <path d="M20.0357143,15.4285714 L20.0357143,3.85714286 L3.85714286,3.85714286 L3.85714286,44.1428571 L33.8571429,44.1428571 L33.8571429,17.6785714 L22.2857143,17.6785714 C21.0430736,17.6785714 20.0357143,16.6712121 20.0357143,15.4285714 Z M18.8571429,38.1428571 C17.9089286,38.1428571 17.1428571,37.3767857 17.1428571,36.4285714 C17.1428571,35.4803571 17.9089286,34.7142857 18.8571429,34.7142857 C19.8053571,34.7142857 20.5714286,35.4803571 20.5714286,36.4285714 C20.5714286,37.3767857 19.8053571,38.1428571 18.8571429,38.1428571 Z M24.75,25.9071429 C24.7875,28.3125 23.1589286,30.4339286 20.7696429,31.2053571 C20.4642857,31.3017857 20.25,31.5964286 20.25,31.9178571 L20.25,32.5714286 C20.25,32.8660714 20.0089286,33.1071429 19.7142857,33.1071429 L18,33.1071429 C17.7053571,33.1071429 17.4642857,32.8660714 17.4642857,32.5714286 L17.4642857,30.8571429 C17.475,29.7964286 18.2892857,28.8589286 19.3232143,28.7089286 C20.8392857,28.5107143 21.9642857,27.3375 21.9642857,25.9821429 C21.9642857,24.4767857 20.5821429,23.2232143 18.8571429,23.2232143 C17.1321429,23.2232143 15.75,24.4767857 15.75,25.9875 C15.75,26.2660714 15.5142857,26.4910714 15.225,26.4910714 L13.4892857,26.4910714 C13.2,26.4910714 12.9642857,26.2714286 12.9642857,25.9821429 C12.9642857,22.9071429 15.6482143,20.4267857 18.9375,20.4642857 C22.1142857,20.5071429 24.7071429,22.9339286 24.75,25.9071429 Z" fill="#2F88FF"></path>
  <path d="M37.2107143,12.0375 L25.6821429,0.503571429 C25.3607143,0.182142857 24.9214286,0 24.4660714,0 L1.71428571,0 C0.766071429,0 0,0.766071429 0,1.71428571 L0,46.2857143 C0,47.2339286 0.766071429,48 1.71428571,48 L36,48 C36.9482143,48 37.7142857,47.2339286 37.7142857,46.2857143 L37.7142857,13.2482143 C37.7142857,12.7928571 37.5321429,12.3589286 37.2107143,12.0375 Z M23.6785714,3.95357143 L33.7607143,14.0357143 L23.6785714,14.0357143 L23.6785714,3.95357143 Z M33.8571429,44.1428571 L3.85714286,44.1428571 L3.85714286,3.85714286 L20.0357143,3.85714286 L20.0357143,15.4285714 C20.0357143,16.6712121 21.0430736,17.6785714 22.2857143,17.6785714 L33.8571429,17.6785714 L33.8571429,44.1428571 Z" fill="#000"></path>
  <path d="M17.1428571,36.4285714 C17.1428571,37.3753453 17.910369,38.1428571 18.8571429,38.1428571 C19.8039167,38.1428571 20.5714286,37.3753453 20.5714286,36.4285714 C20.5714286,35.4817976 19.8039167,34.7142857 18.8571429,34.7142857 C17.910369,34.7142857 17.1428571,35.4817976 17.1428571,36.4285714 Z M12.9642857,25.9821429 C12.9642857,26.2714286 13.2,26.4910714 13.4892857,26.4910714 L15.225,26.4910714 C15.5142857,26.4910714 15.75,26.2660714 15.75,25.9875 C15.75,24.4767857 17.1321429,23.2232143 18.8571429,23.2232143 C20.5821429,23.2232143 21.9642857,24.4767857 21.9642857,25.9821429 C21.9642857,27.3375 20.8392857,28.5107143 19.3232143,28.7089286 C18.2892857,28.8589286 17.475,29.7964286 17.4642857,30.8571429 L17.4642857,32.5714286 C17.4642857,32.8660714 17.7053571,33.1071429 18,33.1071429 L19.7142857,33.1071429 C20.0089286,33.1071429 20.25,32.8660714 20.25,32.5714286 L20.25,31.9178571 C20.25,31.5964286 20.4642857,31.3017857 20.7696429,31.2053571 C23.1589286,30.4339286 24.7875,28.3125 24.75,25.9071429 C24.7071429,22.9339286 22.1142857,20.5071429 18.9375,20.4642857 C15.6482143,20.4267857 12.9642857,22.9071429 12.9642857,25.9821429 Z" fill="#FFF"></path>
</svg>
