<svg width="48" height="48" viewBox="0 0 48 48" fill="none" xmlns="http://www.w3.org/2000/svg">
  <rect width="48" height="48" fill="white" fill-opacity="0.01"/>
  <path fill="#000" d="M20.9606565,21.1665234 C17.1774053,20.1832114 12.9052757,22.0665039 11.2608669,25.3997649 C9.58868094,28.7996912 11.2053126,32.5718316 15.0274519,33.8051382 C18.9829217,35.0828882 23.6494871,33.1273751 25.2716742,29.4552325 C26.866084,25.8664215 24.8716828,22.1776126 20.9606565,21.1665234 L20.9606565,21.1665234 Z M18.0718303,29.844113 C17.3051803,31.0718641 15.655216,31.6051859 14.416354,31.0440869 C13.1941583,30.4885434 12.833055,29.0607966 13.6052605,27.8663781 C14.3663551,26.677515 15.9552095,26.1441932 17.1829607,26.6608487 C18.4273782,27.188615 18.8273695,28.6052509 18.0718303,29.844113 L18.0718303,29.844113 Z M20.5995533,26.5941834 C20.3217815,27.0719509 19.7051282,27.2997237 19.2273608,27.099728 C18.7551488,26.9052878 18.6051521,26.371966 18.871813,25.9053095 C19.1495847,25.438653 19.7384608,25.2164356 20.2106728,25.3997649 C20.6939957,25.5775388 20.8662141,26.116416 20.5995533,26.5941834 L20.5995533,26.5941834 Z M39.1824836,15.6388655 C40.0157989,15.9055264 40.9046685,15.4499807 41.1768848,14.6222209 C41.8324261,12.5889316 41.4213239,10.2667598 39.8880239,8.56679662 C38.4065599,6.92508992 36.161652,6.19867161 33.9992627,6.66128239 C33.5887088,6.74856479 33.2297336,6.99556694 33.0014991,7.34781924 C32.7732646,7.70007153 32.6945172,8.12864141 32.7826224,8.53901945 C32.8703497,8.9490005 33.1177051,9.30718029 33.4700401,9.53442595 C33.8223751,9.76167161 34.2506909,9.83927973 34.6603594,9.7501043 C35.6825595,9.53344233 36.7880911,9.85010213 37.5436302,10.677862 C38.2698303,11.4803295 38.5094987,12.6108008 38.1713944,13.6389088 C38.0391168,14.0381747 38.0714397,14.4736977 38.2612075,14.8490626 C38.4509753,15.2244274 38.7825339,15.5086701 39.1824836,15.6388655 L39.1824836,15.6388655 Z M44.7268078,4.19466922 C41.5768761,0.700300556 36.926977,-0.633003863 32.6326256,0.27808749 C32.1551677,0.379024099 31.7377065,0.666268861 31.4728104,1.07612781 C31.2079143,1.48598675 31.1174744,1.98458883 31.2215451,2.46137348 C31.3231206,2.93880204 31.6102404,3.35630481 32.0197108,3.62199175 C32.4291813,3.8876787 32.9274429,3.97977451 33.4048311,3.87800942 C36.4603204,3.22802352 39.7602488,4.17800291 42.0046446,6.66128239 C44.243485,9.14456187 44.8490274,12.5333773 43.8934925,15.4999796 C43.5823882,16.4666253 44.1101545,17.4999362 45.0768002,17.816596 C46.0434459,18.1277004 47.0767568,17.5999341 47.3878612,16.6388438 L47.3878612,16.6332884 C48.7267211,12.4444903 47.8822949,7.68348245 44.7268078,4.19466922 L44.7268078,4.19466922 Z M36.0547736,18.7221319 C35.3770106,18.5221363 34.9159095,18.3832504 35.2714573,17.4943808 C36.0381073,15.5666448 36.1158834,13.9000143 35.2881236,12.7167066 C33.7326018,10.4889772 29.4660276,10.6111967 24.5772448,12.6555968 C24.5772448,12.6555968 23.0439447,13.3278045 23.4328252,12.1111642 C24.1828089,9.69454995 24.0717002,7.67237158 22.8995034,6.50017478 C20.2495609,3.84467681 13.1997137,6.60017261 7.14984494,12.644486 C2.62772079,17.1721656 0,21.9720615 0,26.1219715 C0,34.0606882 10.1775571,38.8883613 20.1384522,38.8883613 C33.1937246,38.8883613 41.8768696,31.3051924 41.8768696,25.2775453 C41.8768696,21.6387354 38.8102694,19.5776689 36.0547736,18.7221319 Z M20.1662293,36.0439785 C12.2219572,36.8272949 5.36099485,33.2384838 4.84433939,28.0163748 C4.32768392,22.7998213 10.355331,17.9332602 18.2996031,17.1499438 C26.2438753,16.361072 33.1048376,19.9554385 33.6214931,25.1719921 C34.1325931,30.3885456 28.1105015,35.2551067 20.1662293,36.0439785 Z"></path>
</svg>
