<svg width="48" height="48" viewBox="0 0 48 48" fill="none" xmlns="http://www.w3.org/2000/svg">
  <rect width="48" height="48" fill="white" fill-opacity="0.01"/>
  <path d="M9.70280374,30.1345794 C9.17570093,30.953271 8.74953271,31.8336449 8.4411215,32.7476636 L13.1962617,32.7476636 L13.1962617,26.6186916 C11.8056075,27.5271028 10.6168224,28.7214953 9.70280374,30.1345794 L9.70280374,30.1345794 Z M34.2803738,26.6186916 L34.2803738,32.7476636 L39.035514,32.7476636 C38.7271028,31.8336449 38.3009346,30.953271 37.7738318,30.1345794 C36.8698331,28.7297599 35.6793791,27.5316625 34.2803738,26.6186916 L34.2803738,26.6186916 Z M30.6915888,13.1663551 L23.7383178,4.92336449 L16.7850467,13.1663551 L16.7850467,32.7476636 L30.6915888,32.7476636 L30.6915888,13.1663551 Z M23.7383178,20.411215 C22.2732035,20.3813069 21.1011129,19.1850456 21.1011129,17.7196262 C21.1011129,16.2542067 22.2732035,15.0579455 23.7383178,15.0280374 C25.203432,15.0579455 26.3755226,16.2542067 26.3755226,17.7196262 C26.3755226,19.1850456 25.203432,20.3813069 23.7383178,20.411215 L23.7383178,20.411215 Z" fill="#2F88FF"></path>
  <path d="M43.4766355,36.5607477 C43.4766355,30.3028037 39.8093458,24.8971963 34.5046729,22.3794393 L34.5046729,13.082243 C34.5046729,12.235514 34.2074766,11.4168224 33.6579439,10.7719626 L25.1121495,0.639252336 C24.753271,0.213084112 24.2429907,0 23.7383178,0 C23.2336449,0 22.7233645,0.213084112 22.364486,0.639252336 L13.8186916,10.7719626 C13.2728942,11.4181415 12.9729964,12.2364056 12.9719626,13.082243 L12.9719626,22.3794393 C7.66728972,24.8971963 4,30.3028037 4,36.5607477 L12.7757009,36.5607477 C12.646729,36.964486 12.5794393,37.4018692 12.5794393,37.8953271 C12.5794393,39.1345794 13.0056075,40.3457944 13.7794392,41.3046729 C14.4110751,42.0889072 15.2476169,42.6828324 16.1962617,43.0205607 C17.4915888,46.0485981 20.435514,48 23.7383178,48 C25.3700935,48 26.9514019,47.517757 28.3028037,46.6093458 C29.6261682,45.7233645 30.6523364,44.4841121 31.2747664,43.0205607 C32.2230206,42.6849117 33.0596245,42.0928834 33.6915888,41.3102804 C34.4664525,40.3426924 34.8895764,39.1405458 34.8915888,37.9009346 C34.8915888,37.4299065 34.8299065,36.9813084 34.717757,36.5663551 L43.4766355,36.5607477 Z M13.1962617,32.7476636 L8.4411215,32.7476636 C8.74953271,31.8336449 9.17570093,30.953271 9.70280374,30.1345794 C10.6168224,28.7214953 11.8056075,27.5271028 13.1962617,26.6186916 L13.1962617,32.7476636 Z M16.7850467,22.3794393 L16.7850467,13.1663551 L23.7383178,4.92336449 L30.6915888,13.1663551 L30.6915888,32.7476636 L16.7850467,32.7476636 L16.7850467,22.3794393 Z M30.2485981,39.2635514 C29.9570093,39.4317757 29.6205607,39.4990654 29.2897196,39.4542056 L28.1962617,39.3196262 L28.0392523,40.4074766 C27.7364486,42.5327103 25.8859813,44.1364486 23.7383178,44.1364486 C21.5906542,44.1364486 19.7401869,42.5327103 19.4373832,40.4074766 L19.2803738,39.3140187 L18.1869159,39.4542056 C17.8544914,39.4938284 17.5181615,39.4249889 17.2280374,39.2579439 C16.7401869,38.9775701 16.4373832,38.4560748 16.4373832,37.8897196 C16.4373832,37.2953271 16.7682243,36.8018692 17.2560748,36.5551402 L30.2261682,36.5551402 C30.7196262,36.8074766 31.0448598,37.3009346 31.0448598,37.8897196 C31.0392523,38.4616822 30.7364486,38.988785 30.2485981,39.2635514 L30.2485981,39.2635514 Z M34.2803738,32.7476636 L34.2803738,26.6186916 C35.6793791,27.5316625 36.8698331,28.7297599 37.7738318,30.1345794 C38.3009346,30.953271 38.7271028,31.8336449 39.035514,32.7476636 L34.2803738,32.7476636 L34.2803738,32.7476636 Z" fill="#000"></path>
  <path d="M21.046729,17.7196262 C21.046729,19.2061496 22.2517943,20.411215 23.7383178,20.411215 C25.2248412,20.411215 26.4299065,19.2061496 26.4299065,17.7196262 C26.4299065,16.2331027 25.2248412,15.0280374 23.7383178,15.0280374 C22.2517943,15.0280374 21.046729,16.2331027 21.046729,17.7196262 L21.046729,17.7196262 Z" fill="#000"></path>
</svg>
