<svg width="48" height="48" viewBox="0 0 48 48" fill="none" xmlns="http://www.w3.org/2000/svg">
  <rect width="48" height="48" fill="white" fill-opacity="0.01"/>
  <path d="M5.70280374,30.1345794 C5.17570093,30.953271 4.74953271,31.8336449 4.4411215,32.7476636 L9.19626168,32.7476636 L9.19626168,26.6186916 C7.80560748,27.5271028 6.61682243,28.7214953 5.70280374,30.1345794 L5.70280374,30.1345794 Z M30.2803738,26.6186916 L30.2803738,32.7476636 L35.035514,32.7476636 C34.7271028,31.8336449 34.3009346,30.953271 33.7738318,30.1345794 C32.8698331,28.7297599 31.6793791,27.5316625 30.2803738,26.6186916 L30.2803738,26.6186916 Z M26.6915888,13.1663551 L19.7383178,4.92336449 L12.7850467,13.1663551 L12.7850467,32.7476636 L26.6915888,32.7476636 L26.6915888,13.1663551 Z M19.7383178,20.411215 C18.2732035,20.3813069 17.1011129,19.1850456 17.1011129,17.7196262 C17.1011129,16.2542067 18.2732035,15.0579455 19.7383178,15.0280374 C21.203432,15.0579455 22.3755226,16.2542067 22.3755226,17.7196262 C22.3755226,19.1850456 21.203432,20.3813069 19.7383178,20.411215 L19.7383178,20.411215 Z" fill="#2F88FF"></path>
  <path d="M39.4766355,36.5607477 C39.4766355,30.3028037 35.8093458,24.8971963 30.5046729,22.3794393 L30.5046729,13.082243 C30.5046729,12.235514 30.2074766,11.4168224 29.6579439,10.7719626 L21.1121495,0.639252336 C20.753271,0.213084112 20.2429907,0 19.7383178,0 C19.2336449,0 18.7233645,0.213084112 18.364486,0.639252336 L9.81869159,10.7719626 C9.2728942,11.4181415 8.97299643,12.2364056 8.97196262,13.082243 L8.97196262,22.3794393 C3.66728972,24.8971963 0,30.3028037 0,36.5607477 L8.77570093,36.5607477 C8.64672897,36.964486 8.57943925,37.4018692 8.57943925,37.8953271 C8.57943925,39.1345794 9.00560748,40.3457944 9.77943925,41.3046729 C10.4110751,42.0889072 11.2476169,42.6828324 12.1962617,43.0205607 C13.4915888,46.0485981 16.435514,48 19.7383178,48 C21.3700935,48 22.9514019,47.517757 24.3028037,46.6093458 C25.6261682,45.7233645 26.6523364,44.4841121 27.2747664,43.0205607 C28.2230206,42.6849117 29.0596245,42.0928834 29.6915888,41.3102804 C30.4664525,40.3426924 30.8895764,39.1405458 30.8915888,37.9009346 C30.8915888,37.4299065 30.8299065,36.9813084 30.717757,36.5663551 L39.4766355,36.5607477 Z M9.19626168,32.7476636 L4.4411215,32.7476636 C4.74953271,31.8336449 5.17570093,30.953271 5.70280374,30.1345794 C6.61682243,28.7214953 7.80560748,27.5271028 9.19626168,26.6186916 L9.19626168,32.7476636 Z M12.7850467,22.3794393 L12.7850467,13.1663551 L19.7383178,4.92336449 L26.6915888,13.1663551 L26.6915888,32.7476636 L12.7850467,32.7476636 L12.7850467,22.3794393 Z M26.2485981,39.2635514 C25.9570093,39.4317757 25.6205607,39.4990654 25.2897196,39.4542056 L24.1962617,39.3196262 L24.0392523,40.4074766 C23.7364486,42.5327103 21.8859813,44.1364486 19.7383178,44.1364486 C17.5906542,44.1364486 15.7401869,42.5327103 15.4373832,40.4074766 L15.2803738,39.3140187 L14.1869159,39.4542056 C13.8544914,39.4938284 13.5181615,39.4249889 13.2280374,39.2579439 C12.7401869,38.9775701 12.4373832,38.4560748 12.4373832,37.8897196 C12.4373832,37.2953271 12.7682243,36.8018692 13.2560748,36.5551402 L26.2261682,36.5551402 C26.7196262,36.8074766 27.0448598,37.3009346 27.0448598,37.8897196 C27.0392523,38.4616822 26.7364486,38.988785 26.2485981,39.2635514 L26.2485981,39.2635514 Z M30.2803738,32.7476636 L30.2803738,26.6186916 C31.6793791,27.5316625 32.8698331,28.7297599 33.7738318,30.1345794 C34.3009346,30.953271 34.7271028,31.8336449 35.035514,32.7476636 L30.2803738,32.7476636 L30.2803738,32.7476636 Z" fill="#000"></path>
  <path d="M17.046729,17.7196262 C17.046729,19.2061496 18.2517943,20.411215 19.7383178,20.411215 C21.2248412,20.411215 22.4299065,19.2061496 22.4299065,17.7196262 C22.4299065,16.2331027 21.2248412,15.0280374 19.7383178,15.0280374 C18.2517943,15.0280374 17.046729,16.2331027 17.046729,17.7196262 L17.046729,17.7196262 Z" fill="#000"></path>
</svg>
