<svg width="48" height="48" viewBox="0 0 48 48" fill="none" xmlns="http://www.w3.org/2000/svg">
  <rect width="48" height="48" fill="white" fill-opacity="0.01"/>
  <path d="M4.32,43.68 L37.92,43.68 L37.92,25.44 L4.32,25.44 L4.32,43.68 Z M21.12,30.12 C22.3706207,30.1203441 23.4781485,30.9276055 23.8612928,32.1180897 C24.2444372,33.3085739 23.8156573,34.6102791 22.8,35.34 L22.8,38.52 C22.8,38.784 22.584,39 22.32,39 L19.92,39 C19.656,39 19.44,38.784 19.44,38.52 L19.44,35.34 C18.4243427,34.6102791 17.9955628,33.3085739 18.3787072,32.1180897 C18.7618515,30.9276055 19.8693793,30.1203441 21.12,30.12 L21.12,30.12 Z" fill="#2F88FF"></path>
  <path d="M19.44,35.34 L19.44,38.52 C19.44,38.784 19.656,39 19.92,39 L22.32,39 C22.584,39 22.8,38.784 22.8,38.52 L22.8,35.34 C23.8161692,34.6104331 24.2453197,33.3084144 23.8621134,32.1176077 C23.4789071,30.926801 22.3709467,30.1194307 21.12,30.1194307 C19.8690533,30.1194307 18.7610929,30.926801 18.3778866,32.1176077 C17.9946803,33.3084144 18.4238308,34.6104331 19.44,35.34 L19.44,35.34 Z" fill="#000"></path>
  <path d="M40.32,21.12 L10.32,21.12 L10.32,7.68 C10.32,5.826 11.826,4.32 13.68,4.32 L28.56,4.32 C30.414,4.32 31.92,5.826 31.92,7.68 L31.92,11.76 C31.92,12.024 32.136,12.24 32.4,12.24 L35.76,12.24 C36.024,12.24 36.24,12.024 36.24,11.76 L36.24,7.68 C36.24,3.438 32.802,0 28.56,0 L13.68,0 C9.438,0 6,3.438 6,7.68 L6,21.12 L1.92,21.12 C0.858,21.12 0,21.978 0,23.04 L0,46.08 C0,47.142 0.858,48 1.92,48 L40.32,48 C41.382,48 42.24,47.142 42.24,46.08 L42.24,23.04 C42.24,21.978 41.382,21.12 40.32,21.12 Z M37.92,43.68 L4.32,43.68 L4.32,25.44 L37.92,25.44 L37.92,43.68 Z" fill="#000"></path>
</svg>
