<svg width="48" height="48" viewBox="0 0 48 48" fill="none" xmlns="http://www.w3.org/2000/svg">
  <rect width="48" height="48" fill="white" fill-opacity="0.01"/>
  <path d="M25.0357143,15.4285714 L25.0357143,3.85714286 L8.85714286,3.85714286 L8.85714286,44.1428571 L38.8571429,44.1428571 L38.8571429,17.6785714 L27.2857143,17.6785714 C26.0430736,17.6785714 25.0357143,16.6712121 25.0357143,15.4285714 Z M17.8571429,18.1071429 C19.0410714,18.1071429 20,19.0660714 20,20.25 C20,21.4339286 19.0410714,22.3928571 17.8571429,22.3928571 C16.6732143,22.3928571 15.7142857,21.4339286 15.7142857,20.25 C15.7142857,19.0660714 16.6732143,18.1071429 17.8571429,18.1071429 Z M33.7142857,33.8571429 L14.0053571,33.8571429 C13.6464286,33.8571429 13.4482143,33.4446429 13.6678571,33.1660714 L19.0142857,26.3517857 C19.0955159,26.2479933 19.2199858,26.1873491 19.3517857,26.1873491 C19.4835856,26.1873491 19.6080555,26.2479933 19.6892857,26.3517857 L21.8910714,29.1589286 L26.0589286,23.8446429 C26.1412333,23.7407117 26.2665336,23.6801072 26.3991071,23.6801072 C26.5316807,23.6801072 26.656981,23.7407117 26.7392857,23.8446429 L34.0517857,33.1660714 C34.2714286,33.4446429 34.0732143,33.8571429 33.7142857,33.8571429 L33.7142857,33.8571429 Z" fill="#2F88FF"></path>
  <path d="M42.2107143,12.0321429 L30.6821429,0.503571429 C30.3607143,0.182142857 29.9267857,0 29.4714286,0 L6.71428571,0 C5.76607143,0 5,0.766071429 5,1.71428571 L5,46.2857143 C5,47.2339286 5.76607143,48 6.71428571,48 L41,48 C41.9482143,48 42.7142857,47.2339286 42.7142857,46.2857143 L42.7142857,13.2482143 C42.7142857,12.7928571 42.5321429,12.3535714 42.2107143,12.0321429 Z M28.6785714,3.95357143 L38.7607143,14.0357143 L28.6785714,14.0357143 L28.6785714,3.95357143 Z M38.8571429,44.1428571 L8.85714286,44.1428571 L8.85714286,3.85714286 L25.0357143,3.85714286 L25.0357143,15.4285714 C25.0357143,16.6712121 26.0430736,17.6785714 27.2857143,17.6785714 L38.8571429,17.6785714 L38.8571429,44.1428571 Z" fill="#000000"></path>
  <path d="M26.0589286,23.8446429 L21.8910714,29.1589286 L19.6892857,26.3517857 C19.6080555,26.2479933 19.4835856,26.1873491 19.3517857,26.1873491 C19.2199858,26.1873491 19.0955159,26.2479933 19.0142857,26.3517857 L13.6678571,33.1660714 C13.5669306,33.2949537 13.548463,33.4701529 13.6202991,33.6172459 C13.6921353,33.764339 13.8416603,33.8574953 14.0053571,33.8571449 L33.7142857,33.8571449 C34.0732143,33.8571449 34.2714286,33.4446429 34.0517857,33.1660714 L26.7392857,23.8446429 C26.656981,23.7407117 26.5316807,23.6801072 26.3991071,23.6801072 C26.2665336,23.6801072 26.1412333,23.7407117 26.0589286,23.8446429 L26.0589286,23.8446429 Z M15.7142857,20.25 C15.7142857,21.4334673 16.6736755,22.3928571 17.8571429,22.3928571 C19.0406102,22.3928571 20,21.4334673 20,20.25 C20,19.0665327 19.0406102,18.1071429 17.8571429,18.1071429 C16.6736755,18.1071429 15.7142857,19.0665327 15.7142857,20.25 Z" fill="#FFFFFF"></path>
</svg>
