<?xml version="1.0" encoding="UTF-8"?>
<svg width="48" height="48" viewBox="0 0 48 48" fill="none" xmlns="http://www.w3.org/2000/svg">
  <rect width="48" height="48" fill="white" fill-opacity="0.01"/>
  <path d="M24,0 C10.7464286,0 0,10.7464286 0,24 C0,37.2535714 10.7464286,48 24,48 C37.2535714,48 48,37.2535714 48,24 C48,10.7464286 37.2535714,0 24,0 Z M24,43.9285714 C12.9964286,43.9285714 4.07142857,35.0035714 4.07142857,24 C4.07142857,12.9964286 12.9964286,4.07142857 24,4.07142857 C35.0035714,4.07142857 43.9285714,12.9964286 43.9285714,24 C43.9285714,35.0035714 35.0035714,43.9285714 24,43.9285714 Z" fill="#000"></path>
  <path d="M24,4.07142857 C12.9964286,4.07142857 4.07142857,12.9964286 4.07142857,24 C4.07142857,35.0035714 12.9964286,43.9285714 24,43.9285714 C35.0035714,43.9285714 43.9285714,35.0035714 43.9285714,24 C43.9285714,12.9964286 35.0035714,4.07142857 24,4.07142857 Z M33.2035714,32.3089286 C33.2678571,32.3892857 33.3053571,32.4857143 33.3053571,32.5875 C33.3053571,32.8285714 33.1125,33.0160714 32.8767857,33.0160714 L29.3410714,33 L24.0214286,26.6571429 L18.7017857,33.0053571 L15.1607143,33.0214286 C14.925,33.0214286 14.7321429,32.8285714 14.7321429,32.5928571 C14.7321429,32.4910714 14.7696429,32.3946429 14.8339286,32.3142857 L21.8035714,24.0160714 L14.8339286,15.7125 C14.7691947,15.6339847 14.7332766,15.5356824 14.7321429,15.4339286 C14.7321429,15.1928571 14.925,15.0053571 15.1607143,15.0053571 L18.7017857,15.0214286 L24.0214286,21.3642857 L29.3464286,15.0160714 L32.8821429,15 C33.1178571,15 33.3107143,15.1928571 33.3107143,15.4285714 C33.3107143,15.5303571 33.2785714,15.6321429 33.2142857,15.7071429 L26.2446429,24.0107143 L33.2035714,32.3089286 L33.2035714,32.3089286 Z" fill="#2F88FF"></path>
  <path d="M33.3107143,15.4285714 C33.3107143,15.1928571 33.1178571,15 32.8821429,15 L29.3464286,15.0160714 L24.0214286,21.3642857 L18.7017857,15.0214286 L15.1607143,15.0053571 C14.925,15.0053571 14.7321429,15.1928571 14.7321429,15.4339286 C14.7321429,15.5357143 14.7696429,15.6321429 14.8339286,15.7125 L21.8035714,24.0160714 L14.8339286,32.3142857 C14.7691947,32.392801 14.7332766,32.4911033 14.7321429,32.5928571 C14.7321429,32.8285714 14.925,33.0214286 15.1607143,33.0214286 L18.7017857,33.0053571 L24.0214286,26.6571429 L29.3410714,33 L32.8767857,33.0160714 C33.1125,33.0160714 33.3053571,32.8285714 33.3053571,32.5875 C33.3053571,32.4857143 33.2678571,32.3892857 33.2035714,32.3089286 L26.2446429,24.0107143 L33.2142857,15.7071429 C33.2785714,15.6321429 33.3107143,15.5303571 33.3107143,15.4285714 Z" fill="#FFF"></path>
</svg>
