<?xml version="1.0" encoding="UTF-8"?>
<svg width="48" height="48" viewBox="0 0 48 48" fill="none" xmlns="http://www.w3.org/2000/svg">
  <rect width="48" height="48" fill="white" fill-opacity="0.01"/>
  <path d="M46.08,0 L1.92,0 C0.858,0 0,0.858 0,1.92 L0,46.08 C0,47.142 0.858,48 1.92,48 L46.08,48 C47.142,48 48,47.142 48,46.08 L48,1.92 C48,0.858 47.142,0 46.08,0 Z M43.68,43.68 L4.32,43.68 L4.32,4.32 L43.68,4.32 L43.68,43.68 Z" fill="#000"></path>
  <path d="M4.32,43.68 L43.68,43.68 L43.68,4.32 L4.32,4.32 L4.32,43.68 Z M13.32,17.28 L16.134,17.28 C16.752,17.28 17.328,17.574 17.688,18.072 L24,26.796 L30.312,18.072 C30.672,17.574 31.254,17.28 31.866,17.28 L34.68,17.28 C35.07,17.28 35.298,17.724 35.064,18.042 L24.384,32.802 C24.2943507,32.926417 24.1503511,33.0001452 23.997,33.0001452 C23.8436489,33.0001452 23.6996493,32.926417 23.61,32.802 L12.93,18.042 C12.702,17.724 12.93,17.28 13.32,17.28 L13.32,17.28 Z" fill="#2F88FF"></path>
  <path d="M23.61,32.802 C23.802,33.066 24.192,33.066 24.384,32.802 L35.064,18.042 C35.298,17.724 35.07,17.28 34.68,17.28 L31.866,17.28 C31.254,17.28 30.672,17.574 30.312,18.072 L24,26.796 L17.688,18.072 C17.328,17.574 16.752,17.28 16.134,17.28 L13.32,17.28 C12.93,17.28 12.702,17.724 12.93,18.042 L23.61,32.802 Z" fill="#000"></path>
</svg>
