<svg width="48" height="48" viewBox="0 0 48 48" fill="none" xmlns="http://www.w3.org/2000/svg">
  <rect width="48" height="48" fill="white" fill-opacity="0.01"/>
  <path fill="#000" d="M46.5803257,19.6315309 L23.9843648,19.6315309 L23.9843648,28.9188274 L36.8927687,28.9188274 C36.3361564,31.9207818 34.647557,34.4599349 32.1021498,36.1610423 C29.9507492,37.5994788 27.2052117,38.4500326 23.9781107,38.4500326 C17.7302932,38.4500326 12.4456026,34.2285342 10.556873,28.5560912 C10.0815635,27.1176547 9.80638436,25.5791531 9.80638436,23.996873 C9.80638436,22.4145928 10.0815635,20.8760912 10.556873,19.4376547 C12.4518567,13.7714658 17.7365472,9.54996743 23.9843648,9.54996743 C27.5054072,9.54996743 30.6637134,10.7632573 33.1528339,13.1398046 L40.0323127,6.25407166 C35.873355,2.37654723 30.4510749,0 23.9843648,0 C14.6095114,0 6.49798046,5.37850163 2.55166124,13.2211075 C0.925602606,16.4607166 0,20.1256026 0,24.003127 C0,27.8806515 0.925602606,31.5392834 2.55166124,34.7788925 C6.49798046,42.6214984 14.6095114,48 23.9843648,48 C30.4635831,48 35.8921173,45.8485993 39.8571987,42.1837134 C44.3914007,38.0059935 47.0118567,31.851987 47.0118567,24.5409772 C47.0118567,22.8398697 46.861759,21.207557 46.5803257,19.6315309 Z"></path>
</svg>
