<svg width="48" height="48" viewBox="0 0 48 48" fill="none" xmlns="http://www.w3.org/2000/svg">
  <rect width="48" height="48" fill="white" fill-opacity="0.01"/>
  <path fill="#000" d="M23.9935492,11.6854624 C17.1790719,11.6854624 11.6794585,17.1850758 11.6794585,23.9995532 C11.6794585,30.8140305 17.1790719,36.313644 23.9935492,36.313644 C30.8080266,36.313644 36.30764,30.8140305 36.30764,23.9995532 C36.30764,17.1850758 30.8080266,11.6854624 23.9935492,11.6854624 Z M23.9935492,32.0028116 C19.5866538,32.0028116 15.9902908,28.4064487 15.9902908,23.9995532 C15.9902908,19.5926577 19.5866538,15.9962948 23.9935492,15.9962948 C28.4004447,15.9962948 31.9968077,19.5926577 31.9968077,23.9995532 C31.9968077,28.4064487 28.4004447,32.0028116 23.9935492,32.0028116 Z M36.8119714,8.31124316 C35.220926,8.31124316 33.9360818,9.59608962 33.9360818,11.187135 C33.9360818,12.7781804 35.220926,14.0630245 36.8119714,14.0630245 C38.4030168,14.0630245 39.6878632,12.7841843 39.6878632,11.187135 C39.6888185,10.4241085 39.3861314,9.69205824 38.8465898,9.15251661 C38.3070481,8.61297498 37.5749979,8.31028785 36.8119714,8.31124316 Z M47.9973206,23.9995532 C47.9973206,20.6853757 48.0273403,17.4012179 47.841218,14.0930443 C47.6550957,10.2505196 46.7785198,6.84027895 43.9686736,4.03043279 C41.1528235,1.21458267 37.7485868,0.344010679 33.9060621,0.15788839 C30.5918846,-0.0282338987 27.3077268,0.00178582534 23.9995532,0.00178582534 C20.6853757,0.00178582534 17.4012179,-0.0282338987 14.0930443,0.15788839 C10.2505196,0.344010679 6.84027895,1.22058662 4.03043279,4.03043279 C1.21458267,6.8462829 0.344010679,10.2505196 0.15788839,14.0930443 C-0.0282338987,17.4072218 0.00178582534,20.6913796 0.00178582534,23.9995532 C0.00178582534,27.3077268 -0.0282338987,30.5978885 0.15788839,33.9060621 C0.344010679,37.7485868 1.22058662,41.1588274 4.03043279,43.9686736 C6.8462829,46.7845237 10.2505196,47.6550957 14.0930443,47.841218 C17.4072218,48.0273403 20.6913796,47.9973206 23.9995532,47.9973206 C27.3137307,47.9973206 30.5978885,48.0273403 33.9060621,47.841218 C37.7485868,47.6550957 41.1588274,46.7785198 43.9686736,43.9686736 C46.7845237,41.1528235 47.6550957,37.7485868 47.841218,33.9060621 C48.0333442,30.5978885 47.9973206,27.3137307 47.9973206,23.9995532 Z M42.7138491,38.156855 C42.2755612,39.249573 41.747214,40.0661095 40.9006578,40.9066617 C40.0541016,41.753218 39.243569,42.2815651 38.1508511,42.7198531 C34.9927761,43.9746775 27.4938491,43.6924921 23.9935492,43.6924921 C20.4932494,43.6924921 12.9883184,43.9746775 9.83024346,42.725857 C8.73752551,42.287569 7.92098902,41.7592219 7.08043674,40.9126657 C6.23388053,40.0661095 5.70553338,39.2555769 5.26724541,38.162859 C4.0184249,34.9987801 4.3006103,27.499853 4.3006103,23.9995532 C4.3006103,20.4992534 4.0184249,12.9943224 5.26724541,9.83624741 C5.70553338,8.74352945 6.23388053,7.92699296 7.08043674,7.08644069 C7.92699296,6.24588842 8.73752551,5.71153733 9.83024346,5.27324936 C12.9883184,4.02442884 20.4932494,4.30661425 23.9935492,4.30661425 C27.4938491,4.30661425 34.9987801,4.02442884 38.156855,5.27324936 C39.249573,5.71153733 40.0661095,6.23988447 40.9066617,7.08644069 C41.753218,7.93299691 42.2815651,8.74352945 42.7198531,9.83624741 C43.9686736,12.9943224 43.6864882,20.4992534 43.6864882,23.9995532 C43.6864882,27.499853 43.9686736,34.9987801 42.7138491,38.156855 Z"></path>
</svg>
