<svg width="48" height="48" viewBox="0 0 48 48" fill="none" xmlns="http://www.w3.org/2000/svg">
  <rect width="48" height="48" fill="white" fill-opacity="0.01"/>
  <path d="M4.34308116,23.5540173 C4.40022336,21.0569029 4.91450322,18.6340734 5.8802065,16.3540993 C6.86876666,14.0112689 8.28589337,11.9141499 10.0915871,10.102742 C11.8972808,8.29133408 14.000114,6.87420737 16.3429444,5.88564721 C18.7657739,4.86280173 21.3371732,4.34280765 23.9942858,4.34280765 C26.6513984,4.34280765 29.2227976,4.86280173 31.6399129,5.88564721 C33.9760262,6.87217812 36.0974593,8.30458217 37.885556,10.102742 C38.4512639,10.6684498 38.9826864,11.268443 39.4741094,11.8970073 L36.0341486,14.582691 C35.8952551,14.6901362 35.8301842,14.8676449 35.8667282,15.0394017 C35.9032722,15.2111586 36.034971,15.3468014 36.2055752,15.3883961 L46.2454608,17.8455109 C46.5311718,17.9140816 46.8111686,17.6969412 46.8111686,17.4055159 L46.8568824,7.06849087 C46.8568824,6.6856381 46.4168874,6.46849771 46.1197479,6.70849498 L42.8969275,9.22846626 C38.5026919,3.60567319 31.668484,0 23.9885716,0 C10.8972922,0 0.24598499,10.491309 0.000130443446,23.5311604 C-0.00280767084,23.6543687 0.0439912312,23.7736012 0.130057398,23.861819 C0.216123564,23.9500368 0.334164378,23.9997265 0.457411152,23.9997265 L3.88594351,23.9997265 C4.13736921,23.9997265 4.33736694,23.7997288 4.34308116,23.5540173 Z M47.5425888,23.9997265 L44.1140565,23.9997265 C43.8626308,23.9997265 43.6626331,24.1997242 43.6569188,24.4454357 C43.5997766,26.9425501 43.0854968,29.3653796 42.1197935,31.6453537 C41.1312333,33.9881841 39.7141066,36.0910173 37.9084129,37.896711 C34.2272189,41.5931028 29.2224568,43.6665924 24.0057142,43.6566453 C18.7906872,43.6664014 13.7877714,41.5928245 10.1087297,37.896711 C9.5430219,37.3310031 9.01159938,36.73101 8.52017641,36.1024457 L11.9601372,33.416762 C12.0990307,33.3093168 12.1641016,33.1318081 12.1275576,32.9600513 C12.0910136,32.7882944 11.9593147,32.6526516 11.7887106,32.6110569 L1.74882501,30.1539421 C1.46311398,30.0853714 1.18311717,30.3025118 1.18311717,30.5939371 L1.14311762,40.9366763 C1.14311762,41.3195291 1.58311261,41.5366695 1.88025208,41.2966722 L5.1030725,38.776701 C9.49730813,44.3937798 16.331516,47.999453 24.0114284,47.999453 C37.108422,47.999453 47.754015,37.5024298 47.9998696,24.4682926 C48.0028077,24.3450843 47.9560088,24.2258518 47.8699426,24.137634 C47.7838764,24.0494162 47.6658356,23.9997265 47.5425888,23.9997265 Z" fill="#000"></path>
</svg>
