<svg width="48" height="48" viewBox="0 0 48 48" fill="none" xmlns="http://www.w3.org/2000/svg">
  <rect width="48" height="48" fill="white" fill-opacity="0.01"/>
  <path d="M20,5 C20,7.209139 21.790861,9 24,9 C26.209139,9 28,7.209139 28,5 C28,2.790861 26.209139,1 24,1 C21.790861,1 20,2.790861 20,5 Z M20,25 C20,27.209139 21.790861,29 24,29 C26.209139,29 28,27.209139 28,25 C28,22.790861 26.209139,21 24,21 C21.790861,21 20,22.790861 20,25 Z M20,45 C20,47.209139 21.790861,49 24,49 C26.209139,49 28,47.209139 28,45 C28,42.790861 26.209139,41 24,41 C21.790861,41 20,42.790861 20,45 Z" fill="#000"></path>
</svg>
