<svg width="48" height="48" viewBox="0 0 48 48" fill="none" xmlns="http://www.w3.org/2000/svg">
  <rect width="48" height="48" fill="white" fill-opacity="0.01"/>
  <path d="M0.9375,4.8203125 C0.9375,7.0294515 2.728361,8.8203125 4.9375,8.8203125 C7.146639,8.8203125 8.9375,7.0294515 8.9375,4.8203125 C8.9375,2.6111735 7.146639,0.8203125 4.9375,0.8203125 C2.728361,0.8203125 0.9375,2.6111735 0.9375,4.8203125 Z M0.9375,24.8203125 C0.9375,27.0294515 2.728361,28.8203125 4.9375,28.8203125 C7.146639,28.8203125 8.9375,27.0294515 8.9375,24.8203125 C8.9375,22.6111735 7.146639,20.8203125 4.9375,20.8203125 C2.728361,20.8203125 0.9375,22.6111735 0.9375,24.8203125 Z M0.9375,44.8203125 C0.9375,47.0294515 2.728361,48.8203125 4.9375,48.8203125 C7.146639,48.8203125 8.9375,47.0294515 8.9375,44.8203125 C8.9375,42.6111735 7.146639,40.8203125 4.9375,40.8203125 C2.728361,40.8203125 0.9375,42.6111735 0.9375,44.8203125 Z" fill="#000"></path>
</svg>
