<svg width="48" height="48" viewBox="0 0 48 48" fill="none" xmlns="http://www.w3.org/2000/svg">
  <rect width="48" height="48" fill="white" fill-opacity="0.01"/>
  <path d="M24.0052863,4.73656388 L4.44581498,24.2801762 L9.52070485,24.2801762 L9.52070485,41.4977974 L17.6563877,41.4977974 L17.6563877,29.4449339 C17.6563877,28.276652 18.6026432,27.3303965 19.7709251,27.3303965 L28.2290749,27.3303965 C29.3973568,27.3303965 30.3436123,28.276652 30.3436123,29.4449339 L30.3436123,41.4977974 L38.4792952,41.4977974 L38.4792952,24.2801762 L43.5594714,24.2801762 L25.2264317,5.95770925 L24.0052863,4.73656388 Z M46.9744493,27.092511 C46.6572687,27.4096916 46.2819383,27.6634361 45.8748899,27.8273128 C46.2819383,27.6581498 46.6572687,27.4096916 46.9744493,27.092511 Z M0.0845814978,25.2581498 C0.348898678,26.8599119 1.74449339,28.0863436 3.42026432,28.0863436 L3.46784141,28.0863436 C1.7814978,28.0863436 0.354185022,26.8704846 0.0845814978,25.2581498 Z M0.0605726872,24.7030837 L0.0605726872,24.6026432 L0.0605726872,24.7030837 Z M0.0422907489,24.5656388 C0.0522907489,24.4017621 0.0922907489,24.2431718 0.142290749,24.0845815 C0.0822907489,24.2378855 0.0522907489,24.4017621 0.0422907489,24.5656388 Z" fill="#2F88FF"></path>
  <path d="M47.2070485,22.5726872 C47.2070485,22.5674009 47.2017621,22.5674009 47.2017621,22.5621145 L47.1066079,22.4511013 C47.1013216,22.445815 47.0960352,22.4352423 47.0854626,22.4299559 C47.0484581,22.3876652 47.0061674,22.3453744 46.969163,22.3030837 L26.5427313,1.89251101 L25.1735683,0.523348018 C24.5241712,-0.121763307 23.4758288,-0.121763307 22.8264317,0.523348018 L1.030837,22.30837 C0.637085702,22.7000393 0.346492533,23.1831504 0.185022026,23.7145374 L0.153303965,23.8255507 L0.137444934,23.8837004 L0.121585903,23.9471366 C0.111013216,23.984141 0.105726872,24.0211454 0.100440529,24.0581498 C0.100440529,24.0634361 0.100440529,24.0740088 0.095154185,24.0792952 C0.0634361233,24.2378855 0.0475770925,24.3964758 0.0422907489,24.5603524 L0.0422907489,24.7348018 C0.0422907489,24.7612335 0.0422907489,24.7876652 0.0475770925,24.8140969 C0.0475770925,24.8405286 0.0475770925,24.861674 0.0528634361,24.8881057 C0.0528634361,24.9145374 0.0581497797,24.9409692 0.0581497797,24.9674009 C0.0581497797,24.9991189 0.0634361233,25.030837 0.068722467,25.0625551 C0.068722467,25.0784141 0.0740088106,25.0942731 0.0740088106,25.1101322 L0.0898678414,25.2422907 L0.0898678414,25.2475771 C0.359471366,26.8599119 1.79207048,28.0757709 3.47312775,28.0757709 L5.71982379,28.0757709 L5.71982379,45.3039648 L42.2854626,45.3039648 L42.2854626,28.0863436 L44.5797357,28.0863436 C45.0343612,28.0863436 45.4731278,27.9964758 45.8748899,27.8273128 C46.276652,27.6581498 46.6519824,27.4096916 46.9744493,27.092511 C47.61063,26.4583768 47.9666058,25.5960395 47.9630228,24.6977974 C47.9630228,23.9207048 47.6986784,23.1753304 47.2070485,22.5726872 Z M26.9603524,41.4977974 L21.0396476,41.4977974 L21.0396476,30.7136564 L26.9603524,30.7136564 L26.9603524,41.4977974 Z M38.4792952,24.2801762 L38.4792952,41.4977974 L30.3436123,41.4977974 L30.3436123,29.4449339 C30.3436123,28.276652 29.3973568,27.3303965 28.2290749,27.3303965 L19.7709251,27.3303965 C18.6026432,27.3303965 17.6563877,28.276652 17.6563877,29.4449339 L17.6563877,41.4977974 L9.52070485,41.4977974 L9.52070485,24.2801762 L4.44581498,24.2801762 L24.0052863,4.73656388 L25.2264317,5.95770925 L43.5594714,24.2801762 L38.4792952,24.2801762 Z" fill="#000"></path>
</svg>
