<?xml version="1.0" encoding="UTF-8"?>
<svg width="48" height="48" viewBox="0 0 48 48" fill="none" xmlns="http://www.w3.org/2000/svg">
  <rect width="48" height="48" fill="white" fill-opacity="0.01"/>
  <path fill="#000" d="M39.620155,9.66821705 C38.751938,7.77054264 37.5178295,6.06511628 35.9426357,4.60775194 C32.7426357,1.6372093 28.4945736,0 23.9922481,0 C19.4899225,0 15.2418605,1.6372093 12.0418605,4.60155039 C10.4666667,6.06511628 9.23255814,7.76434109 8.36434109,9.66821705 C7.45891473,11.6527132 7,13.7550388 7,15.9255814 L7,17.6 C7,17.9844961 7.31007752,18.2945736 7.69457364,18.2945736 L11.0434109,18.2945736 C11.427907,18.2945736 11.7379845,17.9844961 11.7379845,17.6 L11.7379845,15.9255814 C11.7379845,9.75503876 17.2325581,4.7379845 23.9922481,4.7379845 C30.751938,4.7379845 36.2465116,9.75503876 36.2465116,15.9255814 C36.2465116,18.455814 35.3472868,20.8372093 33.6418605,22.8217054 C31.9550388,24.7875969 29.5736434,26.1953488 26.9379845,26.7906977 C25.4310078,27.1317829 24.0728682,27.9813953 23.1116279,29.1968992 C22.1537426,30.408249 21.6316359,31.9068481 21.6294574,33.4511628 L21.6294574,35.3984496 C21.6294574,35.7829457 21.9395349,36.0930233 22.324031,36.0930233 L25.6728682,36.0930233 C26.0573643,36.0930233 26.3674419,35.7829457 26.3674419,35.3984496 L26.3674419,33.4511628 C26.3674419,32.4775194 27.0434109,31.6217054 27.979845,31.4108527 C31.6015504,30.5922481 34.8883721,28.6387597 37.2387597,25.9100775 C38.4232558,24.5271318 39.3472868,22.9891473 39.9860465,21.3209302 C40.6496124,19.5906977 40.9844961,17.7736434 40.9844961,15.9255814 C40.9844961,13.7550388 40.5255814,11.6465116 39.620155,9.66821705 L39.620155,9.66821705 Z M23.9922481,41.0542636 C22.075969,41.0542636 20.5193798,42.6108527 20.5193798,44.5271318 C20.5193798,46.4434109 22.075969,48 23.9922481,48 C25.9085271,48 27.4651163,46.4434109 27.4651163,44.5271318 C27.4651163,42.6108527 25.9085271,41.0542636 23.9922481,41.0542636 Z"></path>
</svg>
