<?xml version="1.0" encoding="UTF-8"?>
<svg width="48" height="48" viewBox="0 0 48 48" fill="none" xmlns="http://www.w3.org/2000/svg">
  <rect width="48" height="48" fill="white" fill-opacity="0.01"/>
  <path fill="#000" d="M47.8386281,23.6605715 L40.1832434,17.6190571 C40.0525462,17.5162485 39.8745782,17.4972059 39.7250878,17.5700346 C39.5755975,17.6428632 39.4808994,17.7947431 39.4812998,17.9610296 L39.4812998,21.8427176 L26.1623704,21.8427176 L26.1623704,8.52378822 L30.0500579,8.52378822 C30.410029,8.52378822 30.6140126,8.10382198 30.3920304,7.82184464 L24.3445165,0.166459989 C24.2634,0.0614745015 24.1382157,0 24.0055438,0 C23.8728719,0 23.7476875,0.0614745015 23.666571,0.166459989 L17.6190571,7.82184464 C17.5162485,7.95254186 17.4972059,8.13050983 17.5700346,8.28000021 C17.6428632,8.42949059 17.7947431,8.52418868 17.9610296,8.52378822 L21.8427176,8.52378822 L21.8427176,21.8427176 L8.52378822,21.8427176 L8.52378822,17.9550301 C8.52378822,17.5950591 8.10382198,17.3910755 7.82184464,17.6130576 L0.166459989,23.6605715 C0.0614745015,23.741688 1.42108547e-14,23.8668723 1.42108547e-14,23.9995443 C1.42108547e-14,24.1322162 0.0614745015,24.2574005 0.166459989,24.338517 L7.81584513,30.3860309 C8.09782246,30.6080131 8.5177887,30.410029 8.5177887,30.0440584 L8.5177887,26.1623704 L21.8367181,26.1623704 L21.8367181,39.4812998 L17.9490306,39.4812998 C17.5890595,39.4812998 17.3850759,39.9012661 17.6070581,40.1832434 L23.654572,47.8326285 C23.828558,48.0546107 24.164531,48.0546107 24.3325175,47.8326285 L30.3800314,40.1832434 C30.6020136,39.9012661 30.4040295,39.4812998 30.0380589,39.4812998 L26.1623704,39.4812998 L26.1623704,26.1623704 L39.4812998,26.1623704 L39.4812998,30.0500579 C39.4812998,30.410029 39.9012661,30.6140126 40.1832434,30.3920304 L47.8326285,24.3445165 C47.93724,24.2623172 47.9988161,24.137023 48,24.0039857 C48.0011501,23.8709484 47.9417815,23.7445933 47.8386281,23.6605715 Z"></path>
</svg>
