<svg width="48" height="48" viewBox="0 0 48 48" fill="none" xmlns="http://www.w3.org/2000/svg">
  <rect width="48" height="48" fill="white" fill-opacity="0.01"/>
  <path fill="#000" d="M47.9114254,24.2506852 L41.4290994,2.17863299 L41.4290994,2.17268044 C40.9767057,0.809546684 39.8992943,0 38.5540182,0 C37.1611217,0 36.0241848,0.803594135 35.5956012,2.0952973 L31.3454811,14.774227 L16.6545899,14.774227 L12.4044698,2.0952973 C11.9758862,0.803594135 10.8389493,0 9.44605283,0 C8.07101398,0 6.91621945,0.880977274 6.56501905,2.17863299 L0.0886455748,24.2506852 C-0.173266588,25.12571 0.160076165,26.1197857 0.89223971,26.6733727 L22.8273833,43.1262186 C22.9821496,43.3405103 23.1964414,43.5012292 23.4464484,43.5905174 L23.9583677,43.9714806 L24.4643343,43.5905174 C24.7560092,43.4893241 25.0000638,43.3107476 25.1726877,43.0607405 L47.1018787,26.6674202 C47.8399948,26.1197857 48.1733376,25.12571 47.9114254,24.2506852 Z M38.2563907,2.89293889 C38.3159162,2.785793 38.4290146,2.77984045 38.4647299,2.77984045 C38.530208,2.77984045 38.6135437,2.7976981 38.6671166,2.95841693 L42.2029308,14.8516101 L34.2562777,14.8516101 L38.2563907,2.89293889 Z M9.24366616,2.95246438 C9.29723911,2.7976981 9.38057479,2.77984045 9.44605283,2.77984045 C9.60677166,2.77984045 9.61867676,2.785793 9.64843951,2.88103379 L13.6545051,14.8575627 L5.80309276,14.8575627 L9.24366616,2.95246438 L9.24366616,2.95246438 Z M2.96372681,24.6376009 L4.64234567,18.8457706 L16.6903051,34.9295584 L2.96372681,24.6376009 Z M7.36266063,17.7088337 L14.6307231,17.7088337 L20.0356378,34.6319309 L7.36266063,17.7088337 Z M24.0417033,37.5724902 L17.6605707,17.7088337 L30.4168835,17.7088337 L24.0417033,37.5724902 Z M33.4407784,17.7088337 L40.5540747,17.7088337 L28.0358638,34.4235917 L33.4407784,17.7088337 Z M31.0180909,35.2033757 L43.3577253,18.7326722 L45.1137273,24.6376009 L31.0180909,35.2033757 Z"></path>
</svg>
