<svg width="48" height="48" viewBox="0 0 48 48" fill="none" xmlns="http://www.w3.org/2000/svg">
  <rect width="48" height="48" fill="white" fill-opacity="0.01"/>
  <path d="M46.08,0 L1.92,0 C0.858,0 0,0.858 0,1.92 L0,46.08 C0,47.142 0.858,48 1.92,48 L46.08,48 C47.142,48 48,47.142 48,46.08 L48,1.92 C48,0.858 47.142,0 46.08,0 Z M43.68,43.68 L4.32,43.68 L4.32,4.32 L43.68,4.32 L43.68,43.68 Z" fill="#000"></path>
  <path d="M4.32,43.68 L43.68,43.68 L43.68,4.32 L4.32,4.32 L4.32,43.68 Z M19.692,39.1800051 L16.644,39.1800051 C16.512,39.1800051 16.374,39.114 16.29,39.006 L14.16,36.396 L12.03,39.006 C11.9457769,39.1162574 11.8147436,39.1806636 11.676,39.1800051 L8.628,39.1800051 C8.232,39.1800051 8.016,38.706 8.28,38.394 L12.042,33.786 L8.37,29.292 C8.112,28.98 8.328,28.506 8.724,28.506 L11.778,28.506 C11.91,28.506 12.048,28.572 12.132,28.68 L14.172,31.176 L16.212,28.68 C16.302,28.566 16.428,28.506 16.566,28.506 L19.614,28.506 C20.01,28.506 20.226,28.98 19.968,29.292 L16.29,33.78 L20.052,38.388 C20.304,38.706 20.088,39.1800051 19.692,39.1800051 Z M27.84,13.38 C27.84,13.248 27.924,13.14 28.032,13.14 L39.642,13.14 C39.756,13.14 39.84,13.248 39.84,13.38 L39.84,16.26 C39.84,16.392 39.756,16.5 39.648,16.5 L28.032,16.5 C27.924,16.5 27.84,16.392 27.84,16.26 L27.84,13.38 Z M27.84,29.28 C27.84,29.148 27.924,29.04 28.032,29.04 L39.642,29.04 C39.756,29.04 39.84,29.148 39.84,29.28 L39.84,32.16 C39.84,32.292 39.756,32.4 39.648,32.4 L28.032,32.4 C27.924,32.4 27.84,32.292 27.84,32.16 L27.84,29.28 Z M27.84,35.52 C27.84,35.388 27.924,35.28 28.032,35.28 L39.642,35.28 C39.756,35.28 39.84,35.388 39.84,35.52 L39.84,38.4 C39.84,38.532 39.756,38.64 39.648,38.64 L28.032,38.64 C27.924,38.64 27.84,38.532 27.84,38.4 L27.84,35.52 Z M8.16,13.38 C8.16,13.248 8.244,13.14 8.352,13.14 L12.48,13.14 L12.48,9.012 C12.48,8.904 12.588,8.82 12.72,8.82 L15.6,8.82 C15.732,8.82 15.84,8.904 15.84,9.012 L15.84,13.14 L19.962,13.14 C20.076,13.14 20.16,13.248 20.16,13.38 L20.16,16.26 C20.16,16.392 20.076,16.5 19.968,16.5 L15.84,16.5 L15.84,20.622 C15.84,20.736 15.732,20.82 15.6,20.82 L12.72,20.82 C12.588,20.82 12.48,20.736 12.48,20.628 L12.48,16.5 L8.352,16.5 C8.244,16.5 8.16,16.392 8.16,16.26 L8.16,13.38 Z" fill="#2F88FF"></path>
  <path d="M16.29,33.78 L19.968,29.292 C20.226,28.98 20.01,28.506 19.614,28.506 L16.566,28.506 C16.428,28.506 16.302,28.566 16.212,28.68 L14.172,31.176 L12.132,28.68 C12.0459887,28.5719419 11.9160946,28.5080956 11.778,28.506 L8.724,28.506 C8.328,28.506 8.112,28.98 8.37,29.292 L12.042,33.786 L8.28,38.394 C8.016,38.706 8.232,39.18 8.628,39.18 L11.676,39.18 C11.814,39.18 11.94,39.12 12.03,39.006 L14.16,36.396 L16.29,39.006 C16.374,39.114 16.512,39.18 16.644,39.18 L19.692,39.18 C20.088,39.18 20.304,38.706 20.052,38.388 L16.29,33.78 Z M8.352,16.5 L12.48,16.5 L12.48,20.628 C12.48,20.736 12.588,20.82 12.72,20.82 L15.6,20.82 C15.732,20.82 15.84,20.736 15.84,20.622 L15.84,16.5 L19.968,16.5 C20.076,16.5 20.16,16.392 20.16,16.26 L20.16,13.38 C20.16,13.248 20.076,13.14 19.962,13.14 L15.84,13.14 L15.84,9.012 C15.84,8.904 15.732,8.82 15.6,8.82 L12.72,8.82 C12.588,8.82 12.48,8.904 12.48,9.012 L12.48,13.14 L8.352,13.14 C8.244,13.14 8.16,13.248 8.16,13.38 L8.16,16.26 C8.16,16.392 8.244,16.5 8.352,16.5 Z M28.032,38.64 L39.648,38.64 C39.756,38.64 39.84,38.532 39.84,38.4 L39.84,35.52 C39.84,35.388 39.756,35.28 39.642,35.28 L28.032,35.28 C27.924,35.28 27.84,35.388 27.84,35.52 L27.84,38.4 C27.84,38.532 27.924,38.64 28.032,38.64 Z M28.032,32.4 L39.648,32.4 C39.756,32.4 39.84,32.292 39.84,32.16 L39.84,29.28 C39.84,29.148 39.756,29.04 39.642,29.04 L28.032,29.04 C27.924,29.04 27.84,29.148 27.84,29.28 L27.84,32.16 C27.84,32.292 27.924,32.4 28.032,32.4 Z M28.032,16.5 L39.648,16.5 C39.756,16.5 39.84,16.392 39.84,16.26 L39.84,13.38 C39.84,13.248 39.756,13.14 39.642,13.14 L28.032,13.14 C27.924,13.14 27.84,13.248 27.84,13.38 L27.84,16.26 C27.84,16.392 27.924,16.5 28.032,16.5 Z" fill="#000"></path>
</svg>
