<svg width="48" height="48" viewBox="0 0 48 48" fill="none" xmlns="http://www.w3.org/2000/svg">
  <rect width="48" height="48" fill="white" fill-opacity="0.01"/>
  <path d="M36,0 L1.71428571,0 C0.766071429,0 0,0.766071429 0,1.71428571 L0,46.2857143 C0,47.2339286 0.766071429,48 1.71428571,48 L36,48 C36.9482143,48 37.7142857,47.2339286 37.7142857,46.2857143 L37.7142857,1.71428571 C37.7142857,0.766071429 36.9482143,0 36,0 Z M33.8571429,44.1428571 L3.85714286,44.1428571 L3.85714286,6.91607143 L17.8017857,17.85 C18.4232143,18.3375 19.2964286,18.3375 19.9178571,17.85 L33.8571429,6.91607143 L33.8571429,44.1428571 Z M33.8571429,3.89464286 L32.1589286,3.89464286 L18.8571429,14.3196429 L5.55535714,3.89464286 L3.85714286,3.89464286 L3.85714286,3.85714286 L33.8571429,3.85714286 L33.8571429,3.89464286 L33.8571429,3.89464286 Z" fill="#000"></path>
  <path d="M17.8017857,17.85 L3.85714286,6.91607143 L3.85714286,44.1428571 L33.8571429,44.1428571 L33.8571429,6.91607143 L19.9178571,17.85 C19.2967226,18.3374711 18.4229203,18.3374711 17.8017857,17.85 Z M23.1267857,21.1125 L25.6875,21.1125 C25.8455547,21.1138054 25.9914831,21.1974564 26.0724822,21.3331846 C26.1534813,21.4689128 26.1578201,21.6370608 26.0839286,21.7767857 L21.4125,30.4017857 L23.8714286,30.4017857 C24.1178571,30.4017857 24.3214286,30.6053571 24.3214286,30.8517857 L24.3214286,32.1964286 C24.3214286,32.4428571 24.1178571,32.6464286 23.8714286,32.6464286 L20.4803571,32.6464286 L20.4803571,34.1785714 L23.8714286,34.1785714 C24.1178571,34.1785714 24.3214286,34.3821429 24.3214286,34.6285714 L24.3214286,35.9678571 C24.3321429,36.2196429 24.1339286,36.4232143 23.8821429,36.4232143 L20.4910714,36.4232143 L20.4910714,39.0964286 C20.4910714,39.3428571 20.2875,39.5464286 20.0410714,39.5464286 L17.7,39.5464286 C17.4535714,39.5464286 17.25,39.3428571 17.25,39.0964286 L17.25,36.4232143 L13.875,36.4232143 C13.6285714,36.4232143 13.425,36.2196429 13.425,35.9732143 L13.425,34.6285714 C13.425,34.3821429 13.6285714,34.1785714 13.875,34.1785714 L17.25,34.1785714 L17.25,32.6464286 L13.875,32.6464286 C13.6285714,32.6464286 13.425,32.4428571 13.425,32.1964286 L13.425,30.8517857 C13.425,30.6053571 13.6285714,30.4017857 13.875,30.4017857 L16.3071429,30.4017857 L11.625,21.7714286 C11.5679942,21.6663241 11.5551615,21.5428537 11.5893348,21.4282728 C11.623508,21.3136918 11.7018773,21.217422 11.8071429,21.1607143 C11.8767857,21.1285714 11.9464286,21.1071429 12.0160714,21.1071429 L14.6303571,21.1071429 C14.8017857,21.1071429 14.9571429,21.2035714 15.0321429,21.3535714 L18.8732143,28.9607143 L22.725,21.3589286 C22.8035921,21.2093094 22.9577957,21.1147313 23.1267857,21.1125 L23.1267857,21.1125 Z" fill="#2F88FF"></path>
  <polygon fill="#2F88FF" points="3.85714286 3.89464286 5.55535714 3.89464286 18.8571429 14.3196429 32.1589286 3.89464286 33.8571429 3.89464286 33.8571429 3.85714286 3.85714286 3.85714286"></polygon>
  <path d="M15.0321429,21.3535714 C14.9555746,21.2020736 14.8001044,21.1067185 14.6303571,21.1071414 L12.0160714,21.1071414 C11.9464286,21.1071414 11.8767857,21.1285714 11.8071429,21.1607143 C11.7018773,21.217422 11.623508,21.3136918 11.5893348,21.4282728 C11.5551615,21.5428537 11.5679942,21.6663241 11.625,21.7714286 L16.3071429,30.4017857 L13.875,30.4017857 C13.6285714,30.4017857 13.425,30.6053571 13.425,30.8517857 L13.425,32.1964286 C13.425,32.4428571 13.6285714,32.6464286 13.875,32.6464286 L17.25,32.6464286 L17.25,34.1785714 L13.875,34.1785714 C13.6285714,34.1785714 13.425,34.3821429 13.425,34.6285714 L13.425,35.9732143 C13.425,36.2196429 13.6285714,36.4232143 13.875,36.4232143 L17.25,36.4232143 L17.25,39.0964286 C17.25,39.3428571 17.4535714,39.5464286 17.7,39.5464286 L20.0410714,39.5464286 C20.2875,39.5464286 20.4910714,39.3428571 20.4910714,39.0964286 L20.4910714,36.4232143 L23.8821429,36.4232143 C24.1339286,36.4232143 24.3321429,36.2196429 24.3214286,35.9678571 L24.3214286,34.6285714 C24.3214286,34.3821429 24.1178571,34.1785714 23.8714286,34.1785714 L20.4803571,34.1785714 L20.4803571,32.6464286 L23.8714286,32.6464286 C24.1178571,32.6464286 24.3214286,32.4428571 24.3214286,32.1964286 L24.3214286,30.8517857 C24.3214286,30.6053571 24.1178571,30.4017857 23.8714286,30.4017857 L21.4125,30.4017857 L26.0839286,21.7767857 C26.1578201,21.6370608 26.1534813,21.4689128 26.0724822,21.3331846 C25.9914831,21.1974564 25.8455547,21.1138054 25.6875,21.1125 L23.1267857,21.1125 C22.9607143,21.1125 22.8053571,21.2089286 22.725,21.3589286 L18.8732143,28.9607143 L15.0321429,21.3535714 L15.0321429,21.3535714 Z" fill="#000"></path>
</svg>
