<svg width="48" height="48" viewBox="0 0 48 48" fill="none" xmlns="http://www.w3.org/2000/svg">
  <rect width="48" height="48" fill="white" fill-opacity="0.01"/>
  <path d="M41,0 L6.71428571,0 C5.76607143,0 5,0.766071429 5,1.71428571 L5,46.2857143 C5,47.2339286 5.76607143,48 6.71428571,48 L41,48 C41.9482143,48 42.7142857,47.2339286 42.7142857,46.2857143 L42.7142857,1.71428571 C42.7142857,0.766071429 41.9482143,0 41,0 Z M38.8571429,44.1428571 L8.85714286,44.1428571 L8.85714286,6.91607143 L22.8017857,17.85 C23.4232143,18.3375 24.2964286,18.3375 24.9178571,17.85 L38.8571429,6.91607143 L38.8571429,44.1428571 Z M38.8571429,3.89464286 L37.1589286,3.89464286 L23.8571429,14.3196429 L10.5553571,3.89464286 L8.85714286,3.89464286 L8.85714286,3.85714286 L38.8571429,3.85714286 L38.8571429,3.89464286 L38.8571429,3.89464286 Z" fill="#000"></path>
  <path d="M22.8017857,17.85 L8.85714286,6.91607143 L8.85714286,44.1428571 L38.8571429,44.1428571 L38.8571429,6.91607143 L24.9178571,17.85 C24.2967226,18.3374711 23.4229203,18.3374711 22.8017857,17.85 Z M28.1267857,21.1125 L30.6875,21.1125 C30.8455547,21.1138054 30.9914831,21.1974564 31.0724822,21.3331846 C31.1534813,21.4689128 31.1578201,21.6370608 31.0839286,21.7767857 L26.4125,30.4017857 L28.8714286,30.4017857 C29.1178571,30.4017857 29.3214286,30.6053571 29.3214286,30.8517857 L29.3214286,32.1964286 C29.3214286,32.4428571 29.1178571,32.6464286 28.8714286,32.6464286 L25.4803571,32.6464286 L25.4803571,34.1785714 L28.8714286,34.1785714 C29.1178571,34.1785714 29.3214286,34.3821429 29.3214286,34.6285714 L29.3214286,35.9678571 C29.3321429,36.2196429 29.1339286,36.4232143 28.8821429,36.4232143 L25.4910714,36.4232143 L25.4910714,39.0964286 C25.4910714,39.3428571 25.2875,39.5464286 25.0410714,39.5464286 L22.7,39.5464286 C22.4535714,39.5464286 22.25,39.3428571 22.25,39.0964286 L22.25,36.4232143 L18.875,36.4232143 C18.6285714,36.4232143 18.425,36.2196429 18.425,35.9732143 L18.425,34.6285714 C18.425,34.3821429 18.6285714,34.1785714 18.875,34.1785714 L22.25,34.1785714 L22.25,32.6464286 L18.875,32.6464286 C18.6285714,32.6464286 18.425,32.4428571 18.425,32.1964286 L18.425,30.8517857 C18.425,30.6053571 18.6285714,30.4017857 18.875,30.4017857 L21.3071429,30.4017857 L16.625,21.7714286 C16.5679942,21.6663241 16.5551615,21.5428537 16.5893348,21.4282728 C16.623508,21.3136918 16.7018773,21.217422 16.8071429,21.1607143 C16.8767857,21.1285714 16.9464286,21.1071429 17.0160714,21.1071429 L19.6303571,21.1071429 C19.8017857,21.1071429 19.9571429,21.2035714 20.0321429,21.3535714 L23.8732143,28.9607143 L27.725,21.3589286 C27.8035921,21.2093094 27.9577957,21.1147313 28.1267857,21.1125 L28.1267857,21.1125 Z" fill="#2F88FF"></path>
  <polygon fill="#2F88FF" points="8.85714286 3.89464286 10.5553571 3.89464286 23.8571429 14.3196429 37.1589286 3.89464286 38.8571429 3.89464286 38.8571429 3.85714286 8.85714286 3.85714286"></polygon>
  <path d="M20.0321429,21.3535714 C19.9555746,21.2020736 19.8001044,21.1067185 19.6303571,21.10714 L17.0160714,21.10714 C16.9464286,21.10714 16.8767857,21.1285714 16.8071429,21.1607143 C16.7018773,21.217422 16.623508,21.3136918 16.5893348,21.4282728 C16.5551615,21.5428537 16.5679942,21.6663241 16.625,21.7714286 L21.3071429,30.4017857 L18.875,30.4017857 C18.6285714,30.4017857 18.425,30.6053571 18.425,30.8517857 L18.425,32.1964286 C18.425,32.4428571 18.6285714,32.6464286 18.875,32.6464286 L22.25,32.6464286 L22.25,34.1785714 L18.875,34.1785714 C18.6285714,34.1785714 18.425,34.3821429 18.425,34.6285714 L18.425,35.9732143 C18.425,36.2196429 18.6285714,36.4232143 18.875,36.4232143 L22.25,36.4232143 L22.25,39.0964286 C22.25,39.3428571 22.4535714,39.5464286 22.7,39.5464286 L25.0410714,39.5464286 C25.2875,39.5464286 25.4910714,39.3428571 25.4910714,39.0964286 L25.4910714,36.4232143 L28.8821429,36.4232143 C29.1339286,36.4232143 29.3321429,36.2196429 29.3214286,35.9678571 L29.3214286,34.6285714 C29.3214286,34.3821429 29.1178571,34.1785714 28.8714286,34.1785714 L25.4803571,34.1785714 L25.4803571,32.6464286 L28.8714286,32.6464286 C29.1178571,32.6464286 29.3214286,32.4428571 29.3214286,32.1964286 L29.3214286,30.8517857 C29.3214286,30.6053571 29.1178571,30.4017857 28.8714286,30.4017857 L26.4125,30.4017857 L31.0839286,21.7767857 C31.1578201,21.6370608 31.1534813,21.4689128 31.0724822,21.3331846 C30.9914831,21.1974564 30.8455547,21.1138054 30.6875,21.1125 L28.1267857,21.1125 C27.9607143,21.1125 27.8053571,21.2089286 27.725,21.3589286 L23.8732143,28.9607143 L20.0321429,21.3535714 L20.0321429,21.3535714 Z" fill="#FFFFFF"></path>
</svg>
