<svg width="48" height="48" viewBox="0 0 48 48" fill="none" xmlns="http://www.w3.org/2000/svg">
  <rect width="48" height="48" fill="white" fill-opacity="0.01"/>
  <path fill="#000" d="M47.4636872,20.8576976 L42.0335196,20.8576976 C41.7251397,20.8576976 41.4301676,20.990846 41.2223464,21.2238558 L26.547486,38.020527 L26.547486,0.53259362 C26.547486,0.239667129 26.3061453,0 26.0111732,0 L21.9888268,0 C21.6938547,0 21.452514,0.239667129 21.452514,0.53259362 L21.452514,38.020527 L6.77765363,21.2238558 C6.57653631,20.990846 6.28156425,20.8576976 5.96648045,20.8576976 L0.536312849,20.8576976 C0.0804469274,20.8576976 -0.167597765,21.3969487 0.134078212,21.7364771 L22.3843575,47.2011096 C22.7913171,47.6673399 23.3820361,47.9351778 24.003352,47.9351778 C24.6246678,47.9351778 25.2153868,47.6673399 25.6223464,47.2011096 L47.8659218,21.7364771 C48.1675978,21.3902913 47.9195531,20.8576976 47.4636872,20.8576976 Z"></path>
</svg>
