<?xml version="1.0" encoding="UTF-8"?>
<svg width="48" height="48" viewBox="0 0 48 48" fill="none" xmlns="http://www.w3.org/2000/svg">
  <rect width="48" height="48" fill="white" fill-opacity="0.01"/>
  <path fill="#000" d="M20,4.31460674 C20,6.69749825 21.9317152,8.62921348 24.3146067,8.62921348 C26.6974982,8.62921348 28.6292135,6.69749825 28.6292135,4.31460674 C28.6292135,1.93171524 26.6974982,0 24.3146067,0 C21.9317152,0 20,1.93171524 20,4.31460674 Z M26.4719101,15.6404494 L22.1573034,15.6404494 C21.8606742,15.6404494 21.6179775,15.8831461 21.6179775,16.1797753 L21.6179775,47.4606742 C21.6179775,47.7573034 21.8606742,48 22.1573034,48 L26.4719101,48 C26.7685393,48 27.011236,47.7573034 27.011236,47.4606742 L27.011236,16.1797753 C27.011236,15.8831461 26.7685393,15.6404494 26.4719101,15.6404494 Z"></path>
</svg>
