<?xml version="1.0" encoding="UTF-8"?>
<svg width="48" height="48" viewBox="0 0 48 48" fill="none" xmlns="http://www.w3.org/2000/svg">
  <rect width="48" height="48" fill="white" fill-opacity="0.01"/>
  <path fill="#000" d="M0,4.31460674 C0,6.69749825 1.93171524,8.62921348 4.31460674,8.62921348 C6.69749825,8.62921348 8.62921348,6.69749825 8.62921348,4.31460674 C8.62921348,1.93171524 6.69749825,0 4.31460674,0 C1.93171524,0 0,1.93171524 0,4.31460674 Z M6.47191011,15.6404494 L2.15730337,15.6404494 C1.86067416,15.6404494 1.61797753,15.8831461 1.61797753,16.1797753 L1.61797753,47.4606742 C1.61797753,47.7573034 1.86067416,48 2.15730337,48 L6.47191011,48 C6.76853933,48 7.01123596,47.7573034 7.01123596,47.4606742 L7.01123596,16.1797753 C7.01123596,15.8831461 6.76853933,15.6404494 6.47191011,15.6404494 Z"></path>
</svg>
