<?xml version="1.0" encoding="UTF-8"?>
<svg width="48" height="48" viewBox="0 0 48 48" fill="none" xmlns="http://www.w3.org/2000/svg">
  <rect width="48" height="48" fill="white" fill-opacity="0.01"/>
  <path fill="#000" d="M47.5384615,35.5384615 L13.8461538,35.5384615 C13.5923077,35.5384615 13.3846154,35.7461538 13.3846154,36 L13.3846154,39.2307692 C13.3846154,39.4846154 13.5923077,39.6923077 13.8461538,39.6923077 L47.5384615,39.6923077 C47.7923077,39.6923077 48,39.4846154 48,39.2307692 L48,36 C48,35.7461538 47.7923077,35.5384615 47.5384615,35.5384615 Z M47.5384615,2.76923077 L13.8461538,2.76923077 C13.5923077,2.76923077 13.3846154,2.97692308 13.3846154,3.23076923 L13.3846154,6.46153846 C13.3846154,6.71538462 13.5923077,6.92307692 13.8461538,6.92307692 L47.5384615,6.92307692 C47.7923077,6.92307692 48,6.71538462 48,6.46153846 L48,3.23076923 C48,2.97692308 47.7923077,2.76923077 47.5384615,2.76923077 Z M47.5384615,19.1538462 L13.8461538,19.1538462 C13.5923077,19.1538462 13.3846154,19.3615385 13.3846154,19.6153846 L13.3846154,22.8461538 C13.3846154,23.1 13.5923077,23.3076923 13.8461538,23.3076923 L47.5384615,23.3076923 C47.7923077,23.3076923 48,23.1 48,22.8461538 L48,19.6153846 C48,19.3615385 47.7923077,19.1538462 47.5384615,19.1538462 Z M6.92307692,32.7692308 L0.230769231,32.7692308 C0.103846154,32.7692308 0,32.8730769 0,33 L0,34.9615385 C0,35.0884615 0.103846154,35.1923077 0.230769231,35.1923077 L4.40769231,35.1923077 L4.40769231,36.375 L2.34807692,36.375 C2.22115385,36.375 2.11730769,36.4788462 2.11730769,36.6057692 L2.11730769,38.5673077 C2.11730769,38.6942308 2.22115385,38.7980769 2.34807692,38.7980769 L4.40769231,38.7980769 L4.40769231,40.0384615 L0.230769231,40.0384615 C0.103846154,40.0384615 0,40.1423077 0,40.2692308 L0,42.2307692 C0,42.3576923 0.103846154,42.4615385 0.230769231,42.4615385 L6.92307692,42.4615385 C7.05,42.4615385 7.15384615,42.3576923 7.15384615,42.2307692 L7.15384615,33 C7.15384615,32.8730769 7.05,32.7692308 6.92307692,32.7692308 Z M0.230769231,2.53846154 L2.42307692,2.53846154 L2.42307692,9.46153846 C2.42307692,9.58846154 2.52692308,9.69230769 2.65384615,9.69230769 L4.96153846,9.69230769 C5.08846154,9.69230769 5.19230769,9.58846154 5.19230769,9.46153846 L5.19230769,0.461538462 C5.19230769,0.207692308 4.98461538,0 4.73076923,0 L0.230769231,0 C0.103846154,0 0,0.103846154 0,0.230769231 L0,2.30769231 C0,2.43461538 0.103846154,2.53846154 0.230769231,2.53846154 Z M6.92307692,16.3846154 L0.230769231,16.3846154 C0.103846154,16.3846154 0,16.4884615 0,16.6153846 L0,18.6923077 C0,18.8192308 0.103846154,18.9230769 0.230769231,18.9230769 L4.17692308,18.9230769 L0.121153846,23.4057692 C0.0446577742,23.4916907 0.00165091848,23.6022798 0,23.7173077 L0,25.8461538 C0,25.9730769 0.103846154,26.0769231 0.230769231,26.0769231 L6.92307692,26.0769231 C7.05,26.0769231 7.15384615,25.9730769 7.15384615,25.8461538 L7.15384615,23.7692308 C7.15384615,23.6423077 7.05,23.5384615 6.92307692,23.5384615 L2.97692308,23.5384615 L7.03269231,19.0557692 C7.10918838,18.9698478 7.15219524,18.8592587 7.15384615,18.7442308 L7.15384615,16.6153846 C7.15384615,16.4884615 7.05,16.3846154 6.92307692,16.3846154 L6.92307692,16.3846154 Z"></path>
</svg>
