<svg width="48" height="48" viewBox="0 0 48 48" fill="none" xmlns="http://www.w3.org/2000/svg">
  <rect width="48" height="48" fill="white" fill-opacity="0.01"/>
  <path d="M35.52,12.48 C35.52,13.542 34.662,14.4 33.6,14.4 L14.4,14.4 C13.338,14.4 12.48,13.542 12.48,12.48 L12.48,4.32 L4.32,4.32 L4.32,43.68 L43.68,43.68 L43.68,13.788 L35.52,5.628 L35.52,12.48 Z M24,37.08 C19.23,37.08 15.36,33.21 15.36,28.44 C15.36,23.67 19.23,19.8 24,19.8 C28.77,19.8 32.64,23.67 32.64,28.44 C32.64,33.21 28.77,37.08 24,37.08 Z" fill="#2F88FF"></path>
  <path d="M24,19.8 C19.23,19.8 15.36,23.67 15.36,28.44 C15.36,33.21 19.23,37.08 24,37.08 C28.77,37.08 32.64,33.21 32.64,28.44 C32.64,23.67 28.77,19.8 24,19.8 Z M24,33.24 C21.348,33.24 19.2,31.092 19.2,28.44 C19.2,25.788 21.348,23.64 24,23.64 C26.652,23.64 28.8,25.788 28.8,28.44 C28.8,31.092 26.652,33.24 24,33.24 Z" fill="#000"></path>
  <path d="M46.878,10.878 L37.122,1.122 C37.08,1.08 37.038,1.044 36.996,1.002 C36.99,0.996 36.978,0.99 36.972,0.984 C36.93,0.942 36.882,0.906 36.84,0.87 C36.450242,0.551778237 36.0017431,0.313258334 35.52,0.168 L35.52,0 L1.92,0 C0.858,0 0,0.858 0,1.92 L0,46.08 C0,47.142 0.858,48 1.92,48 L46.08,48 C47.142,48 48,47.142 48,46.08 L48,13.59 C48,12.57 47.598,11.598 46.878,10.878 Z M16.32,4.32 L31.68,4.32 L31.68,10.56 L16.32,10.56 L16.32,4.32 Z M43.68,43.68 L4.32,43.68 L4.32,4.32 L12.48,4.32 L12.48,12.48 C12.48,13.542 13.338,14.4 14.4,14.4 L33.6,14.4 C34.662,14.4 35.52,13.542 35.52,12.48 L35.52,5.628 L43.68,13.788 L43.68,43.68 Z" fill="#000"></path>
</svg>
