<?xml version="1.0" encoding="UTF-8"?>
<svg width="48" height="48" viewBox="0 0 48 48" fill="none" xmlns="http://www.w3.org/2000/svg">
  <rect width="48" height="48" fill="white" fill-opacity="0.01"/>
  <path fill="#000" d="M38.772,42.9060226 C44.388,38.5140226 48,31.6740226 48,23.9940226 C48,10.7400226 37.29,0.0180225801 24.036,0 C10.764,-0.0179774199 0,10.7280226 0,23.9940226 C0,31.5060226 3.45,38.2080226 8.856,42.6060226 C9.066,42.7740226 9.372,42.7380226 9.54,42.5280226 L11.904,39.4980226 C12.066,39.2940226 12.03,39.0000226 11.832,38.8320226 C11.346,38.4360226 10.878,38.0100226 10.428,37.5600226 C8.67371841,35.8118196 7.27581676,33.7394202 6.312,31.4580226 C5.304,29.1000226 4.8,26.5860226 4.8,23.9940226 C4.8,21.4020226 5.304,18.8880226 6.306,16.5240226 C7.272,14.2380226 8.658,12.1860226 10.422,10.4220226 C12.186,8.65802258 14.238,7.27202258 16.524,6.30602258 C18.894,5.30402258 21.408,4.80002258 24,4.80002258 C26.592,4.80002258 29.106,5.30402258 31.47,6.30602258 C33.756,7.27202258 35.808,8.65802258 37.572,10.4220226 C39.336,12.1860226 40.722,14.2380226 41.688,16.5240226 C42.69,18.8880226 43.194,21.4020226 43.194,23.9940226 C43.194,26.5860226 42.69,29.1000226 41.688,31.4640226 C40.7241832,33.7454202 39.3262816,35.8178196 37.572,37.5660226 C37.014,38.1240226 36.426,38.6460226 35.814,39.1260226 L33.372,36.0000226 C33.2591812,35.8541827 33.072795,35.7858575 32.8924482,35.8242292 C32.7121014,35.8626008 32.5696749,36.0008862 32.526,36.1800226 L30.15,45.9120226 C30.078,46.2120226 30.306,46.5060226 30.612,46.5060226 L40.632,46.5540226 C41.034,46.5540226 41.262,46.0920226 41.01,45.7800226 L38.772,42.9060226 Z"></path>
</svg>
