<svg width="48" height="48" viewBox="0 0 48 48" fill="none" xmlns="http://www.w3.org/2000/svg">
  <rect width="48" height="48" fill="white" fill-opacity="0.01"/>
  <path d="M47.3690072,19.8373812 L47.3563356,19.7866948 L40.2475711,1.72333685 C39.9307812,0.703273495 38.9867474,0 37.9159977,0 L9.10079178,0 C8.02370625,0 7.06700086,0.71594509 6.7628826,1.74868004 L0.116631277,19.6282999 L0.0976238848,19.6726505 L0.0849522903,19.7233369 C0.002586926,20.0337909 -0.022756263,20.3505808 0.0215943178,20.6610348 C0.0152585205,20.7624076 0.00892272326,20.8637804 0.00892272326,20.9651531 L0.00892272326,44.1478353 C0.0124109096,46.2738806 1.73504215,47.9965118 3.86108745,48 L43.5992078,48 C45.7216999,48 47.4513726,46.2703273 47.4577084,44.1478353 L47.4577084,20.9651531 C47.4577084,20.8827878 47.4577084,20.8004224 47.4513726,20.7307286 C47.4767158,20.4202746 47.4513726,20.1224921 47.3690072,19.8373812 Z M28.6277189,17.1129884 L28.6087115,18.1077086 C28.5580252,20.9524815 26.593928,22.8658923 23.7238118,22.8658923 C22.3236007,22.8658923 21.1197992,22.4160507 20.251795,21.5607181 C19.3837907,20.7053854 18.9086059,19.5142555 18.8832627,18.1077086 L18.8642554,17.1129884 L5.8251846,17.1129884 L10.8621434,4.86589229 L36.1546461,4.86589229 L41.3309924,17.1129884 L28.6277189,17.1129884 L28.6277189,17.1129884 Z M4.86847922,21.9788807 L14.8346883,21.9788807 C16.374287,25.5966209 19.6498942,27.7317846 23.7301476,27.7317846 C25.8653113,27.7317846 27.8484159,27.1362196 29.4513726,26.0084477 C30.8579196,25.0200634 31.9540125,23.6388596 32.6636218,21.9788807 L42.5791445,21.9788807 L42.5791445,43.1341077 L4.86847922,43.1341077 L4.86847922,21.9788807 Z" fill="#000"></path>
</svg>
