<svg width="48" height="48" viewBox="0 0 48 48" fill="none" xmlns="http://www.w3.org/2000/svg">
  <rect width="48" height="48" fill="white" fill-opacity="0.01"/>
  <path d="M3.74311927,18.4954128 L14.7522936,18.4954128 L14.7522936,29.5045872 L3.74311927,29.5045872 L3.74311927,18.4954128 Z M18.4954128,3.74311927 L29.5045872,3.74311927 L29.5045872,14.7522936 L18.4954128,14.7522936 L18.4954128,3.74311927 Z" fill="#2F88FF"></path>
  <path d="M46.2385321,0 L16.5137615,0 C15.5394495,0 14.7522936,0.787155963 14.7522936,1.76146789 L14.7522936,14.7522936 L1.76146789,14.7522936 C0.787155963,14.7522936 0,15.5394495 0,16.5137615 L0,31.4862385 C0,32.4605505 0.787155963,33.2477064 1.76146789,33.2477064 L31.4862385,33.2477064 C32.4605505,33.2477064 33.2477064,32.4605505 33.2477064,31.4862385 L33.2477064,18.4954128 L46.2385321,18.4954128 C47.212844,18.4954128 48,17.7082569 48,16.733945 L48,1.76146789 C48,0.787155963 47.212844,0 46.2385321,0 Z M14.7522936,29.5045872 L3.74311927,29.5045872 L3.74311927,18.4954128 L14.7522936,18.4954128 L14.7522936,29.5045872 Z M29.5045872,29.5045872 L18.4954128,29.5045872 L18.4954128,18.4954128 L29.5045872,18.4954128 L29.5045872,29.5045872 Z M29.5045872,14.7522936 L18.4954128,14.7522936 L18.4954128,3.74311927 L29.5045872,3.74311927 L29.5045872,14.7522936 Z M44.2568807,14.7522936 L33.2477064,14.7522936 L33.2477064,3.74311927 L44.2568807,3.74311927 L44.2568807,14.7522936 Z" fill="#000"></path>
</svg>
