<svg width="48" height="48" viewBox="0 0 48 48" fill="none" xmlns="http://www.w3.org/2000/svg">
  <rect width="48" height="48" fill="white" fill-opacity="0.01"/>
  <path fill="#000" d="M48,17.2553571 C48,17.1375 48,17.0035714 47.9946429,16.8482143 C47.9892857,16.4142857 47.9785714,15.9267857 47.9678571,15.4071429 C47.925,13.9125 47.85,12.4232143 47.7321429,11.0196429 C47.5714286,9.08571429 47.3357143,7.47321429 47.0142857,6.2625 C46.3239955,3.69122129 44.3180847,1.68122927 41.7482143,0.985714286 C40.2321429,0.578571429 37.2642857,0.326785714 33.0857143,0.171428571 C31.0982143,0.0964285714 28.9714286,0.0482142857 26.8446429,0.0214285714 C26.1,0.0107142857 25.4089286,0.00535714286 24.7875,0 L23.2125,0 C22.5910714,0.00535714286 21.9,0.0107142857 21.1553571,0.0214285714 C19.0285714,0.0482142857 16.9017857,0.0964285714 14.9142857,0.171428571 C10.7357143,0.332142857 7.7625,0.583928571 6.25178571,0.985714286 C3.68094523,1.67955513 1.67432841,3.69025458 0.985714286,6.2625 C0.658928571,7.47321429 0.428571429,9.08571429 0.267857143,11.0196429 C0.15,12.4232143 0.075,13.9125 0.0321428571,15.4071429 C0.0160714286,15.9267857 0.0107142857,16.4142857 0.00535714286,16.8482143 C0.00535714286,17.0035714 0,17.1375 0,17.2553571 L0,17.5553571 C0,17.6732143 0,17.8071429 0.00535714286,17.9625 C0.0107142857,18.3964286 0.0214285714,18.8839286 0.0321428571,19.4035714 C0.075,20.8982143 0.15,22.3875 0.267857143,23.7910714 C0.428571429,25.725 0.664285714,27.3375 0.985714286,28.5482143 C1.67142857,31.1142857 3.68571429,33.1392857 6.25178571,33.825 C7.7625,34.2321429 10.7357143,34.4839286 14.9142857,34.6392857 C16.9017857,34.7142857 19.0285714,34.7625 21.1553571,34.7892857 C21.9,34.8 22.5910714,34.8053571 23.2125,34.8107143 L24.7875,34.8107143 C25.4089286,34.8053571 26.1,34.8 26.8446429,34.7892857 C28.9714286,34.7625 31.0982143,34.7142857 33.0857143,34.6392857 C37.2642857,34.4785714 40.2375,34.2267857 41.7482143,33.825 C44.3142857,33.1392857 46.3285714,31.1196429 47.0142857,28.5482143 C47.3410714,27.3375 47.5714286,25.725 47.7321429,23.7910714 C47.85,22.3875 47.925,20.8982143 47.9678571,19.4035714 C47.9839286,18.8839286 47.9892857,18.3964286 47.9946429,17.9625 C47.9946429,17.8071429 48,17.6732143 48,17.5553571 L48,17.2553571 Z M44.1428571,17.5339286 C44.1428571,17.6464286 44.1428571,17.7696429 44.1375,17.9142857 C44.1321429,18.3321429 44.1214286,18.7928571 44.1107143,19.2910714 C44.0732143,20.7160714 43.9982143,22.1410714 43.8857143,23.4642857 C43.7410714,25.1892857 43.5375,26.6035714 43.2857143,27.5517857 C42.9535714,28.7892857 41.9785714,29.7696429 40.7464286,30.0964286 C39.6214286,30.3964286 36.7875,30.6375 32.9357143,30.7821429 C30.9857143,30.8571429 28.8857143,30.9053571 26.7910714,30.9321429 C26.0571429,30.9428571 25.3767857,30.9482143 24.7660714,30.9482143 L23.2339286,30.9482143 L21.2089286,30.9321429 C19.1142857,30.9053571 17.0196429,30.8571429 15.0642857,30.7821429 C11.2125,30.6321429 8.37321429,30.3964286 7.25357143,30.0964286 C6.02142857,29.7642857 5.04642857,28.7892857 4.71428571,27.5517857 C4.4625,26.6035714 4.25892857,25.1892857 4.11428571,23.4642857 C4.00178571,22.1410714 3.93214286,20.7160714 3.88928571,19.2910714 C3.87321429,18.7928571 3.86785714,18.3267857 3.8625,17.9142857 C3.8625,17.7696429 3.85714286,17.6410714 3.85714286,17.5339286 L3.85714286,17.2767857 C3.85714286,17.1642857 3.85714286,17.0410714 3.8625,16.8964286 C3.86785714,16.4785714 3.87857143,16.0178571 3.88928571,15.5196429 C3.92678571,14.0946429 4.00178571,12.6696429 4.11428571,11.3464286 C4.25892857,9.62142857 4.4625,8.20714286 4.71428571,7.25892857 C5.04642857,6.02142857 6.02142857,5.04107143 7.25357143,4.71428571 C8.37857143,4.41428571 11.2125,4.17321429 15.0642857,4.02857143 C17.0142857,3.95357143 19.1142857,3.90535714 21.2089286,3.87857143 C21.9428571,3.86785714 22.6232143,3.8625 23.2339286,3.8625 L24.7660714,3.8625 L26.7910714,3.87857143 C28.8857143,3.90535714 30.9803571,3.95357143 32.9357143,4.02857143 C36.7875,4.17857143 39.6267857,4.41428571 40.7464286,4.71428571 C41.9785714,5.04642857 42.9535714,6.02142857 43.2857143,7.25892857 C43.5375,8.20714286 43.7410714,9.62142857 43.8857143,11.3464286 C43.9982143,12.6696429 44.0678571,14.0946429 44.1107143,15.5196429 C44.1267857,16.0178571 44.1321429,16.4839286 44.1375,16.8964286 C44.1375,17.0410714 44.1428571,17.1696429 44.1428571,17.2767857 L44.1428571,17.5339286 Z M19.2321429,24.5839286 L31.6607143,17.3517857 L19.2321429,10.2267857 L19.2321429,24.5839286 Z"></path>
</svg>
