<svg width="48" height="48" viewBox="0 0 48 48" fill="none" xmlns="http://www.w3.org/2000/svg">
  <rect width="48" height="48" fill="white" fill-opacity="0.01"/>
  <path fill="#000" d="M47.4155539,21.4382022 L9.30863392,21.4382022 L32.116775,0.943820225 C32.4814969,0.613483146 32.2600586,0 31.7781047,0 L26.014197,0 C25.7601943,0 25.5192174,0.0943820225 25.3303436,0.262921348 L0.718131883,22.3685393 C0.262023233,22.7777852 0,23.3718229 0,23.9966292 C0,24.6214356 0.262023233,25.2154732 0.718131883,25.6247191 L25.4736271,47.8651685 C25.5713205,47.952809 25.6885525,48 25.8122974,48 L31.7715919,48 C32.2535457,48 32.474984,47.3797753 32.1102621,47.0561798 L9.30863392,26.5617978 L47.4155539,26.5617978 C47.702121,26.5617978 47.9365851,26.3191011 47.9365851,26.0224719 L47.9365851,21.9775281 C47.9365851,21.6808989 47.702121,21.4382022 47.4155539,21.4382022 Z"></path>
</svg>
