<?xml version="1.0" encoding="UTF-8"?>
<svg width="48" height="48" viewBox="0 0 48 48" fill="none" xmlns="http://www.w3.org/2000/svg">
  <rect width="48" height="48" fill="white" fill-opacity="0.01"/>
  <path fill="#000" d="M6.10909091,25.1556818 L32.2363636,45.6797727 C33.2079545,46.4434091 34.6363636,45.7547727 34.6363636,44.5240909 L34.6363636,3.47522727 C34.6363636,2.24454545 33.2079545,1.55659091 32.2363636,2.32022727 L6.10909091,22.8443182 C5.75382946,23.122564 5.54628281,23.5487446 5.54628281,24 C5.54628281,24.4512554 5.75382946,24.877436 6.10909091,25.1556818 M4.90909091,48 L0.545454545,48 C0.244208318,48 0,47.7557917 0,47.4545455 L0,0.545454545 C0,0.244208318 0.244208318,0 0.545454545,0 L4.90909091,0 C5.21033714,0 5.45454545,0.244208318 5.45454545,0.545454545 L5.45454545,47.4545455 C5.45454545,47.7557917 5.21033714,48 4.90909091,48"></path>
</svg>
